<svg width="1200" height="146" viewBox="0 0 1200 146" fill="none" xmlns="http://www.w3.org/2000/svg">
<mask id="mask0_77_410" style="mask-type:alpha" maskUnits="userSpaceOnUse" x="0" y="0" width="1200" height="146">
<rect width="1200" height="146" fill="#24293D"/>
</mask>
<g mask="url(#mask0_77_410)">
<rect width="1200" height="146" fill="#24293D"/>
<path d="M2328.25 -1270.56H6.48486V1591.93H2328.25V-1270.56Z" fill="url(#paint0_radial_77_410)"/>
<g style="mix-blend-mode:multiply" opacity="0.8">
<path d="M2151.63 -1143.63C1951.09 -1040.6 1750.55 -937.595 1550 -834.625C1349.46 -731.655 1148.91 -628.652 948.368 -525.616L346.735 -216.607C153.807 -117.513 84.6148 -81.9306 -19.5884 -28.4579V0.266367C89.3136 -55.6912 156.986 -90.4784 354.981 -192.156C555.525 -295.192 756.07 -398.195 956.614 -501.165L1558.25 -810.174C1758.79 -913.211 1959.34 -1016.21 2159.88 -1119.18C2245.2 -1163.02 2306.33 -1194.42 2356.95 -1220.46V-1249.19C2304.67 -1222.35 2241.6 -1189.95 2151.59 -1143.73L2151.63 -1143.63Z" fill="url(#paint1_linear_77_410)"/>
<path d="M2159.88 -1119.18C1959.34 -1016.15 1758.79 -913.145 1558.25 -810.175L956.614 -501.166C756.07 -398.13 555.525 -295.127 354.981 -192.157C156.986 -90.4793 89.3136 -55.6922 -19.5884 0.265432V28.9897C94.2889 -29.4527 160.303 -63.4447 363.273 -167.607C563.817 -270.644 764.362 -373.647 964.906 -476.616C1165.45 -579.586 1365.99 -682.59 1566.54 -785.626L2168.17 -1094.63C2248.93 -1136.08 2307.98 -1166.4 2357 -1191.64V-1220.37C2306.33 -1194.32 2245.24 -1162.92 2159.93 -1119.09L2159.88 -1119.18Z" fill="url(#paint2_linear_77_410)"/>
<path d="M2168.17 -1094.73L1566.54 -785.725C1365.99 -682.689 1165.45 -579.686 964.906 -476.716C764.362 -373.746 563.817 -270.743 363.273 -167.707C160.303 -63.4447 94.2889 -29.552 -19.5884 28.8904V57.6147C99.4483 -3.51131 163.712 -36.5095 371.519 -143.256C572.063 -246.292 772.608 -349.295 973.152 -452.265C1173.7 -555.302 1374.24 -658.305 1574.78 -761.274L2176.42 -1070.28C2252.66 -1109.44 2309.6 -1138.67 2357 -1163.02V-1191.74C2307.98 -1166.59 2248.93 -1136.18 2168.17 -1094.73Z" fill="url(#paint3_linear_77_410)"/>
<path d="M2176.42 -1070.28L1574.78 -761.274C1374.24 -658.238 1173.7 -555.235 973.152 -452.265C772.608 -349.295 572.063 -246.292 371.519 -143.256C163.712 -36.5091 99.4483 -3.51092 -19.5884 57.615V86.3393C104.838 22.4303 167.213 -9.57383 379.811 -118.805L981.444 -427.815C1181.99 -530.851 1382.53 -633.854 1583.08 -736.824C1783.62 -839.86 1984.17 -942.863 2184.71 -1045.83C2256.57 -1082.71 2311.3 -1110.84 2357 -1134.29V-1163.02C2309.6 -1138.66 2252.7 -1109.44 2176.42 -1070.28Z" fill="url(#paint4_linear_77_410)"/>
<path d="M2184.66 -1045.73C1984.12 -942.698 1783.57 -839.695 1583.03 -736.725C1382.49 -633.755 1181.94 -530.752 981.398 -427.715L379.765 -118.706C167.212 -9.57422 104.838 22.5293 -19.6348 86.4383V115.162C110.412 48.3712 170.806 17.3609 388.011 -94.2561C588.555 -197.292 789.099 -300.295 989.644 -403.265C1190.19 -506.301 1390.73 -609.304 1591.28 -712.274L2192.91 -1021.28C2260.54 -1055.97 2312.91 -1082.91 2356.95 -1105.57V-1134.29C2311.21 -1110.84 2256.53 -1082.71 2184.66 -1045.83V-1045.73Z" fill="url(#paint5_linear_77_410)"/>
<path d="M2192.96 -1021.28L1591.32 -712.274C1390.78 -609.238 1190.23 -506.235 989.69 -403.265C789.146 -300.295 588.601 -197.292 388.057 -94.2559C170.852 17.3611 110.458 48.3714 -19.5884 115.163V143.887C116.263 74.1139 174.537 44.1969 396.303 -69.7061C596.847 -172.742 797.392 -275.745 997.936 -378.715C1198.48 -481.751 1399.02 -584.754 1599.57 -687.724C1800.11 -790.76 2000.66 -893.763 2201.2 -996.733C2264.64 -1029.33 2314.66 -1054.98 2357 -1076.74V-1105.47C2312.96 -1082.81 2260.58 -1055.97 2192.96 -1021.18V-1021.28Z" fill="url(#paint6_linear_77_410)"/>
<path d="M2201.2 -996.833C2000.66 -893.796 1800.11 -790.793 1599.57 -687.823C1399.02 -584.853 1198.48 -481.85 997.936 -378.814C797.392 -275.778 596.847 -172.775 396.303 -69.805C174.537 44.098 116.263 74.015 -19.5884 143.788V172.512C122.251 99.658 178.361 70.8344 404.595 -45.3546C605.139 -148.391 805.684 -251.394 1006.23 -354.364C1206.77 -457.4 1407.32 -560.403 1607.86 -663.373C1808.41 -766.409 2008.95 -869.412 2209.49 -972.382C2268.83 -1002.9 2316.46 -1027.35 2357 -1048.12V-1076.84C2314.66 -1055.08 2264.64 -1029.43 2201.2 -996.833Z" fill="url(#paint7_linear_77_410)"/>
<path d="M2209.49 -972.382C2008.95 -869.346 1808.41 -766.343 1607.86 -663.373C1407.32 -560.403 1206.77 -457.4 1006.23 -354.364C805.684 -251.328 605.139 -148.325 404.595 -45.3549C178.361 70.8341 122.251 99.6578 -19.5884 172.512V201.236C128.424 125.201 182.277 97.5705 412.841 -20.9046C613.385 -123.941 813.93 -226.944 1014.47 -329.914C1215.02 -432.95 1415.56 -535.953 1616.11 -638.923C1816.65 -741.959 2017.2 -844.962 2217.74 -947.932C2273.11 -976.358 2318.26 -999.516 2357 -1019.49V-1048.22C2316.46 -1027.35 2268.83 -1002.9 2209.49 -972.482V-972.382Z" fill="url(#paint8_linear_77_410)"/>
<path d="M2217.74 -947.932C2017.2 -844.896 1816.65 -741.892 1616.11 -638.922C1415.56 -535.953 1215.02 -432.95 1014.47 -329.913C813.93 -226.877 613.385 -123.874 412.841 -20.9043C182.277 97.4713 128.424 125.202 -19.5884 201.236V229.961C134.782 150.646 186.284 124.208 421.087 3.64548L1022.72 -305.364C1223.26 -408.4 1423.81 -511.403 1624.35 -614.373C1824.9 -717.409 2025.44 -820.412 2225.99 -923.382C2277.44 -949.82 2320.1 -971.686 2357 -990.67V-1019.39C2318.26 -999.516 2273.11 -976.258 2217.74 -947.832V-947.932Z" fill="url(#paint9_linear_77_410)"/>
<path d="M2225.99 -923.481C2025.44 -820.445 1824.9 -717.442 1624.35 -614.472C1423.81 -511.502 1223.26 -408.499 1022.72 -305.463L421.087 3.5464C186.284 124.109 134.736 150.646 -19.5884 229.862V258.586C141.277 175.991 190.43 150.746 429.379 27.9967C629.923 -75.0395 830.468 -178.042 1031.01 -281.012C1231.56 -384.049 1432.1 -487.052 1632.64 -590.021C1833.19 -693.058 2033.73 -796.061 2234.28 -899.031C2281.96 -923.481 2322.04 -944.155 2357 -962.045V-990.769C2320.15 -971.785 2277.49 -949.919 2225.99 -923.481Z" fill="url(#paint10_linear_77_410)"/>
<path d="M2234.28 -898.931C2033.73 -795.895 1833.19 -692.892 1632.64 -589.922C1432.1 -486.952 1231.56 -383.949 1031.01 -280.913C830.468 -177.876 629.923 -74.8732 429.379 28.0967C190.43 150.846 141.277 176.091 -19.5884 258.686V287.41C147.911 201.336 194.668 177.383 437.625 52.547L1039.26 -256.462C1239.8 -359.498 1440.35 -462.501 1640.89 -565.471C1841.44 -668.507 2041.98 -771.511 2242.52 -874.481C2286.47 -897.042 2324.02 -916.324 2357 -933.32V-962.045C2322.04 -944.055 2281.96 -923.481 2234.28 -899.03V-898.931Z" fill="url(#paint11_linear_77_410)"/>
<path d="M2242.52 -874.482C2041.98 -771.446 1841.44 -668.443 1640.89 -565.473C1440.35 -462.503 1239.8 -359.5 1039.26 -256.464L437.625 52.5455C194.668 177.382 147.911 201.335 -19.5884 287.408V316.133C154.682 226.581 198.953 203.919 445.871 77.0953C646.415 -25.9408 846.96 -128.944 1047.5 -231.914L1649.14 -540.923C1849.68 -643.959 2050.23 -746.962 2250.77 -849.932C2291.12 -870.606 2326 -888.595 2357 -904.498V-933.222C2324.02 -916.326 2286.52 -897.044 2242.52 -874.382V-874.482Z" fill="url(#paint12_linear_77_410)"/>
<path d="M2250.77 -850.031C2050.23 -746.995 1849.68 -643.992 1649.14 -541.022L1047.5 -232.013C846.96 -128.977 646.415 -25.9735 445.871 76.9964C198.953 203.82 154.682 226.581 -19.5884 316.034V344.758C161.639 251.727 203.375 230.258 454.163 101.447L1055.8 -207.562C1256.34 -310.599 1456.88 -413.602 1657.43 -516.571C1857.97 -619.541 2058.52 -722.544 2259.06 -825.581C2295.87 -844.465 2328.12 -861.064 2357 -875.873V-904.597C2326.04 -888.694 2291.12 -870.804 2250.77 -850.031Z" fill="url(#paint13_linear_77_410)"/>
<path d="M2259.06 -825.581C2058.52 -722.545 1857.97 -619.542 1657.43 -516.572C1456.88 -413.602 1256.34 -310.599 1055.8 -207.563L454.163 101.446C203.375 230.258 161.639 251.727 -19.5884 344.758V373.482C168.687 276.774 207.89 256.697 462.409 125.897C662.953 22.8607 863.498 -80.1423 1064.04 -183.112C1264.59 -286.148 1465.13 -389.152 1665.67 -492.121L2267.31 -801.13C2300.61 -818.226 2330.24 -833.433 2357 -847.149V-875.873C2328.12 -861.064 2295.82 -844.465 2259.06 -825.581Z" fill="url(#paint14_linear_77_410)"/>
<path d="M2267.31 -801.13L1665.67 -492.121C1465.13 -389.085 1264.59 -286.082 1064.04 -183.112C863.498 -80.142 662.953 22.861 462.409 125.897C207.844 256.597 168.687 276.774 -19.5884 373.482V402.206C175.873 301.821 212.45 283.036 470.655 150.447C671.199 47.4108 871.744 -55.5922 1072.29 -158.562L1673.92 -467.571C1874.47 -570.608 2075.01 -673.611 2275.55 -776.58C2305.5 -791.986 2332.4 -805.802 2356.95 -818.424V-847.149C2330.19 -833.433 2300.57 -818.226 2267.26 -801.13H2267.31Z" fill="url(#paint15_linear_77_410)"/>
<path d="M2275.55 -776.58C2075.01 -673.544 1874.47 -570.541 1673.92 -467.571L1072.29 -158.562C871.744 -55.5258 671.199 47.4772 470.655 150.447C212.404 283.036 175.873 301.821 -19.5884 402.207V430.931C183.152 326.768 217.103 309.374 478.947 174.897C679.491 71.8612 880.036 -31.1418 1080.58 -134.112C1281.12 -237.082 1481.67 -340.085 1682.21 -443.121C1882.76 -546.157 2083.3 -649.16 2283.85 -752.13C2310.47 -765.846 2334.7 -778.27 2357 -789.7V-818.424C2332.45 -805.801 2305.5 -791.986 2275.6 -776.58H2275.55Z" fill="url(#paint16_linear_77_410)"/>
<path d="M2283.85 -752.13C2083.3 -649.093 1882.76 -546.09 1682.21 -443.121C1481.67 -340.151 1281.12 -237.148 1080.58 -134.111C880.036 -31.0753 679.491 71.9277 478.947 174.898C217.149 309.375 183.152 326.868 -19.5884 430.931V459.655C190.522 351.716 221.848 335.614 487.193 199.348C687.737 96.3119 888.282 -6.6911 1088.83 -109.661C1289.37 -212.697 1489.91 -315.7 1690.46 -418.67L2292.09 -727.679C2315.45 -739.706 2336.96 -750.738 2357 -760.975V-789.7C2334.66 -778.27 2310.47 -765.746 2283.85 -752.13Z" fill="url(#paint17_linear_77_410)"/>
<path d="M2292.09 -727.679L1690.46 -418.67C1489.91 -315.634 1289.37 -212.631 1088.83 -109.661C888.282 -6.69113 687.737 96.3119 487.193 199.348C221.848 335.614 190.522 351.716 -19.5884 459.655V488.379C198.031 376.564 226.685 361.854 495.485 223.798C696.029 120.762 896.574 17.7592 1097.12 -85.2107L1698.75 -394.22C1899.3 -497.256 2099.84 -600.259 2300.38 -703.229C2320.56 -713.566 2339.36 -723.207 2357 -732.351V-761.075C2337.01 -750.838 2315.45 -739.706 2292.09 -727.779V-727.679Z" fill="url(#paint18_linear_77_410)"/>
<path d="M2300.34 -703.229C2099.79 -600.193 1899.25 -497.19 1698.7 -394.22L1097.07 -85.2112C896.527 17.825 695.983 120.828 495.439 223.798C226.639 361.853 197.985 376.563 -19.6348 488.379V517.103C205.586 401.411 231.522 388.093 503.685 248.348C704.229 145.312 904.773 42.3085 1105.32 -60.6614C1305.86 -163.631 1506.41 -266.634 1706.95 -369.67C1907.49 -472.707 2108.04 -575.71 2308.58 -678.68C2325.67 -687.426 2341.71 -695.676 2356.95 -703.527V-732.252C2339.31 -723.207 2320.51 -713.566 2300.34 -703.13V-703.229Z" fill="url(#paint19_linear_77_410)"/>
<path d="M2308.63 -678.779C2108.09 -575.743 1907.54 -472.74 1707 -369.77C1506.45 -266.8 1305.91 -163.797 1105.36 -60.7608C904.82 42.2754 704.275 145.279 503.731 248.248C231.568 387.993 205.632 401.312 -19.5884 517.004V545.728C213.28 426.16 236.543 414.133 511.977 272.699C712.521 169.663 913.066 66.6594 1113.61 -36.3105C1314.15 -139.347 1514.7 -242.35 1715.24 -345.32C1915.79 -448.356 2116.33 -551.359 2316.88 -654.329C2330.88 -661.485 2344.24 -668.343 2357 -674.903V-703.627C2341.75 -695.775 2325.72 -687.526 2308.63 -678.779Z" fill="url(#paint20_linear_77_410)"/>
<path d="M2316.88 -654.328C2116.33 -551.292 1915.79 -448.289 1715.24 -345.319C1514.7 -242.349 1314.15 -139.346 1113.61 -36.3102C913.066 66.726 712.521 169.729 511.977 272.699C236.543 414.134 213.233 426.16 -19.5884 545.728V574.452C221.019 450.908 241.611 440.274 520.269 297.149C720.813 194.113 921.358 91.1102 1121.9 -11.8598L1723.53 -320.869C1924.08 -423.905 2124.62 -526.908 2325.17 -629.878C2336.18 -635.543 2346.77 -641.01 2357 -646.278V-675.002C2344.24 -668.442 2330.88 -661.584 2316.88 -654.428V-654.328Z" fill="url(#paint21_linear_77_410)"/>
<path d="M2325.17 -629.779C2124.62 -526.743 1924.08 -423.74 1723.53 -320.77L1121.9 -11.7607C921.358 91.2755 720.813 194.279 520.269 297.249C241.611 440.373 221.065 450.908 -19.5884 574.552V603.276C228.896 475.657 246.678 466.513 528.515 321.798C729.059 218.762 929.604 115.759 1130.15 12.7891C1330.69 -90.1808 1531.24 -193.184 1731.78 -296.22C1932.33 -399.256 2132.87 -502.259 2333.41 -605.229C2341.52 -609.404 2349.35 -613.379 2357 -617.355V-646.079C2346.77 -640.811 2336.18 -635.345 2325.17 -629.68V-629.779Z" fill="url(#paint22_linear_77_410)"/>
<path d="M2333.41 -605.329C2132.87 -502.293 1932.33 -399.289 1731.78 -296.32C1531.24 -193.35 1330.69 -90.3466 1130.15 12.6895C929.604 115.726 729.059 218.729 528.515 321.699C246.678 466.413 228.896 475.557 -19.5884 603.176V631.9C236.774 500.206 251.884 492.454 536.761 346.149C737.305 243.113 937.85 140.11 1138.39 37.1398C1338.94 -65.8963 1539.48 -168.899 1740.03 -271.869C1940.57 -374.905 2141.12 -477.908 2341.66 -580.878C2346.87 -583.562 2351.93 -586.146 2357 -588.73V-617.455C2349.35 -613.479 2341.52 -609.503 2333.41 -605.329Z" fill="url(#paint23_linear_77_410)"/>
<path d="M2341.66 -580.878C2141.12 -477.842 1940.57 -374.839 1740.03 -271.869C1539.48 -168.899 1338.94 -65.896 1138.39 37.1402C937.85 140.176 737.305 243.179 536.761 346.149C251.884 492.454 236.728 500.207 -19.5884 631.901V660.625C244.743 524.856 257.089 518.495 545.053 370.6C745.597 267.564 946.142 164.561 1146.69 61.5907L1748.32 -247.418C1948.86 -350.455 2149.41 -453.458 2349.95 -556.428C2352.35 -557.62 2354.65 -558.813 2357 -560.006V-588.73C2351.98 -586.146 2346.87 -583.562 2341.66 -580.878Z" fill="url(#paint24_linear_77_410)"/>
<path d="M2349.95 -556.428C2149.41 -453.391 1948.86 -350.388 1748.32 -247.418L1146.69 61.5908C946.142 164.627 745.597 267.63 545.053 370.6C257.135 518.495 244.743 524.856 -19.5884 660.625V689.349C252.805 549.406 262.387 544.536 553.299 395.15C753.843 292.114 954.388 189.11 1154.93 86.1406C1355.48 -16.8293 1556.02 -119.832 1756.56 -222.869C1957.11 -325.905 2157.25 -428.709 2357 -531.281V-560.005C2354.65 -558.813 2352.35 -557.62 2349.95 -556.428Z" fill="url(#paint25_linear_77_410)"/>
<path d="M1756.56 -222.968C1556.02 -119.932 1355.48 -16.9288 1154.93 86.0411C954.388 189.011 753.843 292.014 553.299 395.05C262.387 544.436 252.805 549.406 -19.5884 689.25V717.974C260.867 573.955 267.73 570.377 561.545 419.501C762.089 316.464 962.633 213.461 1163.18 110.491L1764.81 -198.518C2062.45 -351.382 2065.63 -353.072 2357 -502.657V-531.381C2157.25 -428.809 1957.11 -326.004 1756.56 -222.968Z" fill="url(#paint26_linear_77_410)"/>
<path d="M1764.81 -198.518L1163.18 110.492C962.633 213.528 762.089 316.531 561.545 419.501C267.73 570.377 260.82 573.956 -19.5884 717.974V746.699C269.02 598.406 273.166 596.319 569.837 443.951C770.381 340.915 970.925 237.912 1171.47 134.942C1372.01 31.9721 1572.56 -71.031 1773.1 -174.067C2067.88 -325.441 2073.83 -328.522 2357 -473.932V-502.656C2065.67 -352.972 2062.45 -351.382 1764.81 -198.518Z" fill="url(#paint27_linear_77_410)"/>
<path d="M1773.1 -173.968C1572.56 -70.9317 1372.01 32.0713 1171.47 135.041C970.925 238.011 770.381 341.014 569.837 444.05C273.166 596.418 269.066 598.505 -19.5884 746.798V775.522C277.22 623.055 278.602 622.359 578.083 468.501C778.627 365.464 979.172 262.462 1179.72 159.492C1380.26 56.4555 1580.8 -46.5476 1781.35 -149.518C2073.23 -299.4 2081.94 -303.873 2357 -445.208V-473.932C2073.83 -328.522 2067.88 -325.441 1773.1 -174.067V-173.968Z" fill="url(#paint28_linear_77_410)"/>
<path d="M1781.35 -149.517C1580.8 -46.4811 1380.26 56.5221 1179.72 159.492C979.172 262.462 778.627 365.465 578.083 468.501C278.602 622.359 277.22 623.055 -19.5884 775.522V804.246C-18.1603 803.551 -16.7322 802.756 -15.3042 802.06C185.24 699.024 385.784 596.021 586.329 493.051C786.873 390.015 987.417 287.012 1187.96 184.042L1789.59 -124.967C2078.53 -273.359 2090 -279.223 2357 -416.384V-445.108C2081.94 -303.873 2073.23 -299.4 1781.35 -149.418V-149.517Z" fill="url(#paint29_linear_77_410)"/>
<path d="M1789.59 -125.067L1187.96 183.942C987.417 286.978 786.873 389.981 586.329 492.951C385.784 595.921 185.24 698.924 -15.3042 801.96C-16.7783 802.755 -18.1603 803.451 -19.5884 804.147V832.871C-15.4424 830.784 -11.2964 828.597 -7.01215 826.411C193.532 723.374 394.077 620.371 594.621 517.402C795.165 414.365 995.709 311.362 1196.25 208.392C1396.8 105.356 1597.34 2.35316 1797.89 -100.617C2083.82 -247.518 2098.01 -254.773 2357 -387.76V-416.484C2090 -279.323 2078.53 -273.459 1789.59 -125.067Z" fill="url(#paint30_linear_77_410)"/>
<path d="M1797.89 -100.617C1597.34 2.41929 1396.8 105.422 1196.25 208.392C995.709 311.362 795.165 414.365 594.621 517.401C394.077 620.438 193.532 723.441 -7.01215 826.411C-11.2503 828.597 -15.4424 830.784 -19.5884 832.871V861.595C-12.8166 858.117 -5.90654 854.538 1.23382 850.861C201.778 747.825 402.322 644.822 602.867 541.852L1204.5 232.843C1405.04 129.806 1605.59 26.8035 1806.13 -76.1664C2088.98 -221.477 2105.89 -230.124 2357 -359.135V-387.859C2097.97 -254.873 2083.82 -247.518 1797.89 -100.716V-100.617Z" fill="url(#paint31_linear_77_410)"/>
<path d="M1806.13 -76.1667C1605.59 26.8694 1405.04 129.872 1204.5 232.842L602.867 541.851C402.322 644.888 201.778 747.891 1.23382 850.86C-5.90654 854.538 -12.8166 858.017 -19.5884 861.595V890.319C-10.1907 885.548 -0.516718 880.579 9.47979 875.41C210.024 772.374 410.568 669.371 611.113 566.401L1212.75 257.392L1814.38 -51.617C2094.1 -195.238 2113.77 -205.376 2357 -330.312V-359.036C2105.94 -230.025 2088.98 -221.378 1806.13 -76.0674V-76.1667Z" fill="url(#paint32_linear_77_410)"/>
<path d="M1814.38 -51.7159L1212.75 257.293L611.113 566.302C410.568 669.339 210.024 772.342 9.47979 875.311C-0.562785 880.48 -10.2368 885.449 -19.5884 890.22V918.944C-7.65707 912.782 4.73492 906.421 17.7718 899.762L619.405 590.753C819.949 487.717 1020.49 384.713 1221.04 281.744C1421.58 178.774 1622.13 75.7705 1822.67 -27.2656C2099.21 -169.297 2121.55 -180.826 2357 -301.686V-330.411C2113.77 -205.475 2094.1 -195.436 1814.38 -51.7159Z" fill="url(#paint33_linear_77_410)"/>
<path d="M1822.67 -27.1661C1622.13 75.87 1421.58 178.873 1221.04 281.843C1020.49 384.813 819.949 487.816 619.405 590.852L17.7718 899.861C4.78098 906.521 -7.65707 912.882 -19.5884 919.044V947.768C-5.16946 940.314 9.98654 932.561 26.0178 924.312C226.562 821.276 427.106 718.273 627.651 615.303L1229.28 306.294C1429.83 203.257 1630.37 100.254 1830.92 -2.71569C2104.19 -143.057 2129.25 -155.978 2357 -272.962V-301.686C2121.55 -180.726 2099.16 -169.296 1822.67 -27.2655V-27.1661Z" fill="url(#paint34_linear_77_410)"/>
<path d="M1830.92 -2.71545C1630.37 100.321 1429.83 203.324 1229.28 306.294L627.651 615.303C427.106 718.339 226.562 821.342 26.0178 924.312C9.98654 932.561 -5.16946 940.314 -19.5884 947.768V976.493C-2.72791 967.846 15.146 958.602 34.2638 948.862C234.808 845.826 435.352 742.823 635.897 639.853C836.441 536.883 1036.99 433.88 1237.53 330.844C1438.07 227.807 1638.62 124.804 1839.16 21.8343C2109.07 -116.817 2136.85 -131.03 2356.95 -244.138V-272.862C2129.2 -155.878 2104.14 -143.057 1830.87 -2.61612L1830.92 -2.71545Z" fill="url(#paint35_linear_77_410)"/>
<path d="M1839.16 21.735C1638.62 124.771 1438.07 227.774 1237.53 330.744C1036.99 433.714 836.441 536.717 635.897 639.753C435.352 742.789 234.808 845.792 34.2638 948.762C15.146 958.602 -2.77398 967.746 -19.5884 976.393V1005.12C-0.33244 995.278 20.2594 984.643 42.5558 973.213C243.1 870.176 443.644 767.173 644.189 664.203C844.733 561.167 1045.28 458.164 1245.82 355.194C1446.37 252.158 1646.91 149.155 1847.45 46.1853C2113.95 -90.6772 2144.4 -106.282 2357 -215.513V-244.238C2136.89 -131.13 2109.11 -116.917 1839.21 21.735H1839.16Z" fill="url(#paint36_linear_77_410)"/>
<path d="M1847.45 46.1845C1646.91 149.221 1446.37 252.224 1245.82 355.194C1045.28 458.163 844.733 561.166 644.189 664.203C443.644 767.239 243.1 870.242 42.5558 973.212C20.2594 984.642 -0.33244 995.277 -19.5884 1005.12V1033.84C1.9709 1022.81 25.2807 1010.78 50.8018 997.662C251.346 894.626 451.89 791.623 652.435 688.653L1254.07 379.644C1454.61 276.608 1655.16 173.605 1855.7 70.6349C2118.7 -64.4385 2151.77 -81.4346 2357 -186.79V-215.514C2144.4 -106.283 2113.95 -90.678 1847.45 46.1845Z" fill="url(#paint37_linear_77_410)"/>
<path d="M1855.7 70.6351C1655.16 173.671 1454.61 276.674 1254.07 379.644L652.435 688.653C451.89 791.69 251.346 894.693 50.8018 997.662C25.2807 1010.78 1.9709 1022.71 -19.5884 1033.84V1062.57C4.22818 1050.34 30.256 1036.92 59.0938 1022.21C259.638 919.176 460.182 816.173 660.727 713.203C861.271 610.233 1061.82 507.23 1262.36 404.194C1462.9 301.158 1663.45 198.155 1863.99 95.1849C2123.44 -38.0996 2159.14 -56.3878 2357 -158.066V-186.79C2151.77 -81.4345 2118.74 -64.4384 1855.7 70.6351Z" fill="url(#paint38_linear_77_410)"/>
<path d="M1863.95 95.1852C1663.4 198.221 1462.86 301.224 1262.31 404.194C1061.77 507.164 861.225 610.167 660.68 713.204C460.136 816.24 259.592 919.243 59.0474 1022.21C30.2556 1037.02 4.22786 1050.34 -19.6348 1062.57V1091.29C6.393 1077.87 35.0927 1063.16 67.2934 1046.66C267.838 943.627 468.382 840.624 668.926 737.654C869.471 634.618 1070.01 531.615 1270.56 428.645C1471.1 325.609 1671.65 222.605 1872.19 119.636C2127.96 -11.7604 2166.33 -31.44 2356.95 -129.341V-158.065C2159.1 -56.3874 2123.35 -38.0992 1863.95 95.1852Z" fill="url(#paint39_linear_77_410)"/>
<path d="M1872.24 119.635C1671.69 222.671 1471.15 325.674 1270.61 428.644C1070.06 531.614 869.517 634.617 668.973 737.653C468.428 840.689 267.884 943.692 67.3398 1046.66C35.139 1063.16 6.43939 1077.97 -19.5884 1091.29V1120.01C8.60453 1105.5 39.976 1089.4 75.5857 1071.11C276.13 968.076 476.674 865.073 677.219 762.104L1278.85 453.094C1479.4 350.058 1679.94 247.055 1880.48 144.085C2132.52 14.6773 2173.42 -6.3939 2357 -100.617V-129.342C2166.33 -31.4406 2128 -11.761 1872.24 119.635Z" fill="url(#paint40_linear_77_410)"/>
<path d="M1880.48 144.086C1679.94 247.122 1479.4 350.125 1278.85 453.095L677.219 762.104C476.674 865.14 276.13 968.143 75.5857 1071.11C39.976 1089.4 8.60453 1105.5 -19.5884 1120.01V1148.74C10.6775 1133.23 44.7209 1115.74 83.8777 1095.56C284.422 992.527 484.966 889.524 685.511 786.554L1287.14 477.545C1487.69 374.509 1688.23 271.506 1888.78 168.536C2136.98 41.0161 2180.43 18.7524 2357 -71.9923V-100.717C2173.47 -6.39372 2132.56 14.5779 1880.48 143.986V144.086Z" fill="url(#paint41_linear_77_410)"/>
<path d="M1888.78 168.536C1688.23 271.572 1487.69 374.575 1287.14 477.545L685.511 786.554C484.966 889.591 284.422 992.594 83.8777 1095.56C44.7209 1115.64 10.7236 1133.13 -19.5884 1148.74V1177.46C12.7505 1160.86 49.3737 1142.08 92.1237 1120.11C292.668 1017.08 493.212 914.074 693.757 811.104C894.301 708.134 1094.85 605.131 1295.39 502.095C1495.93 399.059 1696.48 296.056 1897.02 193.086C2141.31 67.6536 2187.24 43.9984 2357 -43.1682V-71.8926C2180.43 18.8521 2136.98 41.116 1888.78 168.636V168.536Z" fill="url(#paint42_linear_77_410)"/>
<path d="M1897.02 192.987C1696.48 296.023 1495.93 399.026 1295.39 501.996C1094.85 604.966 894.301 707.969 693.757 811.005C493.212 914.041 292.668 1017.04 92.1237 1120.01C49.3737 1141.98 12.7505 1160.76 -19.5884 1177.36V1206.09C14.7314 1188.49 53.9804 1168.32 100.37 1144.46C300.914 1041.43 501.458 938.425 702.003 835.455C902.547 732.419 1103.09 629.416 1303.64 526.446C1504.18 423.41 1704.72 320.407 1905.27 217.437C2145.55 93.9922 2193.92 69.1443 2357 -14.5436V-43.2678C2187.24 43.8988 2141.31 67.4547 1897.02 192.987Z" fill="url(#paint43_linear_77_410)"/>
<path d="M1905.27 217.437C1704.72 320.473 1504.18 423.476 1303.64 526.446C1103.09 629.416 902.547 732.419 702.003 835.455C501.458 938.492 300.914 1041.49 100.37 1144.46C53.9343 1168.32 14.6854 1188.5 -19.5884 1206.09V1234.81C16.6662 1216.23 58.4488 1194.76 108.662 1168.91C309.206 1065.88 509.75 962.876 710.295 859.906C910.839 756.869 1111.38 653.866 1311.93 550.897L1913.56 241.887C2149.75 120.629 2200.51 94.4894 2357 14.0814V-14.6428C2193.92 69.1445 2145.6 93.9924 1905.27 217.338V217.437Z" fill="url(#paint44_linear_77_410)"/>
<path d="M1913.56 241.987L1311.93 550.996C1111.38 654.032 910.839 757.035 710.295 860.005C509.75 962.975 309.206 1065.98 108.662 1169.01C58.4488 1194.76 16.6662 1216.23 -19.5884 1234.91V1263.64C18.555 1244.06 62.8252 1221.29 116.908 1193.56C317.452 1090.53 517.996 987.525 718.541 884.555C919.085 781.519 1119.63 678.516 1320.17 575.546C1520.72 472.51 1721.26 369.507 1921.81 266.537C2153.8 147.366 2206.91 120.133 2357 43.0047V14.2805C2200.51 94.6885 2149.75 120.729 1913.56 242.086V241.987Z" fill="url(#paint45_linear_77_410)"/>
<path d="M1921.81 266.437C1721.26 369.473 1520.72 472.476 1320.17 575.446C1119.63 678.416 919.085 781.419 718.541 884.455C517.996 987.491 317.452 1090.49 116.908 1193.46C62.8252 1221.19 18.555 1243.96 -19.5884 1263.54V1292.26C20.3516 1271.79 67.1555 1247.73 125.154 1217.91C325.698 1114.88 526.242 1011.88 726.787 908.905C927.331 805.869 1127.88 702.866 1328.42 599.896C1528.96 496.86 1729.51 393.857 1930.05 290.887C2157.71 174.003 2213.13 145.477 2356.95 71.629V42.9048C2206.87 120.033 2153.75 147.266 1921.76 266.437H1921.81Z" fill="url(#paint46_linear_77_410)"/>
<path d="M1930.05 290.887C1729.51 393.923 1528.96 496.926 1328.42 599.896C1127.88 702.866 927.331 805.869 726.787 908.905C526.242 1011.94 325.698 1114.94 125.154 1217.91C67.1555 1247.73 20.3516 1271.78 -19.5884 1292.26V1320.98C22.1482 1299.52 71.3936 1274.27 133.446 1242.37C333.99 1139.33 534.534 1036.33 735.079 933.356C935.623 830.32 1136.17 727.317 1336.71 624.347L1938.34 315.338C2161.58 200.64 2219.21 171.12 2357 100.353V71.6289C2213.13 145.477 2157.76 174.002 1930.1 290.887H1930.05Z" fill="url(#paint47_linear_77_410)"/>
<path d="M1938.34 315.338L1336.71 624.347C1136.17 727.383 935.623 830.386 735.079 933.356C534.534 1036.33 333.99 1139.33 133.446 1242.37C71.3936 1274.27 22.1482 1299.52 -19.5884 1320.98V1349.71C23.8987 1327.35 75.4936 1300.91 141.692 1266.92C342.236 1163.88 542.78 1060.88 743.325 957.906C943.869 854.87 1144.41 751.867 1344.96 648.897C1545.5 545.861 1746.05 442.858 1946.59 339.888C2165.32 227.575 2225.06 196.863 2357 129.078V100.354C2219.17 171.12 2161.58 200.739 1938.34 315.338Z" fill="url(#paint48_linear_77_410)"/>
<path d="M1946.59 339.788C1746.05 442.824 1545.5 545.827 1344.96 648.797C1144.41 751.767 943.869 854.77 743.325 957.806C542.78 1060.84 342.236 1163.85 141.692 1266.82C75.4936 1300.81 23.8987 1327.35 -19.5884 1349.61V1378.33C25.6032 1355.17 79.5475 1327.44 149.938 1291.27L751.571 982.257C952.115 879.22 1152.66 776.217 1353.2 673.247C1553.75 570.211 1754.29 467.208 1954.84 364.238C2168.96 254.212 2230.68 222.506 2356.95 157.702V128.978C2225.02 196.763 2165.32 227.376 1946.54 339.788H1946.59Z" fill="url(#paint49_linear_77_410)"/>
</g>
</g>
<defs>
<radialGradient id="paint0_radial_77_410" cx="0" cy="0" r="1" gradientUnits="userSpaceOnUse" gradientTransform="translate(402.067 160.685) rotate(10.7524) scale(1960.61 4114.52)">
<stop stop-color="#24293D"/>
<stop offset="1" stop-color="#1C1F31"/>
</radialGradient>
<linearGradient id="paint1_linear_77_410" x1="3221.76" y1="-2468.66" x2="-1244.36" y2="-1606.59" gradientUnits="userSpaceOnUse">
<stop stop-color="#F9F9F9"/>
<stop offset="0.32" stop-color="#D9D9D9"/>
<stop offset="0.68" stop-color="#C4C4C4"/>
<stop offset="1" stop-color="#D2D2D2"/>
</linearGradient>
<linearGradient id="paint2_linear_77_410" x1="3229.51" y1="-2446.95" x2="-1236.61" y2="-1584.88" gradientUnits="userSpaceOnUse">
<stop stop-color="#EDEDED"/>
<stop offset="0.32" stop-color="#A9A9A9"/>
<stop offset="0.68" stop-color="#D4D4D4"/>
<stop offset="1" stop-color="#B6B6B6"/>
</linearGradient>
<linearGradient id="paint3_linear_77_410" x1="3237.26" y1="-2425.14" x2="-1228.86" y2="-1563.06" gradientUnits="userSpaceOnUse">
<stop stop-color="white"/>
<stop offset="0.32" stop-color="#A8A8A8"/>
<stop offset="0.68" stop-color="#CACACA"/>
<stop offset="1" stop-color="#EDEDED"/>
</linearGradient>
<linearGradient id="paint4_linear_77_410" x1="3245.01" y1="-2403.43" x2="-1221.14" y2="-1541.36" gradientUnits="userSpaceOnUse">
<stop stop-color="#D2D2D2"/>
<stop offset="0.32" stop-color="#B2B2B2"/>
<stop offset="0.68" stop-color="#E7E7E7"/>
<stop offset="1" stop-color="white"/>
</linearGradient>
<linearGradient id="paint5_linear_77_410" x1="3252.72" y1="-2381.72" x2="-1213.43" y2="-1519.62" gradientUnits="userSpaceOnUse">
<stop stop-color="#CDCDCD"/>
<stop offset="0.32" stop-color="#C3C3C3"/>
<stop offset="0.68" stop-color="#CBCBCB"/>
<stop offset="1" stop-color="#C3C3C3"/>
</linearGradient>
<linearGradient id="paint6_linear_77_410" x1="3260.47" y1="-2359.91" x2="-1205.65" y2="-1497.84" gradientUnits="userSpaceOnUse">
<stop stop-color="#ABABAB"/>
<stop offset="0.32" stop-color="#A1A1A1"/>
<stop offset="0.68" stop-color="white"/>
<stop offset="1" stop-color="#E2E2E2"/>
</linearGradient>
<linearGradient id="paint7_linear_77_410" x1="3268.22" y1="-2338.2" x2="-1197.93" y2="-1476.09" gradientUnits="userSpaceOnUse">
<stop stop-color="#D6D6D6"/>
<stop offset="0.32" stop-color="#BFBFBF"/>
<stop offset="0.68" stop-color="#BDBDBD"/>
<stop offset="1" stop-color="#DADADA"/>
</linearGradient>
<linearGradient id="paint8_linear_77_410" x1="3275.97" y1="-2316.39" x2="-1190.19" y2="-1454.32" gradientUnits="userSpaceOnUse">
<stop stop-color="#B0B0B0"/>
<stop offset="0.32" stop-color="#BDBDBD"/>
<stop offset="0.68" stop-color="#C9C9C9"/>
<stop offset="1" stop-color="#B2B2B2"/>
</linearGradient>
<linearGradient id="paint9_linear_77_410" x1="3283.67" y1="-2294.69" x2="-1182.48" y2="-1432.58" gradientUnits="userSpaceOnUse">
<stop stop-color="#C2C2C2"/>
<stop offset="0.32" stop-color="#B9B9B9"/>
<stop offset="0.68" stop-color="#CBCBCB"/>
<stop offset="1" stop-color="#E2E2E2"/>
</linearGradient>
<linearGradient id="paint10_linear_77_410" x1="3291.42" y1="-2272.87" x2="-1174.7" y2="-1410.8" gradientUnits="userSpaceOnUse">
<stop stop-color="#C8C8C8"/>
<stop offset="0.32" stop-color="#DEDEDE"/>
<stop offset="0.68" stop-color="#DBDBDB"/>
<stop offset="1" stop-color="#C3C3C3"/>
</linearGradient>
<linearGradient id="paint11_linear_77_410" x1="3299.17" y1="-2251.16" x2="-1166.98" y2="-1389.06" gradientUnits="userSpaceOnUse">
<stop stop-color="#A1A1A1"/>
<stop offset="0.32" stop-color="#F8F8F8"/>
<stop offset="0.68" stop-color="#BABABA"/>
<stop offset="1" stop-color="white"/>
</linearGradient>
<linearGradient id="paint12_linear_77_410" x1="3306.92" y1="-2229.35" x2="-1159.24" y2="-1367.28" gradientUnits="userSpaceOnUse">
<stop stop-color="#A4A4A4"/>
<stop offset="0.32" stop-color="#C1C1C1"/>
<stop offset="0.68" stop-color="#D3D3D3"/>
<stop offset="1" stop-color="#DDDDDD"/>
</linearGradient>
<linearGradient id="paint13_linear_77_410" x1="3314.63" y1="-2207.65" x2="-1151.49" y2="-1345.57" gradientUnits="userSpaceOnUse">
<stop stop-color="#B0B0B0"/>
<stop offset="0.32" stop-color="#DADADA"/>
<stop offset="0.68" stop-color="#F4F4F4"/>
<stop offset="1" stop-color="white"/>
</linearGradient>
<linearGradient id="paint14_linear_77_410" x1="3322.38" y1="-2185.84" x2="-1143.74" y2="-1323.76" gradientUnits="userSpaceOnUse">
<stop stop-color="#B8B8B8"/>
<stop offset="0.32" stop-color="#C9C9C9"/>
<stop offset="0.68" stop-color="#D5D5D5"/>
<stop offset="1" stop-color="#F5F5F5"/>
</linearGradient>
<linearGradient id="paint15_linear_77_410" x1="3330.13" y1="-2164.12" x2="-1135.99" y2="-1302.05" gradientUnits="userSpaceOnUse">
<stop stop-color="#EFEFEF"/>
<stop offset="0.32" stop-color="#9F9F9F"/>
<stop offset="0.68" stop-color="#B0B0B0"/>
<stop offset="1" stop-color="#DFDFDF"/>
</linearGradient>
<linearGradient id="paint16_linear_77_410" x1="3337.88" y1="-2142.31" x2="-1128.28" y2="-1280.24" gradientUnits="userSpaceOnUse">
<stop stop-color="#E1E1E1"/>
<stop offset="0.32" stop-color="#D7D7D7"/>
<stop offset="0.68" stop-color="#CFCFCF"/>
<stop offset="1" stop-color="#C8C8C8"/>
</linearGradient>
<linearGradient id="paint17_linear_77_410" x1="3345.58" y1="-2120.61" x2="-1120.54" y2="-1258.54" gradientUnits="userSpaceOnUse">
<stop stop-color="#D7D7D7"/>
<stop offset="0.32" stop-color="#D1D1D1"/>
<stop offset="0.68" stop-color="#D2D2D2"/>
<stop offset="1" stop-color="white"/>
</linearGradient>
<linearGradient id="paint18_linear_77_410" x1="3353.33" y1="-2098.8" x2="-1112.79" y2="-1236.72" gradientUnits="userSpaceOnUse">
<stop stop-color="white"/>
<stop offset="0.32" stop-color="#D5D5D5"/>
<stop offset="0.68" stop-color="#F9F9F9"/>
<stop offset="1" stop-color="#ADADAD"/>
</linearGradient>
<linearGradient id="paint19_linear_77_410" x1="3361.08" y1="-2077.09" x2="-1105.04" y2="-1215.01" gradientUnits="userSpaceOnUse">
<stop stop-color="#C9C9C9"/>
<stop offset="0.32" stop-color="#D4D4D4"/>
<stop offset="0.68" stop-color="#E2E2E2"/>
<stop offset="1" stop-color="#F0F0F0"/>
</linearGradient>
<linearGradient id="paint20_linear_77_410" x1="3368.83" y1="-2055.28" x2="-1097.33" y2="-1193.21" gradientUnits="userSpaceOnUse">
<stop stop-color="#C8C8C8"/>
<stop offset="0.32" stop-color="#B6B6B6"/>
<stop offset="0.68" stop-color="#EFEFEF"/>
<stop offset="1" stop-color="white"/>
</linearGradient>
<linearGradient id="paint21_linear_77_410" x1="3376.54" y1="-2033.57" x2="-1089.58" y2="-1171.5" gradientUnits="userSpaceOnUse">
<stop stop-color="#ABABAB"/>
<stop offset="0.32" stop-color="#A6A6A6"/>
<stop offset="0.68" stop-color="#F9F9F9"/>
<stop offset="1" stop-color="#B3B3B3"/>
</linearGradient>
<linearGradient id="paint22_linear_77_410" x1="3384.28" y1="-2011.76" x2="-1081.84" y2="-1149.69" gradientUnits="userSpaceOnUse">
<stop stop-color="#C8C8C8"/>
<stop offset="0.32" stop-color="white"/>
<stop offset="0.68" stop-color="#B9B9B9"/>
<stop offset="1" stop-color="#F6F6F6"/>
</linearGradient>
<linearGradient id="paint23_linear_77_410" x1="3392.04" y1="-1990.05" x2="-1074.08" y2="-1127.97" gradientUnits="userSpaceOnUse">
<stop stop-color="white"/>
<stop offset="0.32" stop-color="#B9B9B9"/>
<stop offset="0.68" stop-color="#EEEEEE"/>
<stop offset="1" stop-color="#C2C2C2"/>
</linearGradient>
<linearGradient id="paint24_linear_77_410" x1="3399.78" y1="-1968.24" x2="-1066.37" y2="-1106.17" gradientUnits="userSpaceOnUse">
<stop stop-color="#D2D2D2"/>
<stop offset="0.32" stop-color="#C5C5C5"/>
<stop offset="0.68" stop-color="#D0D0D0"/>
<stop offset="1" stop-color="#F1F1F1"/>
</linearGradient>
<linearGradient id="paint25_linear_77_410" x1="3407.49" y1="-1946.54" x2="-1058.63" y2="-1084.46" gradientUnits="userSpaceOnUse">
<stop stop-color="#B8B8B8"/>
<stop offset="0.32" stop-color="#B2B2B2"/>
<stop offset="0.68" stop-color="#F4F4F4"/>
<stop offset="1" stop-color="#D5D5D5"/>
</linearGradient>
<linearGradient id="paint26_linear_77_410" x1="3415.24" y1="-1924.82" x2="-1050.91" y2="-1062.72" gradientUnits="userSpaceOnUse">
<stop stop-color="#BABABA"/>
<stop offset="0.32" stop-color="#AEAEAE"/>
<stop offset="0.68" stop-color="#E7E7E7"/>
<stop offset="1" stop-color="white"/>
</linearGradient>
<linearGradient id="paint27_linear_77_410" x1="3422.99" y1="-1903.01" x2="-1043.13" y2="-1040.94" gradientUnits="userSpaceOnUse">
<stop stop-color="#B2B2B2"/>
<stop offset="0.32" stop-color="#DDDDDD"/>
<stop offset="0.68" stop-color="#DEDEDE"/>
<stop offset="1" stop-color="white"/>
</linearGradient>
<linearGradient id="paint28_linear_77_410" x1="3430.74" y1="-1881.3" x2="-1035.44" y2="-1019.2" gradientUnits="userSpaceOnUse">
<stop stop-color="#A8A8A8"/>
<stop offset="0.32" stop-color="white"/>
<stop offset="0.68" stop-color="white"/>
<stop offset="1" stop-color="#E2E2E2"/>
</linearGradient>
<linearGradient id="paint29_linear_77_410" x1="3438.45" y1="-1859.5" x2="-1027.67" y2="-997.423" gradientUnits="userSpaceOnUse">
<stop stop-color="#BDBDBD"/>
<stop offset="0.32" stop-color="#F1F1F1"/>
<stop offset="0.68" stop-color="#ECECEC"/>
<stop offset="1" stop-color="#EFEFEF"/>
</linearGradient>
<linearGradient id="paint30_linear_77_410" x1="3446.2" y1="-1837.79" x2="-1019.95" y2="-975.681" gradientUnits="userSpaceOnUse">
<stop stop-color="#C4C4C4"/>
<stop offset="0.32" stop-color="#C8C8C8"/>
<stop offset="0.68" stop-color="#DADADA"/>
<stop offset="1" stop-color="#D9D9D9"/>
</linearGradient>
<linearGradient id="paint31_linear_77_410" x1="3453.95" y1="-1815.97" x2="-1012.17" y2="-953.899" gradientUnits="userSpaceOnUse">
<stop stop-color="#D2D2D2"/>
<stop offset="0.32" stop-color="#C8C8C8"/>
<stop offset="0.68" stop-color="#EBEBEB"/>
<stop offset="1" stop-color="#E1E1E1"/>
</linearGradient>
<linearGradient id="paint32_linear_77_410" x1="3461.7" y1="-1794.26" x2="-1004.49" y2="-932.162" gradientUnits="userSpaceOnUse">
<stop stop-color="#BDBDBD"/>
<stop offset="0.32" stop-color="#9D9D9D"/>
<stop offset="0.68" stop-color="#BDBDBD"/>
<stop offset="1" stop-color="#C2C2C2"/>
</linearGradient>
<linearGradient id="paint33_linear_77_410" x1="3469.4" y1="-1772.46" x2="-996.719" y2="-910.386" gradientUnits="userSpaceOnUse">
<stop stop-color="#D7D7D7"/>
<stop offset="0.32" stop-color="white"/>
<stop offset="0.68" stop-color="#CDCDCD"/>
<stop offset="1" stop-color="#FCFCFC"/>
</linearGradient>
<linearGradient id="paint34_linear_77_410" x1="3477.15" y1="-1750.75" x2="-988.966" y2="-888.672" gradientUnits="userSpaceOnUse">
<stop stop-color="#DADADA"/>
<stop offset="0.32" stop-color="#CACACA"/>
<stop offset="0.68" stop-color="white"/>
<stop offset="1" stop-color="#D3D3D3"/>
</linearGradient>
<linearGradient id="paint35_linear_77_410" x1="3484.9" y1="-1728.94" x2="-981.219" y2="-866.86" gradientUnits="userSpaceOnUse">
<stop stop-color="#E7E7E7"/>
<stop offset="0.32" stop-color="#AFAFAF"/>
<stop offset="0.68" stop-color="#B2B2B2"/>
<stop offset="1" stop-color="#EDEDED"/>
</linearGradient>
<linearGradient id="paint36_linear_77_410" x1="3492.65" y1="-1707.22" x2="-973.466" y2="-845.147" gradientUnits="userSpaceOnUse">
<stop stop-color="#CACACA"/>
<stop offset="0.32" stop-color="#CBCBCB"/>
<stop offset="0.68" stop-color="#EDEDED"/>
<stop offset="1" stop-color="white"/>
</linearGradient>
<linearGradient id="paint37_linear_77_410" x1="3500.4" y1="-1685.41" x2="-965.756" y2="-823.342" gradientUnits="userSpaceOnUse">
<stop stop-color="#A7A7A7"/>
<stop offset="0.32" stop-color="#D9D9D9"/>
<stop offset="0.68" stop-color="#E9E9E9"/>
<stop offset="1" stop-color="#D9D9D9"/>
</linearGradient>
<linearGradient id="paint38_linear_77_410" x1="3508.11" y1="-1663.71" x2="-958.012" y2="-801.636" gradientUnits="userSpaceOnUse">
<stop stop-color="#D6D6D6"/>
<stop offset="0.32" stop-color="#ECECEC"/>
<stop offset="0.68" stop-color="#B2B2B2"/>
<stop offset="1" stop-color="white"/>
</linearGradient>
<linearGradient id="paint39_linear_77_410" x1="3515.85" y1="-1641.9" x2="-950.265" y2="-779.823" gradientUnits="userSpaceOnUse">
<stop stop-color="#C5C5C5"/>
<stop offset="0.32" stop-color="#F6F6F6"/>
<stop offset="0.68" stop-color="#BFBFBF"/>
<stop offset="1" stop-color="#EFEFEF"/>
</linearGradient>
<linearGradient id="paint40_linear_77_410" x1="3523.61" y1="-1620.19" x2="-942.512" y2="-758.111" gradientUnits="userSpaceOnUse">
<stop stop-color="#DCDCDC"/>
<stop offset="0.32" stop-color="#D3D3D3"/>
<stop offset="0.68" stop-color="#ECECEC"/>
<stop offset="1" stop-color="white"/>
</linearGradient>
<linearGradient id="paint41_linear_77_410" x1="3531.35" y1="-1598.37" x2="-934.801" y2="-736.305" gradientUnits="userSpaceOnUse">
<stop stop-color="#DEDEDE"/>
<stop offset="0.32" stop-color="#D2D2D2"/>
<stop offset="0.68" stop-color="#CBCBCB"/>
<stop offset="1" stop-color="#E4E4E4"/>
</linearGradient>
<linearGradient id="paint42_linear_77_410" x1="3539.06" y1="-1576.67" x2="-927.057" y2="-714.598" gradientUnits="userSpaceOnUse">
<stop stop-color="#B3B3B3"/>
<stop offset="0.32" stop-color="#FBFBFB"/>
<stop offset="0.68" stop-color="#E6E6E6"/>
<stop offset="1" stop-color="#EFEFEF"/>
</linearGradient>
<linearGradient id="paint43_linear_77_410" x1="3546.81" y1="-1554.86" x2="-919.31" y2="-692.786" gradientUnits="userSpaceOnUse">
<stop stop-color="#B9B9B9"/>
<stop offset="0.32" stop-color="white"/>
<stop offset="0.68" stop-color="#E5E5E5"/>
<stop offset="1" stop-color="#F7F7F7"/>
</linearGradient>
<linearGradient id="paint44_linear_77_410" x1="3554.56" y1="-1533.15" x2="-911.557" y2="-671.072" gradientUnits="userSpaceOnUse">
<stop stop-color="#9E9E9E"/>
<stop offset="0.32" stop-color="#DBDBDB"/>
<stop offset="0.68" stop-color="#D4D4D4"/>
<stop offset="1" stop-color="#E2E2E2"/>
</linearGradient>
<linearGradient id="paint45_linear_77_410" x1="3562.31" y1="-1511.34" x2="-903.847" y2="-649.266" gradientUnits="userSpaceOnUse">
<stop stop-color="#BFBFBF"/>
<stop offset="0.32" stop-color="white"/>
<stop offset="0.68" stop-color="#FDFDFD"/>
<stop offset="1" stop-color="white"/>
</linearGradient>
<linearGradient id="paint46_linear_77_410" x1="3570.02" y1="-1489.64" x2="-896.103" y2="-627.56" gradientUnits="userSpaceOnUse">
<stop stop-color="#BABABA"/>
<stop offset="0.32" stop-color="#F5F5F5"/>
<stop offset="0.68" stop-color="#FCFCFC"/>
<stop offset="1" stop-color="white"/>
</linearGradient>
<linearGradient id="paint47_linear_77_410" x1="3577.77" y1="-1467.92" x2="-888.383" y2="-605.818" gradientUnits="userSpaceOnUse">
<stop stop-color="#A8A8A8"/>
<stop offset="0.32" stop-color="white"/>
<stop offset="0.68" stop-color="#EDEDED"/>
<stop offset="1" stop-color="white"/>
</linearGradient>
<linearGradient id="paint48_linear_77_410" x1="3585.52" y1="-1446.11" x2="-880.603" y2="-584.035" gradientUnits="userSpaceOnUse">
<stop stop-color="#EFEFEF"/>
<stop offset="0.32" stop-color="white"/>
<stop offset="0.68" stop-color="#BDBDBD"/>
<stop offset="1" stop-color="white"/>
</linearGradient>
<linearGradient id="paint49_linear_77_410" x1="3593.27" y1="-1424.4" x2="-872.919" y2="-562.299" gradientUnits="userSpaceOnUse">
<stop stop-color="#D6D6D6"/>
<stop offset="0.32" stop-color="white"/>
<stop offset="0.68" stop-color="#F9F9F9"/>
<stop offset="1" stop-color="white"/>
</linearGradient>
</defs>
</svg>
