<svg width="24" height="25" viewBox="0 0 24 25" fill="none" xmlns="http://www.w3.org/2000/svg">
<path d="M7.8 2.44208H16.2C19.4 2.44208 22 5.04208 22 8.24208V16.6421C22 18.1803 21.3889 19.6556 20.3012 20.7433C19.2135 21.831 17.7383 22.4421 16.2 22.4421H7.8C4.6 22.4421 2 19.8421 2 16.6421V8.24208C2 6.70382 2.61107 5.22857 3.69878 4.14086C4.78649 3.05315 6.26174 2.44208 7.8 2.44208ZM7.6 4.44208C6.64522 4.44208 5.72955 4.82136 5.05442 5.49649C4.37928 6.17162 4 7.0873 4 8.04208V16.8421C4 18.8321 5.61 20.4421 7.6 20.4421H16.4C17.3548 20.4421 18.2705 20.0628 18.9456 19.3877C19.6207 18.7125 20 17.7969 20 16.8421V8.04208C20 6.05208 18.39 4.44208 16.4 4.44208H7.6ZM17.25 5.94208C17.5815 5.94208 17.8995 6.07377 18.1339 6.30819C18.3683 6.54261 18.5 6.86056 18.5 7.19208C18.5 7.5236 18.3683 7.84154 18.1339 8.07596C17.8995 8.31038 17.5815 8.44208 17.25 8.44208C16.9185 8.44208 16.6005 8.31038 16.3661 8.07596C16.1317 7.84154 16 7.5236 16 7.19208C16 6.86056 16.1317 6.54261 16.3661 6.30819C16.6005 6.07377 16.9185 5.94208 17.25 5.94208ZM12 7.44208C13.3261 7.44208 14.5979 7.96886 15.5355 8.90654C16.4732 9.84423 17 11.116 17 12.4421C17 13.7682 16.4732 15.0399 15.5355 15.9776C14.5979 16.9153 13.3261 17.4421 12 17.4421C10.6739 17.4421 9.40215 16.9153 8.46447 15.9776C7.52678 15.0399 7 13.7682 7 12.4421C7 11.116 7.52678 9.84423 8.46447 8.90654C9.40215 7.96886 10.6739 7.44208 12 7.44208ZM12 9.44208C11.2044 9.44208 10.4413 9.75815 9.87868 10.3208C9.31607 10.8834 9 11.6464 9 12.4421C9 13.2377 9.31607 14.0008 9.87868 14.5634C10.4413 15.126 11.2044 15.4421 12 15.4421C12.7956 15.4421 13.5587 15.126 14.1213 14.5634C14.6839 14.0008 15 13.2377 15 12.4421C15 11.6464 14.6839 10.8834 14.1213 10.3208C13.5587 9.75815 12.7956 9.44208 12 9.44208Z" fill="white"/>
</svg>
