<svg width="24" height="25" viewBox="0 0 24 25" fill="none" xmlns="http://www.w3.org/2000/svg">
<path d="M16.6 6.26208C15.9164 5.4817 15.5397 4.47951 15.54 3.44208H12.45V15.8421C12.4261 16.5131 12.1428 17.1487 11.6597 17.615C11.1766 18.0813 10.5314 18.342 9.85997 18.3421C8.43997 18.3421 7.25997 17.1821 7.25997 15.7421C7.25997 14.0221 8.91997 12.7321 10.63 13.2621V10.1021C7.17997 9.64208 4.15997 12.3221 4.15997 15.7421C4.15997 19.0721 6.91997 21.4421 9.84997 21.4421C12.99 21.4421 15.54 18.8921 15.54 15.7421V9.45208C16.793 10.3519 18.2973 10.8347 19.84 10.8321V7.74208C19.84 7.74208 17.96 7.83208 16.6 6.26208Z" fill="white"/>
</svg>
