<svg width="24" height="25" viewBox="0 0 24 25" fill="none" xmlns="http://www.w3.org/2000/svg">
<path d="M22.46 6.44208C21.69 6.79208 20.86 7.02208 20 7.13208C20.88 6.60208 21.56 5.76208 21.88 4.75208C21.05 5.25208 20.13 5.60208 19.16 5.80208C18.37 4.94208 17.26 4.44208 16 4.44208C13.65 4.44208 11.73 6.36208 11.73 8.73208C11.73 9.07208 11.77 9.40208 11.84 9.71208C8.27998 9.53208 5.10998 7.82208 2.99998 5.23208C2.62998 5.86208 2.41998 6.60208 2.41998 7.38208C2.41998 8.87208 3.16998 10.1921 4.32998 10.9421C3.61998 10.9421 2.95998 10.7421 2.37998 10.4421V10.4721C2.37998 12.5521 3.85998 14.2921 5.81998 14.6821C5.19071 14.8543 4.53007 14.8782 3.88998 14.7521C4.16158 15.6046 4.69351 16.3505 5.41099 16.885C6.12847 17.4195 6.99543 17.7158 7.88998 17.7321C6.37361 18.9325 4.49397 19.5814 2.55998 19.5721C2.21998 19.5721 1.87998 19.5521 1.53998 19.5121C3.43998 20.7321 5.69998 21.4421 8.11998 21.4421C16 21.4421 20.33 14.9021 20.33 9.23208C20.33 9.04208 20.33 8.86208 20.32 8.67208C21.16 8.07208 21.88 7.31208 22.46 6.44208Z" fill="white"/>
</svg>
