<svg width="24" height="25" viewBox="0 0 24 25" fill="none" xmlns="http://www.w3.org/2000/svg">
<path d="M10 15.4421L15.19 12.4421L10 9.44208V15.4421ZM21.56 7.61208C21.69 8.08208 21.78 8.71208 21.84 9.51208C21.91 10.3121 21.94 11.0021 21.94 11.6021L22 12.4421C22 14.6321 21.84 16.2421 21.56 17.2721C21.31 18.1721 20.73 18.7521 19.83 19.0021C19.36 19.1321 18.5 19.2221 17.18 19.2821C15.88 19.3521 14.69 19.3821 13.59 19.3821L12 19.4421C7.81 19.4421 5.2 19.2821 4.17 19.0021C3.27 18.7521 2.69 18.1721 2.44 17.2721C2.31 16.8021 2.22 16.1721 2.16 15.3721C2.09 14.5721 2.06 13.8821 2.06 13.2821L2 12.4421C2 10.2521 2.16 8.64208 2.44 7.61208C2.69 6.71208 3.27 6.13208 4.17 5.88208C4.64 5.75208 5.5 5.66208 6.82 5.60208C8.12 5.53208 9.31 5.50208 10.41 5.50208L12 5.44208C16.19 5.44208 18.8 5.60208 19.83 5.88208C20.73 6.13208 21.31 6.71208 21.56 7.61208Z" fill="white"/>
</svg>
