<svg width="33" height="33" viewBox="0 0 33 33" fill="none" xmlns="http://www.w3.org/2000/svg">
<g clip-path="url(#clip0_77_15631)">
<path d="M16.5 0C7.40125 0 0 7.40181 0 16.4996C0 25.5975 7.40125 33 16.5 33C25.598 33 33 25.5975 33 16.4996C33 7.40181 25.598 0 16.5 0" fill="#004170"/>
<path d="M16.4773 1.1843C12.3852 1.1843 8.53762 2.77773 5.64391 5.67137C2.75021 8.56501 1.15674 12.4125 1.15674 16.5045C1.15674 20.5965 2.75021 24.4433 5.64391 27.3377C8.53762 30.2313 12.3852 31.8247 16.4773 31.8247C20.5694 31.8247 24.417 30.2313 27.3107 27.3377C30.2044 24.4433 31.7979 20.5965 31.7979 16.5045C31.7979 12.4125 30.2044 8.56501 27.3107 5.67137C24.417 2.77773 20.5694 1.1843 16.4773 1.1843ZM16.4773 1.79111C24.604 1.79111 31.191 8.37875 31.191 16.5045C31.191 24.6303 24.604 31.2179 16.4773 31.2179C8.35135 31.2179 1.76357 24.6303 1.76357 16.5045C1.76357 8.37875 8.35135 1.79111 16.4773 1.79111" fill="white"/>
<path d="M12.0654 5.90441L12.1301 4.28406L13.1975 5.50787C12.8112 5.62065 12.4335 5.75307 12.0654 5.90441V5.90441ZM12.2924 3.44951C12.0232 3.53609 11.7568 3.62995 11.4949 3.73254L11.2119 8.02898C11.4665 7.87328 11.7285 7.72848 11.997 7.59533L12.0377 6.59417C12.5558 6.3657 13.0957 6.17653 13.653 6.03028L14.3129 6.78771C14.6033 6.72513 14.8979 6.6742 15.1963 6.63782L12.2924 3.44951ZM23.9397 6.10326C24.5072 5.97011 25.5499 7.0062 25.7492 7.7076C25.9151 7.581 26.284 7.31034 26.284 7.31034C25.8431 6.05596 24.0881 4.80086 23.2542 5.58667C22.7595 6.05378 23.0403 6.77337 23.4718 7.22812L23.8909 7.66904C24.3187 8.11942 24.692 8.56762 24.3486 8.85065C23.9826 9.15333 22.9588 8.39518 22.3433 7.09352L21.7925 7.50897C21.9242 7.85167 22.221 8.34789 22.6198 8.76771C23.0716 9.24355 23.5642 9.55351 24.0051 9.64009C24.3515 9.70849 24.6971 9.65683 24.9248 9.4451C25.4931 8.91832 25.2865 8.14998 24.3937 7.20993L24.0233 6.82067C23.6122 6.38775 23.7803 6.14109 23.9397 6.10326V6.10326ZM7.2958 7.20425L8.32828 6.07139C8.56038 5.81673 8.95693 5.79781 9.21232 6.03064C9.46699 6.26274 9.48591 6.65928 9.25307 6.91394L8.22059 8.04753L7.2958 7.20425ZM9.57395 9.28081L8.71536 8.49864L9.77913 7.32722C10.2608 6.79971 10.2608 5.94988 9.73256 5.46894C9.20432 4.98727 8.34428 5.05349 7.86333 5.58172L6.28369 7.31921L9.03479 9.82577C9.20723 9.6366 9.3884 9.45616 9.57395 9.28081V9.28081ZM16.4269 3.49112H17.8355C18.1804 3.49112 18.4613 3.77197 18.4613 4.11685C18.4613 4.46173 18.1804 4.74259 17.8355 4.74259H16.4269V3.49112ZM16.4269 6.55939V5.4127H17.3866L18.2146 6.72164C18.5428 6.7813 18.8651 6.85625 19.1809 6.9472L18.1884 5.36468C18.7574 5.21261 19.2267 4.7113 19.2267 4.11685C19.2267 3.40236 18.55 2.82028 17.8355 2.82028H15.6607V6.5914C15.9132 6.57176 16.1678 6.55939 16.4261 6.55939L16.4269 6.55939ZM20.6224 7.48496L22.0784 3.98305C21.8397 3.87609 21.5974 3.77641 21.3522 3.68328L19.897 7.18301C20.1436 7.27396 20.3852 7.37509 20.6224 7.48496" fill="white"/>
<path d="M19.4094 16.3957C18.0917 14.0841 17.3124 11.3549 17.2542 8.16297C17.0017 8.14041 16.7463 8.12659 16.488 8.12659C16.2275 8.12659 15.9707 8.14041 15.716 8.16369C15.6578 11.3549 14.8785 14.0841 13.5608 16.3957H19.4094ZM19.6025 16.7243H13.3676C12.3344 18.4386 10.9999 19.9178 9.43994 21.1765C10.1144 22.2024 11.0058 23.0726 12.0499 23.7209C12.0113 23.4982 11.9902 23.2705 11.9902 23.0377C11.9902 20.7152 14.0035 18.8322 16.4876 18.8322C18.9716 18.8322 20.9849 20.7152 20.9849 23.0377C20.9849 23.2705 20.9638 23.4982 20.9253 23.7209C21.9679 23.0733 22.8593 22.2046 23.533 21.1794C21.9716 19.9199 20.6364 18.44 19.6025 16.7243" fill="#E30613"/>
<path d="M17.6782 8.2123C21.7696 8.79073 24.9165 12.305 24.9165 16.5556C24.9165 17.9169 24.592 19.2019 24.0186 20.3406C20.3049 17.5546 18.0486 13.6285 17.6782 8.2123V8.2123ZM20.9256 23.721C20.9641 23.4983 20.9852 23.2706 20.9852 23.0378C20.9852 20.7153 18.9719 18.8323 16.4879 18.8323C14.0038 18.8323 11.9905 20.7153 11.9905 23.0378C11.9905 23.2706 12.0116 23.4983 12.0509 23.721C11.006 23.0727 10.1147 22.2025 9.44096 21.1766C11.0002 19.9178 12.3347 18.4386 13.3679 16.7244H19.6028C20.6367 18.4401 21.9719 19.92 23.5333 21.1795C22.8595 22.2047 21.9689 23.0734 20.9256 23.721V23.721ZM19.5125 24.4224C18.5732 24.784 17.5545 24.9841 16.4879 24.9841C15.4219 24.9841 14.4033 24.784 13.4639 24.4224C13.1212 23.9021 12.9226 23.288 12.9226 22.6288C12.9226 20.7589 14.5189 19.2426 16.4879 19.2426C18.4575 19.2426 20.0539 20.7589 20.0539 22.6288C20.0539 23.288 19.8552 23.9021 19.5125 24.4224V24.4224ZM8.05922 16.5556C8.05922 12.3043 11.2076 8.79001 15.2997 8.2123C14.9293 13.6285 12.6723 17.5553 8.95782 20.3413C8.38446 19.2026 8.05922 17.9177 8.05922 16.5556ZM16.4879 8.12717C16.7469 8.12717 17.0016 8.14027 17.2548 8.16355C17.3122 11.3548 18.0922 14.084 19.4099 16.3956H13.5607C14.8791 14.084 15.6584 11.3548 15.7166 8.16355C15.9705 8.14099 16.2281 8.12717 16.4879 8.12717V8.12717ZM16.4879 7.52036C11.5059 7.52036 7.45312 11.5738 7.45312 16.5556C7.45312 21.5375 11.5059 25.5902 16.4879 25.5902C21.4698 25.5902 25.5233 21.5375 25.5233 16.5556C25.5233 11.5738 21.4698 7.52036 16.4879 7.52036Z" fill="white"/>
<path d="M17.8609 22.0189C17.4243 22.0189 17.0045 22.3703 16.7615 23.012C16.7571 23.0208 16.7542 23.0317 16.7542 23.0426C16.7535 23.0834 16.7862 23.1168 16.827 23.1175C16.8561 23.1175 16.8808 23.1015 16.8939 23.0775C16.8939 23.0759 16.8946 23.0755 16.8946 23.0738C16.8953 23.0738 16.8953 23.073 16.8953 23.0721C17.0816 22.6698 17.4279 22.4806 17.6244 22.4806C17.735 22.4806 17.8245 22.5701 17.8245 22.6807C17.8245 22.7913 17.735 22.8808 17.6244 22.8808C17.6142 22.8808 17.5982 22.8795 17.5887 22.8779C17.58 22.8766 17.5589 22.8713 17.548 22.8953C17.54 22.915 17.5232 23.011 17.6091 23.1092C17.6593 23.166 17.7626 23.2133 17.8609 23.2133C18.1912 23.2133 18.4582 22.9455 18.4582 22.6159C18.4582 22.2856 18.1912 22.0186 17.8609 22.0186L17.8609 22.0189ZM16.1953 23.0118C15.9516 22.37 15.5317 22.0186 15.0959 22.0186C14.7656 22.0186 14.4985 22.2863 14.4985 22.6159C14.4985 22.9455 14.7656 23.2133 15.0959 23.2133C15.1941 23.2133 15.2975 23.166 15.3477 23.1092C15.4335 23.011 15.4168 22.915 15.408 22.8961C15.3979 22.8713 15.3768 22.8764 15.368 22.8779C15.3586 22.8796 15.3426 22.8808 15.3324 22.8808C15.2218 22.8808 15.1323 22.7913 15.1323 22.6807C15.1323 22.5708 15.2218 22.4813 15.3324 22.4813C15.5281 22.4813 15.8752 22.6698 16.0607 23.0729C16.0607 23.0737 16.0614 23.0737 16.0614 23.0746C16.0621 23.0754 16.0629 23.0762 16.0629 23.0775C16.0752 23.1015 16.1007 23.1182 16.1291 23.1175C16.1706 23.1166 16.2033 23.0833 16.2026 23.0425C16.2026 23.0316 16.1997 23.0214 16.1953 23.012L16.1953 23.0118ZM17.0747 21.7418C17.0747 21.3977 16.6243 20.323 16.4883 20.323C16.4781 20.323 16.4672 20.3281 16.4548 20.3383C16.2903 20.4707 15.9011 21.4216 15.9011 21.7418C15.9011 21.9986 16.4199 22.6753 16.4199 23.0435C16.4199 23.0813 16.4504 23.1118 16.4883 23.1118C16.5254 23.1118 16.5567 23.0813 16.5567 23.0435C16.5567 23.0426 16.5559 23.0418 16.5559 23.0414C16.5581 22.6732 17.0747 21.998 17.0747 21.7419L17.0747 21.7418ZM16.7877 23.6336C16.6894 23.5732 16.6145 23.4771 16.5876 23.3622C16.5752 23.3185 16.5359 23.2858 16.4879 23.2858C16.4406 23.2858 16.4006 23.3185 16.3882 23.3622C16.3613 23.4771 16.2863 23.5732 16.1881 23.6336C16.1699 23.6444 16.1685 23.6525 16.1757 23.6663C16.2354 23.7849 16.3366 23.9319 16.4602 24.0315C16.4777 24.0453 16.4843 24.0461 16.4879 24.0461C16.4923 24.0461 16.4981 24.0453 16.5155 24.0315C16.64 23.9319 16.7404 23.7849 16.8 23.6663C16.8073 23.6525 16.8059 23.6444 16.7877 23.6336" fill="#CEAB5D"/>
<path d="M14.6373 28.3742L14.1338 28.2636L14.1796 28.0598L14.6824 28.1733L14.6373 28.3742ZM8.42635 24.3266C8.31066 23.8951 7.87336 23.4724 7.54303 23.4724C7.46881 23.4724 7.40333 23.4934 7.34657 23.5357C7.27963 23.5851 7.24034 23.6513 7.2287 23.7314C7.20979 23.858 7.26071 24.0173 7.36549 24.1563L7.51611 24.3578C7.63252 24.5135 7.7453 24.6765 7.72129 24.8053C7.71256 24.857 7.68346 24.8984 7.63471 24.9297C7.60851 24.9472 7.57795 24.9552 7.54375 24.9552C7.3393 24.9552 6.99368 24.5914 6.82342 24.069L6.8198 24.0595L6.67137 24.1992L6.66846 24.2021L6.66916 24.2051C6.70263 24.336 6.7914 24.547 6.94056 24.7471C7.09773 24.9567 7.27672 25.1022 7.4448 25.156C7.49937 25.1735 7.55249 25.1822 7.60342 25.1822C7.67691 25.1822 7.74239 25.1633 7.79187 25.1277C7.87336 25.0673 7.92211 24.9916 7.93521 24.9014C7.96067 24.7348 7.87191 24.5143 7.67254 24.248L7.53939 24.0697C7.43316 23.9279 7.43752 23.8354 7.46008 23.7831C7.48045 23.7372 7.52265 23.7052 7.57067 23.6994C7.57795 23.6986 7.58596 23.6986 7.59396 23.6986C7.83625 23.6986 8.17968 24.1009 8.26918 24.4131L8.27134 24.4203L8.27862 24.4166C8.32882 24.3875 8.38703 24.354 8.42341 24.3336L8.42778 24.3307L8.42635 24.3266ZM22.1179 26.1483L21.9368 26.2407L21.9062 27.2426L21.0775 26.6787L20.8963 26.7719L21.5133 28.043L21.6981 27.9607L21.2695 27.0571L21.2732 27.055L22.0946 27.6116L22.1259 26.6206L22.1295 26.6185L22.6105 27.4975L22.7866 27.3978L22.1179 26.1483ZM24.5116 24.2491L25.8723 24.343L25.8744 24.3401L25.0762 23.622L25.2123 23.4706L26.263 24.4158L26.1407 24.5671L24.7663 24.4732L24.7634 24.4761L25.5717 25.2037L25.4291 25.3493L24.3755 24.4005L24.5116 24.2491ZM23.9513 24.8028L24.9161 25.841L24.764 25.9756L23.8021 24.941L23.9513 24.8028ZM23.1182 25.7792L23.2223 26.3089L23.5846 26.0513L23.1182 25.7792ZM24.3923 26.29L24.2148 26.4311L23.7775 26.1634L23.263 26.5293L23.3627 27.0416L23.1816 27.1573L22.8832 25.6366L23.0673 25.5063L24.3923 26.29ZM19.4665 27.4801L19.5866 27.8788L20.189 27.6976C20.3353 27.6533 20.3957 27.5529 20.3557 27.4212C20.3098 27.2676 20.181 27.2647 20.069 27.2989L19.4665 27.4801ZM20.0108 27.1039C20.2269 27.0384 20.4677 27.0865 20.5507 27.3622C20.6394 27.6562 20.4706 27.8075 20.3593 27.8512L20.801 28.327L20.587 28.4034L20.1483 27.9217L19.6455 28.0731L19.815 28.6413L19.6208 28.6966L19.2133 27.344L20.0108 27.1039ZM18.7267 27.4602L18.7558 27.6618L17.8114 27.7971L17.8645 28.1645L18.3403 28.0961L18.3694 28.2977L17.8936 28.3661L17.9547 28.7932L18.9341 28.6528L18.9624 28.8536L17.7822 29.0231L17.5814 27.6239L18.7267 27.4602ZM16.5252 28.3147L17.1727 28.3249L17.1669 28.7003C17.1625 28.9543 16.881 29.1194 16.5266 29.1136C16.1504 29.1071 15.7612 28.843 15.7692 28.3627C15.775 27.9597 16.1024 27.6337 16.555 27.641C16.8919 27.646 17.0665 27.8258 17.1473 27.9065L17.0039 28.0492C16.9355 27.98 16.8286 27.8491 16.5725 27.8447C16.197 27.8382 15.9765 28.0797 15.9722 28.3751C15.9671 28.6523 16.1817 28.9041 16.5397 28.9106C16.7849 28.9144 16.9617 28.8037 16.9632 28.6836L16.9661 28.5257L16.5215 28.5184L16.5252 28.3147ZM13.4192 27.2595L13.3523 27.4516L12.8844 27.2886L12.482 28.4418L12.29 28.3749L12.6916 27.2216L12.2237 27.0587L12.2907 26.8666L13.4192 27.2595ZM10.9758 26.2144L11.2203 27.5554L11.2239 27.5571L11.7231 26.6068L11.9035 26.7014L11.2465 27.9536L11.0682 27.8728L10.8215 26.5159L10.8186 26.5142L10.3108 27.479L10.1361 27.3771L10.7961 26.1199L10.9758 26.2144ZM10.3555 25.8196L9.56389 27.0202L9.39363 26.9089L10.1853 25.7083L10.3555 25.8196ZM9.14253 25.2235L8.65503 25.4549L8.99337 25.7423L9.14253 25.2235ZM8.9599 26.598L8.77873 26.4619L8.93225 25.9569L8.4513 25.5488L7.97326 25.7758L7.81101 25.6273L9.22257 24.9609L9.39501 25.1071L8.9599 26.598Z" fill="white"/>
</g>
<defs>
<clipPath id="clip0_77_15631">
<rect width="33" height="33" fill="white"/>
</clipPath>
</defs>
</svg>
