<svg width="33" height="33" viewBox="0 0 33 33" fill="none" xmlns="http://www.w3.org/2000/svg">
<g clip-path="url(#clip0_77_17629)">
<path d="M16.5 0C7.40125 0 0 7.40181 0 16.4996C0 25.5975 7.40125 33 16.5 33C25.598 33 33 25.5975 33 16.4996C33 7.40181 25.598 0 16.5 0" fill="#004170"/>
<path d="M16.4768 1.18433C12.3847 1.18433 8.53713 2.77776 5.64342 5.6714C2.74972 8.56504 1.15625 12.4126 1.15625 16.5045C1.15625 20.5965 2.74972 24.4433 5.64342 27.3377C8.53713 30.2313 12.3847 31.8248 16.4768 31.8248C20.5689 31.8248 24.4165 30.2313 27.3102 27.3377C30.2039 24.4433 31.7974 20.5965 31.7974 16.5045C31.7974 12.4126 30.2039 8.56504 27.3102 5.6714C24.4165 2.77776 20.5689 1.18433 16.4768 1.18433ZM16.4768 1.79114C24.6035 1.79114 31.1905 8.37878 31.1905 16.5045C31.1905 24.6303 24.6035 31.218 16.4768 31.218C8.35086 31.218 1.76308 24.6303 1.76308 16.5045C1.76308 8.37878 8.35086 1.79114 16.4768 1.79114" fill="white"/>
<path d="M12.0658 5.90444L12.1306 4.28409L13.198 5.5079C12.8116 5.62068 12.434 5.7531 12.0658 5.90444V5.90444ZM12.2929 3.44954C12.0236 3.53612 11.7573 3.62998 11.4954 3.73257L11.2124 8.02901C11.467 7.87331 11.729 7.72852 11.9974 7.59537L12.0382 6.5942C12.5563 6.36573 13.0961 6.17656 13.6535 6.03031L14.3134 6.78774C14.6037 6.72516 14.8984 6.67423 15.1967 6.63785L12.2929 3.44954ZM23.9401 6.10329C24.5077 5.97014 25.5503 7.00623 25.7497 7.70763C25.9156 7.58103 26.2845 7.31037 26.2845 7.31037C25.8436 6.05599 24.0886 4.8009 23.2547 5.5867C22.76 6.05381 23.0408 6.7734 23.4723 7.22815L23.8914 7.66907C24.3192 8.11945 24.6925 8.56765 24.3491 8.85068C23.9831 9.15336 22.9593 8.39521 22.3438 7.09355L21.793 7.509C21.9247 7.8517 22.2215 8.34792 22.6203 8.76774C23.0721 9.24359 23.5647 9.55354 24.0056 9.64012C24.352 9.70852 24.6976 9.65686 24.9253 9.44513C25.4936 8.91835 25.287 8.15001 24.3942 7.20996L24.0238 6.8207C23.6127 6.38778 23.7808 6.14113 23.9401 6.10329V6.10329ZM7.29629 7.20428L8.32876 6.07142C8.56087 5.81676 8.95742 5.79784 9.21281 6.03067C9.46747 6.26277 9.48639 6.65931 9.25356 6.91397L8.22108 8.04756L7.29629 7.20428ZM9.57443 9.28084L8.71585 8.49867L9.77962 7.32725C10.2613 6.79974 10.2613 5.94991 9.73305 5.46897C9.20481 4.9873 8.34477 5.05352 7.86382 5.58175L6.28418 7.31924L9.03528 9.82581C9.20772 9.63663 9.38889 9.45619 9.57443 9.28084V9.28084ZM16.4274 3.49116H17.836C18.1809 3.49116 18.4618 3.77201 18.4618 4.11688C18.4618 4.46176 18.1809 4.74262 17.836 4.74262H16.4274V3.49116ZM16.4274 6.55942V5.41273H17.3871L18.2151 6.72167C18.5432 6.78133 18.8656 6.85628 19.1814 6.94723L18.1889 5.36471C18.7579 5.21264 19.2272 4.71133 19.2272 4.11688C19.2272 3.40239 18.5505 2.82031 17.836 2.82031H15.6612V6.59143C15.9137 6.57179 16.1683 6.55942 16.4266 6.55942L16.4274 6.55942ZM20.6229 7.48499L22.0788 3.98308C21.8402 3.87612 21.5979 3.77644 21.3527 3.68331L19.8975 7.18304C20.1441 7.27399 20.3857 7.37512 20.6229 7.48499" fill="white"/>
<path d="M19.4098 16.3958C18.0921 14.0842 17.3129 11.355 17.2547 8.16309C17.0022 8.14053 16.7468 8.12671 16.4885 8.12671C16.228 8.12671 15.9712 8.14053 15.7165 8.16382C15.6583 11.355 14.879 14.0842 13.5613 16.3958H19.4098ZM19.603 16.7245H13.3681C12.3349 18.4387 11.0004 19.9179 9.44043 21.1766C10.1149 22.2025 11.0062 23.0727 12.0504 23.721C12.0118 23.4984 11.9907 23.2706 11.9907 23.0378C11.9907 20.7153 14.004 18.8323 16.4881 18.8323C18.9721 18.8323 20.9854 20.7153 20.9854 23.0378C20.9854 23.2706 20.9643 23.4984 20.9258 23.721C21.9684 23.0735 22.8597 22.2047 23.5335 21.1795C21.9721 19.9201 20.6369 18.4401 19.603 16.7245" fill="#E30613"/>
<path d="M17.6782 8.2122C21.7696 8.79064 24.9165 12.3049 24.9165 16.5555C24.9165 17.9169 24.592 19.2018 24.0186 20.3405C20.3049 17.5545 18.0486 13.6284 17.6782 8.2122V8.2122ZM20.9256 23.7209C20.9641 23.4982 20.9852 23.2705 20.9852 23.0377C20.9852 20.7152 18.9719 18.8322 16.4879 18.8322C14.0038 18.8322 11.9905 20.7152 11.9905 23.0377C11.9905 23.2705 12.0116 23.4982 12.0509 23.7209C11.006 23.0726 10.1147 22.2024 9.44096 21.1765C11.0002 19.9177 12.3347 18.4385 13.3679 16.7243H19.6028C20.6367 18.44 21.9719 19.9199 23.5333 21.1794C22.8595 22.2046 21.9689 23.0733 20.9256 23.7209V23.7209ZM19.5125 24.4223C18.5732 24.7839 17.5545 24.984 16.4879 24.984C15.4219 24.984 14.4033 24.7839 13.4639 24.4223C13.1212 23.902 12.9226 23.288 12.9226 22.6288C12.9226 20.7588 14.5189 19.2425 16.4879 19.2425C18.4575 19.2425 20.0539 20.7588 20.0539 22.6288C20.0539 23.288 19.8552 23.902 19.5125 24.4223V24.4223ZM8.05922 16.5555C8.05922 12.3042 11.2076 8.78991 15.2997 8.2122C14.9293 13.6284 12.6723 17.5552 8.95782 20.3412C8.38446 19.2025 8.05922 17.9176 8.05922 16.5555ZM16.4879 8.12708C16.7469 8.12708 17.0016 8.14018 17.2548 8.16346C17.3122 11.3547 18.0922 14.0839 19.4099 16.3955H13.5607C14.8791 14.0839 15.6584 11.3547 15.7166 8.16346C15.9705 8.1409 16.2281 8.12708 16.4879 8.12708V8.12708ZM16.4879 7.52026C11.5059 7.52026 7.45312 11.5737 7.45312 16.5555C7.45312 21.5374 11.5059 25.5901 16.4879 25.5901C21.4698 25.5901 25.5233 21.5374 25.5233 16.5555C25.5233 11.5737 21.4698 7.52026 16.4879 7.52026Z" fill="white"/>
<path d="M17.8604 22.0189C17.4238 22.0189 17.004 22.3703 16.761 23.012C16.7566 23.0208 16.7537 23.0317 16.7537 23.0426C16.753 23.0834 16.7857 23.1168 16.8265 23.1175C16.8556 23.1175 16.8803 23.1015 16.8934 23.0775C16.8934 23.0759 16.8941 23.0755 16.8941 23.0738C16.8948 23.0738 16.8948 23.073 16.8948 23.0721C17.0811 22.6698 17.4274 22.4806 17.6239 22.4806C17.7345 22.4806 17.824 22.5701 17.824 22.6807C17.824 22.7913 17.7345 22.8808 17.6239 22.8808C17.6137 22.8808 17.5977 22.8795 17.5882 22.8779C17.5795 22.8766 17.5584 22.8713 17.5475 22.8953C17.5395 22.915 17.5228 23.011 17.6086 23.1092C17.6588 23.166 17.7621 23.2133 17.8604 23.2133C18.1907 23.2133 18.4577 22.9455 18.4577 22.6159C18.4577 22.2856 18.1907 22.0186 17.8604 22.0186L17.8604 22.0189ZM16.1948 23.0118C15.9511 22.37 15.5313 22.0186 15.0954 22.0186C14.7651 22.0186 14.498 22.2863 14.498 22.6159C14.498 22.9455 14.7651 23.2133 15.0954 23.2133C15.1936 23.2133 15.297 23.166 15.3472 23.1092C15.433 23.011 15.4163 22.915 15.4076 22.8961C15.3974 22.8713 15.3763 22.8764 15.3675 22.8779C15.3581 22.8796 15.3421 22.8808 15.3319 22.8808C15.2213 22.8808 15.1318 22.7913 15.1318 22.6807C15.1318 22.5708 15.2213 22.4813 15.3319 22.4813C15.5276 22.4813 15.8747 22.6698 16.0602 23.0729C16.0602 23.0737 16.0609 23.0737 16.0609 23.0746C16.0616 23.0754 16.0624 23.0762 16.0624 23.0775C16.0748 23.1015 16.1002 23.1182 16.1286 23.1175C16.1701 23.1166 16.2028 23.0833 16.2021 23.0425C16.2021 23.0316 16.1992 23.0214 16.1948 23.012L16.1948 23.0118ZM17.0742 21.7418C17.0742 21.3977 16.6238 20.323 16.4878 20.323C16.4776 20.323 16.4667 20.3281 16.4543 20.3383C16.2899 20.4707 15.9006 21.4216 15.9006 21.7418C15.9006 21.9986 16.4194 22.6753 16.4194 23.0435C16.4194 23.0813 16.4499 23.1118 16.4878 23.1118C16.5249 23.1118 16.5562 23.0813 16.5562 23.0435C16.5562 23.0426 16.5554 23.0418 16.5554 23.0414C16.5576 22.6732 17.0742 21.998 17.0742 21.7419L17.0742 21.7418ZM16.7872 23.6336C16.689 23.5732 16.614 23.4771 16.5871 23.3622C16.5747 23.3185 16.5354 23.2858 16.4874 23.2858C16.4401 23.2858 16.4001 23.3185 16.3877 23.3622C16.3608 23.4771 16.2859 23.5732 16.1876 23.6336C16.1694 23.6444 16.168 23.6525 16.1753 23.6663C16.2349 23.7849 16.3361 23.9319 16.4598 24.0315C16.4772 24.0453 16.4838 24.0461 16.4874 24.0461C16.4918 24.0461 16.4976 24.0453 16.5151 24.0315C16.6395 23.9319 16.7399 23.7849 16.7996 23.6663C16.8068 23.6525 16.8054 23.6444 16.7872 23.6336" fill="#CEAB5D"/>
<path d="M14.6368 28.3743L14.1333 28.2637L14.1791 28.0599L14.6819 28.1734L14.6368 28.3743ZM8.42586 24.3266C8.31017 23.8952 7.87287 23.4724 7.54254 23.4724C7.46832 23.4724 7.40284 23.4935 7.34608 23.5357C7.27914 23.5852 7.23985 23.6514 7.22821 23.7315C7.2093 23.8581 7.26023 24.0174 7.365 24.1564L7.51562 24.3579C7.63204 24.5136 7.74481 24.6766 7.7208 24.8054C7.71207 24.8571 7.68297 24.8985 7.63422 24.9298C7.60802 24.9473 7.57746 24.9553 7.54327 24.9553C7.33881 24.9553 6.99319 24.5915 6.82293 24.0691L6.81931 24.0596L6.67088 24.1993L6.66797 24.2022L6.66868 24.2051C6.70215 24.3361 6.79092 24.5471 6.94008 24.7472C7.09724 24.9568 7.27623 25.1023 7.44431 25.1561C7.49888 25.1736 7.552 25.1823 7.60293 25.1823C7.67642 25.1823 7.7419 25.1634 7.79138 25.1277C7.87287 25.0674 7.92162 24.9917 7.93472 24.9015C7.96019 24.7348 7.87142 24.5144 7.67205 24.2481L7.5389 24.0698C7.43267 23.9279 7.43703 23.8355 7.45959 23.7832C7.47996 23.7373 7.52216 23.7053 7.57018 23.6995C7.57746 23.6986 7.58547 23.6986 7.59347 23.6986C7.83576 23.6986 8.17919 24.101 8.26869 24.4131L8.27086 24.4204L8.27813 24.4167C8.32833 24.3876 8.38654 24.3541 8.42292 24.3337L8.42729 24.3308L8.42586 24.3266ZM22.1174 26.1484L21.9363 26.2408L21.9057 27.2427L21.077 26.6788L20.8958 26.7719L21.5128 28.0431L21.6976 27.9608L21.2691 27.0572L21.2727 27.0551L22.0941 27.6117L22.1254 26.6207L22.129 26.6186L22.61 27.4976L22.7861 27.3979L22.1174 26.1484ZM24.5111 24.2492L25.8718 24.3431L25.8739 24.3402L25.0757 23.622L25.2118 23.4707L26.2625 24.4158L26.1402 24.5672L24.7658 24.4733L24.7629 24.4762L25.5712 25.2038L25.4286 25.3494L24.3751 24.4006L24.5111 24.2492ZM23.9508 24.8029L24.9156 25.8411L24.7635 25.9757L23.8016 24.9411L23.9508 24.8029ZM23.1178 25.7793L23.2218 26.309L23.5842 26.0514L23.1178 25.7793ZM24.3918 26.2901L24.2143 26.4312L23.777 26.1635L23.2626 26.5294L23.3622 27.0417L23.1811 27.1574L22.8827 25.6367L23.0668 25.5064L24.3918 26.2901ZM19.466 27.4802L19.5861 27.8789L20.1885 27.6977C20.3348 27.6533 20.3952 27.5529 20.3552 27.4212C20.3093 27.2677 20.1805 27.2648 20.0685 27.299L19.466 27.4802ZM20.0103 27.104C20.2264 27.0385 20.4672 27.0865 20.5502 27.3623C20.6389 27.6563 20.4701 27.8076 20.3588 27.8513L20.8005 28.3271L20.5866 28.4035L20.1478 27.9218L19.645 28.0732L19.8146 28.6414L19.6203 28.6967L19.2128 27.3441L20.0103 27.104ZM18.7262 27.4603L18.7553 27.6619L17.8109 27.7972L17.864 28.1646L18.3398 28.0962L18.3689 28.2978L17.8931 28.3662L17.9542 28.7933L18.9336 28.6528L18.9619 28.8537L17.7818 29.0232L17.5809 27.624L18.7262 27.4603ZM16.5247 28.3148L17.1722 28.325L17.1664 28.7004C17.1621 28.9544 16.8805 29.1195 16.5261 29.1137C16.15 29.1072 15.7607 28.843 15.7687 28.3628C15.7745 27.9597 16.1019 27.6338 16.5545 27.6411C16.8914 27.6461 17.066 27.8259 17.1468 27.9066L17.0034 28.0492C16.935 27.9801 16.8281 27.8492 16.572 27.8448C16.1965 27.8383 15.9761 28.0798 15.9717 28.3752C15.9666 28.6524 16.1812 28.9042 16.5392 28.9107C16.7844 28.9145 16.9612 28.8038 16.9627 28.6837L16.9656 28.5258L16.521 28.5185L16.5247 28.3148ZM13.4187 27.2596L13.3518 27.4517L12.8839 27.2887L12.4816 28.4419L12.2895 28.375L12.6911 27.2217L12.2233 27.0588L12.2902 26.8667L13.4187 27.2596ZM10.9753 26.2145L11.2198 27.5555L11.2234 27.5572L11.7226 26.6069L11.903 26.7015L11.246 27.9537L11.0677 27.8729L10.8211 26.516L10.8181 26.5143L10.3103 27.4791L10.1356 27.3772L10.7956 26.1199L10.9753 26.2145ZM10.355 25.8197L9.5634 27.0203L9.39314 26.9089L10.1848 25.7084L10.355 25.8197ZM9.14204 25.2236L8.65455 25.455L8.99288 25.7424L9.14204 25.2236ZM8.95941 26.5981L8.77824 26.462L8.93176 25.957L8.45081 25.5489L7.97278 25.7759L7.81052 25.6274L9.22208 24.961L9.39453 25.1072L8.95941 26.5981Z" fill="white"/>
</g>
<defs>
<clipPath id="clip0_77_17629">
<rect width="33" height="33" fill="white"/>
</clipPath>
</defs>
</svg>
