<svg width="46" height="46" viewBox="0 0 46 46" fill="none" xmlns="http://www.w3.org/2000/svg">
<g clip-path="url(#clip0_77_15407)">
<path d="M23 0C10.3169 0 0 10.3177 0 22.9995C0 35.6813 10.3169 46 23 46C35.6821 46 46 35.6813 46 22.9995C46 10.3177 35.6821 0 23 0" fill="#004170"/>
<path d="M22.9682 1.65083C17.2641 1.65083 11.9008 3.87198 7.86715 7.90554C3.8335 11.9391 1.6123 17.3023 1.6123 23.0063C1.6123 28.7103 3.8335 34.0725 7.86715 38.107C11.9008 42.1406 17.2641 44.3618 22.9682 44.3618C28.6723 44.3618 34.0357 42.1406 38.0693 38.107C42.103 34.0725 44.3242 28.7103 44.3242 23.0063C44.3242 17.3023 42.103 11.9391 38.0693 7.90554C34.0357 3.87198 28.6723 1.65083 22.9682 1.65083ZM22.9682 2.4967C34.2963 2.4967 43.4783 11.6795 43.4783 23.0063C43.4783 34.3331 34.2963 43.5159 22.9682 43.5159C11.6412 43.5159 2.45819 34.3331 2.45819 23.0063C2.45819 11.6795 11.6412 2.4967 22.9682 2.4967" fill="white"/>
<path d="M16.8186 8.23039L16.9088 5.97172L18.3967 7.67764C17.8582 7.83484 17.3318 8.01943 16.8186 8.23039V8.23039ZM17.135 4.8084C16.7597 4.9291 16.3885 5.05993 16.0234 5.20294L15.6289 11.1919C15.9838 10.9749 16.349 10.773 16.7232 10.5874L16.78 9.19187C17.5022 8.87341 18.2547 8.60971 19.0316 8.40585L19.9516 9.46165C20.3563 9.37443 20.767 9.30343 21.1829 9.25272L17.135 4.8084ZM33.3706 8.50758C34.1617 8.32197 35.6151 9.76622 35.8931 10.7439C36.1243 10.5675 36.6385 10.1902 36.6385 10.1902C36.0239 8.44165 33.5775 6.69212 32.4152 7.78748C31.7255 8.43861 32.117 9.44167 32.7185 10.0756L33.3027 10.6902C33.899 11.318 34.4194 11.9427 33.9406 12.3373C33.4305 12.7592 32.0034 11.7024 31.1454 9.88793L30.3776 10.4671C30.5612 10.9448 30.975 11.6365 31.5308 12.2217C32.1606 12.885 32.8473 13.317 33.4619 13.4377C33.9447 13.533 34.4265 13.461 34.7439 13.1659C35.536 12.4316 35.248 11.3606 34.0035 10.0502L33.4873 9.5076C32.9142 8.90414 33.1485 8.56032 33.3706 8.50758V8.50758ZM10.1701 10.0423L11.6093 8.46315C11.9328 8.10817 12.4856 8.0818 12.8416 8.40635C13.1966 8.72989 13.223 9.28264 12.8984 9.63762L11.4592 11.2178L10.1701 10.0423ZM13.3457 12.9369L12.1489 11.8466L13.6317 10.2137C14.3031 9.47839 14.3031 8.29378 13.5668 7.62337C12.8305 6.95196 11.6316 7.04426 10.9612 7.78058L8.75928 10.2025L12.5941 13.6965C12.8345 13.4328 13.0871 13.1813 13.3457 12.9369V12.9369ZM22.8982 4.86642H24.8618C25.3426 4.86642 25.7341 5.25791 25.7341 5.73865C25.7341 6.21939 25.3426 6.61088 24.8618 6.61088H22.8982V4.86642ZM22.8982 9.14339V7.54498H24.236L25.3902 9.36956C25.8477 9.45273 26.297 9.5572 26.7372 9.68397L25.3537 7.47804C26.1469 7.26607 26.8011 6.56727 26.8011 5.73865C26.8011 4.74268 25.8578 3.9313 24.8618 3.9313H21.8303V9.18802C22.1822 9.16063 22.5372 9.14339 22.8972 9.14339L22.8982 9.14339ZM28.7466 10.4336L30.7761 5.55213C30.4434 5.40304 30.1057 5.26409 29.7639 5.13427L27.7354 10.0127C28.0792 10.1395 28.4159 10.2804 28.7466 10.4336" fill="white"/>
<path d="M27.0555 22.8546C25.2187 19.6324 24.1324 15.8281 24.0513 11.3787C23.6993 11.3472 23.3433 11.328 22.9833 11.328C22.6202 11.328 22.2621 11.3472 21.9072 11.3797C21.826 15.8281 20.7398 19.6324 18.903 22.8546H27.0555ZM27.3246 23.3127H18.6336C17.1934 25.7022 15.3332 27.7642 13.1587 29.5188C14.0989 30.9488 15.3413 32.1618 16.7968 33.0655C16.743 32.7551 16.7136 32.4377 16.7136 32.1131C16.7136 28.8757 19.52 26.2509 22.9827 26.2509C26.4453 26.2509 29.2517 28.8757 29.2517 32.1131C29.2517 32.4377 29.2223 32.7551 29.1685 33.0655C30.6219 32.1628 31.8644 30.9519 32.8036 29.5228C30.627 27.7672 28.7659 25.7043 27.3246 23.3127" fill="#E30613"/>
<path d="M24.6418 11.4474C30.3449 12.2537 34.7315 17.1524 34.7315 23.0775C34.7315 24.9751 34.2792 26.7663 33.48 28.3535C28.3033 24.47 25.1581 18.9973 24.6418 11.4474V11.4474ZM29.1684 33.0656C29.2222 32.7552 29.2516 32.4378 29.2516 32.1132C29.2516 28.8758 26.4452 26.251 22.9825 26.251C19.5199 26.251 16.7135 28.8758 16.7135 32.1132C16.7135 32.4378 16.7429 32.7552 16.7977 33.0656C15.3412 32.1619 14.0988 30.9489 13.1596 29.5188C15.3331 27.7642 17.1932 25.7023 18.6335 23.3128H27.3245C28.7658 25.7044 30.6269 27.7673 32.8035 29.5229C31.8643 30.9519 30.6228 32.1629 29.1684 33.0656V33.0656ZM27.1988 34.0433C25.8894 34.5474 24.4694 34.8263 22.9825 34.8263C21.4967 34.8263 20.0767 34.5474 18.7673 34.0433C18.2896 33.3181 18.0127 32.4621 18.0127 31.5432C18.0127 28.9367 20.238 26.823 22.9825 26.823C25.7281 26.823 27.9534 28.9367 27.9534 31.5432C27.9534 32.4621 27.6765 33.3181 27.1988 34.0433V34.0433ZM11.2335 23.0775C11.2335 17.1514 15.6222 12.2527 21.3263 11.4474C20.81 18.9973 17.6638 24.4711 12.4861 28.3545C11.6869 26.7673 11.2335 24.9761 11.2335 23.0775ZM22.9825 11.3288C23.3436 11.3288 23.6986 11.347 24.0516 11.3795C24.1317 15.8279 25.219 19.6322 27.0557 22.8544H18.9022C20.74 19.6322 21.8263 15.8279 21.9074 11.3795C22.2614 11.348 22.6205 11.3288 22.9825 11.3288V11.3288ZM22.9825 10.4829C16.038 10.4829 10.3887 16.1331 10.3887 23.0775C10.3887 30.0219 16.038 35.6711 22.9825 35.6711C29.9271 35.6711 35.5774 30.0219 35.5774 23.0775C35.5774 16.1331 29.9271 10.4829 22.9825 10.4829Z" fill="white"/>
<path d="M24.8969 30.693C24.2883 30.693 23.7031 31.1829 23.3644 32.0774C23.3583 32.0896 23.3542 32.1048 23.3542 32.12C23.3532 32.1768 23.3988 32.2235 23.4556 32.2245C23.4962 32.2245 23.5307 32.2022 23.549 32.1687C23.549 32.1664 23.5499 32.1658 23.5499 32.1635C23.5509 32.1635 23.5509 32.1623 23.5509 32.1612C23.8106 31.6003 24.2934 31.3366 24.5672 31.3366C24.7214 31.3366 24.8461 31.4614 24.8461 31.6155C24.8461 31.7697 24.7214 31.8944 24.5672 31.8944C24.553 31.8944 24.5307 31.8927 24.5175 31.8904C24.5053 31.8886 24.4759 31.8813 24.4607 31.9147C24.4495 31.9421 24.4262 32.076 24.5459 32.2129C24.6159 32.292 24.7599 32.3579 24.8968 32.3579C25.3573 32.3579 25.7295 31.9847 25.7295 31.5253C25.7295 31.0648 25.3573 30.6926 24.8968 30.6926L24.8969 30.693ZM22.5752 32.077C22.2354 31.1825 21.6502 30.6926 21.0427 30.6926C20.5822 30.6926 20.21 31.0658 20.21 31.5253C20.21 31.9847 20.5822 32.3579 21.0427 32.3579C21.1796 32.3579 21.3236 32.292 21.3936 32.2129C21.5133 32.076 21.4899 31.9421 21.4778 31.9157C21.4636 31.8812 21.4342 31.8884 21.422 31.8904C21.4088 31.8927 21.3865 31.8945 21.3723 31.8945C21.2181 31.8945 21.0934 31.7697 21.0934 31.6155C21.0934 31.4624 21.2181 31.3377 21.3723 31.3377C21.6451 31.3377 22.1289 31.6003 22.3875 32.1622C22.3875 32.1634 22.3885 32.1634 22.3885 32.1645C22.3895 32.1657 22.3906 32.1669 22.3906 32.1686C22.4078 32.202 22.4433 32.2254 22.4829 32.2244C22.5407 32.2232 22.5863 32.1767 22.5853 32.1199C22.5853 32.1047 22.5812 32.0905 22.5752 32.0773L22.5752 32.077ZM23.801 30.3068C23.801 29.827 23.1732 28.329 22.9835 28.329C22.9693 28.329 22.9541 28.3361 22.9369 28.3503C22.7076 28.5349 22.165 29.8605 22.165 30.3068C22.165 30.6648 22.8882 31.608 22.8882 32.1212C22.8882 32.174 22.9308 32.2165 22.9835 32.2165C23.0352 32.2165 23.0789 32.1739 23.0789 32.1212C23.0789 32.12 23.0778 32.1189 23.0778 32.1183C23.0808 31.6051 23.801 30.6639 23.801 30.3069L23.801 30.3068ZM23.4009 32.9438C23.264 32.8596 23.1595 32.7257 23.122 32.5654C23.1047 32.5046 23.0499 32.459 22.983 32.459C22.9171 32.459 22.8613 32.5046 22.8441 32.5654C22.8065 32.7257 22.7021 32.8596 22.5651 32.9438C22.5398 32.9589 22.5378 32.9701 22.5479 32.9894C22.6311 33.1547 22.772 33.3596 22.9445 33.4985C22.9688 33.5178 22.9779 33.5188 22.983 33.5188C22.9891 33.5188 22.9972 33.5177 23.0216 33.4985C23.195 33.3596 23.335 33.1547 23.4181 32.9894C23.4283 32.9701 23.4262 32.9589 23.4009 32.9438" fill="#CEAB5D"/>
<path d="M20.4035 39.5519L19.7016 39.3977L19.7655 39.1137L20.4664 39.2719L20.4035 39.5519ZM11.7458 33.9097C11.5845 33.3083 10.975 32.719 10.5145 32.719C10.4111 32.719 10.3198 32.7484 10.2407 32.8073C10.1474 32.8762 10.0926 32.9685 10.0764 33.0801C10.05 33.2566 10.121 33.4787 10.267 33.6724L10.477 33.9534C10.6393 34.1704 10.7965 34.3976 10.763 34.5771C10.7508 34.6491 10.7103 34.7069 10.6423 34.7505C10.6058 34.7749 10.5632 34.786 10.5155 34.786C10.2305 34.786 9.74875 34.2789 9.51142 33.5507L9.50638 33.5375L9.29947 33.7323L9.29541 33.7363L9.2964 33.7404C9.34305 33.9229 9.46679 34.2171 9.67471 34.496C9.89379 34.7881 10.1433 34.9909 10.3776 35.066C10.4536 35.0903 10.5277 35.1025 10.5987 35.1025C10.7011 35.1025 10.7924 35.0761 10.8614 35.0264C10.975 34.9423 11.0429 34.8368 11.0612 34.711C11.0967 34.4787 10.9729 34.1714 10.695 33.8002L10.5094 33.5518C10.3614 33.354 10.3674 33.2252 10.3989 33.1521C10.4273 33.0883 10.4861 33.0436 10.553 33.0355C10.5632 33.0344 10.5743 33.0344 10.5855 33.0344C10.9232 33.0344 11.402 33.5952 11.5267 34.0303L11.5297 34.0405L11.5399 34.0352C11.6099 33.9947 11.691 33.948 11.7417 33.9196L11.7478 33.9156L11.7458 33.9097ZM30.831 36.4492L30.5785 36.578L30.5359 37.9745L29.3807 37.1885L29.1281 37.3183L29.9882 39.0902L30.2458 38.9756L29.6484 37.7159L29.6535 37.713L30.7986 38.4889L30.8422 37.1075L30.8472 37.1046L31.5176 38.3298L31.7631 38.1909L30.831 36.4492ZM34.1677 33.8018L36.0643 33.9327L36.0674 33.9286L34.9547 32.9276L35.1444 32.7166L36.609 34.0341L36.4386 34.2451L34.5227 34.1142L34.5186 34.1183L35.6454 35.1325L35.4466 35.3353L33.978 34.0128L34.1677 33.8018ZM33.3866 34.5736L34.7315 36.0208L34.5195 36.2085L33.1787 34.7663L33.3866 34.5736ZM32.2254 35.9346L32.3705 36.673L32.8756 36.314L32.2254 35.9346ZM34.0014 36.6466L33.7539 36.8434L33.1443 36.4702L32.4273 36.9803L32.5662 37.6943L32.3137 37.8556L31.8978 35.7359L32.1544 35.5543L34.0014 36.6466ZM27.1351 38.3056L27.3025 38.8614L28.1423 38.6088C28.3461 38.547 28.4303 38.407 28.3745 38.2234C28.3106 38.0094 28.1311 38.0054 27.9749 38.053L27.1351 38.3056ZM27.8938 37.7812C28.195 37.69 28.5307 37.7569 28.6464 38.1413C28.7701 38.551 28.5348 38.762 28.3796 38.8228L28.9953 39.4861L28.6971 39.5926L28.0855 38.9212L27.3846 39.1322L27.621 39.9243L27.3502 40.0014L26.7822 38.1159L27.8938 37.7812ZM26.1039 38.2779L26.1444 38.5588L24.8279 38.7475L24.902 39.2597L25.5653 39.1643L25.6059 39.4453L24.9425 39.5406L25.0277 40.1359L26.3929 39.9402L26.4325 40.2201L24.7874 40.4564L24.5074 38.5061L26.1039 38.2779ZM23.0351 39.469L23.9377 39.4832L23.9296 40.0065C23.9235 40.3605 23.531 40.5907 23.0371 40.5826C22.5127 40.5735 21.9701 40.2053 21.9813 39.536C21.9894 38.9741 22.4458 38.5197 23.0766 38.5298C23.5462 38.5369 23.7897 38.7875 23.9022 38.9L23.7024 39.0988C23.6071 39.0025 23.458 38.8199 23.101 38.8138C22.5776 38.8047 22.2703 39.1414 22.2642 39.5532C22.2571 39.9396 22.5563 40.2905 23.0553 40.2997C23.3971 40.3049 23.6436 40.1506 23.6456 39.9832L23.6497 39.7631L23.03 39.753L23.0351 39.469ZM18.7055 37.9981L18.6122 38.2658L17.9601 38.0386L17.3992 39.6462L17.1314 39.5529L17.6913 37.9453L17.0391 37.7182L17.1325 37.4504L18.7055 37.9981ZM15.2996 36.5414L15.6404 38.4106L15.6454 38.4129L16.3412 37.0883L16.5927 37.2202L15.6769 38.9656L15.4284 38.8531L15.0846 36.9615L15.0805 36.9592L14.3726 38.3041L14.1291 38.1621L15.0491 36.4095L15.2996 36.5414ZM14.435 35.991L13.3315 37.6645L13.0941 37.5093L14.1976 35.8359L14.435 35.991ZM12.7441 35.1601L12.0646 35.4826L12.5362 35.8832L12.7441 35.1601ZM12.4895 37.0759L12.237 36.8863L12.451 36.1824L11.7806 35.6134L11.1142 35.9299L10.8881 35.723L12.8557 34.7939L13.0961 34.9978L12.4895 37.0759Z" fill="white"/>
</g>
<defs>
<clipPath id="clip0_77_15407">
<rect width="46" height="46" fill="white"/>
</clipPath>
</defs>
</svg>
