<svg width="46" height="46" viewBox="0 0 46 46" fill="none" xmlns="http://www.w3.org/2000/svg">
<g clip-path="url(#clip0_77_17432)">
<path d="M23 0C10.3169 0 0 10.3177 0 22.9995C0 35.6813 10.3169 46 23 46C35.6821 46 46 35.6813 46 22.9995C46 10.3177 35.6821 0 23 0" fill="#004170"/>
<path d="M22.9682 1.65088C17.2641 1.65088 11.9008 3.87202 7.86715 7.90558C3.8335 11.9391 1.6123 17.3024 1.6123 23.0063C1.6123 28.7103 3.8335 34.0725 7.86715 38.1071C11.9008 42.1407 17.2641 44.3618 22.9682 44.3618C28.6723 44.3618 34.0357 42.1407 38.0693 38.1071C42.103 34.0725 44.3242 28.7103 44.3242 23.0063C44.3242 17.3024 42.103 11.9391 38.0693 7.90558C34.0357 3.87202 28.6723 1.65088 22.9682 1.65088ZM22.9682 2.49674C34.2963 2.49674 43.4783 11.6795 43.4783 23.0063C43.4783 34.3332 34.2963 43.5159 22.9682 43.5159C11.6412 43.5159 2.45819 34.3332 2.45819 23.0063C2.45819 11.6795 11.6412 2.49674 22.9682 2.49674" fill="white"/>
<path d="M16.8181 8.23036L16.9083 5.97169L18.3962 7.67761C17.8577 7.83481 17.3313 8.0194 16.8181 8.23036V8.23036ZM17.1345 4.80837C16.7593 4.92907 16.388 5.0599 16.0229 5.20291L15.6284 11.1919C15.9834 10.9748 16.3485 10.773 16.7227 10.5874L16.7795 9.19184C17.5017 8.87338 18.2542 8.60968 19.0312 8.40582L19.9511 9.46162C20.3558 9.3744 20.7665 9.3034 21.1824 9.25269L17.1345 4.80837ZM33.3701 8.50755C34.1612 8.32194 35.6147 9.76619 35.8926 10.7439C36.1238 10.5674 36.638 10.1901 36.638 10.1901C36.0234 8.44162 33.577 6.69209 32.4147 7.78745C31.725 8.43858 32.1165 9.44164 32.718 10.0755L33.3022 10.6902C33.8986 11.318 34.4189 11.9427 33.9401 12.3372C33.43 12.7592 32.0029 11.7023 31.1449 9.8879L30.3771 10.467C30.5607 10.9447 30.9745 11.6364 31.5303 12.2216C32.1601 12.8849 32.8468 13.317 33.4614 13.4377C33.9442 13.533 34.426 13.461 34.7434 13.1659C35.5355 12.4316 35.2475 11.3606 34.003 10.0502L33.4868 9.50757C32.9137 8.9041 33.148 8.56029 33.3701 8.50755V8.50755ZM10.1696 10.0423L11.6088 8.46312C11.9324 8.10814 12.4851 8.08177 12.8411 8.40632C13.1961 8.72986 13.2225 9.28261 12.8979 9.63759L11.4587 11.2177L10.1696 10.0423ZM13.3452 12.9369L12.1484 11.8466L13.6312 10.2137C14.3026 9.47836 14.3026 8.29374 13.5663 7.62334C12.83 6.95193 11.6311 7.04423 10.9607 7.78055L8.75879 10.2025L12.5937 13.6965C12.834 13.4328 13.0866 13.1813 13.3452 12.9369V12.9369ZM22.8978 4.86639H24.8613C25.3421 4.86639 25.7336 5.25788 25.7336 5.73862C25.7336 6.21936 25.3421 6.61085 24.8613 6.61085H22.8978V4.86639ZM22.8978 9.14336V7.54495H24.2356L25.3898 9.36953C25.8472 9.4527 26.2965 9.55717 26.7367 9.68394L25.3532 7.47801C26.1464 7.26604 26.8006 6.56724 26.8006 5.73862C26.8006 4.74265 25.8573 3.93127 24.8613 3.93127H21.8298V9.18798C22.1817 9.1606 22.5367 9.14336 22.8967 9.14336L22.8978 9.14336ZM28.7461 10.4336L30.7756 5.5521C30.4429 5.40301 30.1052 5.26406 29.7634 5.13424L27.7349 10.0127C28.0787 10.1394 28.4155 10.2804 28.7461 10.4336" fill="white"/>
<path d="M27.0559 22.8546C25.2191 19.6325 24.1329 15.8281 24.0518 11.3787C23.6998 11.3473 23.3438 11.328 22.9838 11.328C22.6207 11.328 22.2626 11.3473 21.9076 11.3797C21.8265 15.8281 20.7402 19.6325 18.9035 22.8546H27.0559ZM27.3251 23.3128H18.6341C17.1938 25.7023 15.3337 27.7642 13.1592 29.5188C14.0994 30.9488 15.3418 32.1619 16.7973 33.0655C16.7435 32.7552 16.7141 32.4377 16.7141 32.1132C16.7141 28.8758 19.5205 26.251 22.9831 26.251C26.4458 26.251 29.2522 28.8758 29.2522 32.1132C29.2522 32.4377 29.2228 32.7552 29.169 33.0655C30.6224 32.1629 31.8649 30.9519 32.8041 29.5228C30.6275 27.7672 28.7664 25.7043 27.3251 23.3128" fill="#E30613"/>
<path d="M24.6418 11.4474C30.3449 12.2537 34.7315 17.1524 34.7315 23.0775C34.7315 24.9751 34.2792 26.7663 33.48 28.3535C28.3033 24.47 25.1581 18.9973 24.6418 11.4474V11.4474ZM29.1684 33.0656C29.2222 32.7552 29.2516 32.4378 29.2516 32.1132C29.2516 28.8758 26.4452 26.251 22.9825 26.251C19.5199 26.251 16.7135 28.8758 16.7135 32.1132C16.7135 32.4378 16.7429 32.7552 16.7977 33.0656C15.3412 32.1619 14.0988 30.9489 13.1596 29.5188C15.3331 27.7642 17.1932 25.7023 18.6335 23.3128H27.3245C28.7658 25.7044 30.6269 27.7673 32.8035 29.5229C31.8643 30.9519 30.6228 32.1629 29.1684 33.0656V33.0656ZM27.1988 34.0433C25.8894 34.5474 24.4694 34.8263 22.9825 34.8263C21.4967 34.8263 20.0767 34.5474 18.7673 34.0433C18.2896 33.3181 18.0127 32.4621 18.0127 31.5432C18.0127 28.9367 20.238 26.823 22.9825 26.823C25.7281 26.823 27.9534 28.9367 27.9534 31.5432C27.9534 32.4621 27.6765 33.3181 27.1988 34.0433V34.0433ZM11.2335 23.0775C11.2335 17.1514 15.6222 12.2527 21.3263 11.4474C20.81 18.9973 17.6638 24.4711 12.4861 28.3545C11.6869 26.7673 11.2335 24.9761 11.2335 23.0775ZM22.9825 11.3288C23.3436 11.3288 23.6986 11.347 24.0516 11.3795C24.1317 15.8279 25.219 19.6322 27.0557 22.8544H18.9022C20.74 19.6322 21.8263 15.8279 21.9074 11.3795C22.2614 11.348 22.6205 11.3288 22.9825 11.3288V11.3288ZM22.9825 10.4829C16.038 10.4829 10.3887 16.1331 10.3887 23.0775C10.3887 30.0219 16.038 35.6711 22.9825 35.6711C29.9271 35.6711 35.5774 30.0219 35.5774 23.0775C35.5774 16.1331 29.9271 10.4829 22.9825 10.4829Z" fill="white"/>
<path d="M24.8969 30.6929C24.2883 30.6929 23.7031 31.1828 23.3644 32.0773C23.3583 32.0895 23.3542 32.1047 23.3542 32.1199C23.3532 32.1768 23.3988 32.2234 23.4556 32.2244C23.4962 32.2244 23.5307 32.2021 23.549 32.1686C23.549 32.1663 23.5499 32.1657 23.5499 32.1634C23.5509 32.1634 23.5509 32.1623 23.5509 32.1611C23.8106 31.6002 24.2934 31.3365 24.5672 31.3365C24.7214 31.3365 24.8461 31.4613 24.8461 31.6155C24.8461 31.7696 24.7214 31.8944 24.5672 31.8944C24.553 31.8944 24.5307 31.8926 24.5175 31.8903C24.5053 31.8886 24.4759 31.8812 24.4607 31.9146C24.4495 31.942 24.4262 32.0759 24.5459 32.2128C24.6159 32.2919 24.7599 32.3579 24.8968 32.3579C25.3573 32.3579 25.7295 31.9846 25.7295 31.5252C25.7295 31.0647 25.3573 30.6925 24.8968 30.6925L24.8969 30.6929ZM22.5752 32.0769C22.2354 31.1824 21.6502 30.6925 21.0427 30.6925C20.5822 30.6925 20.21 31.0658 20.21 31.5252C20.21 31.9846 20.5822 32.3579 21.0427 32.3579C21.1796 32.3579 21.3236 32.292 21.3936 32.2128C21.5133 32.0759 21.4899 31.942 21.4778 31.9157C21.4636 31.8812 21.4342 31.8883 21.422 31.8903C21.4088 31.8927 21.3865 31.8944 21.3723 31.8944C21.2181 31.8944 21.0934 31.7697 21.0934 31.6155C21.0934 31.4623 21.2181 31.3376 21.3723 31.3376C21.6451 31.3376 22.1289 31.6003 22.3875 32.1622C22.3875 32.1633 22.3885 32.1633 22.3885 32.1645C22.3895 32.1656 22.3906 32.1668 22.3906 32.1685C22.4078 32.202 22.4433 32.2253 22.4829 32.2243C22.5407 32.2231 22.5863 32.1767 22.5853 32.1198C22.5853 32.1047 22.5812 32.0904 22.5752 32.0772L22.5752 32.0769ZM23.801 30.3067C23.801 29.827 23.1732 28.329 22.9835 28.329C22.9693 28.329 22.9541 28.3361 22.9369 28.3503C22.7076 28.5348 22.165 29.8604 22.165 30.3067C22.165 30.6647 22.8882 31.6079 22.8882 32.1211C22.8882 32.1739 22.9308 32.2165 22.9835 32.2165C23.0352 32.2165 23.0789 32.1739 23.0789 32.1211C23.0789 32.12 23.0778 32.1188 23.0778 32.1182C23.0808 31.605 23.801 30.6638 23.801 30.3068L23.801 30.3067ZM23.4009 32.9437C23.264 32.8595 23.1595 32.7256 23.122 32.5654C23.1047 32.5045 23.0499 32.4589 22.983 32.4589C22.9171 32.4589 22.8613 32.5045 22.8441 32.5654C22.8065 32.7256 22.7021 32.8595 22.5651 32.9437C22.5398 32.9589 22.5378 32.9701 22.5479 32.9893C22.6311 33.1546 22.772 33.3595 22.9445 33.4985C22.9688 33.5177 22.9779 33.5187 22.983 33.5187C22.9891 33.5187 22.9972 33.5176 23.0216 33.4985C23.195 33.3595 23.335 33.1546 23.4181 32.9893C23.4283 32.9701 23.4262 32.9589 23.4009 32.9437" fill="#CEAB5D"/>
<path d="M20.403 39.5518L19.7011 39.3976L19.765 39.1137L20.4659 39.2719L20.403 39.5518ZM11.7453 33.9097C11.584 33.3083 10.9745 32.719 10.514 32.719C10.4106 32.719 10.3193 32.7484 10.2402 32.8072C10.1469 32.8762 10.0921 32.9685 10.0759 33.08C10.0495 33.2565 10.1205 33.4786 10.2665 33.6724L10.4765 33.9533C10.6388 34.1703 10.796 34.3975 10.7625 34.577C10.7503 34.6491 10.7098 34.7069 10.6418 34.7505C10.6053 34.7748 10.5627 34.786 10.515 34.786C10.23 34.786 9.74826 34.2788 9.51093 33.5506L9.50589 33.5375L9.29898 33.7322L9.29492 33.7363L9.29591 33.7403C9.34256 33.9229 9.4663 34.217 9.67422 34.4959C9.8933 34.788 10.1428 34.9909 10.3771 35.0659C10.4532 35.0903 10.5272 35.1024 10.5982 35.1024C10.7006 35.1024 10.7919 35.0761 10.8609 35.0264C10.9745 34.9422 11.0424 34.8367 11.0607 34.7109C11.0962 34.4787 10.9725 34.1714 10.6946 33.8002L10.5089 33.5517C10.3609 33.3539 10.367 33.2251 10.3984 33.1521C10.4268 33.0882 10.4856 33.0436 10.5526 33.0354C10.5627 33.0343 10.5739 33.0343 10.585 33.0343C10.9228 33.0343 11.4015 33.5952 11.5262 34.0303L11.5292 34.0404L11.5394 34.0352C11.6094 33.9946 11.6905 33.948 11.7412 33.9196L11.7473 33.9155L11.7453 33.9097ZM30.8306 36.4491L30.578 36.5779L30.5354 37.9745L29.3802 37.1885L29.1276 37.3183L29.9877 39.0901L30.2453 38.9755L29.6479 37.7159L29.653 37.713L30.7981 38.4888L30.8417 37.1075L30.8467 37.1046L31.5171 38.3298L31.7626 38.1908L30.8306 36.4491ZM34.1672 33.8018L36.0639 33.9326L36.0669 33.9285L34.9542 32.9275L35.1439 32.7166L36.6085 34.034L36.4381 34.245L34.5222 34.1142L34.5181 34.1182L35.6449 35.1324L35.4461 35.3353L33.9775 34.0127L34.1672 33.8018ZM33.3861 34.5735L34.731 36.0208L34.5191 36.2084L33.1782 34.7662L33.3861 34.5735ZM32.2249 35.9346L32.37 36.6729L32.8751 36.3139L32.2249 35.9346ZM34.0009 36.6466L33.7534 36.8433L33.1438 36.4701L32.4268 36.9802L32.5657 37.6943L32.3132 37.8555L31.8973 35.7358L32.1539 35.5542L34.0009 36.6466ZM27.1346 38.3055L27.302 38.8613L28.1418 38.6088C28.3457 38.5469 28.4298 38.4069 28.3741 38.2234C28.3102 38.0094 28.1306 38.0053 27.9744 38.053L27.1346 38.3055ZM27.8933 37.7812C28.1945 37.6899 28.5302 37.7568 28.6459 38.1412C28.7696 38.551 28.5343 38.7619 28.3791 38.8228L28.9948 39.4861L28.6966 39.5926L28.085 38.9212L27.3841 39.1321L27.6205 39.9242L27.3497 40.0013L26.7817 38.1159L27.8933 37.7812ZM26.1034 38.2778L26.1439 38.5588L24.8274 38.7474L24.9015 39.2596L25.5648 39.1643L25.6054 39.4452L24.9421 39.5405L25.0272 40.1359L26.3924 39.9401L26.432 40.2201L24.7869 40.4564L24.5069 38.506L26.1034 38.2778ZM23.0346 39.4689L23.9372 39.4831L23.9291 40.0065C23.923 40.3604 23.5305 40.5907 23.0366 40.5826C22.5122 40.5735 21.9696 40.2053 21.9808 39.5359C21.9889 38.974 22.4453 38.5196 23.0762 38.5298C23.5457 38.5369 23.7892 38.7874 23.9017 38.9L23.7019 39.0988C23.6066 39.0024 23.4575 38.8199 23.1005 38.8138C22.5771 38.8047 22.2698 39.1414 22.2637 39.5531C22.2566 39.9395 22.5558 40.2905 23.0548 40.2996C23.3966 40.3048 23.6431 40.1505 23.6451 39.9832L23.6492 39.7631L23.0295 39.7529L23.0346 39.4689ZM18.7051 37.998L18.6117 38.2658L17.9596 38.0386L17.3987 39.6461L17.1309 39.5528L17.6908 37.9453L17.0387 37.7181L17.132 37.4503L18.7051 37.998ZM15.2991 36.5413L15.6399 38.4105L15.645 38.4128L16.3407 37.0882L16.5923 37.2201L15.6764 38.9656L15.4279 38.853L15.0841 36.9615L15.08 36.9591L14.3721 38.304L14.1287 38.162L15.0486 36.4094L15.2991 36.5413ZM14.4345 35.991L13.331 37.6644L13.0936 37.5093L14.1971 35.8358L14.4345 35.991ZM12.7436 35.16L12.0641 35.4825L12.5357 35.8832L12.7436 35.16ZM12.4891 37.0759L12.2365 36.8862L12.4505 36.1824L11.7801 35.6134L11.1137 35.9298L10.8876 35.7229L12.8552 34.7939L13.0956 34.9977L12.4891 37.0759Z" fill="white"/>
</g>
<defs>
<clipPath id="clip0_77_17432">
<rect width="46" height="46" fill="white"/>
</clipPath>
</defs>
</svg>
