<svg width="24" height="24" viewBox="0 0 24 24" fill="none" xmlns="http://www.w3.org/2000/svg">
<path d="M17 3.00022C17.2626 2.73757 17.5744 2.52923 17.9176 2.38709C18.2608 2.24495 18.6286 2.17179 19 2.17179C19.3714 2.17179 19.7392 2.24495 20.0824 2.38709C20.4256 2.52923 20.7374 2.73757 21 3.00022C21.2626 3.26286 21.471 3.57467 21.6131 3.91783C21.7553 4.26099 21.8284 4.62878 21.8284 5.00022C21.8284 5.37165 21.7553 5.73945 21.6131 6.08261C21.471 6.42577 21.2626 6.73757 21 7.00022L7.5 20.5002L2 22.0002L3.5 16.5002L17 3.00022Z" stroke="white" stroke-width="1.5" stroke-linecap="round" stroke-linejoin="round"/>
</svg>
