<svg width="24" height="24" viewBox="0 0 24 24" fill="none" xmlns="http://www.w3.org/2000/svg">
<g clip-path="url(#clip0_77_15469)">
<path d="M0 12C0 14.36 0.681135 16.56 1.84307 18.4H22.1569C23.3189 16.56 24 14.36 24 12C24 9.64 23.3189 7.44 22.1569 5.6H1.84307C0.681135 7.44 0 9.64 0 12Z" fill="#F9F9F9"/>
<path d="M22.1967 5.6C20.0732 2.24 16.3069 0 12.0197 0C7.73259 0 3.96631 2.24 1.84277 5.6H22.1967ZM1.84277 18.4C3.96631 21.76 7.73259 24 12.0197 24C16.3069 24 20.0732 21.76 22.1967 18.4H1.84277Z" fill="#B4D7EE"/>
<path d="M17.5077 11.92L14.2222 11.8V11.76C14.7431 11.68 15.1438 11.36 15.7047 11.4C16.3858 11.48 16.7865 11.08 17.0269 11C17.3074 10.92 17.4676 11.08 17.4676 11C17.5077 10.92 17.3074 10.76 16.9067 10.8C16.5461 10.84 16.4259 11.16 15.5845 11.08C14.8633 11.04 14.6229 11.32 14.102 11.32V11.28L17.067 9.92002C17.067 9.92002 17.1471 9.88002 17.1471 9.80002C17.107 9.72002 17.0269 9.76002 17.0269 9.76002L14.0219 10.96V10.92C14.4626 10.64 14.703 10.2 15.264 10.04C15.905 9.84002 16.1454 9.36002 16.3458 9.16002C16.5461 8.96002 16.7865 9.08002 16.7865 9.00002C16.7865 8.92002 16.5461 8.84002 16.2256 9.04002C15.905 9.24002 15.905 9.56002 15.1037 9.80002C14.4226 10 14.3024 10.36 13.8216 10.6L13.7815 10.56L16.0252 8.16002C16.0252 8.16002 16.1054 8.08002 16.0653 8.04002C16.0252 8.00002 15.9451 8.08002 15.9451 8.08002L13.5411 10.32L13.501 10.28C13.8216 9.84002 13.8616 9.36002 14.3024 9.00002C14.8232 8.56002 14.8232 8.04002 14.9434 7.80002C15.0636 7.56002 15.304 7.56002 15.264 7.48002C15.2239 7.40002 14.9835 7.44002 14.7431 7.72002C14.5027 8.04002 14.6229 8.32002 14.0219 8.84002C13.501 9.28002 13.501 9.68002 13.1805 10.04C13.1805 10.04 13.1404 10.04 13.1404 10L14.2623 6.92002C14.2623 6.92002 14.3024 6.84002 14.2222 6.80002C14.1421 6.76002 14.102 6.88002 14.102 6.88002L12.7398 9.84002H12.6997C12.8199 9.32002 12.6997 8.84002 12.9401 8.36002C13.2606 7.76002 13.0603 7.24002 13.0603 7.00002C13.1004 6.72002 13.3007 6.64002 13.2606 6.60002C13.2206 6.52002 12.9802 6.68002 12.86 7.04002C12.7798 7.40002 12.9802 7.64002 12.6196 8.36002C12.299 9.00002 12.4593 9.32002 12.299 9.80002H12.259L12.1388 6.52002C12.1388 6.52002 12.1388 6.40002 12.0586 6.40002C11.9785 6.40002 11.9785 6.52002 11.9785 6.52002L11.8583 9.80002H11.8182C11.7381 9.28002 11.4176 8.88002 11.4576 8.32002C11.5378 7.64002 11.1371 7.24002 11.057 7.00002C10.9768 6.76002 11.1371 6.56002 11.057 6.56002C10.9768 6.52002 10.8166 6.72002 10.8566 7.12002C10.8967 7.48002 11.2172 7.60002 11.1371 8.44002C11.097 9.16002 11.3775 9.40002 11.3775 9.92002H11.3374L9.97515 6.96002C9.97515 6.96002 9.93508 6.88002 9.85495 6.88002C9.77482 6.92002 9.81488 7.00002 9.81488 7.00002L10.9368 10.08H10.8967C10.6162 9.64002 10.1755 9.40002 10.0152 8.84002C9.81488 8.20002 9.33408 7.96002 9.13375 7.76002C8.93341 7.56002 9.05361 7.32002 8.97348 7.32002C8.89335 7.32002 8.81321 7.56002 9.01355 7.88002C9.21388 8.20002 9.53442 8.20002 9.77482 9.00002C9.97515 9.68002 10.3358 9.80002 10.5762 10.28L10.5361 10.32L8.13208 8.08002C8.13208 8.08002 8.05195 8.00002 8.01188 8.04002C7.97181 8.08002 8.05195 8.16002 8.05195 8.16002L10.2957 10.56L10.2556 10.6C9.81488 10.28 9.33408 10.24 8.97348 9.80002C8.53275 9.28002 8.01188 9.28002 7.77148 9.16002C7.53108 9.04002 7.53108 8.80002 7.45094 8.84002C7.37081 8.88002 7.41088 9.12002 7.69134 9.36002C8.01188 9.60002 8.29235 9.48002 8.81321 10.08C9.25395 10.6 9.65462 10.6 10.0152 10.92C10.0152 10.92 10.0152 10.96 9.97515 10.96L6.89001 9.84002C6.89001 9.84002 6.80988 9.80002 6.76981 9.88002C6.72974 9.96002 6.84994 10 6.84994 10L9.81488 11.36V11.4C9.29402 11.28 8.81321 11.4 8.33241 11.16C7.73141 10.84 7.21054 11.04 6.97014 11.04C6.68967 11 6.60954 10.8 6.56947 10.84C6.48934 10.88 6.64961 11.12 7.01021 11.24C7.37081 11.32 7.61121 11.12 8.33241 11.48C8.97348 11.8 9.29402 11.64 9.77482 11.8V11.84L6.48934 11.96C6.48934 11.96 6.36914 11.96 6.36914 12.04C6.36914 12.12 6.48934 12.12 6.48934 12.12L9.77482 12.24V12.28C9.25395 12.36 8.85328 12.68 8.29235 12.64C7.61121 12.56 7.21054 12.96 6.97014 13.04C6.68967 13.12 6.52941 12.96 6.52941 13.04C6.48934 13.12 6.68968 13.28 7.09034 13.24C7.49101 13.2 7.57114 12.92 8.41255 12.96C9.13375 13 9.37415 12.72 9.89502 12.72V12.76L6.93008 14.12C6.93008 14.12 6.84994 14.16 6.84994 14.24C6.84994 14.32 6.97014 14.28 6.97014 14.28L10.0553 13.16V13.2C9.61455 13.48 9.37415 13.92 8.81321 14.08C8.17215 14.28 7.93174 14.76 7.73141 14.96C7.53108 15.16 7.29068 15.04 7.29068 15.12C7.29068 15.2 7.53108 15.28 7.85161 15.08C8.17215 14.88 8.17215 14.56 8.97348 14.32C9.65462 14.12 9.77482 13.76 10.2556 13.52L10.2957 13.56L8.05195 15.96C8.05195 15.96 7.97181 16.04 8.01188 16.08C8.05195 16.12 8.13208 16.04 8.13208 16.04L10.5361 13.8L10.5762 13.84C10.2556 14.28 10.2156 14.76 9.77482 15.12C9.25395 15.56 9.25395 16.08 9.13375 16.32C9.01355 16.56 8.77315 16.56 8.81321 16.64C8.85328 16.72 9.09368 16.68 9.33408 16.4C9.57448 16.12 9.45428 15.8 10.0553 15.28C10.5762 14.84 10.5762 14.44 10.8967 14.08C10.8967 14.08 10.9368 14.08 10.9368 14.12L9.81488 17.2C9.81488 17.2 9.77482 17.28 9.85495 17.32C9.93508 17.36 9.97515 17.24 9.97515 17.24L11.3374 14.28H11.3775C11.2573 14.8 11.3775 15.28 11.1371 15.76C10.8166 16.36 11.0169 16.88 10.9768 17.12C10.9368 17.4 10.7364 17.48 10.7765 17.52C10.8166 17.6 11.057 17.44 11.1772 17.08C11.2573 16.72 11.057 16.52 11.4176 15.76C11.7381 15.12 11.5778 14.8 11.7381 14.32H11.7782L11.8984 17.6C11.8984 17.6 11.8984 17.72 11.9785 17.72C12.0586 17.72 12.0586 17.6 12.0586 17.6L12.1788 14.32H12.2189C12.299 14.84 12.6196 15.24 12.5795 15.8C12.4994 16.48 12.9 16.88 12.9802 17.12C13.0603 17.4 12.9 17.56 12.9802 17.56C13.0603 17.6 13.2206 17.4 13.1805 17C13.1404 16.64 12.8199 16.52 12.9 15.68C12.9401 14.96 12.6596 14.72 12.6596 14.2H12.6997L14.062 17.16C14.062 17.16 14.102 17.24 14.1822 17.24C14.2623 17.2 14.2222 17.12 14.2222 17.12L13.0603 14H13.1004C13.3808 14.44 13.8216 14.68 13.9818 15.24C14.1822 15.88 14.663 16.12 14.8633 16.32C15.0636 16.52 14.9434 16.76 15.0236 16.76C15.1037 16.76 15.1838 16.52 14.9835 16.2C14.7832 15.88 14.4626 15.88 14.2222 15.08C14.0219 14.4 13.6613 14.28 13.4209 13.8L13.461 13.76L15.865 16C15.865 16 15.9451 16.08 15.9852 16.04C16.0252 16 15.9451 15.92 15.9451 15.92L13.7014 13.52L13.7414 13.48C14.1822 13.8 14.663 13.84 15.0236 14.28C15.4643 14.8 15.9852 14.8 16.2256 14.92C16.466 15.04 16.466 15.28 16.5461 15.24C16.6262 15.2 16.5862 14.96 16.3057 14.72C15.9852 14.48 15.7047 14.6 15.1838 14C14.7431 13.48 14.3424 13.48 13.9818 13.12C13.9818 13.12 13.9818 13.08 14.0219 13.08L17.107 14.2C17.107 14.2 17.1872 14.24 17.2272 14.16C17.2673 14.08 17.1471 14.04 17.1471 14.04L14.1822 12.68V12.64C14.703 12.76 15.1838 12.64 15.6646 12.88C16.2656 13.2 16.7865 13 17.0269 13C17.3074 13.04 17.3875 13.24 17.4276 13.2C17.5077 13.16 17.3474 12.92 16.9868 12.8C16.6262 12.72 16.3858 12.92 15.6646 12.56C15.0236 12.24 14.703 12.4 14.2222 12.24V12.2L17.5077 12.08C17.5077 12.08 17.6279 12.08 17.6279 12C17.6279 11.92 17.5077 11.92 17.5077 11.92Z" fill="#F6B40E"/>
<path d="M13.2223 11.72C13.1021 11.6 12.9418 11.52 12.7815 11.52C12.6213 11.52 12.5011 11.6 12.3809 11.72C12.5812 11.88 12.9418 11.88 13.2223 11.72ZM13.1021 11.68C13.0219 11.76 12.9418 11.8 12.8617 11.8C12.9017 11.76 12.9418 11.72 12.9418 11.68C12.9418 11.64 12.9017 11.6 12.8617 11.56C12.9819 11.6 13.062 11.64 13.1021 11.68ZM12.6613 11.56C12.6213 11.6 12.6213 11.64 12.6213 11.68C12.6213 11.72 12.6613 11.8 12.7014 11.8C12.6213 11.8 12.5411 11.76 12.461 11.68C12.5411 11.64 12.5812 11.6 12.6613 11.56Z" fill="#85340A"/>
<path d="M12.8226 11.4C12.5822 11.4 12.5422 11.44 12.462 11.52C12.3418 11.6 12.3018 11.6 12.3018 11.6C12.3018 11.6 12.3018 11.68 12.3418 11.64C12.3819 11.64 12.462 11.6 12.5422 11.52C12.6624 11.44 12.7425 11.44 12.8627 11.44C13.1832 11.44 13.3435 11.68 13.3836 11.68C13.4236 11.68 13.1432 11.4 12.8226 11.4Z" fill="#85340A"/>
<path d="M12.1395 11.36C12.0994 11.44 12.0994 11.48 12.0994 11.56C12.0593 11.8 12.0994 12.08 12.2597 12.36C12.2597 12.36 12.2997 12.32 12.3398 12.32C12.1795 12.12 12.1395 11.88 12.1395 11.68C12.1395 11.56 12.2196 11.48 12.2597 11.4C12.5401 11.16 13.0209 11.2 13.4216 11.52C13.061 11 12.5401 11.04 12.1395 11.36Z" fill="#85340A"/>
<path d="M12.5398 11.8799C12.4196 11.7999 12.3795 11.7599 12.3395 11.7599C12.2994 11.7599 12.2994 11.7999 12.4597 11.8799C12.6199 11.9599 12.9405 11.9999 13.2209 11.7599C12.9004 11.9199 12.66 11.9199 12.5398 11.8799ZM12.3395 12.5199C12.2994 12.5199 12.2593 12.4799 12.2193 12.4399C12.2193 12.4799 12.1391 12.5599 12.0189 12.5599C11.8987 12.5599 11.8186 12.4399 11.8186 12.4399C11.8186 12.4799 11.7785 12.5199 11.6984 12.5199C11.6583 12.5199 11.5782 12.4799 11.5782 12.3999C11.5782 12.3599 11.6183 12.3199 11.6583 12.3199C11.5782 12.3199 11.5381 12.3999 11.5381 12.4799C11.5381 12.5599 11.6183 12.6399 11.6984 12.6399C11.7385 12.6399 11.7785 12.5999 11.8186 12.5599C11.8587 12.5999 11.9789 12.5999 12.0189 12.5999H12.059C12.0991 12.5999 12.1792 12.5999 12.2593 12.5599C12.2994 12.5999 12.3395 12.6399 12.3795 12.6399C12.4597 12.6399 12.5398 12.5599 12.5398 12.4799C12.5398 12.3999 12.4997 12.3599 12.4196 12.3199C12.4597 12.3199 12.4997 12.3599 12.4997 12.3999C12.4597 12.4799 12.4196 12.5199 12.3395 12.5199ZM12.0189 12.8799C12.0991 12.8799 12.1792 12.7999 12.2994 12.8799C12.4196 12.9599 12.4997 12.9999 12.5799 13.0399C12.4196 12.9199 12.3395 12.7999 12.1792 12.7999C12.1391 12.7999 12.059 12.7999 12.0189 12.8399C11.9388 12.7999 11.8987 12.7999 11.8587 12.7999C11.6984 12.7999 11.6183 12.9599 11.458 13.0399C11.5381 12.9999 11.6183 12.9199 11.7385 12.8799C11.8587 12.8399 11.9388 12.8799 12.0189 12.8799Z" fill="#85340A"/>
<path d="M12.0195 13C11.9394 13 11.8993 12.96 11.7791 13C11.699 13 11.6189 13 11.4987 13.04H11.4586C11.8192 13.08 11.6589 13.28 12.0195 13.28C12.3801 13.28 12.2199 13.08 12.5805 13.04H12.5003C12.1798 12.92 12.1397 13 12.0195 13ZM12.0195 13.2C11.7391 13.2 11.8192 13 11.4987 13C11.8192 12.92 11.8593 13.04 12.0195 13.04C12.1397 13.04 12.2199 12.96 12.5404 13C12.2199 13.04 12.3 13.2 12.0195 13.2ZM12.0195 13.28C11.8593 13.28 11.699 13.4 11.699 13.6C11.7391 13.44 11.8593 13.36 12.0195 13.36C12.1798 13.36 12.3 13.48 12.3401 13.6C12.3401 13.4 12.1798 13.28 12.0195 13.28ZM11.7791 11.4C11.8593 11.48 11.8993 11.6 11.8993 11.68C11.9394 11.88 11.8593 12.08 11.699 12.32C11.699 12.32 11.7391 12.32 11.7791 12.36C11.8993 12.08 11.9795 11.84 11.9394 11.56C11.9394 11.48 11.8993 11.44 11.8993 11.36C11.5387 11.04 11.0179 11 10.6172 11.52C11.0179 11.16 11.5387 11.12 11.7791 11.4Z" fill="#85340A"/>
<path d="M11.5378 11.56C11.658 11.64 11.6981 11.68 11.7382 11.68C11.7782 11.68 11.7782 11.64 11.7782 11.64C11.7782 11.64 11.6981 11.64 11.618 11.56C11.4978 11.48 11.4577 11.44 11.2574 11.44C10.8968 11.44 10.6964 11.72 10.7365 11.72C10.7766 11.72 10.9368 11.48 11.2574 11.48C11.3375 11.48 11.4577 11.48 11.5378 11.56Z" fill="#85340A"/>
<path d="M10.8574 11.72C10.9376 11.8 11.0978 11.84 11.2581 11.84C11.3783 11.84 11.5386 11.8 11.6588 11.72C11.5386 11.6 11.3783 11.52 11.218 11.52C11.0978 11.52 10.9376 11.6 10.8574 11.72ZM10.9376 11.72C11.0177 11.64 11.0978 11.56 11.178 11.56C11.1379 11.6 11.0978 11.64 11.0978 11.68C11.0978 11.76 11.1379 11.8 11.178 11.8C11.0978 11.84 10.9776 11.8 10.9376 11.72ZM11.5386 11.68C11.4985 11.72 11.4184 11.76 11.3382 11.8C11.3783 11.76 11.3783 11.72 11.3783 11.68C11.3783 11.64 11.3382 11.6 11.3382 11.56C11.4584 11.6 11.5386 11.64 11.5386 11.68Z" fill="#85340A"/>
<path d="M11.7389 11.7599C11.6988 11.7599 11.6588 11.7999 11.5386 11.8799C11.4184 11.9599 11.178 11.9599 10.8574 11.7999C11.1379 12.0399 11.4584 11.9999 11.6187 11.9199C11.779 11.7999 11.779 11.7599 11.7389 11.7599Z" fill="#85340A"/>
</g>
<defs>
<clipPath id="clip0_77_15469">
<rect width="24" height="24" fill="white"/>
</clipPath>
</defs>
</svg>
