<svg width="48" height="48" viewBox="0 0 48 48" fill="none" xmlns="http://www.w3.org/2000/svg">
<g clip-path="url(#clip0_77_15865)">
<path d="M0 24.0001C0 28.7201 1.36227 33.1201 3.68614 36.8001H44.3139C46.6377 33.1201 48 28.7201 48 24.0001C48 19.2801 46.6377 14.8801 44.3139 11.2001H3.68614C1.36227 14.8801 0 19.2801 0 24.0001Z" fill="#F9F9F9"/>
<path d="M44.3934 11.2001C40.1463 4.48012 32.6138 0.00012207 24.0395 0.00012207C15.4652 0.00012207 7.93263 4.48012 3.68555 11.2001H44.3934ZM3.68555 36.8001C7.93263 43.5201 15.4652 48.0001 24.0395 48.0001C32.6138 48.0001 40.1463 43.5201 44.3934 36.8001H3.68555Z" fill="#B4D7EE"/>
<path d="M35.0154 23.8402L28.4445 23.6002V23.5202C29.4862 23.3602 30.2875 22.7202 31.4094 22.8002C32.7717 22.9602 33.573 22.1602 34.0538 22.0002C34.6147 21.8402 34.9353 22.1602 34.9353 22.0002C35.0154 21.8402 34.6147 21.5202 33.8134 21.6002C33.0922 21.6802 32.8518 22.3202 31.169 22.1602C29.7266 22.0802 29.2458 22.6402 28.2041 22.6402V22.5602L34.1339 19.8402C34.1339 19.8402 34.2942 19.7602 34.2942 19.6002C34.2141 19.4402 34.0538 19.5202 34.0538 19.5202L28.0438 21.9202V21.8402C28.9253 21.2802 29.4061 20.4002 30.5279 20.0802C31.8101 19.6802 32.2909 18.7202 32.6915 18.3202C33.0922 17.9202 33.573 18.1602 33.573 18.0002C33.573 17.8402 33.0922 17.6802 32.4511 18.0802C31.8101 18.4802 31.8101 19.1202 30.2074 19.6002C28.8451 20.0002 28.6047 20.7202 27.6431 21.2002L27.563 21.1202L32.0505 16.3202C32.0505 16.3202 32.2107 16.1602 32.1306 16.0802C32.0505 16.0002 31.8902 16.1602 31.8902 16.1602L27.0822 20.6402L27.0021 20.5602C27.6431 19.6802 27.7233 18.7202 28.6047 18.0002C29.6465 17.1202 29.6465 16.0802 29.8869 15.6002C30.1273 15.1202 30.6081 15.1202 30.5279 14.9602C30.4478 14.8002 29.967 14.8802 29.4862 15.4402C29.0054 16.0802 29.2458 16.6402 28.0438 17.6802C27.0021 18.5602 27.0021 19.3602 26.361 20.0802C26.361 20.0802 26.2809 20.0802 26.2809 20.0002L28.5246 13.8402C28.5246 13.8402 28.6047 13.6802 28.4445 13.6002C28.2842 13.5202 28.2041 13.7602 28.2041 13.7602L25.4795 19.6802H25.3994C25.6398 18.6402 25.3994 17.6802 25.8802 16.7202C26.5213 15.5202 26.1206 14.4802 26.1206 14.0002C26.2007 13.4402 26.6014 13.2802 26.5213 13.2002C26.4411 13.0402 25.9603 13.3602 25.7199 14.0802C25.5596 14.8002 25.9603 15.2802 25.2391 16.7202C24.598 18.0002 24.9186 18.6402 24.598 19.6002H24.5179L24.2775 13.0402C24.2775 13.0402 24.2775 12.8002 24.1172 12.8002C23.957 12.8002 23.957 13.0402 23.957 13.0402L23.7166 19.6002H23.6364C23.4762 18.5602 22.8351 17.7602 22.9152 16.6402C23.0755 15.2802 22.2742 14.4802 22.1139 14.0002C21.9536 13.5202 22.2742 13.1202 22.1139 13.1202C21.9536 13.0402 21.6331 13.4402 21.7132 14.2402C21.7934 14.9602 22.4344 15.2002 22.2742 16.8802C22.194 18.3202 22.755 18.8002 22.755 19.8402H22.6748L19.9503 13.9202C19.9503 13.9202 19.8702 13.7602 19.7099 13.7602C19.5496 13.8402 19.6298 14.0002 19.6298 14.0002L21.8735 20.1602H21.7934C21.2324 19.2802 20.351 18.8002 20.0304 17.6802C19.6298 16.4002 18.6682 15.9202 18.2675 15.5202C17.8668 15.1202 18.1072 14.6402 17.947 14.6402C17.7867 14.6402 17.6264 15.1202 18.0271 15.7602C18.4278 16.4002 19.0688 16.4002 19.5496 18.0002C19.9503 19.3602 20.6715 19.6002 21.1523 20.5602L21.0722 20.6402L16.2642 16.1602C16.2642 16.1602 16.1039 16.0002 16.0238 16.0802C15.9436 16.1602 16.1039 16.3202 16.1039 16.3202L20.5914 21.1202L20.5112 21.2002C19.6298 20.5602 18.6682 20.4802 17.947 19.6002C17.0655 18.5602 16.0238 18.5602 15.543 18.3202C15.0622 18.0802 15.0622 17.6002 14.9019 17.6802C14.7416 17.7602 14.8218 18.2402 15.3827 18.7202C16.0238 19.2002 16.5847 18.9602 17.6264 20.1602C18.5079 21.2002 19.3092 21.2002 20.0304 21.8402C20.0304 21.8402 20.0304 21.9202 19.9503 21.9202L13.78 19.6802C13.78 19.6802 13.6198 19.6002 13.5396 19.7602C13.4595 19.9202 13.6999 20.0002 13.6999 20.0002L19.6298 22.7202V22.8002C18.588 22.5602 17.6264 22.8002 16.6648 22.3202C15.4628 21.6802 14.4211 22.0802 13.9403 22.0802C13.3793 22.0002 13.2191 21.6002 13.1389 21.6802C12.9787 21.7602 13.2992 22.2402 14.0204 22.4802C14.7416 22.6402 15.2224 22.2402 16.6648 22.9602C17.947 23.6002 18.588 23.2802 19.5496 23.6002V23.6802L12.9787 23.9202C12.9787 23.9202 12.7383 23.9202 12.7383 24.0802C12.7383 24.2402 12.9787 24.2402 12.9787 24.2402L19.5496 24.4802V24.5602C18.5079 24.7202 17.7066 25.3602 16.5847 25.2802C15.2224 25.1202 14.4211 25.9202 13.9403 26.0802C13.3793 26.2402 13.0588 25.9202 13.0588 26.0802C12.9787 26.2402 13.3794 26.5602 14.1807 26.4802C14.982 26.4002 15.1423 25.8402 16.8251 25.9202C18.2675 26.0002 18.7483 25.4402 19.79 25.4402V25.5202L13.8602 28.2402C13.8602 28.2402 13.6999 28.3202 13.6999 28.4802C13.6999 28.6402 13.9403 28.5602 13.9403 28.5602L20.1106 26.3202V26.4002C19.2291 26.9602 18.7483 27.8402 17.6264 28.1602C16.3443 28.5602 15.8635 29.5202 15.4628 29.9202C15.0622 30.3202 14.5814 30.0802 14.5814 30.2402C14.5814 30.4002 15.0622 30.5602 15.7032 30.1602C16.3443 29.7602 16.3443 29.1202 17.947 28.6402C19.3092 28.2402 19.5496 27.5202 20.5112 27.0402L20.5914 27.1202L16.1039 31.9202C16.1039 31.9202 15.9436 32.0802 16.0238 32.1602C16.1039 32.2402 16.2642 32.0802 16.2642 32.0802L21.0722 27.6002L21.1523 27.6802C20.5112 28.5602 20.4311 29.5202 19.5496 30.2402C18.5079 31.1202 18.5079 32.1602 18.2675 32.6402C18.0271 33.1202 17.5463 33.1202 17.6264 33.2802C17.7066 33.4402 18.1874 33.3602 18.6682 32.8002C19.149 32.2402 18.9086 31.6002 20.1106 30.5602C21.1523 29.6802 21.1523 28.8802 21.7934 28.1602C21.7934 28.1602 21.8735 28.1602 21.8735 28.2402L19.6298 34.4002C19.6298 34.4002 19.5496 34.5602 19.7099 34.6402C19.8702 34.7202 19.9503 34.4802 19.9503 34.4802L22.6748 28.5602H22.755C22.5146 29.6002 22.755 30.5602 22.2742 31.5202C21.6331 32.7202 22.0338 33.7602 21.9536 34.2402C21.8735 34.8002 21.4728 34.9602 21.553 35.0402C21.6331 35.2002 22.1139 34.8802 22.3543 34.1602C22.5146 33.4402 22.1139 33.0402 22.8351 31.5202C23.4762 30.2402 23.1556 29.6002 23.4762 28.6402H23.5563L23.7967 35.2002C23.7967 35.2002 23.7967 35.4402 23.957 35.4402C24.1172 35.4402 24.1172 35.2002 24.1172 35.2002L24.3576 28.6402H24.4378C24.598 29.6802 25.2391 30.4802 25.159 31.6002C24.9987 32.9602 25.8001 33.7602 25.9603 34.2402C26.1206 34.8002 25.8001 35.1202 25.9603 35.1202C26.1206 35.2002 26.4411 34.8002 26.361 34.0002C26.2809 33.2802 25.6398 33.0402 25.8001 31.3602C25.8802 29.9202 25.3192 29.4402 25.3192 28.4002H25.3994L28.1239 34.3202C28.1239 34.3202 28.2041 34.4802 28.3643 34.4802C28.5246 34.4002 28.4445 34.2402 28.4445 34.2402L26.1206 28.0002H26.2007C26.7617 28.8802 27.6431 29.3602 27.9637 30.4802C28.3643 31.7602 29.3259 32.2402 29.7266 32.6402C30.1273 33.0402 29.8869 33.5202 30.0471 33.5202C30.2074 33.5202 30.3677 33.0402 29.967 32.4002C29.5663 31.7602 28.9253 31.7602 28.4445 30.1602C28.0438 28.8002 27.3226 28.5602 26.8418 27.6002L26.9219 27.5202L31.7299 32.0002C31.7299 32.0002 31.8902 32.1602 31.9703 32.0802C32.0505 32.0002 31.8902 31.8402 31.8902 31.8402L27.4027 27.0402L27.4829 26.9602C28.3643 27.6002 29.3259 27.6802 30.0471 28.5602C30.9286 29.6002 31.9703 29.6002 32.4511 29.8402C32.9319 30.0802 32.9319 30.5602 33.0922 30.4802C33.2525 30.4002 33.1723 29.9202 32.6114 29.4402C31.9703 28.9602 31.4094 29.2002 30.3677 28.0002C29.4862 26.9602 28.6849 26.9602 27.9637 26.2402C27.9637 26.2402 27.9637 26.1602 28.0438 26.1602L34.2141 28.4002C34.2141 28.4002 34.3743 28.4802 34.4545 28.3202C34.5346 28.1602 34.2942 28.0802 34.2942 28.0802L28.3643 25.3602V25.2802C29.4061 25.5202 30.3677 25.2802 31.3293 25.7602C32.5313 26.4002 33.573 26.0002 34.0538 26.0002C34.6147 26.0802 34.775 26.4802 34.8551 26.4002C35.0154 26.3202 34.6949 25.8402 33.9737 25.6002C33.2525 25.4402 32.7717 25.8402 31.3293 25.1202C30.0471 24.4802 29.4061 24.8002 28.4445 24.4802V24.4002L35.0154 24.1602C35.0154 24.1602 35.2558 24.1602 35.2558 24.0002C35.2558 23.8402 35.0154 23.8402 35.0154 23.8402Z" fill="#F6B40E"/>
<path d="M26.4445 23.44C26.2041 23.2 25.8836 23.04 25.5631 23.04C25.2425 23.04 25.0021 23.2 24.7617 23.44C25.1624 23.76 25.8836 23.76 26.4445 23.44ZM26.2041 23.36C26.0439 23.52 25.8836 23.6 25.7233 23.6C25.8035 23.52 25.8836 23.44 25.8836 23.36C25.8836 23.28 25.8035 23.2 25.7233 23.12C25.9637 23.2 26.124 23.28 26.2041 23.36ZM25.3227 23.12C25.2425 23.2 25.2425 23.28 25.2425 23.36C25.2425 23.44 25.3227 23.6 25.4028 23.6C25.2425 23.6 25.0823 23.52 24.922 23.36C25.0823 23.28 25.1624 23.2 25.3227 23.12Z" fill="#85340A"/>
<path d="M25.6453 22.8002C25.1644 22.8002 25.0843 22.8802 24.924 23.0402C24.6836 23.2002 24.6035 23.2002 24.6035 23.2002C24.6035 23.2002 24.6035 23.3602 24.6836 23.2802C24.7638 23.2802 24.924 23.2002 25.0843 23.0402C25.3247 22.8802 25.485 22.8802 25.7254 22.8802C26.3665 22.8802 26.687 23.3602 26.7671 23.3602C26.8473 23.3602 26.2863 22.8002 25.6453 22.8002Z" fill="#85340A"/>
<path d="M24.279 22.7201C24.1988 22.8801 24.1988 22.9601 24.1988 23.1201C24.1187 23.6001 24.1988 24.1601 24.5194 24.7201C24.5194 24.7201 24.5995 24.6401 24.6796 24.6401C24.3591 24.2401 24.279 23.7601 24.279 23.3601C24.279 23.1201 24.4392 22.9601 24.5194 22.8001C25.0803 22.3201 26.0419 22.4001 26.8432 23.0401C26.122 22.0001 25.0803 22.0801 24.279 22.7201Z" fill="#85340A"/>
<path d="M25.0796 23.76C24.8392 23.6 24.7591 23.52 24.679 23.52C24.5988 23.52 24.5988 23.6 24.9194 23.76C25.2399 23.92 25.881 24 26.4419 23.52C25.8008 23.84 25.32 23.84 25.0796 23.76ZM24.679 25.04C24.5988 25.04 24.5187 24.96 24.4386 24.88C24.4386 24.96 24.2783 25.12 24.0379 25.12C23.7975 25.12 23.6372 24.88 23.6372 24.88C23.6372 24.96 23.5571 25.04 23.3968 25.04C23.3167 25.04 23.1564 24.96 23.1564 24.8C23.1564 24.72 23.2365 24.64 23.3167 24.64C23.1564 24.64 23.0763 24.8 23.0763 24.96C23.0763 25.12 23.2366 25.28 23.3968 25.28C23.477 25.28 23.5571 25.2 23.6372 25.12C23.7174 25.2 23.9578 25.2 24.0379 25.2H24.118C24.1982 25.2 24.3584 25.2 24.5187 25.12C24.5988 25.2 24.679 25.28 24.7591 25.28C24.9194 25.28 25.0796 25.12 25.0796 24.96C25.0796 24.8 24.9995 24.72 24.8392 24.64C24.9194 24.64 24.9995 24.72 24.9995 24.8C24.9194 24.96 24.8392 25.04 24.679 25.04ZM24.0379 25.76C24.1982 25.76 24.3584 25.6 24.5988 25.76C24.8392 25.92 24.9995 26 25.1598 26.08C24.8392 25.84 24.679 25.6 24.3584 25.6C24.2783 25.6 24.118 25.6 24.0379 25.68C23.8776 25.6 23.7975 25.6 23.7174 25.6C23.3968 25.6 23.2365 25.92 22.916 26.08C23.0763 26 23.2365 25.84 23.4769 25.76C23.7174 25.68 23.8776 25.76 24.0379 25.76Z" fill="#85340A"/>
<path d="M24.039 26.0001C23.8788 26.0001 23.7986 25.9201 23.5582 26.0001C23.398 26.0001 23.2377 26.0001 22.9973 26.0801H22.9172C23.6384 26.1601 23.3178 26.5601 24.039 26.5601C24.7603 26.5601 24.4397 26.1601 25.1609 26.0801H25.0007C24.3596 25.8401 24.2795 26.0001 24.039 26.0001ZM24.039 26.4001C23.4781 26.4001 23.6384 26.0001 22.9973 26.0001C23.6384 25.8401 23.7185 26.0801 24.039 26.0801C24.2795 26.0801 24.4397 25.9201 25.0808 26.0001C24.4397 26.0801 24.6 26.4001 24.039 26.4001ZM24.039 26.5601C23.7185 26.5601 23.398 26.8001 23.398 27.2001C23.4781 26.8801 23.7185 26.7201 24.039 26.7201C24.3596 26.7201 24.6 26.9601 24.6801 27.2001C24.6801 26.8001 24.3596 26.5601 24.039 26.5601ZM23.5582 22.8001C23.7185 22.9601 23.7986 23.2001 23.7986 23.3601C23.8788 23.7601 23.7185 24.1601 23.398 24.6401C23.398 24.6401 23.4781 24.6401 23.5582 24.7201C23.7986 24.1601 23.9589 23.6801 23.8788 23.1201C23.8788 22.9601 23.7986 22.8801 23.7986 22.7201C23.0774 22.0801 22.0357 22.0001 21.2344 23.0401C22.0357 22.3201 23.0774 22.2401 23.5582 22.8001Z" fill="#85340A"/>
<path d="M23.0757 23.1201C23.3161 23.2801 23.3962 23.3601 23.4763 23.3601C23.5565 23.3601 23.5565 23.2801 23.5565 23.2801C23.5565 23.2801 23.3962 23.2801 23.2359 23.1201C22.9955 22.9601 22.9154 22.8801 22.5147 22.8801C21.7935 22.8801 21.3929 23.4401 21.473 23.4401C21.5531 23.4401 21.8737 22.9601 22.5147 22.9601C22.675 22.9601 22.9154 22.9601 23.0757 23.1201Z" fill="#85340A"/>
<path d="M21.7148 23.44C21.8751 23.6 22.1956 23.68 22.5162 23.68C22.7566 23.68 23.0771 23.6 23.3175 23.44C23.0771 23.2 22.7566 23.04 22.436 23.04C22.1956 23.04 21.8751 23.2 21.7148 23.44ZM21.8751 23.44C22.0354 23.28 22.1956 23.12 22.3559 23.12C22.2758 23.2 22.1956 23.28 22.1956 23.36C22.1956 23.52 22.2758 23.6 22.3559 23.6C22.1956 23.68 21.9552 23.6 21.8751 23.44ZM23.0771 23.36C22.997 23.44 22.8367 23.52 22.6764 23.6C22.7566 23.52 22.7566 23.44 22.7566 23.36C22.7566 23.28 22.6764 23.2 22.6764 23.12C22.9168 23.2 23.0771 23.28 23.0771 23.36Z" fill="#85340A"/>
<path d="M23.4778 23.52C23.3976 23.52 23.3175 23.6 23.0771 23.76C22.8367 23.92 22.3559 23.92 21.7148 23.6C22.2758 24.08 22.9168 24 23.2374 23.84C23.5579 23.6 23.5579 23.52 23.4778 23.52Z" fill="#85340A"/>
</g>
<defs>
<clipPath id="clip0_77_15865">
<rect width="48" height="48" fill="white"/>
</clipPath>
</defs>
</svg>
