<svg width="24" height="24" viewBox="0 0 24 24" fill="none" xmlns="http://www.w3.org/2000/svg">
<g clip-path="url(#clip0_77_15573)">
<path d="M0.712402 12.0002C0.712402 16.9127 3.8624 21.0752 8.2124 22.6127V1.38771C3.8624 2.92521 0.712402 7.08771 0.712402 12.0002Z" fill="#002495"/>
<path d="M23.2124 12.0002C23.2124 7.08771 20.0999 2.92521 15.7124 1.38771V22.6127C20.0999 21.0752 23.2124 16.9127 23.2124 12.0002Z" fill="#ED2939"/>
<path d="M8.2124 22.6127C9.3749 23.0252 10.6499 23.2502 11.9624 23.2502C13.2749 23.2502 14.5499 23.0252 15.7124 22.6127V1.38771C14.5499 0.975214 13.3124 0.750214 11.9624 0.750214C10.6124 0.750214 9.3749 0.975214 8.2124 1.38771V22.6127Z" fill="white"/>
</g>
<defs>
<clipPath id="clip0_77_15573">
<rect width="24" height="24" fill="white"/>
</clipPath>
</defs>
</svg>
