<svg width="24" height="24" viewBox="0 0 24 24" fill="none" xmlns="http://www.w3.org/2000/svg">
<g clip-path="url(#clip0_77_17494)">
<path d="M0 12.0001C0 14.3601 0.681135 16.5601 1.84307 18.4001H22.1569C23.3189 16.5601 24 14.3601 24 12.0001C24 9.6401 23.3189 7.4401 22.1569 5.6001H1.84307C0.681135 7.4401 0 9.6401 0 12.0001Z" fill="#F9F9F9"/>
<path d="M22.1967 5.6C20.0732 2.24 16.3069 0 12.0197 0C7.73259 0 3.96631 2.24 1.84277 5.6H22.1967ZM1.84277 18.4C3.96631 21.76 7.73259 24 12.0197 24C16.3069 24 20.0732 21.76 22.1967 18.4H1.84277Z" fill="#B4D7EE"/>
<path d="M17.5077 11.9199L14.2222 11.7999V11.7599C14.7431 11.6799 15.1438 11.3599 15.7047 11.3999C16.3858 11.4799 16.7865 11.0799 17.0269 10.9999C17.3074 10.9199 17.4676 11.0799 17.4676 10.9999C17.5077 10.9199 17.3074 10.7599 16.9067 10.7999C16.5461 10.8399 16.4259 11.1599 15.5845 11.0799C14.8633 11.0399 14.6229 11.3199 14.102 11.3199V11.2799L17.067 9.9199C17.067 9.9199 17.1471 9.8799 17.1471 9.7999C17.107 9.7199 17.0269 9.7599 17.0269 9.7599L14.0219 10.9599V10.9199C14.4626 10.6399 14.703 10.1999 15.264 10.0399C15.905 9.8399 16.1454 9.3599 16.3458 9.1599C16.5461 8.9599 16.7865 9.0799 16.7865 8.9999C16.7865 8.9199 16.5461 8.8399 16.2256 9.0399C15.905 9.2399 15.905 9.5599 15.1037 9.7999C14.4226 9.9999 14.3024 10.3599 13.8216 10.5999L13.7815 10.5599L16.0252 8.1599C16.0252 8.1599 16.1054 8.0799 16.0653 8.0399C16.0252 7.9999 15.9451 8.0799 15.9451 8.0799L13.5411 10.3199L13.501 10.2799C13.8216 9.8399 13.8616 9.3599 14.3024 8.9999C14.8232 8.5599 14.8232 8.0399 14.9434 7.7999C15.0636 7.5599 15.304 7.5599 15.264 7.4799C15.2239 7.3999 14.9835 7.4399 14.7431 7.7199C14.5027 8.0399 14.6229 8.3199 14.0219 8.8399C13.501 9.2799 13.501 9.6799 13.1805 10.0399C13.1805 10.0399 13.1404 10.0399 13.1404 9.9999L14.2623 6.9199C14.2623 6.9199 14.3024 6.8399 14.2222 6.7999C14.1421 6.7599 14.102 6.8799 14.102 6.8799L12.7398 9.8399H12.6997C12.8199 9.3199 12.6997 8.8399 12.9401 8.3599C13.2606 7.7599 13.0603 7.2399 13.0603 6.9999C13.1004 6.7199 13.3007 6.6399 13.2606 6.5999C13.2206 6.5199 12.9802 6.6799 12.86 7.0399C12.7798 7.3999 12.9802 7.6399 12.6196 8.3599C12.299 8.9999 12.4593 9.3199 12.299 9.7999H12.259L12.1388 6.5199C12.1388 6.5199 12.1388 6.3999 12.0586 6.3999C11.9785 6.3999 11.9785 6.5199 11.9785 6.5199L11.8583 9.7999H11.8182C11.7381 9.2799 11.4176 8.8799 11.4576 8.3199C11.5378 7.6399 11.1371 7.2399 11.057 6.9999C10.9768 6.7599 11.1371 6.5599 11.057 6.5599C10.9768 6.5199 10.8166 6.7199 10.8566 7.1199C10.8967 7.4799 11.2172 7.5999 11.1371 8.4399C11.097 9.1599 11.3775 9.3999 11.3775 9.9199H11.3374L9.97515 6.9599C9.97515 6.9599 9.93508 6.8799 9.85495 6.8799C9.77482 6.9199 9.81488 6.9999 9.81488 6.9999L10.9368 10.0799H10.8967C10.6162 9.6399 10.1755 9.3999 10.0152 8.8399C9.81488 8.1999 9.33408 7.9599 9.13375 7.7599C8.93341 7.5599 9.05361 7.3199 8.97348 7.3199C8.89335 7.3199 8.81321 7.5599 9.01355 7.8799C9.21388 8.1999 9.53442 8.1999 9.77482 8.9999C9.97515 9.6799 10.3358 9.7999 10.5762 10.2799L10.5361 10.3199L8.13208 8.0799C8.13208 8.0799 8.05195 7.9999 8.01188 8.0399C7.97181 8.0799 8.05195 8.1599 8.05195 8.1599L10.2957 10.5599L10.2556 10.5999C9.81488 10.2799 9.33408 10.2399 8.97348 9.7999C8.53275 9.2799 8.01188 9.2799 7.77148 9.1599C7.53108 9.0399 7.53108 8.7999 7.45094 8.8399C7.37081 8.8799 7.41088 9.1199 7.69134 9.3599C8.01188 9.5999 8.29235 9.4799 8.81321 10.0799C9.25395 10.5999 9.65462 10.5999 10.0152 10.9199C10.0152 10.9199 10.0152 10.9599 9.97515 10.9599L6.89001 9.8399C6.89001 9.8399 6.80988 9.7999 6.76981 9.8799C6.72974 9.9599 6.84994 9.9999 6.84994 9.9999L9.81488 11.3599V11.3999C9.29402 11.2799 8.81321 11.3999 8.33241 11.1599C7.73141 10.8399 7.21054 11.0399 6.97014 11.0399C6.68967 10.9999 6.60954 10.7999 6.56947 10.8399C6.48934 10.8799 6.64961 11.1199 7.01021 11.2399C7.37081 11.3199 7.61121 11.1199 8.33241 11.4799C8.97348 11.7999 9.29402 11.6399 9.77482 11.7999V11.8399L6.48934 11.9599C6.48934 11.9599 6.36914 11.9599 6.36914 12.0399C6.36914 12.1199 6.48934 12.1199 6.48934 12.1199L9.77482 12.2399V12.2799C9.25395 12.3599 8.85328 12.6799 8.29235 12.6399C7.61121 12.5599 7.21054 12.9599 6.97014 13.0399C6.68967 13.1199 6.52941 12.9599 6.52941 13.0399C6.48934 13.1199 6.68968 13.2799 7.09034 13.2399C7.49101 13.1999 7.57114 12.9199 8.41255 12.9599C9.13375 12.9999 9.37415 12.7199 9.89502 12.7199V12.7599L6.93008 14.1199C6.93008 14.1199 6.84994 14.1599 6.84994 14.2399C6.84994 14.3199 6.97014 14.2799 6.97014 14.2799L10.0553 13.1599V13.1999C9.61455 13.4799 9.37415 13.9199 8.81321 14.0799C8.17215 14.2799 7.93174 14.7599 7.73141 14.9599C7.53108 15.1599 7.29068 15.0399 7.29068 15.1199C7.29068 15.1999 7.53108 15.2799 7.85161 15.0799C8.17215 14.8799 8.17215 14.5599 8.97348 14.3199C9.65462 14.1199 9.77482 13.7599 10.2556 13.5199L10.2957 13.5599L8.05195 15.9599C8.05195 15.9599 7.97181 16.0399 8.01188 16.0799C8.05195 16.1199 8.13208 16.0399 8.13208 16.0399L10.5361 13.7999L10.5762 13.8399C10.2556 14.2799 10.2156 14.7599 9.77482 15.1199C9.25395 15.5599 9.25395 16.0799 9.13375 16.3199C9.01355 16.5599 8.77315 16.5599 8.81321 16.6399C8.85328 16.7199 9.09368 16.6799 9.33408 16.3999C9.57448 16.1199 9.45428 15.7999 10.0553 15.2799C10.5762 14.8399 10.5762 14.4399 10.8967 14.0799C10.8967 14.0799 10.9368 14.0799 10.9368 14.1199L9.81488 17.1999C9.81488 17.1999 9.77482 17.2799 9.85495 17.3199C9.93508 17.3599 9.97515 17.2399 9.97515 17.2399L11.3374 14.2799H11.3775C11.2573 14.7999 11.3775 15.2799 11.1371 15.7599C10.8166 16.3599 11.0169 16.8799 10.9768 17.1199C10.9368 17.3999 10.7364 17.4799 10.7765 17.5199C10.8166 17.5999 11.057 17.4399 11.1772 17.0799C11.2573 16.7199 11.057 16.5199 11.4176 15.7599C11.7381 15.1199 11.5778 14.7999 11.7381 14.3199H11.7782L11.8984 17.5999C11.8984 17.5999 11.8984 17.7199 11.9785 17.7199C12.0586 17.7199 12.0586 17.5999 12.0586 17.5999L12.1788 14.3199H12.2189C12.299 14.8399 12.6196 15.2399 12.5795 15.7999C12.4994 16.4799 12.9 16.8799 12.9802 17.1199C13.0603 17.3999 12.9 17.5599 12.9802 17.5599C13.0603 17.5999 13.2206 17.3999 13.1805 16.9999C13.1404 16.6399 12.8199 16.5199 12.9 15.6799C12.9401 14.9599 12.6596 14.7199 12.6596 14.1999H12.6997L14.062 17.1599C14.062 17.1599 14.102 17.2399 14.1822 17.2399C14.2623 17.1999 14.2222 17.1199 14.2222 17.1199L13.0603 13.9999H13.1004C13.3808 14.4399 13.8216 14.6799 13.9818 15.2399C14.1822 15.8799 14.663 16.1199 14.8633 16.3199C15.0636 16.5199 14.9434 16.7599 15.0236 16.7599C15.1037 16.7599 15.1838 16.5199 14.9835 16.1999C14.7832 15.8799 14.4626 15.8799 14.2222 15.0799C14.0219 14.3999 13.6613 14.2799 13.4209 13.7999L13.461 13.7599L15.865 15.9999C15.865 15.9999 15.9451 16.0799 15.9852 16.0399C16.0252 15.9999 15.9451 15.9199 15.9451 15.9199L13.7014 13.5199L13.7414 13.4799C14.1822 13.7999 14.663 13.8399 15.0236 14.2799C15.4643 14.7999 15.9852 14.7999 16.2256 14.9199C16.466 15.0399 16.466 15.2799 16.5461 15.2399C16.6262 15.1999 16.5862 14.9599 16.3057 14.7199C15.9852 14.4799 15.7047 14.5999 15.1838 13.9999C14.7431 13.4799 14.3424 13.4799 13.9818 13.1199C13.9818 13.1199 13.9818 13.0799 14.0219 13.0799L17.107 14.1999C17.107 14.1999 17.1872 14.2399 17.2272 14.1599C17.2673 14.0799 17.1471 14.0399 17.1471 14.0399L14.1822 12.6799V12.6399C14.703 12.7599 15.1838 12.6399 15.6646 12.8799C16.2656 13.1999 16.7865 12.9999 17.0269 12.9999C17.3074 13.0399 17.3875 13.2399 17.4276 13.1999C17.5077 13.1599 17.3474 12.9199 16.9868 12.7999C16.6262 12.7199 16.3858 12.9199 15.6646 12.5599C15.0236 12.2399 14.703 12.3999 14.2222 12.2399V12.1999L17.5077 12.0799C17.5077 12.0799 17.6279 12.0799 17.6279 11.9999C17.6279 11.9199 17.5077 11.9199 17.5077 11.9199Z" fill="#F6B40E"/>
<path d="M13.2223 11.72C13.1021 11.6 12.9418 11.52 12.7815 11.52C12.6213 11.52 12.5011 11.6 12.3809 11.72C12.5812 11.88 12.9418 11.88 13.2223 11.72ZM13.1021 11.68C13.0219 11.76 12.9418 11.8 12.8617 11.8C12.9017 11.76 12.9418 11.72 12.9418 11.68C12.9418 11.64 12.9017 11.6 12.8617 11.56C12.9819 11.6 13.062 11.64 13.1021 11.68ZM12.6613 11.56C12.6213 11.6 12.6213 11.64 12.6213 11.68C12.6213 11.72 12.6613 11.8 12.7014 11.8C12.6213 11.8 12.5411 11.76 12.461 11.68C12.5411 11.64 12.5812 11.6 12.6613 11.56Z" fill="#85340A"/>
<path d="M12.8226 11.3999C12.5822 11.3999 12.5422 11.4399 12.462 11.5199C12.3418 11.5999 12.3018 11.5999 12.3018 11.5999C12.3018 11.5999 12.3018 11.6799 12.3418 11.6399C12.3819 11.6399 12.462 11.5999 12.5422 11.5199C12.6624 11.4399 12.7425 11.4399 12.8627 11.4399C13.1832 11.4399 13.3435 11.6799 13.3836 11.6799C13.4236 11.6799 13.1432 11.3999 12.8226 11.3999Z" fill="#85340A"/>
<path d="M12.1395 11.3599C12.0994 11.4399 12.0994 11.4799 12.0994 11.5599C12.0593 11.7999 12.0994 12.0799 12.2597 12.3599C12.2597 12.3599 12.2997 12.3199 12.3398 12.3199C12.1795 12.1199 12.1395 11.8799 12.1395 11.6799C12.1395 11.5599 12.2196 11.4799 12.2597 11.3999C12.5401 11.1599 13.0209 11.1999 13.4216 11.5199C13.061 10.9999 12.5401 11.0399 12.1395 11.3599Z" fill="#85340A"/>
<path d="M12.5398 11.8798C12.4196 11.7998 12.3795 11.7598 12.3395 11.7598C12.2994 11.7598 12.2994 11.7998 12.4597 11.8798C12.6199 11.9598 12.9405 11.9998 13.2209 11.7598C12.9004 11.9198 12.66 11.9198 12.5398 11.8798ZM12.3395 12.5198C12.2994 12.5198 12.2593 12.4798 12.2193 12.4398C12.2193 12.4798 12.1391 12.5598 12.0189 12.5598C11.8987 12.5598 11.8186 12.4398 11.8186 12.4398C11.8186 12.4798 11.7785 12.5198 11.6984 12.5198C11.6583 12.5198 11.5782 12.4798 11.5782 12.3998C11.5782 12.3598 11.6183 12.3198 11.6583 12.3198C11.5782 12.3198 11.5381 12.3998 11.5381 12.4798C11.5381 12.5598 11.6183 12.6398 11.6984 12.6398C11.7385 12.6398 11.7785 12.5998 11.8186 12.5598C11.8587 12.5998 11.9789 12.5998 12.0189 12.5998H12.059C12.0991 12.5998 12.1792 12.5998 12.2593 12.5598C12.2994 12.5998 12.3395 12.6398 12.3795 12.6398C12.4597 12.6398 12.5398 12.5598 12.5398 12.4798C12.5398 12.3998 12.4997 12.3598 12.4196 12.3198C12.4597 12.3198 12.4997 12.3598 12.4997 12.3998C12.4597 12.4798 12.4196 12.5198 12.3395 12.5198ZM12.0189 12.8798C12.0991 12.8798 12.1792 12.7998 12.2994 12.8798C12.4196 12.9598 12.4997 12.9998 12.5799 13.0398C12.4196 12.9198 12.3395 12.7998 12.1792 12.7998C12.1391 12.7998 12.059 12.7998 12.0189 12.8398C11.9388 12.7998 11.8987 12.7998 11.8587 12.7998C11.6984 12.7998 11.6183 12.9598 11.458 13.0398C11.5381 12.9998 11.6183 12.9198 11.7385 12.8798C11.8587 12.8398 11.9388 12.8798 12.0189 12.8798Z" fill="#85340A"/>
<path d="M12.0195 12.9999C11.9394 12.9999 11.8993 12.9599 11.7791 12.9999C11.699 12.9999 11.6189 12.9999 11.4987 13.0399H11.4586C11.8192 13.0799 11.6589 13.2799 12.0195 13.2799C12.3801 13.2799 12.2199 13.0799 12.5805 13.0399H12.5003C12.1798 12.9199 12.1397 12.9999 12.0195 12.9999ZM12.0195 13.1999C11.7391 13.1999 11.8192 12.9999 11.4987 12.9999C11.8192 12.9199 11.8593 13.0399 12.0195 13.0399C12.1397 13.0399 12.2199 12.9599 12.5404 12.9999C12.2199 13.0399 12.3 13.1999 12.0195 13.1999ZM12.0195 13.2799C11.8593 13.2799 11.699 13.3999 11.699 13.5999C11.7391 13.4399 11.8593 13.3599 12.0195 13.3599C12.1798 13.3599 12.3 13.4799 12.3401 13.5999C12.3401 13.3999 12.1798 13.2799 12.0195 13.2799ZM11.7791 11.3999C11.8593 11.4799 11.8993 11.5999 11.8993 11.6799C11.9394 11.8799 11.8593 12.0799 11.699 12.3199C11.699 12.3199 11.7391 12.3199 11.7791 12.3599C11.8993 12.0799 11.9795 11.8399 11.9394 11.5599C11.9394 11.4799 11.8993 11.4399 11.8993 11.3599C11.5387 11.0399 11.0179 10.9999 10.6172 11.5199C11.0179 11.1599 11.5387 11.1199 11.7791 11.3999Z" fill="#85340A"/>
<path d="M11.5378 11.5599C11.658 11.6399 11.6981 11.6799 11.7382 11.6799C11.7782 11.6799 11.7782 11.6399 11.7782 11.6399C11.7782 11.6399 11.6981 11.6399 11.618 11.5599C11.4978 11.4799 11.4577 11.4399 11.2574 11.4399C10.8968 11.4399 10.6964 11.7199 10.7365 11.7199C10.7766 11.7199 10.9368 11.4799 11.2574 11.4799C11.3375 11.4799 11.4577 11.4799 11.5378 11.5599Z" fill="#85340A"/>
<path d="M10.8574 11.72C10.9376 11.8 11.0978 11.84 11.2581 11.84C11.3783 11.84 11.5386 11.8 11.6588 11.72C11.5386 11.6 11.3783 11.52 11.218 11.52C11.0978 11.52 10.9376 11.6 10.8574 11.72ZM10.9376 11.72C11.0177 11.64 11.0978 11.56 11.178 11.56C11.1379 11.6 11.0978 11.64 11.0978 11.68C11.0978 11.76 11.1379 11.8 11.178 11.8C11.0978 11.84 10.9776 11.8 10.9376 11.72ZM11.5386 11.68C11.4985 11.72 11.4184 11.76 11.3382 11.8C11.3783 11.76 11.3783 11.72 11.3783 11.68C11.3783 11.64 11.3382 11.6 11.3382 11.56C11.4584 11.6 11.5386 11.64 11.5386 11.68Z" fill="#85340A"/>
<path d="M11.7389 11.7598C11.6988 11.7598 11.6588 11.7998 11.5386 11.8798C11.4184 11.9598 11.178 11.9598 10.8574 11.7998C11.1379 12.0398 11.4584 11.9998 11.6187 11.9198C11.779 11.7998 11.779 11.7598 11.7389 11.7598Z" fill="#85340A"/>
</g>
<defs>
<clipPath id="clip0_77_17494">
<rect width="24" height="24" fill="white"/>
</clipPath>
</defs>
</svg>
