<svg width="24" height="24" viewBox="0 0 24 24" fill="none" xmlns="http://www.w3.org/2000/svg">
<g clip-path="url(#clip0_77_15535)">
<path d="M0.75 12.0002C0.75 14.2127 1.3875 16.2752 2.475 18.0002H21.4875C22.575 16.2752 23.2125 14.2127 23.2125 12.0002C23.2125 9.78771 22.575 7.72521 21.4875 6.00021H2.475C1.3875 7.72521 0.75 9.78771 0.75 12.0002Z" fill="#FDC400"/>
<path d="M21.5251 6.00021C19.5376 2.85021 16.0126 0.750214 12.0001 0.750214C7.9876 0.750214 4.4626 2.85021 2.4751 6.00021H21.5251ZM2.4751 18.0002C4.4626 21.1502 7.9876 23.2502 12.0001 23.2502C16.0126 23.2502 19.5376 21.1502 21.5251 18.0002H2.4751Z" fill="#C60B1D"/>
<path d="M3.4502 10.7627H4.6502V11.4377H3.4502V10.7627ZM3.4502 15.7127H4.6877V16.3502H3.4502V15.7127Z" fill="#C8B100"/>
<path d="M3.3374 14.6627C3.2249 14.7377 3.1499 14.8127 3.1499 14.8502C3.1499 14.8877 3.1874 14.9252 3.2624 14.9627C3.3374 15.0002 3.4124 15.0752 3.3749 15.1502C3.4499 15.0752 3.4874 15.0002 3.4874 14.9252C3.4874 14.8127 3.4124 14.7002 3.3374 14.6627Z" fill="#ED4C5C"/>
<path d="M3.6377 11.4377H4.5002V15.7127H3.6377V11.4377Z" fill="white"/>
<path d="M5.40023 13.0127C5.21273 12.9377 4.87523 12.8627 4.50023 12.8627C4.38773 12.8627 4.23773 12.8627 4.08773 12.9002C3.56273 12.9752 3.15023 13.2002 3.18773 13.3502L3.00023 12.9377C2.96273 12.7502 3.41273 12.5252 3.97523 12.4127C4.16273 12.3752 4.35023 12.3752 4.50023 12.3752C4.87523 12.3752 5.21273 12.4127 5.40023 12.4877V13.0127Z" fill="#ED4C5C"/>
<path d="M3.6376 13.5752C3.4126 13.5752 3.2251 13.5002 3.2251 13.3877C3.2251 13.3127 3.3001 13.2002 3.4501 13.1252H3.6751L3.6376 13.5752ZM4.5001 13.2377C4.6501 13.2752 4.7626 13.3127 4.8376 13.3502C4.8751 13.3877 4.7251 13.5377 4.5001 13.6502V13.2377Z" fill="#ED4C5C"/>
<path d="M3.07535 14.4002C3.03785 14.3252 3.30035 14.1752 3.63785 14.0627C3.78785 14.0252 3.90035 13.9502 4.08785 13.8752C4.53785 13.6877 4.91285 13.4252 4.83785 13.3502L4.91285 13.8002C4.95035 13.8752 4.65035 14.1002 4.20035 14.3252C4.05035 14.4002 3.78785 14.5127 3.63785 14.5502C3.37535 14.6252 3.15035 14.7752 3.15035 14.8127L3.07535 14.4002Z" fill="#ED4C5C"/>
<path d="M11.5126 10.7627H12.7126V11.4377H11.5126V10.7627ZM11.4751 15.7127H12.7126V16.3502H11.4751V15.7127Z" fill="#C8B100"/>
<path d="M12.8248 14.6627C12.9373 14.7377 13.0123 14.8127 13.0123 14.8502C13.0123 14.8877 12.9748 14.9252 12.8998 14.9627C12.8248 15.0377 12.7498 15.1502 12.7873 15.1877C12.7123 15.1127 12.6748 15.0377 12.6748 14.9627C12.6748 14.8127 12.7498 14.7002 12.8248 14.6627Z" fill="#ED4C5C"/>
<path d="M11.6626 11.4377H12.5251V15.7127H11.6626V11.4377Z" fill="white"/>
<path d="M10.7622 13.0127C10.9497 12.9377 11.2872 12.8627 11.6622 12.8627C11.7747 12.8627 11.9247 12.8627 12.0747 12.9002C12.5997 12.9752 13.0122 13.2002 12.9747 13.3502L13.1622 12.9002C13.1997 12.7127 12.7497 12.4877 12.1872 12.3752H11.6622C11.2872 12.3752 10.9497 12.4127 10.7622 12.4877V13.0127Z" fill="#ED4C5C"/>
<path d="M12.5246 13.5752C12.7496 13.5752 12.9371 13.5002 12.9371 13.3877C12.9371 13.3127 12.8621 13.2002 12.7121 13.1252H12.4871L12.5246 13.5752ZM11.6621 13.2377C11.5121 13.2752 11.3996 13.3127 11.3246 13.3502C11.2871 13.3877 11.4371 13.5377 11.6621 13.6502V13.2377Z" fill="#ED4C5C"/>
<path d="M13.0873 14.4002C13.1248 14.3252 12.8623 14.1752 12.5248 14.0627C12.3748 14.0252 12.2623 13.9502 12.0748 13.8752C11.6248 13.6877 11.2498 13.4252 11.3248 13.3502L11.2498 13.8002C11.2123 13.8752 11.5123 14.1002 11.9623 14.3252C12.1123 14.4002 12.3748 14.5127 12.5248 14.5502C12.7873 14.6252 13.0123 14.8127 12.9748 14.8502L13.0873 14.4002ZM8.0623 8.36272C8.7748 8.36272 10.2373 8.51272 10.7623 9.03772C10.1998 10.3877 9.2998 9.82522 8.0623 9.82522C6.8623 9.82522 5.9248 10.3877 5.3623 9.03772C5.8873 8.51272 7.3123 8.36272 8.0623 8.36272Z" fill="#ED4C5C"/>
<path d="M9.89981 9.86271C9.44981 9.60021 8.77481 9.56271 8.06231 9.56271C7.3498 9.56271 6.67481 9.63771 6.22481 9.86271L6.3748 10.5002C6.7873 10.6127 7.3873 10.6877 8.06231 10.6877C8.73731 10.6877 9.29981 10.6127 9.74981 10.5002L9.89981 9.86271ZM10.5373 8.25021C10.3873 8.13771 10.0873 8.02521 9.82481 8.02521C9.71231 8.02521 9.59981 8.02521 9.48731 8.06271C9.48731 8.06271 9.2623 7.76271 8.7373 7.76271C8.5498 7.76271 8.39981 7.80021 8.24981 7.87521V7.83771C8.21231 7.76271 8.13731 7.68771 8.06231 7.68771C7.98731 7.68771 7.87481 7.80021 7.87481 7.87521V7.91271C7.7248 7.83771 7.57481 7.80021 7.38731 7.80021C6.86231 7.80021 6.63731 8.13771 6.63731 8.10021C6.52481 8.06271 6.4123 8.06271 6.2998 8.06271C4.5748 8.06271 5.4373 9.22521 5.4373 9.22521L5.6248 9.00021C5.2123 8.47521 5.5873 8.17521 6.3373 8.17521C6.4498 8.17521 6.52481 8.17521 6.59981 8.21271C6.33731 8.58771 6.82481 8.92521 6.82481 8.92521L6.9373 8.73771C6.6748 8.55021 6.63731 7.91271 7.38731 7.91271C7.57481 7.91271 7.7248 7.95021 7.87481 8.06271C7.87481 8.10021 7.8373 8.62521 7.7998 8.70021L8.09981 8.96271L8.39981 8.70021C8.36231 8.58771 8.32481 8.10021 8.32481 8.06271C8.43731 7.98771 8.62481 7.91271 8.81231 7.91271C9.59981 7.91271 9.59981 8.55021 9.26231 8.73771L9.37481 8.92521C9.37481 8.92521 9.78731 8.58771 9.59981 8.21271C9.67481 8.21271 9.78731 8.17521 9.86231 8.17521C10.7623 8.17521 10.7998 8.85021 10.5748 9.00021L10.7248 9.22521C10.6498 9.22521 11.0623 8.70021 10.5373 8.25021Z" fill="#C8B100"/>
<path d="M7.8374 7.53771C7.8374 7.42521 7.9499 7.31271 8.0624 7.31271C8.2124 7.31271 8.2874 7.42521 8.2874 7.53771C8.2874 7.65021 8.1749 7.76271 8.0624 7.76271C7.9499 7.76271 7.8374 7.65021 7.8374 7.53771Z" fill="#005BBF"/>
<path d="M7.9874 6.90021V7.01271H7.8749V7.12521H7.9874V7.50021H7.8374V7.61271H8.2874L8.3249 7.53771L8.2874 7.50021H8.1374V7.12521H8.2499V7.01271H8.1374V6.90021H7.9874Z" fill="#C8B100"/>
<path d="M8.0624 10.6127C7.4624 10.6127 6.9374 10.5377 6.5249 10.4252C6.9374 10.3127 7.4624 10.2377 8.0624 10.2377C8.6624 10.2377 9.1874 10.3127 9.5999 10.4252C9.2249 10.5377 8.6624 10.6127 8.0624 10.6127Z" fill="#ED4C5C"/>
<path d="M8.0999 17.1002C7.3874 17.1002 6.7124 16.9127 6.1124 16.6502C5.6624 16.4252 5.3999 16.0127 5.3999 15.5252V13.7252H10.7999V15.5252C10.7999 16.0127 10.4999 16.4627 10.0874 16.6502C9.4874 16.9502 8.8124 17.1002 8.0999 17.1002ZM8.0624 10.7252H10.7624V13.7252H8.0624V10.7252Z" fill="white"/>
<path d="M8.0999 15.5252C8.0999 16.2377 7.4999 16.8002 6.7499 16.8002C5.9999 16.8002 5.3999 16.2377 5.3999 15.5252V13.7252H8.0999V15.5252Z" fill="#ED4C5C"/>
<path d="M5.9623 16.5752C6.0373 16.6127 6.1498 16.6877 6.2998 16.7252V13.6502H5.9998L5.9623 16.5752ZM5.3623 15.4877C5.3623 15.8627 5.5123 16.1627 5.6623 16.3127V13.6502H5.3623V15.4877Z" fill="#C8B100"/>
<path d="M6.5625 16.8002H6.8625V13.6502H6.5625V16.8002Z" fill="#C7B500"/>
<path d="M7.1626 16.7252C7.2751 16.6877 7.4251 16.6127 7.5001 16.5752V13.6502H7.2001L7.1626 16.7252Z" fill="#C8B100"/>
<path d="M5.3623 10.7252H8.0623V13.7252H5.3623V10.7252Z" fill="#ED4C5C"/>
<path d="M7.7998 16.3127C7.9498 16.2002 8.06231 15.9377 8.09981 15.6377V13.6877H7.7998V16.3127Z" fill="#C8B100"/>
<path d="M10.7999 13.7252V15.5252C10.7999 16.2377 10.1999 16.8002 9.4499 16.8002C8.6999 16.8002 8.0999 16.2377 8.0999 15.5252V13.7252H10.7999ZM9.8249 11.2502C9.9374 11.4752 9.9374 12.0377 9.5999 11.9252C9.6749 11.9627 9.7124 12.2252 9.8249 12.3752C10.0124 12.6002 10.2374 12.4127 10.1999 12.1502C10.1249 11.7377 10.1624 11.4752 10.2374 11.0627C10.2374 11.1002 10.4249 11.1002 10.4999 11.0252C10.4624 11.1377 10.4249 11.2877 10.4999 11.2877C10.4249 11.4002 10.2374 11.5877 10.1999 11.7002C10.1624 11.9627 10.5749 12.4502 10.1249 12.5627C9.8249 12.6377 10.0124 12.8627 10.1249 12.9752C10.1249 12.9752 9.9749 13.4627 10.0499 13.4252C9.7499 13.5377 9.8249 13.2752 9.8249 13.2752C9.9749 12.8252 9.5624 12.7877 9.5999 12.7127C9.2249 12.6752 9.6374 13.0502 9.2999 13.0502C9.2249 13.0502 9.0749 13.1252 9.0749 13.1252C8.6624 13.0877 8.8874 12.7127 9.0374 12.7502C9.1499 12.7877 9.2624 12.9752 9.2624 12.7127C9.2624 12.7127 9.0749 12.4127 9.5624 12.4127C9.3749 12.4127 9.2624 12.2627 9.1874 12.0752C9.1124 12.1127 8.9999 12.3002 8.5874 12.3377C8.5874 12.3377 8.4749 11.9252 8.5874 12.0002C8.7374 12.0752 8.8124 12.0752 8.9624 11.9252C8.8874 11.8127 8.4374 11.6627 8.5124 11.4002C8.5124 11.3252 8.7374 11.2127 8.7374 11.2127C8.6999 11.4002 8.8124 11.5877 9.0374 11.5877C9.3374 11.6252 9.2249 11.5127 9.2624 11.4377C9.2999 11.3627 9.5249 11.4752 9.4499 11.2877C9.4499 11.2502 9.1874 11.2127 9.2624 11.1002C9.4124 10.9127 9.6374 11.0627 9.8249 11.2502ZM8.0999 16.7252L8.0249 16.5377L8.0999 16.3127L8.1749 16.5377L8.0999 16.7252Z" fill="#ED4C5C"/>
<path d="M6.1874 11.3627V11.5502H6.2624V11.7002H6.0749V12.0752H6.1874V12.9002H5.9624V13.3127H7.4999V12.9002H7.3124V12.0752H7.3874V11.7002H7.1999V11.5502H7.3124V11.3627H6.9374V11.5502H7.0124V11.7002H6.8249V11.2502H6.9374V11.0627H6.5249V11.2502H6.6374V11.7002H6.4499V11.5502H6.5249V11.3627H6.1874ZM10.4249 15.9752V14.1002H8.4749V15.9752L9.3749 16.3877H9.4874L10.4249 15.9752ZM9.3749 14.2502V14.8877L8.7374 14.2502H9.3749ZM8.5874 14.2877L9.3374 15.0377L8.5874 15.7877V14.2877ZM8.6624 15.9377L9.3749 15.2252V16.2752L8.6624 15.9377ZM9.4874 16.2377V15.1877L10.1999 15.9002L9.4874 16.2377ZM10.2749 15.7877L9.5249 15.0377L10.2749 14.2877V15.7877ZM9.4874 14.2502H10.1249L9.4874 14.8877V14.2502Z" fill="#C8B100"/>
<path d="M7.2002 13.6877C7.2002 13.1252 7.5752 12.7127 8.0627 12.7127C8.5502 12.7127 8.92519 13.1627 8.92519 13.6877C8.92519 14.2127 8.5502 14.6627 8.0627 14.6627C7.5752 14.6627 7.2002 14.2502 7.2002 13.6877Z" fill="#ED4C5C"/>
<path d="M7.4624 13.6877C7.4624 13.2752 7.7249 12.9752 8.0624 12.9752C8.3999 12.9752 8.6624 13.3127 8.6624 13.6877C8.6624 14.1002 8.3999 14.4002 8.0624 14.4002C7.7624 14.4377 7.4624 14.1002 7.4624 13.6877Z" fill="#005BBF"/>
<path d="M7.7999 13.2002L7.6499 13.6127L7.7624 13.6502L7.6874 13.8002H7.9124L7.8374 13.6502L7.9499 13.6127L7.7999 13.2002ZM8.3624 13.2002L8.2124 13.6127L8.3249 13.6502L8.2499 13.8002H8.4749L8.4374 13.6502L8.5499 13.6127L8.3624 13.2002ZM8.0999 13.6877L7.9124 14.1002L8.0249 14.1377L7.9874 14.2877H8.1749L8.1374 14.1377L8.2499 14.1002L8.0999 13.6877Z" fill="#C8B100"/>
</g>
<defs>
<clipPath id="clip0_77_15535">
<rect width="24" height="24" fill="white"/>
</clipPath>
</defs>
</svg>
