<svg width="48" height="48" viewBox="0 0 48 48" fill="none" xmlns="http://www.w3.org/2000/svg">
<g clip-path="url(#clip0_77_17898)">
<path d="M0 24.0004C0 28.7204 1.36227 33.1204 3.68614 36.8004H44.3139C46.6377 33.1204 48 28.7204 48 24.0004C48 19.2804 46.6377 14.8804 44.3139 11.2004H3.68614C1.36227 14.8804 0 19.2804 0 24.0004Z" fill="#F9F9F9"/>
<path d="M44.3934 11.2005C40.1463 4.48049 32.6138 0.000488281 24.0395 0.000488281C15.4652 0.000488281 7.93263 4.48049 3.68555 11.2005H44.3934ZM3.68555 36.8005C7.93263 43.5205 15.4652 48.0005 24.0395 48.0005C32.6138 48.0005 40.1463 43.5205 44.3934 36.8005H3.68555Z" fill="#B4D7EE"/>
<path d="M35.0154 23.8405L28.4445 23.6005V23.5205C29.4862 23.3605 30.2875 22.7205 31.4094 22.8005C32.7717 22.9605 33.573 22.1605 34.0538 22.0005C34.6147 21.8405 34.9353 22.1605 34.9353 22.0005C35.0154 21.8405 34.6147 21.5205 33.8134 21.6005C33.0922 21.6805 32.8518 22.3205 31.169 22.1605C29.7266 22.0805 29.2458 22.6405 28.2041 22.6405V22.5605L34.1339 19.8405C34.1339 19.8405 34.2942 19.7605 34.2942 19.6005C34.2141 19.4405 34.0538 19.5205 34.0538 19.5205L28.0438 21.9205V21.8405C28.9253 21.2805 29.4061 20.4005 30.5279 20.0805C31.8101 19.6805 32.2909 18.7205 32.6915 18.3205C33.0922 17.9205 33.573 18.1605 33.573 18.0005C33.573 17.8405 33.0922 17.6805 32.4511 18.0805C31.8101 18.4805 31.8101 19.1205 30.2074 19.6005C28.8451 20.0005 28.6047 20.7205 27.6431 21.2005L27.563 21.1205L32.0505 16.3205C32.0505 16.3205 32.2107 16.1605 32.1306 16.0805C32.0505 16.0005 31.8902 16.1605 31.8902 16.1605L27.0822 20.6405L27.0021 20.5605C27.6431 19.6805 27.7233 18.7205 28.6047 18.0005C29.6465 17.1205 29.6465 16.0805 29.8869 15.6005C30.1273 15.1205 30.6081 15.1205 30.5279 14.9605C30.4478 14.8005 29.967 14.8805 29.4862 15.4405C29.0054 16.0805 29.2458 16.6405 28.0438 17.6805C27.0021 18.5605 27.0021 19.3605 26.361 20.0805C26.361 20.0805 26.2809 20.0805 26.2809 20.0005L28.5246 13.8405C28.5246 13.8405 28.6047 13.6805 28.4445 13.6005C28.2842 13.5205 28.2041 13.7605 28.2041 13.7605L25.4795 19.6805H25.3994C25.6398 18.6405 25.3994 17.6805 25.8802 16.7205C26.5213 15.5205 26.1206 14.4805 26.1206 14.0005C26.2007 13.4405 26.6014 13.2805 26.5213 13.2005C26.4411 13.0405 25.9603 13.3605 25.7199 14.0805C25.5596 14.8005 25.9603 15.2805 25.2391 16.7205C24.598 18.0005 24.9186 18.6405 24.598 19.6005H24.5179L24.2775 13.0405C24.2775 13.0405 24.2775 12.8005 24.1172 12.8005C23.957 12.8005 23.957 13.0405 23.957 13.0405L23.7166 19.6005H23.6364C23.4762 18.5605 22.8351 17.7605 22.9152 16.6405C23.0755 15.2805 22.2742 14.4805 22.1139 14.0005C21.9536 13.5205 22.2742 13.1205 22.1139 13.1205C21.9536 13.0405 21.6331 13.4405 21.7132 14.2405C21.7934 14.9605 22.4344 15.2005 22.2742 16.8805C22.194 18.3205 22.755 18.8005 22.755 19.8405H22.6748L19.9503 13.9205C19.9503 13.9205 19.8702 13.7605 19.7099 13.7605C19.5496 13.8405 19.6298 14.0005 19.6298 14.0005L21.8735 20.1605H21.7934C21.2324 19.2805 20.351 18.8005 20.0304 17.6805C19.6298 16.4005 18.6682 15.9205 18.2675 15.5205C17.8668 15.1205 18.1072 14.6405 17.947 14.6405C17.7867 14.6405 17.6264 15.1205 18.0271 15.7605C18.4278 16.4005 19.0688 16.4005 19.5496 18.0005C19.9503 19.3605 20.6715 19.6005 21.1523 20.5605L21.0722 20.6405L16.2642 16.1605C16.2642 16.1605 16.1039 16.0005 16.0238 16.0805C15.9436 16.1605 16.1039 16.3205 16.1039 16.3205L20.5914 21.1205L20.5112 21.2005C19.6298 20.5605 18.6682 20.4805 17.947 19.6005C17.0655 18.5605 16.0238 18.5605 15.543 18.3205C15.0622 18.0805 15.0622 17.6005 14.9019 17.6805C14.7416 17.7605 14.8218 18.2405 15.3827 18.7205C16.0238 19.2005 16.5847 18.9605 17.6264 20.1605C18.5079 21.2005 19.3092 21.2005 20.0304 21.8405C20.0304 21.8405 20.0304 21.9205 19.9503 21.9205L13.78 19.6805C13.78 19.6805 13.6198 19.6005 13.5396 19.7605C13.4595 19.9205 13.6999 20.0005 13.6999 20.0005L19.6298 22.7205V22.8005C18.588 22.5605 17.6264 22.8005 16.6648 22.3205C15.4628 21.6805 14.4211 22.0805 13.9403 22.0805C13.3793 22.0005 13.2191 21.6005 13.1389 21.6805C12.9787 21.7605 13.2992 22.2405 14.0204 22.4805C14.7416 22.6405 15.2224 22.2405 16.6648 22.9605C17.947 23.6005 18.588 23.2805 19.5496 23.6005V23.6805L12.9787 23.9205C12.9787 23.9205 12.7383 23.9205 12.7383 24.0805C12.7383 24.2405 12.9787 24.2405 12.9787 24.2405L19.5496 24.4805V24.5605C18.5079 24.7205 17.7066 25.3605 16.5847 25.2805C15.2224 25.1205 14.4211 25.9205 13.9403 26.0805C13.3793 26.2405 13.0588 25.9205 13.0588 26.0805C12.9787 26.2405 13.3794 26.5605 14.1807 26.4805C14.982 26.4005 15.1423 25.8405 16.8251 25.9205C18.2675 26.0005 18.7483 25.4405 19.79 25.4405V25.5205L13.8602 28.2405C13.8602 28.2405 13.6999 28.3205 13.6999 28.4805C13.6999 28.6405 13.9403 28.5605 13.9403 28.5605L20.1106 26.3205V26.4005C19.2291 26.9605 18.7483 27.8405 17.6264 28.1605C16.3443 28.5605 15.8635 29.5205 15.4628 29.9205C15.0622 30.3205 14.5814 30.0805 14.5814 30.2405C14.5814 30.4005 15.0622 30.5605 15.7032 30.1605C16.3443 29.7605 16.3443 29.1205 17.947 28.6405C19.3092 28.2405 19.5496 27.5205 20.5112 27.0405L20.5914 27.1205L16.1039 31.9205C16.1039 31.9205 15.9436 32.0805 16.0238 32.1605C16.1039 32.2405 16.2642 32.0805 16.2642 32.0805L21.0722 27.6005L21.1523 27.6805C20.5112 28.5605 20.4311 29.5205 19.5496 30.2405C18.5079 31.1205 18.5079 32.1605 18.2675 32.6405C18.0271 33.1205 17.5463 33.1205 17.6264 33.2805C17.7066 33.4405 18.1874 33.3605 18.6682 32.8005C19.149 32.2405 18.9086 31.6005 20.1106 30.5605C21.1523 29.6805 21.1523 28.8805 21.7934 28.1605C21.7934 28.1605 21.8735 28.1605 21.8735 28.2405L19.6298 34.4005C19.6298 34.4005 19.5496 34.5605 19.7099 34.6405C19.8702 34.7205 19.9503 34.4805 19.9503 34.4805L22.6748 28.5605H22.755C22.5146 29.6005 22.755 30.5605 22.2742 31.5205C21.6331 32.7205 22.0338 33.7605 21.9536 34.2405C21.8735 34.8005 21.4728 34.9605 21.553 35.0405C21.6331 35.2005 22.1139 34.8805 22.3543 34.1605C22.5146 33.4405 22.1139 33.0405 22.8351 31.5205C23.4762 30.2405 23.1556 29.6005 23.4762 28.6405H23.5563L23.7967 35.2005C23.7967 35.2005 23.7967 35.4405 23.957 35.4405C24.1172 35.4405 24.1172 35.2005 24.1172 35.2005L24.3576 28.6405H24.4378C24.598 29.6805 25.2391 30.4805 25.159 31.6005C24.9987 32.9605 25.8001 33.7605 25.9603 34.2405C26.1206 34.8005 25.8001 35.1205 25.9603 35.1205C26.1206 35.2005 26.4411 34.8005 26.361 34.0005C26.2809 33.2805 25.6398 33.0405 25.8001 31.3605C25.8802 29.9205 25.3192 29.4405 25.3192 28.4005H25.3994L28.1239 34.3205C28.1239 34.3205 28.2041 34.4805 28.3643 34.4805C28.5246 34.4005 28.4445 34.2405 28.4445 34.2405L26.1206 28.0005H26.2007C26.7617 28.8805 27.6431 29.3605 27.9637 30.4805C28.3643 31.7605 29.3259 32.2405 29.7266 32.6405C30.1273 33.0405 29.8869 33.5205 30.0471 33.5205C30.2074 33.5205 30.3677 33.0405 29.967 32.4005C29.5663 31.7605 28.9253 31.7605 28.4445 30.1605C28.0438 28.8005 27.3226 28.5605 26.8418 27.6005L26.9219 27.5205L31.7299 32.0005C31.7299 32.0005 31.8902 32.1605 31.9703 32.0805C32.0505 32.0005 31.8902 31.8405 31.8902 31.8405L27.4027 27.0405L27.4829 26.9605C28.3643 27.6005 29.3259 27.6805 30.0471 28.5605C30.9286 29.6005 31.9703 29.6005 32.4511 29.8405C32.9319 30.0805 32.9319 30.5605 33.0922 30.4805C33.2525 30.4005 33.1723 29.9205 32.6114 29.4405C31.9703 28.9605 31.4094 29.2005 30.3677 28.0005C29.4862 26.9605 28.6849 26.9605 27.9637 26.2405C27.9637 26.2405 27.9637 26.1605 28.0438 26.1605L34.2141 28.4005C34.2141 28.4005 34.3743 28.4805 34.4545 28.3205C34.5346 28.1605 34.2942 28.0805 34.2942 28.0805L28.3643 25.3605V25.2805C29.4061 25.5205 30.3677 25.2805 31.3293 25.7605C32.5313 26.4005 33.573 26.0005 34.0538 26.0005C34.6147 26.0805 34.775 26.4805 34.8551 26.4005C35.0154 26.3205 34.6949 25.8405 33.9737 25.6005C33.2525 25.4405 32.7717 25.8405 31.3293 25.1205C30.0471 24.4805 29.4061 24.8005 28.4445 24.4805V24.4005L35.0154 24.1605C35.0154 24.1605 35.2558 24.1605 35.2558 24.0005C35.2558 23.8405 35.0154 23.8405 35.0154 23.8405Z" fill="#F6B40E"/>
<path d="M26.4445 23.4403C26.2041 23.2003 25.8836 23.0403 25.5631 23.0403C25.2425 23.0403 25.0021 23.2003 24.7617 23.4403C25.1624 23.7603 25.8836 23.7603 26.4445 23.4403ZM26.2041 23.3603C26.0439 23.5203 25.8836 23.6003 25.7233 23.6003C25.8035 23.5203 25.8836 23.4403 25.8836 23.3603C25.8836 23.2803 25.8035 23.2003 25.7233 23.1203C25.9637 23.2003 26.124 23.2803 26.2041 23.3603ZM25.3227 23.1203C25.2425 23.2003 25.2425 23.2803 25.2425 23.3603C25.2425 23.4403 25.3227 23.6003 25.4028 23.6003C25.2425 23.6003 25.0823 23.5203 24.922 23.3603C25.0823 23.2803 25.1624 23.2003 25.3227 23.1203Z" fill="#85340A"/>
<path d="M25.6453 22.8003C25.1644 22.8003 25.0843 22.8803 24.924 23.0403C24.6836 23.2003 24.6035 23.2003 24.6035 23.2003C24.6035 23.2003 24.6035 23.3603 24.6836 23.2803C24.7638 23.2803 24.924 23.2003 25.0843 23.0403C25.3247 22.8803 25.485 22.8803 25.7254 22.8803C26.3665 22.8803 26.687 23.3603 26.7671 23.3603C26.8473 23.3603 26.2863 22.8003 25.6453 22.8003Z" fill="#85340A"/>
<path d="M24.279 22.7203C24.1988 22.8803 24.1988 22.9603 24.1988 23.1203C24.1187 23.6003 24.1988 24.1603 24.5194 24.7203C24.5194 24.7203 24.5995 24.6403 24.6796 24.6403C24.3591 24.2403 24.279 23.7603 24.279 23.3603C24.279 23.1203 24.4392 22.9603 24.5194 22.8003C25.0803 22.3203 26.0419 22.4003 26.8432 23.0403C26.122 22.0003 25.0803 22.0803 24.279 22.7203Z" fill="#85340A"/>
<path d="M25.0796 23.7603C24.8392 23.6003 24.7591 23.5203 24.679 23.5203C24.5988 23.5203 24.5988 23.6003 24.9194 23.7603C25.2399 23.9203 25.881 24.0003 26.4419 23.5203C25.8008 23.8403 25.32 23.8403 25.0796 23.7603ZM24.679 25.0403C24.5988 25.0403 24.5187 24.9603 24.4386 24.8803C24.4386 24.9603 24.2783 25.1203 24.0379 25.1203C23.7975 25.1203 23.6372 24.8803 23.6372 24.8803C23.6372 24.9603 23.5571 25.0403 23.3968 25.0403C23.3167 25.0403 23.1564 24.9603 23.1564 24.8003C23.1564 24.7203 23.2365 24.6403 23.3167 24.6403C23.1564 24.6403 23.0763 24.8003 23.0763 24.9603C23.0763 25.1203 23.2366 25.2803 23.3968 25.2803C23.477 25.2803 23.5571 25.2003 23.6372 25.1203C23.7174 25.2003 23.9578 25.2003 24.0379 25.2003H24.118C24.1982 25.2003 24.3584 25.2003 24.5187 25.1203C24.5988 25.2003 24.679 25.2803 24.7591 25.2803C24.9194 25.2803 25.0796 25.1203 25.0796 24.9603C25.0796 24.8003 24.9995 24.7203 24.8392 24.6403C24.9194 24.6403 24.9995 24.7203 24.9995 24.8003C24.9194 24.9603 24.8392 25.0403 24.679 25.0403ZM24.0379 25.7603C24.1982 25.7603 24.3584 25.6003 24.5988 25.7603C24.8392 25.9203 24.9995 26.0003 25.1598 26.0803C24.8392 25.8403 24.679 25.6003 24.3584 25.6003C24.2783 25.6003 24.118 25.6003 24.0379 25.6803C23.8776 25.6003 23.7975 25.6003 23.7174 25.6003C23.3968 25.6003 23.2365 25.9203 22.916 26.0803C23.0763 26.0003 23.2365 25.8403 23.4769 25.7603C23.7174 25.6803 23.8776 25.7603 24.0379 25.7603Z" fill="#85340A"/>
<path d="M24.039 26.0003C23.8788 26.0003 23.7986 25.9203 23.5582 26.0003C23.398 26.0003 23.2377 26.0003 22.9973 26.0803H22.9172C23.6384 26.1603 23.3178 26.5603 24.039 26.5603C24.7603 26.5603 24.4397 26.1603 25.1609 26.0803H25.0007C24.3596 25.8403 24.2795 26.0003 24.039 26.0003ZM24.039 26.4003C23.4781 26.4003 23.6384 26.0003 22.9973 26.0003C23.6384 25.8403 23.7185 26.0803 24.039 26.0803C24.2795 26.0803 24.4397 25.9203 25.0808 26.0003C24.4397 26.0803 24.6 26.4003 24.039 26.4003ZM24.039 26.5603C23.7185 26.5603 23.398 26.8003 23.398 27.2003C23.4781 26.8803 23.7185 26.7203 24.039 26.7203C24.3596 26.7203 24.6 26.9603 24.6801 27.2003C24.6801 26.8003 24.3596 26.5603 24.039 26.5603ZM23.5582 22.8003C23.7185 22.9603 23.7986 23.2003 23.7986 23.3603C23.8788 23.7603 23.7185 24.1603 23.398 24.6403C23.398 24.6403 23.4781 24.6403 23.5582 24.7203C23.7986 24.1603 23.9589 23.6803 23.8788 23.1203C23.8788 22.9603 23.7986 22.8803 23.7986 22.7203C23.0774 22.0803 22.0357 22.0003 21.2344 23.0403C22.0357 22.3203 23.0774 22.2403 23.5582 22.8003Z" fill="#85340A"/>
<path d="M23.0757 23.1204C23.3161 23.2804 23.3962 23.3604 23.4763 23.3604C23.5565 23.3604 23.5565 23.2804 23.5565 23.2804C23.5565 23.2804 23.3962 23.2804 23.2359 23.1204C22.9955 22.9604 22.9154 22.8804 22.5147 22.8804C21.7935 22.8804 21.3929 23.4404 21.473 23.4404C21.5531 23.4404 21.8737 22.9604 22.5147 22.9604C22.675 22.9604 22.9154 22.9604 23.0757 23.1204Z" fill="#85340A"/>
<path d="M21.7148 23.4403C21.8751 23.6003 22.1956 23.6803 22.5162 23.6803C22.7566 23.6803 23.0771 23.6003 23.3175 23.4403C23.0771 23.2003 22.7566 23.0403 22.436 23.0403C22.1956 23.0403 21.8751 23.2003 21.7148 23.4403ZM21.8751 23.4403C22.0354 23.2803 22.1956 23.1203 22.3559 23.1203C22.2758 23.2003 22.1956 23.2803 22.1956 23.3603C22.1956 23.5203 22.2758 23.6003 22.3559 23.6003C22.1956 23.6803 21.9552 23.6003 21.8751 23.4403ZM23.0771 23.3603C22.997 23.4403 22.8367 23.5203 22.6764 23.6003C22.7566 23.5203 22.7566 23.4403 22.7566 23.3603C22.7566 23.2803 22.6764 23.2003 22.6764 23.1203C22.9168 23.2003 23.0771 23.2803 23.0771 23.3603Z" fill="#85340A"/>
<path d="M23.4778 23.5203C23.3976 23.5203 23.3175 23.6003 23.0771 23.7603C22.8367 23.9203 22.3559 23.9203 21.7148 23.6003C22.2758 24.0803 22.9168 24.0003 23.2374 23.8403C23.5579 23.6003 23.5579 23.5203 23.4778 23.5203Z" fill="#85340A"/>
</g>
<defs>
<clipPath id="clip0_77_17898">
<rect width="48" height="48" fill="white" transform="translate(0 0.000488281)"/>
</clipPath>
</defs>
</svg>
