<svg width="48" height="48" viewBox="0 0 48 48" fill="none" xmlns="http://www.w3.org/2000/svg">
<g clip-path="url(#clip0_77_15900)">
<path d="M0 24.0002C0 28.7202 1.36227 33.1202 3.68614 36.8002H44.3139C46.6377 33.1202 48 28.7202 48 24.0002C48 19.2802 46.6377 14.8802 44.3139 11.2002H3.68614C1.36227 14.8802 0 19.2802 0 24.0002Z" fill="#F9F9F9"/>
<path d="M44.3934 11.2002C40.1463 4.48024 32.6138 0.000244141 24.0395 0.000244141C15.4652 0.000244141 7.93263 4.48024 3.68555 11.2002H44.3934ZM3.68555 36.8002C7.93263 43.5202 15.4652 48.0002 24.0395 48.0002C32.6138 48.0002 40.1463 43.5202 44.3934 36.8002H3.68555Z" fill="#B4D7EE"/>
<path d="M35.0154 23.8403L28.4445 23.6003V23.5203C29.4862 23.3603 30.2875 22.7203 31.4094 22.8003C32.7717 22.9603 33.573 22.1603 34.0538 22.0003C34.6147 21.8403 34.9353 22.1603 34.9353 22.0003C35.0154 21.8403 34.6147 21.5203 33.8134 21.6003C33.0922 21.6803 32.8518 22.3203 31.169 22.1603C29.7266 22.0803 29.2458 22.6403 28.2041 22.6403V22.5603L34.1339 19.8403C34.1339 19.8403 34.2942 19.7603 34.2942 19.6003C34.2141 19.4403 34.0538 19.5203 34.0538 19.5203L28.0438 21.9203V21.8403C28.9253 21.2803 29.4061 20.4003 30.5279 20.0803C31.8101 19.6803 32.2909 18.7203 32.6915 18.3203C33.0922 17.9203 33.573 18.1603 33.573 18.0003C33.573 17.8403 33.0922 17.6803 32.4511 18.0803C31.8101 18.4803 31.8101 19.1203 30.2074 19.6003C28.8451 20.0003 28.6047 20.7203 27.6431 21.2003L27.563 21.1203L32.0505 16.3203C32.0505 16.3203 32.2107 16.1603 32.1306 16.0803C32.0505 16.0003 31.8902 16.1603 31.8902 16.1603L27.0822 20.6403L27.0021 20.5603C27.6431 19.6803 27.7233 18.7203 28.6047 18.0003C29.6465 17.1203 29.6465 16.0803 29.8869 15.6003C30.1273 15.1203 30.6081 15.1203 30.5279 14.9603C30.4478 14.8003 29.967 14.8803 29.4862 15.4403C29.0054 16.0803 29.2458 16.6403 28.0438 17.6803C27.0021 18.5603 27.0021 19.3603 26.361 20.0803C26.361 20.0803 26.2809 20.0803 26.2809 20.0003L28.5246 13.8403C28.5246 13.8403 28.6047 13.6803 28.4445 13.6003C28.2842 13.5203 28.2041 13.7603 28.2041 13.7603L25.4795 19.6803H25.3994C25.6398 18.6403 25.3994 17.6803 25.8802 16.7203C26.5213 15.5203 26.1206 14.4803 26.1206 14.0003C26.2007 13.4403 26.6014 13.2803 26.5213 13.2003C26.4411 13.0403 25.9603 13.3603 25.7199 14.0803C25.5596 14.8003 25.9603 15.2803 25.2391 16.7203C24.598 18.0003 24.9186 18.6403 24.598 19.6003H24.5179L24.2775 13.0403C24.2775 13.0403 24.2775 12.8003 24.1172 12.8003C23.957 12.8003 23.957 13.0403 23.957 13.0403L23.7166 19.6003H23.6364C23.4762 18.5603 22.8351 17.7603 22.9152 16.6403C23.0755 15.2803 22.2742 14.4803 22.1139 14.0003C21.9536 13.5203 22.2742 13.1203 22.1139 13.1203C21.9536 13.0403 21.6331 13.4403 21.7132 14.2403C21.7934 14.9603 22.4344 15.2003 22.2742 16.8803C22.194 18.3203 22.755 18.8003 22.755 19.8403H22.6748L19.9503 13.9203C19.9503 13.9203 19.8702 13.7603 19.7099 13.7603C19.5496 13.8403 19.6298 14.0003 19.6298 14.0003L21.8735 20.1603H21.7934C21.2324 19.2803 20.351 18.8003 20.0304 17.6803C19.6298 16.4003 18.6682 15.9203 18.2675 15.5203C17.8668 15.1203 18.1072 14.6403 17.947 14.6403C17.7867 14.6403 17.6264 15.1203 18.0271 15.7603C18.4278 16.4003 19.0688 16.4003 19.5496 18.0003C19.9503 19.3603 20.6715 19.6003 21.1523 20.5603L21.0722 20.6403L16.2642 16.1603C16.2642 16.1603 16.1039 16.0003 16.0238 16.0803C15.9436 16.1603 16.1039 16.3203 16.1039 16.3203L20.5914 21.1203L20.5112 21.2003C19.6298 20.5603 18.6682 20.4803 17.947 19.6003C17.0655 18.5603 16.0238 18.5603 15.543 18.3203C15.0622 18.0803 15.0622 17.6003 14.9019 17.6803C14.7416 17.7603 14.8218 18.2403 15.3827 18.7203C16.0238 19.2003 16.5847 18.9603 17.6264 20.1603C18.5079 21.2003 19.3092 21.2003 20.0304 21.8403C20.0304 21.8403 20.0304 21.9203 19.9503 21.9203L13.78 19.6803C13.78 19.6803 13.6198 19.6003 13.5396 19.7603C13.4595 19.9203 13.6999 20.0003 13.6999 20.0003L19.6298 22.7203V22.8003C18.588 22.5603 17.6264 22.8003 16.6648 22.3203C15.4628 21.6803 14.4211 22.0803 13.9403 22.0803C13.3793 22.0003 13.2191 21.6003 13.1389 21.6803C12.9787 21.7603 13.2992 22.2403 14.0204 22.4803C14.7416 22.6403 15.2224 22.2403 16.6648 22.9603C17.947 23.6003 18.588 23.2803 19.5496 23.6003V23.6803L12.9787 23.9203C12.9787 23.9203 12.7383 23.9203 12.7383 24.0803C12.7383 24.2403 12.9787 24.2403 12.9787 24.2403L19.5496 24.4803V24.5603C18.5079 24.7203 17.7066 25.3603 16.5847 25.2803C15.2224 25.1203 14.4211 25.9203 13.9403 26.0803C13.3793 26.2403 13.0588 25.9203 13.0588 26.0803C12.9787 26.2403 13.3794 26.5603 14.1807 26.4803C14.982 26.4003 15.1423 25.8403 16.8251 25.9203C18.2675 26.0003 18.7483 25.4403 19.79 25.4403V25.5203L13.8602 28.2403C13.8602 28.2403 13.6999 28.3203 13.6999 28.4803C13.6999 28.6403 13.9403 28.5603 13.9403 28.5603L20.1106 26.3203V26.4003C19.2291 26.9603 18.7483 27.8403 17.6264 28.1603C16.3443 28.5603 15.8635 29.5203 15.4628 29.9203C15.0622 30.3203 14.5814 30.0803 14.5814 30.2403C14.5814 30.4003 15.0622 30.5603 15.7032 30.1603C16.3443 29.7603 16.3443 29.1203 17.947 28.6403C19.3092 28.2403 19.5496 27.5203 20.5112 27.0403L20.5914 27.1203L16.1039 31.9203C16.1039 31.9203 15.9436 32.0803 16.0238 32.1603C16.1039 32.2403 16.2642 32.0803 16.2642 32.0803L21.0722 27.6003L21.1523 27.6803C20.5112 28.5603 20.4311 29.5203 19.5496 30.2403C18.5079 31.1203 18.5079 32.1603 18.2675 32.6403C18.0271 33.1203 17.5463 33.1203 17.6264 33.2803C17.7066 33.4403 18.1874 33.3603 18.6682 32.8003C19.149 32.2403 18.9086 31.6003 20.1106 30.5603C21.1523 29.6803 21.1523 28.8803 21.7934 28.1603C21.7934 28.1603 21.8735 28.1603 21.8735 28.2403L19.6298 34.4003C19.6298 34.4003 19.5496 34.5603 19.7099 34.6403C19.8702 34.7203 19.9503 34.4803 19.9503 34.4803L22.6748 28.5603H22.755C22.5146 29.6003 22.755 30.5603 22.2742 31.5203C21.6331 32.7203 22.0338 33.7603 21.9536 34.2403C21.8735 34.8003 21.4728 34.9603 21.553 35.0403C21.6331 35.2003 22.1139 34.8803 22.3543 34.1603C22.5146 33.4403 22.1139 33.0403 22.8351 31.5203C23.4762 30.2403 23.1556 29.6003 23.4762 28.6403H23.5563L23.7967 35.2003C23.7967 35.2003 23.7967 35.4403 23.957 35.4403C24.1172 35.4403 24.1172 35.2003 24.1172 35.2003L24.3576 28.6403H24.4378C24.598 29.6803 25.2391 30.4803 25.159 31.6003C24.9987 32.9603 25.8001 33.7603 25.9603 34.2403C26.1206 34.8003 25.8001 35.1203 25.9603 35.1203C26.1206 35.2003 26.4411 34.8003 26.361 34.0003C26.2809 33.2803 25.6398 33.0403 25.8001 31.3603C25.8802 29.9203 25.3192 29.4403 25.3192 28.4003H25.3994L28.1239 34.3203C28.1239 34.3203 28.2041 34.4803 28.3643 34.4803C28.5246 34.4003 28.4445 34.2403 28.4445 34.2403L26.1206 28.0003H26.2007C26.7617 28.8803 27.6431 29.3603 27.9637 30.4803C28.3643 31.7603 29.3259 32.2403 29.7266 32.6403C30.1273 33.0403 29.8869 33.5203 30.0471 33.5203C30.2074 33.5203 30.3677 33.0403 29.967 32.4003C29.5663 31.7603 28.9253 31.7603 28.4445 30.1603C28.0438 28.8003 27.3226 28.5603 26.8418 27.6003L26.9219 27.5203L31.7299 32.0003C31.7299 32.0003 31.8902 32.1603 31.9703 32.0803C32.0505 32.0003 31.8902 31.8403 31.8902 31.8403L27.4027 27.0403L27.4829 26.9603C28.3643 27.6003 29.3259 27.6803 30.0471 28.5603C30.9286 29.6003 31.9703 29.6003 32.4511 29.8403C32.9319 30.0803 32.9319 30.5603 33.0922 30.4803C33.2525 30.4003 33.1723 29.9203 32.6114 29.4403C31.9703 28.9603 31.4094 29.2003 30.3677 28.0003C29.4862 26.9603 28.6849 26.9603 27.9637 26.2403C27.9637 26.2403 27.9637 26.1603 28.0438 26.1603L34.2141 28.4003C34.2141 28.4003 34.3743 28.4803 34.4545 28.3203C34.5346 28.1603 34.2942 28.0803 34.2942 28.0803L28.3643 25.3603V25.2803C29.4061 25.5203 30.3677 25.2803 31.3293 25.7603C32.5313 26.4003 33.573 26.0003 34.0538 26.0003C34.6147 26.0803 34.775 26.4803 34.8551 26.4003C35.0154 26.3203 34.6949 25.8403 33.9737 25.6003C33.2525 25.4403 32.7717 25.8403 31.3293 25.1203C30.0471 24.4803 29.4061 24.8003 28.4445 24.4803V24.4003L35.0154 24.1603C35.0154 24.1603 35.2558 24.1603 35.2558 24.0003C35.2558 23.8403 35.0154 23.8403 35.0154 23.8403Z" fill="#F6B40E"/>
<path d="M26.4445 23.4402C26.2041 23.2002 25.8836 23.0402 25.5631 23.0402C25.2425 23.0402 25.0021 23.2002 24.7617 23.4402C25.1624 23.7602 25.8836 23.7602 26.4445 23.4402ZM26.2041 23.3602C26.0439 23.5202 25.8836 23.6002 25.7233 23.6002C25.8035 23.5202 25.8836 23.4402 25.8836 23.3602C25.8836 23.2802 25.8035 23.2002 25.7233 23.1202C25.9637 23.2002 26.124 23.2802 26.2041 23.3602ZM25.3227 23.1202C25.2425 23.2002 25.2425 23.2802 25.2425 23.3602C25.2425 23.4402 25.3227 23.6002 25.4028 23.6002C25.2425 23.6002 25.0823 23.5202 24.922 23.3602C25.0823 23.2802 25.1624 23.2002 25.3227 23.1202Z" fill="#85340A"/>
<path d="M25.6453 22.8003C25.1644 22.8003 25.0843 22.8803 24.924 23.0403C24.6836 23.2003 24.6035 23.2003 24.6035 23.2003C24.6035 23.2003 24.6035 23.3603 24.6836 23.2803C24.7638 23.2803 24.924 23.2003 25.0843 23.0403C25.3247 22.8803 25.485 22.8803 25.7254 22.8803C26.3665 22.8803 26.687 23.3603 26.7671 23.3603C26.8473 23.3603 26.2863 22.8003 25.6453 22.8003Z" fill="#85340A"/>
<path d="M24.279 22.7202C24.1988 22.8802 24.1988 22.9602 24.1988 23.1202C24.1187 23.6002 24.1988 24.1602 24.5194 24.7202C24.5194 24.7202 24.5995 24.6402 24.6796 24.6402C24.3591 24.2402 24.279 23.7602 24.279 23.3602C24.279 23.1202 24.4392 22.9602 24.5194 22.8002C25.0803 22.3202 26.0419 22.4002 26.8432 23.0402C26.122 22.0002 25.0803 22.0802 24.279 22.7202Z" fill="#85340A"/>
<path d="M25.0796 23.7601C24.8392 23.6001 24.7591 23.5201 24.679 23.5201C24.5988 23.5201 24.5988 23.6001 24.9194 23.7601C25.2399 23.9201 25.881 24.0001 26.4419 23.5201C25.8008 23.8401 25.32 23.8401 25.0796 23.7601ZM24.679 25.0401C24.5988 25.0401 24.5187 24.9601 24.4386 24.8801C24.4386 24.9601 24.2783 25.1201 24.0379 25.1201C23.7975 25.1201 23.6372 24.8801 23.6372 24.8801C23.6372 24.9601 23.5571 25.0401 23.3968 25.0401C23.3167 25.0401 23.1564 24.9601 23.1564 24.8001C23.1564 24.7201 23.2365 24.6401 23.3167 24.6401C23.1564 24.6401 23.0763 24.8001 23.0763 24.9601C23.0763 25.1201 23.2366 25.2801 23.3968 25.2801C23.477 25.2801 23.5571 25.2001 23.6372 25.1201C23.7174 25.2001 23.9578 25.2001 24.0379 25.2001H24.118C24.1982 25.2001 24.3584 25.2001 24.5187 25.1201C24.5988 25.2001 24.679 25.2801 24.7591 25.2801C24.9194 25.2801 25.0796 25.1201 25.0796 24.9601C25.0796 24.8001 24.9995 24.7201 24.8392 24.6401C24.9194 24.6401 24.9995 24.7201 24.9995 24.8001C24.9194 24.9601 24.8392 25.0401 24.679 25.0401ZM24.0379 25.7601C24.1982 25.7601 24.3584 25.6001 24.5988 25.7601C24.8392 25.9201 24.9995 26.0001 25.1598 26.0801C24.8392 25.8401 24.679 25.6001 24.3584 25.6001C24.2783 25.6001 24.118 25.6001 24.0379 25.6801C23.8776 25.6001 23.7975 25.6001 23.7174 25.6001C23.3968 25.6001 23.2365 25.9201 22.916 26.0801C23.0763 26.0001 23.2365 25.8401 23.4769 25.7601C23.7174 25.6801 23.8776 25.7601 24.0379 25.7601Z" fill="#85340A"/>
<path d="M24.039 26.0002C23.8788 26.0002 23.7986 25.9202 23.5582 26.0002C23.398 26.0002 23.2377 26.0002 22.9973 26.0802H22.9172C23.6384 26.1602 23.3178 26.5602 24.039 26.5602C24.7603 26.5602 24.4397 26.1602 25.1609 26.0802H25.0007C24.3596 25.8402 24.2795 26.0002 24.039 26.0002ZM24.039 26.4002C23.4781 26.4002 23.6384 26.0002 22.9973 26.0002C23.6384 25.8402 23.7185 26.0802 24.039 26.0802C24.2795 26.0802 24.4397 25.9202 25.0808 26.0002C24.4397 26.0802 24.6 26.4002 24.039 26.4002ZM24.039 26.5602C23.7185 26.5602 23.398 26.8002 23.398 27.2002C23.4781 26.8802 23.7185 26.7202 24.039 26.7202C24.3596 26.7202 24.6 26.9602 24.6801 27.2002C24.6801 26.8002 24.3596 26.5602 24.039 26.5602ZM23.5582 22.8002C23.7185 22.9602 23.7986 23.2002 23.7986 23.3602C23.8788 23.7602 23.7185 24.1602 23.398 24.6402C23.398 24.6402 23.4781 24.6402 23.5582 24.7202C23.7986 24.1602 23.9589 23.6802 23.8788 23.1202C23.8788 22.9602 23.7986 22.8802 23.7986 22.7202C23.0774 22.0802 22.0357 22.0002 21.2344 23.0402C22.0357 22.3202 23.0774 22.2402 23.5582 22.8002Z" fill="#85340A"/>
<path d="M23.0757 23.1202C23.3161 23.2802 23.3962 23.3602 23.4763 23.3602C23.5565 23.3602 23.5565 23.2802 23.5565 23.2802C23.5565 23.2802 23.3962 23.2802 23.2359 23.1202C22.9955 22.9602 22.9154 22.8802 22.5147 22.8802C21.7935 22.8802 21.3929 23.4402 21.473 23.4402C21.5531 23.4402 21.8737 22.9602 22.5147 22.9602C22.675 22.9602 22.9154 22.9602 23.0757 23.1202Z" fill="#85340A"/>
<path d="M21.7148 23.4402C21.8751 23.6002 22.1956 23.6802 22.5162 23.6802C22.7566 23.6802 23.0771 23.6002 23.3175 23.4402C23.0771 23.2002 22.7566 23.0402 22.436 23.0402C22.1956 23.0402 21.8751 23.2002 21.7148 23.4402ZM21.8751 23.4402C22.0354 23.2802 22.1956 23.1202 22.3559 23.1202C22.2758 23.2002 22.1956 23.2802 22.1956 23.3602C22.1956 23.5202 22.2758 23.6002 22.3559 23.6002C22.1956 23.6802 21.9552 23.6002 21.8751 23.4402ZM23.0771 23.3602C22.997 23.4402 22.8367 23.5202 22.6764 23.6002C22.7566 23.5202 22.7566 23.4402 22.7566 23.3602C22.7566 23.2802 22.6764 23.2002 22.6764 23.1202C22.9168 23.2002 23.0771 23.2802 23.0771 23.3602Z" fill="#85340A"/>
<path d="M23.4778 23.5201C23.3976 23.5201 23.3175 23.6001 23.0771 23.7601C22.8367 23.9201 22.3559 23.9201 21.7148 23.6001C22.2758 24.0801 22.9168 24.0001 23.2374 23.8401C23.5579 23.6001 23.5579 23.5201 23.4778 23.5201Z" fill="#85340A"/>
</g>
<defs>
<clipPath id="clip0_77_15900">
<rect width="48" height="48" fill="white" transform="translate(0 0.000244141)"/>
</clipPath>
</defs>
</svg>
