<svg width="48" height="48" viewBox="0 0 48 48" fill="none" xmlns="http://www.w3.org/2000/svg">
<g clip-path="url(#clip0_77_15830)">
<path d="M0 24C0 28.72 1.36227 33.12 3.68614 36.8H44.3139C46.6377 33.12 48 28.72 48 24C48 19.28 46.6377 14.88 44.3139 11.2H3.68614C1.36227 14.88 0 19.28 0 24Z" fill="#F9F9F9"/>
<path d="M44.3934 11.2C40.1463 4.48 32.6138 0 24.0395 0C15.4652 0 7.93263 4.48 3.68555 11.2H44.3934ZM3.68555 36.8C7.93263 43.52 15.4652 48 24.0395 48C32.6138 48 40.1463 43.52 44.3934 36.8H3.68555Z" fill="#B4D7EE"/>
<path d="M35.0154 23.84L28.4445 23.6V23.52C29.4862 23.36 30.2875 22.72 31.4094 22.8C32.7717 22.96 33.573 22.16 34.0538 22C34.6147 21.84 34.9353 22.16 34.9353 22C35.0154 21.84 34.6147 21.52 33.8134 21.6C33.0922 21.68 32.8518 22.32 31.169 22.16C29.7266 22.08 29.2458 22.64 28.2041 22.64V22.56L34.1339 19.84C34.1339 19.84 34.2942 19.76 34.2942 19.6C34.2141 19.44 34.0538 19.52 34.0538 19.52L28.0438 21.92V21.84C28.9253 21.28 29.4061 20.4 30.5279 20.08C31.8101 19.68 32.2909 18.72 32.6915 18.32C33.0922 17.92 33.573 18.16 33.573 18C33.573 17.84 33.0922 17.68 32.4511 18.08C31.8101 18.48 31.8101 19.12 30.2074 19.6C28.8451 20 28.6047 20.72 27.6431 21.2L27.563 21.12L32.0505 16.32C32.0505 16.32 32.2107 16.16 32.1306 16.08C32.0505 16 31.8902 16.16 31.8902 16.16L27.0822 20.64L27.0021 20.56C27.6431 19.68 27.7233 18.72 28.6047 18C29.6465 17.12 29.6465 16.08 29.8869 15.6C30.1273 15.12 30.6081 15.12 30.5279 14.96C30.4478 14.8 29.967 14.88 29.4862 15.44C29.0054 16.08 29.2458 16.64 28.0438 17.68C27.0021 18.56 27.0021 19.36 26.361 20.08C26.361 20.08 26.2809 20.08 26.2809 20L28.5246 13.84C28.5246 13.84 28.6047 13.68 28.4445 13.6C28.2842 13.52 28.2041 13.76 28.2041 13.76L25.4795 19.68H25.3994C25.6398 18.64 25.3994 17.68 25.8802 16.72C26.5213 15.52 26.1206 14.48 26.1206 14C26.2007 13.44 26.6014 13.28 26.5213 13.2C26.4411 13.04 25.9603 13.36 25.7199 14.08C25.5596 14.8 25.9603 15.28 25.2391 16.72C24.598 18 24.9186 18.64 24.598 19.6H24.5179L24.2775 13.04C24.2775 13.04 24.2775 12.8 24.1172 12.8C23.957 12.8 23.957 13.04 23.957 13.04L23.7166 19.6H23.6364C23.4762 18.56 22.8351 17.76 22.9152 16.64C23.0755 15.28 22.2742 14.48 22.1139 14C21.9536 13.52 22.2742 13.12 22.1139 13.12C21.9536 13.04 21.6331 13.44 21.7132 14.24C21.7934 14.96 22.4344 15.2 22.2742 16.88C22.194 18.32 22.755 18.8 22.755 19.84H22.6748L19.9503 13.92C19.9503 13.92 19.8702 13.76 19.7099 13.76C19.5496 13.84 19.6298 14 19.6298 14L21.8735 20.16H21.7934C21.2324 19.28 20.351 18.8 20.0304 17.68C19.6298 16.4 18.6682 15.92 18.2675 15.52C17.8668 15.12 18.1072 14.64 17.947 14.64C17.7867 14.64 17.6264 15.12 18.0271 15.76C18.4278 16.4 19.0688 16.4 19.5496 18C19.9503 19.36 20.6715 19.6 21.1523 20.56L21.0722 20.64L16.2642 16.16C16.2642 16.16 16.1039 16 16.0238 16.08C15.9436 16.16 16.1039 16.32 16.1039 16.32L20.5914 21.12L20.5112 21.2C19.6298 20.56 18.6682 20.48 17.947 19.6C17.0655 18.56 16.0238 18.56 15.543 18.32C15.0622 18.08 15.0622 17.6 14.9019 17.68C14.7416 17.76 14.8218 18.24 15.3827 18.72C16.0238 19.2 16.5847 18.96 17.6264 20.16C18.5079 21.2 19.3092 21.2 20.0304 21.84C20.0304 21.84 20.0304 21.92 19.9503 21.92L13.78 19.68C13.78 19.68 13.6198 19.6 13.5396 19.76C13.4595 19.92 13.6999 20 13.6999 20L19.6298 22.72V22.8C18.588 22.56 17.6264 22.8 16.6648 22.32C15.4628 21.68 14.4211 22.08 13.9403 22.08C13.3793 22 13.2191 21.6 13.1389 21.68C12.9787 21.76 13.2992 22.24 14.0204 22.48C14.7416 22.64 15.2224 22.24 16.6648 22.96C17.947 23.6 18.588 23.28 19.5496 23.6V23.68L12.9787 23.92C12.9787 23.92 12.7383 23.92 12.7383 24.08C12.7383 24.24 12.9787 24.24 12.9787 24.24L19.5496 24.48V24.56C18.5079 24.72 17.7066 25.36 16.5847 25.28C15.2224 25.12 14.4211 25.92 13.9403 26.08C13.3793 26.24 13.0588 25.92 13.0588 26.08C12.9787 26.24 13.3794 26.56 14.1807 26.48C14.982 26.4 15.1423 25.84 16.8251 25.92C18.2675 26 18.7483 25.44 19.79 25.44V25.52L13.8602 28.24C13.8602 28.24 13.6999 28.32 13.6999 28.48C13.6999 28.64 13.9403 28.56 13.9403 28.56L20.1106 26.32V26.4C19.2291 26.96 18.7483 27.84 17.6264 28.16C16.3443 28.56 15.8635 29.52 15.4628 29.92C15.0622 30.32 14.5814 30.08 14.5814 30.24C14.5814 30.4 15.0622 30.56 15.7032 30.16C16.3443 29.76 16.3443 29.12 17.947 28.64C19.3092 28.24 19.5496 27.52 20.5112 27.04L20.5914 27.12L16.1039 31.92C16.1039 31.92 15.9436 32.08 16.0238 32.16C16.1039 32.24 16.2642 32.08 16.2642 32.08L21.0722 27.6L21.1523 27.68C20.5112 28.56 20.4311 29.52 19.5496 30.24C18.5079 31.12 18.5079 32.16 18.2675 32.64C18.0271 33.12 17.5463 33.12 17.6264 33.28C17.7066 33.44 18.1874 33.36 18.6682 32.8C19.149 32.24 18.9086 31.6 20.1106 30.56C21.1523 29.68 21.1523 28.88 21.7934 28.16C21.7934 28.16 21.8735 28.16 21.8735 28.24L19.6298 34.4C19.6298 34.4 19.5496 34.56 19.7099 34.64C19.8702 34.72 19.9503 34.48 19.9503 34.48L22.6748 28.56H22.755C22.5146 29.6 22.755 30.56 22.2742 31.52C21.6331 32.72 22.0338 33.76 21.9536 34.24C21.8735 34.8 21.4728 34.96 21.553 35.04C21.6331 35.2 22.1139 34.88 22.3543 34.16C22.5146 33.44 22.1139 33.04 22.8351 31.52C23.4762 30.24 23.1556 29.6 23.4762 28.64H23.5563L23.7967 35.2C23.7967 35.2 23.7967 35.44 23.957 35.44C24.1172 35.44 24.1172 35.2 24.1172 35.2L24.3576 28.64H24.4378C24.598 29.68 25.2391 30.48 25.159 31.6C24.9987 32.96 25.8001 33.76 25.9603 34.24C26.1206 34.8 25.8001 35.12 25.9603 35.12C26.1206 35.2 26.4411 34.8 26.361 34C26.2809 33.28 25.6398 33.04 25.8001 31.36C25.8802 29.92 25.3192 29.44 25.3192 28.4H25.3994L28.1239 34.32C28.1239 34.32 28.2041 34.48 28.3643 34.48C28.5246 34.4 28.4445 34.24 28.4445 34.24L26.1206 28H26.2007C26.7617 28.88 27.6431 29.36 27.9637 30.48C28.3643 31.76 29.3259 32.24 29.7266 32.64C30.1273 33.04 29.8869 33.52 30.0471 33.52C30.2074 33.52 30.3677 33.04 29.967 32.4C29.5663 31.76 28.9253 31.76 28.4445 30.16C28.0438 28.8 27.3226 28.56 26.8418 27.6L26.9219 27.52L31.7299 32C31.7299 32 31.8902 32.16 31.9703 32.08C32.0505 32 31.8902 31.84 31.8902 31.84L27.4027 27.04L27.4829 26.96C28.3643 27.6 29.3259 27.68 30.0471 28.56C30.9286 29.6 31.9703 29.6 32.4511 29.84C32.9319 30.08 32.9319 30.56 33.0922 30.48C33.2525 30.4 33.1723 29.92 32.6114 29.44C31.9703 28.96 31.4094 29.2 30.3677 28C29.4862 26.96 28.6849 26.96 27.9637 26.24C27.9637 26.24 27.9637 26.16 28.0438 26.16L34.2141 28.4C34.2141 28.4 34.3743 28.48 34.4545 28.32C34.5346 28.16 34.2942 28.08 34.2942 28.08L28.3643 25.36V25.28C29.4061 25.52 30.3677 25.28 31.3293 25.76C32.5313 26.4 33.573 26 34.0538 26C34.6147 26.08 34.775 26.48 34.8551 26.4C35.0154 26.32 34.6949 25.84 33.9737 25.6C33.2525 25.44 32.7717 25.84 31.3293 25.12C30.0471 24.48 29.4061 24.8 28.4445 24.48V24.4L35.0154 24.16C35.0154 24.16 35.2558 24.16 35.2558 24C35.2558 23.84 35.0154 23.84 35.0154 23.84Z" fill="#F6B40E"/>
<path d="M26.4445 23.4399C26.2041 23.1999 25.8836 23.0399 25.5631 23.0399C25.2425 23.0399 25.0021 23.1999 24.7617 23.4399C25.1624 23.7599 25.8836 23.7599 26.4445 23.4399ZM26.2041 23.3599C26.0439 23.5199 25.8836 23.5999 25.7233 23.5999C25.8035 23.5199 25.8836 23.4399 25.8836 23.3599C25.8836 23.2799 25.8035 23.1999 25.7233 23.1199C25.9637 23.1999 26.124 23.2799 26.2041 23.3599ZM25.3227 23.1199C25.2425 23.1999 25.2425 23.2799 25.2425 23.3599C25.2425 23.4399 25.3227 23.5999 25.4028 23.5999C25.2425 23.5999 25.0823 23.5199 24.922 23.3599C25.0823 23.2799 25.1624 23.1999 25.3227 23.1199Z" fill="#85340A"/>
<path d="M25.6453 22.8C25.1644 22.8 25.0843 22.88 24.924 23.04C24.6836 23.2 24.6035 23.2 24.6035 23.2C24.6035 23.2 24.6035 23.36 24.6836 23.28C24.7638 23.28 24.924 23.2 25.0843 23.04C25.3247 22.88 25.485 22.88 25.7254 22.88C26.3665 22.88 26.687 23.36 26.7671 23.36C26.8473 23.36 26.2863 22.8 25.6453 22.8Z" fill="#85340A"/>
<path d="M24.279 22.7199C24.1988 22.8799 24.1988 22.9599 24.1988 23.1199C24.1187 23.5999 24.1988 24.1599 24.5194 24.7199C24.5194 24.7199 24.5995 24.6399 24.6796 24.6399C24.3591 24.2399 24.279 23.7599 24.279 23.3599C24.279 23.1199 24.4392 22.9599 24.5194 22.7999C25.0803 22.3199 26.0419 22.3999 26.8432 23.0399C26.122 21.9999 25.0803 22.0799 24.279 22.7199Z" fill="#85340A"/>
<path d="M25.0796 23.7599C24.8392 23.5999 24.7591 23.5199 24.679 23.5199C24.5988 23.5199 24.5988 23.5999 24.9194 23.7599C25.2399 23.9199 25.881 23.9999 26.4419 23.5199C25.8008 23.8399 25.32 23.8399 25.0796 23.7599ZM24.679 25.0399C24.5988 25.0399 24.5187 24.9599 24.4386 24.8799C24.4386 24.9599 24.2783 25.1199 24.0379 25.1199C23.7975 25.1199 23.6372 24.8799 23.6372 24.8799C23.6372 24.9599 23.5571 25.0399 23.3968 25.0399C23.3167 25.0399 23.1564 24.9599 23.1564 24.7999C23.1564 24.7199 23.2365 24.6399 23.3167 24.6399C23.1564 24.6399 23.0763 24.7999 23.0763 24.9599C23.0763 25.1199 23.2366 25.2799 23.3968 25.2799C23.477 25.2799 23.5571 25.1999 23.6372 25.1199C23.7174 25.1999 23.9578 25.1999 24.0379 25.1999H24.118C24.1982 25.1999 24.3584 25.1999 24.5187 25.1199C24.5988 25.1999 24.679 25.2799 24.7591 25.2799C24.9194 25.2799 25.0796 25.1199 25.0796 24.9599C25.0796 24.7999 24.9995 24.7199 24.8392 24.6399C24.9194 24.6399 24.9995 24.7199 24.9995 24.7999C24.9194 24.9599 24.8392 25.0399 24.679 25.0399ZM24.0379 25.7599C24.1982 25.7599 24.3584 25.5999 24.5988 25.7599C24.8392 25.9199 24.9995 25.9999 25.1598 26.0799C24.8392 25.8399 24.679 25.5999 24.3584 25.5999C24.2783 25.5999 24.118 25.5999 24.0379 25.6799C23.8776 25.5999 23.7975 25.5999 23.7174 25.5999C23.3968 25.5999 23.2365 25.9199 22.916 26.0799C23.0763 25.9999 23.2365 25.8399 23.4769 25.7599C23.7174 25.6799 23.8776 25.7599 24.0379 25.7599Z" fill="#85340A"/>
<path d="M24.039 25.9999C23.8788 25.9999 23.7986 25.9199 23.5582 25.9999C23.398 25.9999 23.2377 25.9999 22.9973 26.0799H22.9172C23.6384 26.1599 23.3178 26.5599 24.039 26.5599C24.7603 26.5599 24.4397 26.1599 25.1609 26.0799H25.0007C24.3596 25.8399 24.2795 25.9999 24.039 25.9999ZM24.039 26.3999C23.4781 26.3999 23.6384 25.9999 22.9973 25.9999C23.6384 25.8399 23.7185 26.0799 24.039 26.0799C24.2795 26.0799 24.4397 25.9199 25.0808 25.9999C24.4397 26.0799 24.6 26.3999 24.039 26.3999ZM24.039 26.5599C23.7185 26.5599 23.398 26.7999 23.398 27.1999C23.4781 26.8799 23.7185 26.7199 24.039 26.7199C24.3596 26.7199 24.6 26.9599 24.6801 27.1999C24.6801 26.7999 24.3596 26.5599 24.039 26.5599ZM23.5582 22.7999C23.7185 22.9599 23.7986 23.1999 23.7986 23.3599C23.8788 23.7599 23.7185 24.1599 23.398 24.6399C23.398 24.6399 23.4781 24.6399 23.5582 24.7199C23.7986 24.1599 23.9589 23.6799 23.8788 23.1199C23.8788 22.9599 23.7986 22.8799 23.7986 22.7199C23.0774 22.0799 22.0357 21.9999 21.2344 23.0399C22.0357 22.3199 23.0774 22.2399 23.5582 22.7999Z" fill="#85340A"/>
<path d="M23.0757 23.12C23.3161 23.28 23.3962 23.36 23.4763 23.36C23.5565 23.36 23.5565 23.28 23.5565 23.28C23.5565 23.28 23.3962 23.28 23.2359 23.12C22.9955 22.96 22.9154 22.88 22.5147 22.88C21.7935 22.88 21.3929 23.44 21.473 23.44C21.5531 23.44 21.8737 22.96 22.5147 22.96C22.675 22.96 22.9154 22.96 23.0757 23.12Z" fill="#85340A"/>
<path d="M21.7148 23.4399C21.8751 23.5999 22.1956 23.6799 22.5162 23.6799C22.7566 23.6799 23.0771 23.5999 23.3175 23.4399C23.0771 23.1999 22.7566 23.0399 22.436 23.0399C22.1956 23.0399 21.8751 23.1999 21.7148 23.4399ZM21.8751 23.4399C22.0354 23.2799 22.1956 23.1199 22.3559 23.1199C22.2758 23.1999 22.1956 23.2799 22.1956 23.3599C22.1956 23.5199 22.2758 23.5999 22.3559 23.5999C22.1956 23.6799 21.9552 23.5999 21.8751 23.4399ZM23.0771 23.3599C22.997 23.4399 22.8367 23.5199 22.6764 23.5999C22.7566 23.5199 22.7566 23.4399 22.7566 23.3599C22.7566 23.2799 22.6764 23.1999 22.6764 23.1199C22.9168 23.1999 23.0771 23.2799 23.0771 23.3599Z" fill="#85340A"/>
<path d="M23.4778 23.5199C23.3976 23.5199 23.3175 23.5999 23.0771 23.7599C22.8367 23.9199 22.3559 23.9199 21.7148 23.5999C22.2758 24.0799 22.9168 23.9999 23.2374 23.8399C23.5579 23.5999 23.5579 23.5199 23.4778 23.5199Z" fill="#85340A"/>
</g>
<defs>
<clipPath id="clip0_77_15830">
<rect width="48" height="48" fill="white"/>
</clipPath>
</defs>
</svg>
