<svg width="24" height="24" viewBox="0 0 24 24" fill="none" xmlns="http://www.w3.org/2000/svg">
<g clip-path="url(#clip0_77_15499)">
<path d="M0 12.0001C0 14.3601 0.681135 16.5601 1.84307 18.4001H22.1569C23.3189 16.5601 24 14.3601 24 12.0001C24 9.64012 23.3189 7.44012 22.1569 5.60012H1.84307C0.681135 7.44012 0 9.64012 0 12.0001Z" fill="#F9F9F9"/>
<path d="M22.1967 5.60012C20.0732 2.24012 16.3069 0.00012207 12.0197 0.00012207C7.73259 0.00012207 3.96631 2.24012 1.84277 5.60012H22.1967ZM1.84277 18.4001C3.96631 21.7601 7.73259 24.0001 12.0197 24.0001C16.3069 24.0001 20.0732 21.7601 22.1967 18.4001H1.84277Z" fill="#B4D7EE"/>
<path d="M17.5077 11.9201L14.2222 11.8001V11.7601C14.7431 11.6801 15.1438 11.3601 15.7047 11.4001C16.3858 11.4801 16.7865 11.0801 17.0269 11.0001C17.3074 10.9201 17.4676 11.0801 17.4676 11.0001C17.5077 10.9201 17.3074 10.7601 16.9067 10.8001C16.5461 10.8401 16.4259 11.1601 15.5845 11.0801C14.8633 11.0401 14.6229 11.3201 14.102 11.3201V11.2801L17.067 9.92015C17.067 9.92015 17.1471 9.88015 17.1471 9.80015C17.107 9.72015 17.0269 9.76015 17.0269 9.76015L14.0219 10.9601V10.9201C14.4626 10.6401 14.703 10.2001 15.264 10.0401C15.905 9.84015 16.1454 9.36015 16.3458 9.16015C16.5461 8.96015 16.7865 9.08015 16.7865 9.00015C16.7865 8.92015 16.5461 8.84015 16.2256 9.04015C15.905 9.24015 15.905 9.56015 15.1037 9.80015C14.4226 10.0001 14.3024 10.3601 13.8216 10.6001L13.7815 10.5601L16.0252 8.16015C16.0252 8.16015 16.1054 8.08015 16.0653 8.04015C16.0252 8.00015 15.9451 8.08015 15.9451 8.08015L13.5411 10.3201L13.501 10.2801C13.8216 9.84015 13.8616 9.36015 14.3024 9.00015C14.8232 8.56015 14.8232 8.04015 14.9434 7.80015C15.0636 7.56015 15.304 7.56015 15.264 7.48015C15.2239 7.40015 14.9835 7.44015 14.7431 7.72015C14.5027 8.04015 14.6229 8.32015 14.0219 8.84015C13.501 9.28015 13.501 9.68015 13.1805 10.0401C13.1805 10.0401 13.1404 10.0401 13.1404 10.0001L14.2623 6.92015C14.2623 6.92015 14.3024 6.84015 14.2222 6.80015C14.1421 6.76015 14.102 6.88015 14.102 6.88015L12.7398 9.84015H12.6997C12.8199 9.32015 12.6997 8.84015 12.9401 8.36015C13.2606 7.76015 13.0603 7.24015 13.0603 7.00015C13.1004 6.72015 13.3007 6.64015 13.2606 6.60015C13.2206 6.52015 12.9802 6.68015 12.86 7.04015C12.7798 7.40015 12.9802 7.64015 12.6196 8.36015C12.299 9.00015 12.4593 9.32015 12.299 9.80015H12.259L12.1388 6.52015C12.1388 6.52015 12.1388 6.40015 12.0586 6.40015C11.9785 6.40015 11.9785 6.52015 11.9785 6.52015L11.8583 9.80015H11.8182C11.7381 9.28015 11.4176 8.88015 11.4576 8.32015C11.5378 7.64015 11.1371 7.24015 11.057 7.00015C10.9768 6.76015 11.1371 6.56015 11.057 6.56015C10.9768 6.52015 10.8166 6.72015 10.8566 7.12015C10.8967 7.48015 11.2172 7.60015 11.1371 8.44015C11.097 9.16015 11.3775 9.40015 11.3775 9.92015H11.3374L9.97515 6.96015C9.97515 6.96015 9.93508 6.88015 9.85495 6.88015C9.77482 6.92015 9.81488 7.00015 9.81488 7.00015L10.9368 10.0801H10.8967C10.6162 9.64015 10.1755 9.40015 10.0152 8.84015C9.81488 8.20015 9.33408 7.96015 9.13375 7.76015C8.93341 7.56015 9.05361 7.32015 8.97348 7.32015C8.89335 7.32015 8.81321 7.56015 9.01355 7.88015C9.21388 8.20015 9.53442 8.20015 9.77482 9.00015C9.97515 9.68015 10.3358 9.80015 10.5762 10.2801L10.5361 10.3201L8.13208 8.08015C8.13208 8.08015 8.05195 8.00015 8.01188 8.04015C7.97181 8.08015 8.05195 8.16015 8.05195 8.16015L10.2957 10.5601L10.2556 10.6001C9.81488 10.2801 9.33408 10.2401 8.97348 9.80015C8.53275 9.28015 8.01188 9.28015 7.77148 9.16015C7.53108 9.04015 7.53108 8.80015 7.45094 8.84015C7.37081 8.88015 7.41088 9.12015 7.69134 9.36015C8.01188 9.60015 8.29235 9.48015 8.81321 10.0801C9.25395 10.6001 9.65462 10.6001 10.0152 10.9201C10.0152 10.9201 10.0152 10.9601 9.97515 10.9601L6.89001 9.84015C6.89001 9.84015 6.80988 9.80015 6.76981 9.88015C6.72974 9.96015 6.84994 10.0001 6.84994 10.0001L9.81488 11.3601V11.4001C9.29402 11.2801 8.81321 11.4001 8.33241 11.1601C7.73141 10.8401 7.21054 11.0401 6.97014 11.0401C6.68967 11.0001 6.60954 10.8001 6.56947 10.8401C6.48934 10.8801 6.64961 11.1201 7.01021 11.2401C7.37081 11.3201 7.61121 11.1201 8.33241 11.4801C8.97348 11.8001 9.29402 11.6401 9.77482 11.8001V11.8401L6.48934 11.9601C6.48934 11.9601 6.36914 11.9601 6.36914 12.0401C6.36914 12.1201 6.48934 12.1201 6.48934 12.1201L9.77482 12.2401V12.2801C9.25395 12.3601 8.85328 12.6801 8.29235 12.6401C7.61121 12.5601 7.21054 12.9601 6.97014 13.0401C6.68967 13.1201 6.52941 12.9601 6.52941 13.0401C6.48934 13.1201 6.68968 13.2801 7.09034 13.2401C7.49101 13.2001 7.57114 12.9201 8.41255 12.9601C9.13375 13.0001 9.37415 12.7201 9.89502 12.7201V12.7601L6.93008 14.1201C6.93008 14.1201 6.84994 14.1601 6.84994 14.2401C6.84994 14.3201 6.97014 14.2801 6.97014 14.2801L10.0553 13.1601V13.2001C9.61455 13.4801 9.37415 13.9201 8.81321 14.0801C8.17215 14.2801 7.93174 14.7601 7.73141 14.9601C7.53108 15.1601 7.29068 15.0401 7.29068 15.1201C7.29068 15.2001 7.53108 15.2801 7.85161 15.0801C8.17215 14.8801 8.17215 14.5601 8.97348 14.3201C9.65462 14.1201 9.77482 13.7601 10.2556 13.5201L10.2957 13.5601L8.05195 15.9601C8.05195 15.9601 7.97181 16.0401 8.01188 16.0801C8.05195 16.1201 8.13208 16.0401 8.13208 16.0401L10.5361 13.8001L10.5762 13.8401C10.2556 14.2801 10.2156 14.7601 9.77482 15.1201C9.25395 15.5601 9.25395 16.0801 9.13375 16.3201C9.01355 16.5601 8.77315 16.5601 8.81321 16.6401C8.85328 16.7201 9.09368 16.6801 9.33408 16.4001C9.57448 16.1201 9.45428 15.8001 10.0553 15.2801C10.5762 14.8401 10.5762 14.4401 10.8967 14.0801C10.8967 14.0801 10.9368 14.0801 10.9368 14.1201L9.81488 17.2001C9.81488 17.2001 9.77482 17.2801 9.85495 17.3201C9.93508 17.3601 9.97515 17.2401 9.97515 17.2401L11.3374 14.2801H11.3775C11.2573 14.8001 11.3775 15.2801 11.1371 15.7601C10.8166 16.3601 11.0169 16.8801 10.9768 17.1201C10.9368 17.4001 10.7364 17.4801 10.7765 17.5201C10.8166 17.6001 11.057 17.4401 11.1772 17.0801C11.2573 16.7201 11.057 16.5201 11.4176 15.7601C11.7381 15.1201 11.5778 14.8001 11.7381 14.3201H11.7782L11.8984 17.6001C11.8984 17.6001 11.8984 17.7201 11.9785 17.7201C12.0586 17.7201 12.0586 17.6001 12.0586 17.6001L12.1788 14.3201H12.2189C12.299 14.8401 12.6196 15.2401 12.5795 15.8001C12.4994 16.4801 12.9 16.8801 12.9802 17.1201C13.0603 17.4001 12.9 17.5601 12.9802 17.5601C13.0603 17.6001 13.2206 17.4001 13.1805 17.0001C13.1404 16.6401 12.8199 16.5201 12.9 15.6801C12.9401 14.9601 12.6596 14.7201 12.6596 14.2001H12.6997L14.062 17.1601C14.062 17.1601 14.102 17.2401 14.1822 17.2401C14.2623 17.2001 14.2222 17.1201 14.2222 17.1201L13.0603 14.0001H13.1004C13.3808 14.4401 13.8216 14.6801 13.9818 15.2401C14.1822 15.8801 14.663 16.1201 14.8633 16.3201C15.0636 16.5201 14.9434 16.7601 15.0236 16.7601C15.1037 16.7601 15.1838 16.5201 14.9835 16.2001C14.7832 15.8801 14.4626 15.8801 14.2222 15.0801C14.0219 14.4001 13.6613 14.2801 13.4209 13.8001L13.461 13.7601L15.865 16.0001C15.865 16.0001 15.9451 16.0801 15.9852 16.0401C16.0252 16.0001 15.9451 15.9201 15.9451 15.9201L13.7014 13.5201L13.7414 13.4801C14.1822 13.8001 14.663 13.8401 15.0236 14.2801C15.4643 14.8001 15.9852 14.8001 16.2256 14.9201C16.466 15.0401 16.466 15.2801 16.5461 15.2401C16.6262 15.2001 16.5862 14.9601 16.3057 14.7201C15.9852 14.4801 15.7047 14.6001 15.1838 14.0001C14.7431 13.4801 14.3424 13.4801 13.9818 13.1201C13.9818 13.1201 13.9818 13.0801 14.0219 13.0801L17.107 14.2001C17.107 14.2001 17.1872 14.2401 17.2272 14.1601C17.2673 14.0801 17.1471 14.0401 17.1471 14.0401L14.1822 12.6801V12.6401C14.703 12.7601 15.1838 12.6401 15.6646 12.8801C16.2656 13.2001 16.7865 13.0001 17.0269 13.0001C17.3074 13.0401 17.3875 13.2401 17.4276 13.2001C17.5077 13.1601 17.3474 12.9201 16.9868 12.8001C16.6262 12.7201 16.3858 12.9201 15.6646 12.5601C15.0236 12.2401 14.703 12.4001 14.2222 12.2401V12.2001L17.5077 12.0801C17.5077 12.0801 17.6279 12.0801 17.6279 12.0001C17.6279 11.9201 17.5077 11.9201 17.5077 11.9201Z" fill="#F6B40E"/>
<path d="M13.2223 11.7201C13.1021 11.6001 12.9418 11.5201 12.7815 11.5201C12.6213 11.5201 12.5011 11.6001 12.3809 11.7201C12.5812 11.8801 12.9418 11.8801 13.2223 11.7201ZM13.1021 11.6801C13.0219 11.7601 12.9418 11.8001 12.8617 11.8001C12.9017 11.7601 12.9418 11.7201 12.9418 11.6801C12.9418 11.6401 12.9017 11.6001 12.8617 11.5601C12.9819 11.6001 13.062 11.6401 13.1021 11.6801ZM12.6613 11.5601C12.6213 11.6001 12.6213 11.6401 12.6213 11.6801C12.6213 11.7201 12.6613 11.8001 12.7014 11.8001C12.6213 11.8001 12.5411 11.7601 12.461 11.6801C12.5411 11.6401 12.5812 11.6001 12.6613 11.5601Z" fill="#85340A"/>
<path d="M12.8226 11.4001C12.5822 11.4001 12.5422 11.4401 12.462 11.5201C12.3418 11.6001 12.3018 11.6001 12.3018 11.6001C12.3018 11.6001 12.3018 11.6801 12.3418 11.6401C12.3819 11.6401 12.462 11.6001 12.5422 11.5201C12.6624 11.4401 12.7425 11.4401 12.8627 11.4401C13.1832 11.4401 13.3435 11.6801 13.3836 11.6801C13.4236 11.6801 13.1432 11.4001 12.8226 11.4001Z" fill="#85340A"/>
<path d="M12.1395 11.3601C12.0994 11.4401 12.0994 11.4801 12.0994 11.5601C12.0593 11.8001 12.0994 12.0801 12.2597 12.3601C12.2597 12.3601 12.2997 12.3201 12.3398 12.3201C12.1795 12.1201 12.1395 11.8801 12.1395 11.6801C12.1395 11.5601 12.2196 11.4801 12.2597 11.4001C12.5401 11.1601 13.0209 11.2001 13.4216 11.5201C13.061 11.0001 12.5401 11.0401 12.1395 11.3601Z" fill="#85340A"/>
<path d="M12.5398 11.8801C12.4196 11.8001 12.3795 11.7601 12.3395 11.7601C12.2994 11.7601 12.2994 11.8001 12.4597 11.8801C12.6199 11.9601 12.9405 12.0001 13.2209 11.7601C12.9004 11.9201 12.66 11.9201 12.5398 11.8801ZM12.3395 12.5201C12.2994 12.5201 12.2593 12.4801 12.2193 12.4401C12.2193 12.4801 12.1391 12.5601 12.0189 12.5601C11.8987 12.5601 11.8186 12.4401 11.8186 12.4401C11.8186 12.4801 11.7785 12.5201 11.6984 12.5201C11.6583 12.5201 11.5782 12.4801 11.5782 12.4001C11.5782 12.3601 11.6183 12.3201 11.6583 12.3201C11.5782 12.3201 11.5381 12.4001 11.5381 12.4801C11.5381 12.5601 11.6183 12.6401 11.6984 12.6401C11.7385 12.6401 11.7785 12.6001 11.8186 12.5601C11.8587 12.6001 11.9789 12.6001 12.0189 12.6001H12.059C12.0991 12.6001 12.1792 12.6001 12.2593 12.5601C12.2994 12.6001 12.3395 12.6401 12.3795 12.6401C12.4597 12.6401 12.5398 12.5601 12.5398 12.4801C12.5398 12.4001 12.4997 12.3601 12.4196 12.3201C12.4597 12.3201 12.4997 12.3601 12.4997 12.4001C12.4597 12.4801 12.4196 12.5201 12.3395 12.5201ZM12.0189 12.8801C12.0991 12.8801 12.1792 12.8001 12.2994 12.8801C12.4196 12.9601 12.4997 13.0001 12.5799 13.0401C12.4196 12.9201 12.3395 12.8001 12.1792 12.8001C12.1391 12.8001 12.059 12.8001 12.0189 12.8401C11.9388 12.8001 11.8987 12.8001 11.8587 12.8001C11.6984 12.8001 11.6183 12.9601 11.458 13.0401C11.5381 13.0001 11.6183 12.9201 11.7385 12.8801C11.8587 12.8401 11.9388 12.8801 12.0189 12.8801Z" fill="#85340A"/>
<path d="M12.0195 13.0001C11.9394 13.0001 11.8993 12.9601 11.7791 13.0001C11.699 13.0001 11.6189 13.0001 11.4987 13.0401H11.4586C11.8192 13.0801 11.6589 13.2801 12.0195 13.2801C12.3801 13.2801 12.2199 13.0801 12.5805 13.0401H12.5003C12.1798 12.9201 12.1397 13.0001 12.0195 13.0001ZM12.0195 13.2001C11.7391 13.2001 11.8192 13.0001 11.4987 13.0001C11.8192 12.9201 11.8593 13.0401 12.0195 13.0401C12.1397 13.0401 12.2199 12.9601 12.5404 13.0001C12.2199 13.0401 12.3 13.2001 12.0195 13.2001ZM12.0195 13.2801C11.8593 13.2801 11.699 13.4001 11.699 13.6001C11.7391 13.4401 11.8593 13.3601 12.0195 13.3601C12.1798 13.3601 12.3 13.4801 12.3401 13.6001C12.3401 13.4001 12.1798 13.2801 12.0195 13.2801ZM11.7791 11.4001C11.8593 11.4801 11.8993 11.6001 11.8993 11.6801C11.9394 11.8801 11.8593 12.0801 11.699 12.3201C11.699 12.3201 11.7391 12.3201 11.7791 12.3601C11.8993 12.0801 11.9795 11.8401 11.9394 11.5601C11.9394 11.4801 11.8993 11.4401 11.8993 11.3601C11.5387 11.0401 11.0179 11.0001 10.6172 11.5201C11.0179 11.1601 11.5387 11.1201 11.7791 11.4001Z" fill="#85340A"/>
<path d="M11.5378 11.5601C11.658 11.6401 11.6981 11.6801 11.7382 11.6801C11.7782 11.6801 11.7782 11.6401 11.7782 11.6401C11.7782 11.6401 11.6981 11.6401 11.618 11.5601C11.4978 11.4801 11.4577 11.4401 11.2574 11.4401C10.8968 11.4401 10.6964 11.7201 10.7365 11.7201C10.7766 11.7201 10.9368 11.4801 11.2574 11.4801C11.3375 11.4801 11.4577 11.4801 11.5378 11.5601Z" fill="#85340A"/>
<path d="M10.8574 11.7201C10.9376 11.8001 11.0978 11.8401 11.2581 11.8401C11.3783 11.8401 11.5386 11.8001 11.6588 11.7201C11.5386 11.6001 11.3783 11.5201 11.218 11.5201C11.0978 11.5201 10.9376 11.6001 10.8574 11.7201ZM10.9376 11.7201C11.0177 11.6401 11.0978 11.5601 11.178 11.5601C11.1379 11.6001 11.0978 11.6401 11.0978 11.6801C11.0978 11.7601 11.1379 11.8001 11.178 11.8001C11.0978 11.8401 10.9776 11.8001 10.9376 11.7201ZM11.5386 11.6801C11.4985 11.7201 11.4184 11.7601 11.3382 11.8001C11.3783 11.7601 11.3783 11.7201 11.3783 11.6801C11.3783 11.6401 11.3382 11.6001 11.3382 11.5601C11.4584 11.6001 11.5386 11.6401 11.5386 11.6801Z" fill="#85340A"/>
<path d="M11.7389 11.7601C11.6988 11.7601 11.6588 11.8001 11.5386 11.8801C11.4184 11.9601 11.178 11.9601 10.8574 11.8001C11.1379 12.0401 11.4584 12.0001 11.6187 11.9201C11.779 11.8001 11.779 11.7601 11.7389 11.7601Z" fill="#85340A"/>
</g>
<defs>
<clipPath id="clip0_77_15499">
<rect width="24" height="24" fill="white"/>
</clipPath>
</defs>
</svg>
