<svg width="48" height="49" viewBox="0 0 48 49" fill="none" xmlns="http://www.w3.org/2000/svg">
<g clip-path="url(#clip0_77_16524)">
<path fill-rule="evenodd" clip-rule="evenodd" d="M0 0.160522H91.2009V3.85287H0V0.160522ZM0 7.54521H91.2009V11.2376H0V7.54521ZM0 14.9299H91.2009V18.6222H0V14.9299ZM0 22.3146H91.2009V26.0069H0V22.3146ZM0 29.6993H91.2009V33.3916H0V29.6993ZM0 37.084H91.2009V40.7763H0V37.084ZM0 44.4686H91.2009V48.161H0V44.4686Z" fill="#BD3D44"/>
<path fill-rule="evenodd" clip-rule="evenodd" d="M0 3.85291H91.2009V7.54525H0V3.85291ZM0 11.2376H91.2009V14.9299H0V11.2376ZM0 18.6223H91.2009V22.3146H0V18.6223ZM0 26.007H91.2009V29.6993H0V26.007ZM0 33.3917H91.2009V37.084H0V33.3917ZM0 40.7763H91.2009V44.4687H0V40.7763Z" fill="white"/>
<path fill-rule="evenodd" clip-rule="evenodd" d="M0 0.160522H36.4804V26.0069H0V0.160522Z" fill="#192F5D"/>
<path fill-rule="evenodd" clip-rule="evenodd" d="M3.02784 1.26831L3.39703 2.30209H4.4309L3.58162 2.92984L3.91397 3.92678L3.02784 3.29903L2.2155 3.92678L2.54784 2.92984L1.66162 2.30209H2.76947L3.02784 1.26831ZM9.12018 1.26831L9.45253 2.30209H10.5232L9.63712 2.92984L10.0063 3.92678L9.12018 3.29903L8.23406 3.92678L8.60325 2.92984L7.71712 2.30209H8.78784L9.12018 1.26831ZM15.2125 1.26831L15.5449 2.30209H16.6156L15.7295 2.92984L16.0987 3.92678L15.2125 3.29903L14.3264 3.92678L14.6956 2.92984L13.8095 2.30209H14.8803L15.2125 1.26831ZM21.268 1.26831L21.6372 2.30209H22.6711L21.8218 2.92984L22.1542 3.92678L21.268 3.29903L20.4187 3.92678L20.7511 2.92984L19.8649 2.30209H20.9726L21.268 1.26831ZM27.3604 1.26831L27.6926 2.30209H28.7634L27.8773 2.92984L28.2465 3.92678L27.3234 3.29903L26.4742 3.92678L26.8065 2.92984L25.9204 2.30209H26.9911L27.3604 1.26831ZM33.4527 1.26831L33.7851 2.30209H34.8558L33.9697 2.92984L34.3388 3.92678L33.4527 3.29903L32.5666 3.92678L32.9358 2.92984L32.0497 2.30209H33.1204L33.4527 1.26831ZM6.09243 3.8529L6.42478 4.88678H7.49559L6.60937 5.51444L6.97865 6.51137L6.09243 5.88372L5.20631 6.51137L5.5755 5.51444L4.68937 4.88678H5.76018L6.09243 3.8529ZM12.1479 3.8529L12.5171 4.88678H13.551L12.7017 5.51444L13.0341 6.51137L12.1479 5.88372L11.2987 6.51137L11.631 5.51444L10.7448 4.88678H11.8525L12.1479 3.8529ZM18.2403 3.8529L18.5726 4.88678H19.6433L18.7572 5.51444L19.1264 6.51137L18.2403 5.88372L17.3541 6.51137L17.7233 5.51444L16.8372 4.88678H17.9079L18.2403 3.8529ZM24.3326 3.8529L24.665 4.88678H25.7357L24.8496 5.51444L25.2188 6.51137L24.3326 5.88372L23.4465 6.51137L23.8157 5.51444L22.9296 4.88678H24.0004L24.3326 3.8529ZM30.3881 3.8529L30.7573 4.88678H31.7542L30.905 5.51444L31.2373 6.51137L30.3512 5.88372L29.5019 6.51137L29.8342 5.51444L28.948 4.88678H30.0558L30.3881 3.8529ZM3.06468 6.43759L3.36009 7.47137H4.46784L3.58162 8.09912L3.91397 9.09606L3.02784 8.46831L2.2155 9.09606L2.54784 8.09912L1.66162 7.47137H2.76947L3.06468 6.43759ZM9.12018 6.43759L9.45253 7.47137H10.5232L9.67406 8.09912L10.0063 9.09606L9.12018 8.46831L8.2709 9.09606L8.60325 8.09912L7.71712 7.47137H8.78784L9.12018 6.43759ZM15.2125 6.43759L15.5449 7.47137H16.6156L15.7295 8.09912L16.0987 9.09606L15.2125 8.46831L14.3264 9.09606L14.6956 8.09912L13.8095 7.47137H14.8803L15.2125 6.43759ZM21.268 6.43759L21.6372 7.47137H22.6711L21.8218 8.09912L22.1542 9.09606L21.268 8.46831L20.4187 9.09606L20.7511 8.09912L19.8649 7.47137H20.9726L21.268 6.43759ZM27.3604 6.43759L27.6926 7.47137H28.7634L27.9142 8.09912L28.2465 9.09606L27.3604 8.46831L26.5111 9.09606L26.8434 8.09912L25.9573 7.47137H27.028L27.3604 6.43759ZM33.4527 6.43759L33.7851 7.47137H34.8558L33.9697 8.09912L34.3388 9.09606L33.4527 8.46831L32.5666 9.09606L32.9358 8.09912L32.0497 7.47137H33.1204L33.4527 6.43759ZM6.09243 9.02209L6.42478 10.056H7.49559L6.60937 10.6836L6.97865 11.6806L6.09243 11.0529L5.20631 11.6806L5.5755 10.6836L4.68937 10.056H5.76018L6.09243 9.02209ZM12.1479 9.02209L12.5171 10.056H13.551L12.7017 10.6836L13.0341 11.6806L12.1479 11.0529L11.2987 11.6806L11.631 10.6836L10.7448 10.056H11.8525L12.1479 9.02209ZM18.2403 9.02209L18.5726 10.056H19.6433L18.7942 10.6836L19.1264 11.6806L18.2403 11.0529L17.391 11.6806L17.7233 10.6836L16.8372 10.056H17.9079L18.2403 9.02209ZM24.3326 9.02209L24.665 10.056H25.7357L24.8496 10.6836L25.2188 11.6807L24.3326 11.053L23.4465 11.6807L23.8157 10.6837L22.9296 10.0561H24.0004L24.3326 9.02209ZM30.3881 9.02209L30.7573 10.056H31.7542L30.905 10.6836L31.2373 11.6806L30.3512 11.0529L29.5019 11.6806L29.8342 10.6836L28.948 10.056H30.0558L30.3881 9.02209ZM3.06468 11.6068L3.36009 12.6406H4.46784L3.58162 13.2683L3.91397 14.2652L3.02784 13.6375L2.2155 14.2652L2.54784 13.2683L1.66162 12.6406H2.76947L3.06468 11.6068ZM9.12018 11.6068L9.45253 12.6406H10.5232L9.67406 13.2683L10.0063 14.2652L9.12018 13.6375L8.2709 14.2652L8.60325 13.2683L7.71712 12.6406H8.78784L9.12018 11.6068ZM15.2125 11.6068L15.5449 12.6406H16.6156L15.7295 13.2683L16.0987 14.2652L15.2125 13.6375L14.3264 14.2652L14.6956 13.2683L13.8095 12.6406H14.8803L15.2125 11.6068ZM21.268 11.6068L21.6372 12.6406H22.6711L21.8218 13.2683L22.1542 14.2652L21.268 13.6375L20.4187 14.2652L20.7511 13.2683L19.8649 12.6406H20.9726L21.268 11.6068ZM27.3604 11.6068L27.6926 12.6406H28.7634L27.9142 13.2683L28.2465 14.2652L27.3604 13.6375L26.5111 14.2652L26.8434 13.2683L25.9573 12.6406H27.028L27.3604 11.6068ZM33.4527 11.6068L33.7851 12.6406H34.8558L33.9697 13.2683L34.3388 14.2652L33.4527 13.6375L32.5666 14.2652L32.9358 13.2683L32.0497 12.6406H33.1204L33.4527 11.6068ZM6.09243 14.1914L6.42478 15.2252H7.49559L6.60937 15.8529L6.97865 16.8498L6.09243 16.2222L5.20631 16.8498L5.5755 15.8529L4.68937 15.2252H5.76018L6.09243 14.1914ZM12.1479 14.1914L12.5171 15.2252H13.551L12.7017 15.8529L13.0341 16.8498L12.1479 16.2222L11.2987 16.8498L11.631 15.8529L10.7448 15.2252H11.8525L12.1479 14.1914ZM18.2403 14.1914L18.5726 15.2252H19.6433L18.7942 15.8529L19.1264 16.8498L18.2403 16.2222L17.391 16.8498L17.7233 15.8529L16.8372 15.2252H17.9079L18.2403 14.1914ZM24.3326 14.1914L24.665 15.2252H25.7357L24.8496 15.8529L25.2188 16.8499L24.3326 16.2223L23.4465 16.8499L23.8157 15.853L22.9296 15.2253H24.0004L24.3326 14.1914ZM30.3881 14.1914L30.7573 15.2252H31.7542L30.905 15.8529L31.2373 16.8498L30.3512 16.2222L29.5019 16.8498L29.8342 15.8529L28.948 15.2252H30.0558L30.3881 14.1914ZM3.06468 16.7761L3.36009 17.8098H4.46784L3.58162 18.4376L3.91397 19.4345L3.02784 18.8068L2.2155 19.4345L2.54784 18.4376L1.66162 17.8098H2.76947L3.06468 16.7761ZM9.12018 16.7761L9.45253 17.8098H10.5232L9.67406 18.4376L10.0063 19.4345L9.12018 18.8068L8.2709 19.4345L8.60325 18.4376L7.71712 17.8098H8.78784L9.12018 16.7761ZM15.2125 16.7761L15.5449 17.8098H16.6156L15.7295 18.4376L16.0987 19.4345L15.2125 18.8068L14.3264 19.4345L14.6956 18.4376L13.8095 17.8098H14.8803L15.2125 16.7761ZM21.268 16.7761L21.6372 17.8098H22.6711L21.8218 18.4376L22.1542 19.4345L21.268 18.8068L20.4187 19.4345L20.7511 18.4376L19.8649 17.8098H20.9726L21.268 16.7761ZM27.3604 16.7761L27.6926 17.8098H28.7634L27.9142 18.4376L28.2465 19.4345L27.3604 18.8068L26.5111 19.4345L26.8434 18.4376L25.9573 17.8098H27.028L27.3604 16.7761ZM33.4527 16.7761L33.7851 17.8098H34.8558L33.9697 18.4376L34.3388 19.4345L33.4527 18.8068L32.5666 19.4345L32.9358 18.4376L32.0497 17.8098H33.1204L33.4527 16.7761ZM6.09243 19.3607L6.42478 20.3946H7.49559L6.60937 21.0223L6.97865 22.0192L6.09243 21.3916L5.20631 22.0192L5.5755 21.0223L4.68937 20.3946H5.76018L6.09243 19.3607ZM12.1479 19.3607L12.5171 20.3946H13.551L12.7017 21.0223L13.0341 22.0192L12.1479 21.3916L11.2987 22.0192L11.631 21.0223L10.7448 20.3946H11.8525L12.1479 19.3607ZM18.2403 19.3607L18.5726 20.3946H19.6433L18.7942 21.0223L19.1264 22.0192L18.2403 21.3916L17.391 22.0192L17.7233 21.0223L16.8372 20.3946H17.9079L18.2403 19.3607ZM24.3326 19.3607L24.665 20.3946H25.7357L24.8496 21.0223L25.2188 22.0193L24.3326 21.3917L23.4465 22.0193L23.8157 21.0224L22.9296 20.3947H24.0004L24.3326 19.3607ZM30.3881 19.3607L30.7573 20.3946H31.7542L30.905 21.0223L31.2373 22.0192L30.3512 21.3916L29.5019 22.0192L29.8342 21.0223L28.948 20.3946H30.0558L30.3881 19.3607ZM3.06468 21.9454L3.36009 22.9792H4.46784L3.58162 23.607L3.91397 24.6039L3.02784 23.9762L2.2155 24.6039L2.54784 23.607L1.66162 22.9792H2.76947L3.06468 21.9454ZM9.12018 21.9454L9.45253 22.9792H10.5232L9.67406 23.607L10.0063 24.6039L9.12018 23.9762L8.2709 24.6039L8.60325 23.607L7.71712 22.9792H8.78784L9.12018 21.9454ZM15.2125 21.9454L15.5449 22.9792H16.6156L15.7295 23.607L16.0987 24.6039L15.2125 23.9762L14.3264 24.6039L14.6956 23.607L13.8095 22.9792H14.8803L15.2125 21.9454ZM21.268 21.9454L21.6372 22.9792H22.6711L21.8218 23.607L22.1542 24.6039L21.268 23.9762L20.4187 24.6039L20.7511 23.607L19.8649 22.9792H20.9726L21.268 21.9454ZM27.3604 21.9454L27.6926 22.9792H28.7634L27.9142 23.607L28.2465 24.6039L27.3604 23.9762L26.5111 24.6039L26.8434 23.607L25.9573 22.9792H27.028L27.3604 21.9454ZM33.4527 21.9454L33.7851 22.9792H34.8558L33.9697 23.607L34.3388 24.6039L33.4527 23.9762L32.5666 24.6039L32.9358 23.607L32.0497 22.9792H33.1204L33.4527 21.9454Z" fill="white"/>
</g>
<defs>
<clipPath id="clip0_77_16524">
<rect y="0.160522" width="48" height="48" rx="24" fill="white"/>
</clipPath>
</defs>
</svg>
