<svg width="24" height="24" viewBox="0 0 24 24" fill="none" xmlns="http://www.w3.org/2000/svg">
<g clip-path="url(#clip0_102_18789)">
<path fill-rule="evenodd" clip-rule="evenodd" d="M0 0H45.6005V1.84617H0V0ZM0 3.69234H45.6005V5.53852H0V3.69234ZM0 7.38469H45.6005V9.23086H0V7.38469ZM0 11.077H45.6005V12.9232H0V11.077ZM0 14.7694H45.6005V16.6155H0V14.7694ZM0 18.4617H45.6005V20.3079H0V18.4617ZM0 22.1541H45.6005V24.0002H0V22.1541Z" fill="#BD3D44"/>
<path fill-rule="evenodd" clip-rule="evenodd" d="M0 1.84617H45.6005V3.69234H0V1.84617ZM0 5.53851H45.6005V7.38468H0V5.53851ZM0 9.23086H45.6005V11.077H0V9.23086ZM0 12.9232H45.6005V14.7694H0V12.9232ZM0 16.6155H45.6005V18.4617H0V16.6155ZM0 20.3079H45.6005V22.1541H0V20.3079Z" fill="white"/>
<path fill-rule="evenodd" clip-rule="evenodd" d="M0 0H18.2402V12.9232H0V0Z" fill="#192F5D"/>
<path fill-rule="evenodd" clip-rule="evenodd" d="M1.51368 0.553879L1.69827 1.07077H2.21521L1.79057 1.38464L1.95674 1.88311L1.51368 1.56924L1.1075 1.88311L1.27368 1.38464L0.830566 1.07077H1.38449L1.51368 0.553879ZM4.55985 0.553879L4.72602 1.07077H5.26138L4.81832 1.38464L5.00291 1.88311L4.55985 1.56924L4.11679 1.88311L4.30138 1.38464L3.85832 1.07077H4.39368L4.55985 0.553879ZM7.60602 0.553879L7.77219 1.07077H8.30755L7.86449 1.38464L8.04913 1.88311L7.60602 1.56924L7.16296 1.88311L7.34755 1.38464L6.90449 1.07077H7.43989L7.60602 0.553879ZM10.6338 0.553879L10.8184 1.07077H11.3353L10.9107 1.38464L11.0768 1.88311L10.6338 1.56924L10.2091 1.88311L10.3753 1.38464L9.93219 1.07077H10.4861L10.6338 0.553879ZM13.6799 0.553879L13.8461 1.07077H14.3815L13.9384 1.38464L14.123 1.88311L13.6615 1.56924L13.2368 1.88311L13.403 1.38464L12.9599 1.07077H13.4953L13.6799 0.553879ZM16.7261 0.553879L16.8923 1.07077H17.4276L16.9846 1.38464L17.1692 1.88311L16.7261 1.56924L16.2831 1.88311L16.4676 1.38464L16.0246 1.07077H16.5599L16.7261 0.553879ZM3.04597 1.84618L3.21214 2.36311H3.74755L3.30444 2.67694L3.48908 3.17541L3.04597 2.86158L2.60291 3.17541L2.7875 2.67694L2.34444 2.36311H2.87985L3.04597 1.84618ZM6.07372 1.84618L6.25832 2.36311H6.77525L6.35061 2.67694L6.51679 3.17541L6.07372 2.86158L5.64908 3.17541L5.81525 2.67694L5.37214 2.36311H5.92602L6.07372 1.84618ZM9.11989 1.84618L9.28607 2.36311H9.82143L9.37836 2.67694L9.56296 3.17541L9.11989 2.86158L8.67679 3.17541L8.86143 2.67694L8.41836 2.36311H8.95372L9.11989 1.84618ZM12.1661 1.84618L12.3322 2.36311H12.8676L12.4245 2.67694L12.6092 3.17541L12.1661 2.86158L11.723 3.17541L11.9076 2.67694L11.4645 2.36311H11.9999L12.1661 1.84618ZM15.1938 1.84618L15.3784 2.36311H15.8769L15.4522 2.67694L15.6184 3.17541L15.1753 2.86158L14.7507 3.17541L14.9169 2.67694L14.4738 2.36311H15.0276L15.1938 1.84618ZM1.5321 3.13852L1.6798 3.65541H2.23368L1.79057 3.96929L1.95674 4.46775L1.51368 4.15388L1.1075 4.46775L1.27368 3.96929L0.830566 3.65541H1.38449L1.5321 3.13852ZM4.55985 3.13852L4.72602 3.65541H5.26138L4.83679 3.96929L5.00291 4.46775L4.55985 4.15388L4.13521 4.46775L4.30138 3.96929L3.85832 3.65541H4.39368L4.55985 3.13852ZM7.60602 3.13852L7.77219 3.65541H8.30755L7.86449 3.96929L8.04913 4.46775L7.60602 4.15388L7.16296 4.46775L7.34755 3.96929L6.90449 3.65541H7.43989L7.60602 3.13852ZM10.6338 3.13852L10.8184 3.65541H11.3353L10.9107 3.96929L11.0768 4.46775L10.6338 4.15388L10.2091 4.46775L10.3753 3.96929L9.93219 3.65541H10.4861L10.6338 3.13852ZM13.6799 3.13852L13.8461 3.65541H14.3815L13.9569 3.96929L14.123 4.46775L13.6799 4.15388L13.2553 4.46775L13.4215 3.96929L12.9784 3.65541H13.5138L13.6799 3.13852ZM16.7261 3.13852L16.8923 3.65541H17.4276L16.9846 3.96929L17.1692 4.46775L16.7261 4.15388L16.2831 4.46775L16.4676 3.96929L16.0246 3.65541H16.5599L16.7261 3.13852ZM3.04597 4.43077L3.21214 4.94771H3.74755L3.30444 5.26154L3.48908 5.76L3.04597 5.44618L2.60291 5.76L2.7875 5.26154L2.34444 4.94771H2.87985L3.04597 4.43077ZM6.07372 4.43077L6.25832 4.94771H6.77525L6.35061 5.26154L6.51679 5.76L6.07372 5.44618L5.64908 5.76L5.81525 5.26154L5.37214 4.94771H5.92602L6.07372 4.43077ZM9.11989 4.43077L9.28607 4.94771H9.82143L9.39683 5.26154L9.56296 5.76L9.11989 5.44618L8.69525 5.76L8.86143 5.26154L8.41836 4.94771H8.95372L9.11989 4.43077ZM12.1661 4.43077L12.3322 4.94771H12.8676L12.4245 5.26154L12.6092 5.76005L12.1661 5.44622L11.723 5.76005L11.9076 5.26158L11.4645 4.94775H11.9999L12.1661 4.43077ZM15.1938 4.43077L15.3784 4.94771H15.8769L15.4522 5.26154L15.6184 5.76L15.1753 5.44618L14.7507 5.76L14.9169 5.26154L14.4738 4.94771H15.0276L15.1938 4.43077ZM1.5321 5.72311L1.6798 6.24H2.23368L1.79057 6.55388L1.95674 7.05235L1.51368 6.73847L1.1075 7.05235L1.27368 6.55388L0.830566 6.24H1.38449L1.5321 5.72311ZM4.55985 5.72311L4.72602 6.24H5.26138L4.83679 6.55388L5.00291 7.05235L4.55985 6.73847L4.13521 7.05235L4.30138 6.55388L3.85832 6.24H4.39368L4.55985 5.72311ZM7.60602 5.72311L7.77219 6.24H8.30755L7.86449 6.55388L8.04913 7.05235L7.60602 6.73847L7.16296 7.05235L7.34755 6.55388L6.90449 6.24H7.43989L7.60602 5.72311ZM10.6338 5.72311L10.8184 6.24H11.3353L10.9107 6.55388L11.0768 7.05235L10.6338 6.73847L10.2091 7.05235L10.3753 6.55388L9.93219 6.24H10.4861L10.6338 5.72311ZM13.6799 5.72311L13.8461 6.24H14.3815L13.9569 6.55388L14.123 7.05235L13.6799 6.73847L13.2553 7.05235L13.4215 6.55388L12.9784 6.24H13.5138L13.6799 5.72311ZM16.7261 5.72311L16.8923 6.24H17.4276L16.9846 6.55388L17.1692 7.05235L16.7261 6.73847L16.2831 7.05235L16.4676 6.55388L16.0246 6.24H16.5599L16.7261 5.72311ZM3.04597 7.01541L3.21214 7.53235H3.74755L3.30444 7.84618L3.48908 8.34464L3.04597 8.03082L2.60291 8.34464L2.7875 7.84618L2.34444 7.53235H2.87985L3.04597 7.01541ZM6.07372 7.01541L6.25832 7.53235H6.77525L6.35061 7.84618L6.51679 8.34464L6.07372 8.03082L5.64908 8.34464L5.81525 7.84618L5.37214 7.53235H5.92602L6.07372 7.01541ZM9.11989 7.01541L9.28607 7.53235H9.82143L9.39683 7.84618L9.56296 8.34464L9.11989 8.03082L8.69525 8.34464L8.86143 7.84618L8.41836 7.53235H8.95372L9.11989 7.01541ZM12.1661 7.01541L12.3322 7.53235H12.8676L12.4245 7.84618L12.6092 8.34469L12.1661 8.03086L11.723 8.34469L11.9076 7.84622L11.4645 7.53239H11.9999L12.1661 7.01541ZM15.1938 7.01541L15.3784 7.53235H15.8769L15.4522 7.84618L15.6184 8.34464L15.1753 8.03082L14.7507 8.34464L14.9169 7.84618L14.4738 7.53235H15.0276L15.1938 7.01541ZM1.5321 8.30775L1.6798 8.82464H2.23368L1.79057 9.13852L1.95674 9.63699L1.51368 9.32311L1.1075 9.63699L1.27368 9.13852L0.830566 8.82464H1.38449L1.5321 8.30775ZM4.55985 8.30775L4.72602 8.82464H5.26138L4.83679 9.13852L5.00291 9.63699L4.55985 9.32311L4.13521 9.63699L4.30138 9.13852L3.85832 8.82464H4.39368L4.55985 8.30775ZM7.60602 8.30775L7.77219 8.82464H8.30755L7.86449 9.13852L8.04913 9.63699L7.60602 9.32311L7.16296 9.63699L7.34755 9.13852L6.90449 8.82464H7.43989L7.60602 8.30775ZM10.6338 8.30775L10.8184 8.82464H11.3353L10.9107 9.13852L11.0768 9.63699L10.6338 9.32311L10.2091 9.63699L10.3753 9.13852L9.93219 8.82464H10.4861L10.6338 8.30775ZM13.6799 8.30775L13.8461 8.82464H14.3815L13.9569 9.13852L14.123 9.63699L13.6799 9.32311L13.2553 9.63699L13.4215 9.13852L12.9784 8.82464H13.5138L13.6799 8.30775ZM16.7261 8.30775L16.8923 8.82464H17.4276L16.9846 9.13852L17.1692 9.63699L16.7261 9.32311L16.2831 9.63699L16.4676 9.13852L16.0246 8.82464H16.5599L16.7261 8.30775ZM3.04597 9.6001L3.21214 10.117H3.74755L3.30444 10.4309L3.48908 10.9293L3.04597 10.6155L2.60291 10.9293L2.7875 10.4309L2.34444 10.117H2.87985L3.04597 9.6001ZM6.07372 9.6001L6.25832 10.117H6.77525L6.35061 10.4309L6.51679 10.9293L6.07372 10.6155L5.64908 10.9293L5.81525 10.4309L5.37214 10.117H5.92602L6.07372 9.6001ZM9.11989 9.6001L9.28607 10.117H9.82143L9.39683 10.4309L9.56296 10.9293L9.11989 10.6155L8.69525 10.9293L8.86143 10.4309L8.41836 10.117H8.95372L9.11989 9.6001ZM12.1661 9.6001L12.3322 10.117H12.8676L12.4245 10.4309L12.6092 10.9294L12.1661 10.6156L11.723 10.9294L11.9076 10.4309L11.4645 10.1171H11.9999L12.1661 9.6001ZM15.1938 9.6001L15.3784 10.117H15.8769L15.4522 10.4309L15.6184 10.9293L15.1753 10.6155L14.7507 10.9293L14.9169 10.4309L14.4738 10.117H15.0276L15.1938 9.6001ZM1.5321 10.8924L1.6798 11.4093H2.23368L1.79057 11.7232L1.95674 12.2217L1.51368 11.9078L1.1075 12.2217L1.27368 11.7232L0.830566 11.4093H1.38449L1.5321 10.8924ZM4.55985 10.8924L4.72602 11.4093H5.26138L4.83679 11.7232L5.00291 12.2217L4.55985 11.9078L4.13521 12.2217L4.30138 11.7232L3.85832 11.4093H4.39368L4.55985 10.8924ZM7.60602 10.8924L7.77219 11.4093H8.30755L7.86449 11.7232L8.04913 12.2217L7.60602 11.9078L7.16296 12.2217L7.34755 11.7232L6.90449 11.4093H7.43989L7.60602 10.8924ZM10.6338 10.8924L10.8184 11.4093H11.3353L10.9107 11.7232L11.0768 12.2217L10.6338 11.9078L10.2091 12.2217L10.3753 11.7232L9.93219 11.4093H10.4861L10.6338 10.8924ZM13.6799 10.8924L13.8461 11.4093H14.3815L13.9569 11.7232L14.123 12.2217L13.6799 11.9078L13.2553 12.2217L13.4215 11.7232L12.9784 11.4093H13.5138L13.6799 10.8924ZM16.7261 10.8924L16.8923 11.4093H17.4276L16.9846 11.7232L17.1692 12.2217L16.7261 11.9078L16.2831 12.2217L16.4676 11.7232L16.0246 11.4093H16.5599L16.7261 10.8924Z" fill="white"/>
</g>
<defs>
<clipPath id="clip0_102_18789">
<rect width="24" height="24" rx="12" fill="white"/>
</clipPath>
</defs>
</svg>
