<svg width="24" height="24" viewBox="0 0 24 24" fill="none" xmlns="http://www.w3.org/2000/svg">
<g clip-path="url(#clip0_102_19027)">
<path fill-rule="evenodd" clip-rule="evenodd" d="M0 0.00012207H45.6005V1.84629H0V0.00012207ZM0 3.69247H45.6005V5.53864H0V3.69247ZM0 7.38481H45.6005V9.23098H0V7.38481ZM0 11.0772H45.6005V12.9233H0V11.0772ZM0 14.7695H45.6005V16.6157H0V14.7695ZM0 18.4618H45.6005V20.308H0V18.4618ZM0 22.1542H45.6005V24.0004H0V22.1542Z" fill="#BD3D44"/>
<path fill-rule="evenodd" clip-rule="evenodd" d="M0 1.84629H45.6005V3.69247H0V1.84629ZM0 5.53864H45.6005V7.38481H0V5.53864ZM0 9.23098H45.6005V11.0772H0V9.23098ZM0 12.9233H45.6005V14.7695H0V12.9233ZM0 16.6157H45.6005V18.4618H0V16.6157ZM0 20.308H45.6005V22.1542H0V20.308Z" fill="white"/>
<path fill-rule="evenodd" clip-rule="evenodd" d="M0 0.00012207H18.2402V12.9233H0V0.00012207Z" fill="#192F5D"/>
<path fill-rule="evenodd" clip-rule="evenodd" d="M1.51368 0.553997L1.69827 1.07089H2.21521L1.79057 1.38476L1.95674 1.88323L1.51368 1.56936L1.1075 1.88323L1.27368 1.38476L0.830566 1.07089H1.38449L1.51368 0.553997ZM4.55985 0.553997L4.72602 1.07089H5.26138L4.81832 1.38476L5.00291 1.88323L4.55985 1.56936L4.11679 1.88323L4.30138 1.38476L3.85832 1.07089H4.39368L4.55985 0.553997ZM7.60602 0.553997L7.77219 1.07089H8.30755L7.86449 1.38476L8.04913 1.88323L7.60602 1.56936L7.16296 1.88323L7.34755 1.38476L6.90449 1.07089H7.43989L7.60602 0.553997ZM10.6338 0.553997L10.8184 1.07089H11.3353L10.9107 1.38476L11.0768 1.88323L10.6338 1.56936L10.2091 1.88323L10.3753 1.38476L9.93219 1.07089H10.4861L10.6338 0.553997ZM13.6799 0.553997L13.8461 1.07089H14.3815L13.9384 1.38476L14.123 1.88323L13.6615 1.56936L13.2368 1.88323L13.403 1.38476L12.9599 1.07089H13.4953L13.6799 0.553997ZM16.7261 0.553997L16.8923 1.07089H17.4276L16.9846 1.38476L17.1692 1.88323L16.7261 1.56936L16.2831 1.88323L16.4676 1.38476L16.0246 1.07089H16.5599L16.7261 0.553997ZM3.04597 1.84629L3.21214 2.36323H3.74755L3.30444 2.67706L3.48908 3.17553L3.04597 2.8617L2.60291 3.17553L2.7875 2.67706L2.34444 2.36323H2.87985L3.04597 1.84629ZM6.07372 1.84629L6.25832 2.36323H6.77525L6.35061 2.67706L6.51679 3.17553L6.07372 2.8617L5.64908 3.17553L5.81525 2.67706L5.37214 2.36323H5.92602L6.07372 1.84629ZM9.11989 1.84629L9.28607 2.36323H9.82143L9.37836 2.67706L9.56296 3.17553L9.11989 2.8617L8.67679 3.17553L8.86143 2.67706L8.41836 2.36323H8.95372L9.11989 1.84629ZM12.1661 1.84629L12.3322 2.36323H12.8676L12.4245 2.67706L12.6092 3.17553L12.1661 2.8617L11.723 3.17553L11.9076 2.67706L11.4645 2.36323H11.9999L12.1661 1.84629ZM15.1938 1.84629L15.3784 2.36323H15.8769L15.4522 2.67706L15.6184 3.17553L15.1753 2.8617L14.7507 3.17553L14.9169 2.67706L14.4738 2.36323H15.0276L15.1938 1.84629ZM1.5321 3.13864L1.6798 3.65553H2.23368L1.79057 3.9694L1.95674 4.46787L1.51368 4.154L1.1075 4.46787L1.27368 3.9694L0.830566 3.65553H1.38449L1.5321 3.13864ZM4.55985 3.13864L4.72602 3.65553H5.26138L4.83679 3.9694L5.00291 4.46787L4.55985 4.154L4.13521 4.46787L4.30138 3.9694L3.85832 3.65553H4.39368L4.55985 3.13864ZM7.60602 3.13864L7.77219 3.65553H8.30755L7.86449 3.9694L8.04913 4.46787L7.60602 4.154L7.16296 4.46787L7.34755 3.9694L6.90449 3.65553H7.43989L7.60602 3.13864ZM10.6338 3.13864L10.8184 3.65553H11.3353L10.9107 3.9694L11.0768 4.46787L10.6338 4.154L10.2091 4.46787L10.3753 3.9694L9.93219 3.65553H10.4861L10.6338 3.13864ZM13.6799 3.13864L13.8461 3.65553H14.3815L13.9569 3.9694L14.123 4.46787L13.6799 4.154L13.2553 4.46787L13.4215 3.9694L12.9784 3.65553H13.5138L13.6799 3.13864ZM16.7261 3.13864L16.8923 3.65553H17.4276L16.9846 3.9694L17.1692 4.46787L16.7261 4.154L16.2831 4.46787L16.4676 3.9694L16.0246 3.65553H16.5599L16.7261 3.13864ZM3.04597 4.43089L3.21214 4.94783H3.74755L3.30444 5.26165L3.48908 5.76012L3.04597 5.44629L2.60291 5.76012L2.7875 5.26165L2.34444 4.94783H2.87985L3.04597 4.43089ZM6.07372 4.43089L6.25832 4.94783H6.77525L6.35061 5.26165L6.51679 5.76012L6.07372 5.44629L5.64908 5.76012L5.81525 5.26165L5.37214 4.94783H5.92602L6.07372 4.43089ZM9.11989 4.43089L9.28607 4.94783H9.82143L9.39683 5.26165L9.56296 5.76012L9.11989 5.44629L8.69525 5.76012L8.86143 5.26165L8.41836 4.94783H8.95372L9.11989 4.43089ZM12.1661 4.43089L12.3322 4.94783H12.8676L12.4245 5.26165L12.6092 5.76017L12.1661 5.44634L11.723 5.76017L11.9076 5.2617L11.4645 4.94787H11.9999L12.1661 4.43089ZM15.1938 4.43089L15.3784 4.94783H15.8769L15.4522 5.26165L15.6184 5.76012L15.1753 5.44629L14.7507 5.76012L14.9169 5.26165L14.4738 4.94783H15.0276L15.1938 4.43089ZM1.5321 5.72323L1.6798 6.24012H2.23368L1.79057 6.554L1.95674 7.05247L1.51368 6.73859L1.1075 7.05247L1.27368 6.554L0.830566 6.24012H1.38449L1.5321 5.72323ZM4.55985 5.72323L4.72602 6.24012H5.26138L4.83679 6.554L5.00291 7.05247L4.55985 6.73859L4.13521 7.05247L4.30138 6.554L3.85832 6.24012H4.39368L4.55985 5.72323ZM7.60602 5.72323L7.77219 6.24012H8.30755L7.86449 6.554L8.04913 7.05247L7.60602 6.73859L7.16296 7.05247L7.34755 6.554L6.90449 6.24012H7.43989L7.60602 5.72323ZM10.6338 5.72323L10.8184 6.24012H11.3353L10.9107 6.554L11.0768 7.05247L10.6338 6.73859L10.2091 7.05247L10.3753 6.554L9.93219 6.24012H10.4861L10.6338 5.72323ZM13.6799 5.72323L13.8461 6.24012H14.3815L13.9569 6.554L14.123 7.05247L13.6799 6.73859L13.2553 7.05247L13.4215 6.554L12.9784 6.24012H13.5138L13.6799 5.72323ZM16.7261 5.72323L16.8923 6.24012H17.4276L16.9846 6.554L17.1692 7.05247L16.7261 6.73859L16.2831 7.05247L16.4676 6.554L16.0246 6.24012H16.5599L16.7261 5.72323ZM3.04597 7.01553L3.21214 7.53247H3.74755L3.30444 7.84629L3.48908 8.34476L3.04597 8.03094L2.60291 8.34476L2.7875 7.84629L2.34444 7.53247H2.87985L3.04597 7.01553ZM6.07372 7.01553L6.25832 7.53247H6.77525L6.35061 7.84629L6.51679 8.34476L6.07372 8.03094L5.64908 8.34476L5.81525 7.84629L5.37214 7.53247H5.92602L6.07372 7.01553ZM9.11989 7.01553L9.28607 7.53247H9.82143L9.39683 7.84629L9.56296 8.34476L9.11989 8.03094L8.69525 8.34476L8.86143 7.84629L8.41836 7.53247H8.95372L9.11989 7.01553ZM12.1661 7.01553L12.3322 7.53247H12.8676L12.4245 7.84629L12.6092 8.34481L12.1661 8.03098L11.723 8.34481L11.9076 7.84634L11.4645 7.53251H11.9999L12.1661 7.01553ZM15.1938 7.01553L15.3784 7.53247H15.8769L15.4522 7.84629L15.6184 8.34476L15.1753 8.03094L14.7507 8.34476L14.9169 7.84629L14.4738 7.53247H15.0276L15.1938 7.01553ZM1.5321 8.30787L1.6798 8.82476H2.23368L1.79057 9.13864L1.95674 9.63711L1.51368 9.32323L1.1075 9.63711L1.27368 9.13864L0.830566 8.82476H1.38449L1.5321 8.30787ZM4.55985 8.30787L4.72602 8.82476H5.26138L4.83679 9.13864L5.00291 9.63711L4.55985 9.32323L4.13521 9.63711L4.30138 9.13864L3.85832 8.82476H4.39368L4.55985 8.30787ZM7.60602 8.30787L7.77219 8.82476H8.30755L7.86449 9.13864L8.04913 9.63711L7.60602 9.32323L7.16296 9.63711L7.34755 9.13864L6.90449 8.82476H7.43989L7.60602 8.30787ZM10.6338 8.30787L10.8184 8.82476H11.3353L10.9107 9.13864L11.0768 9.63711L10.6338 9.32323L10.2091 9.63711L10.3753 9.13864L9.93219 8.82476H10.4861L10.6338 8.30787ZM13.6799 8.30787L13.8461 8.82476H14.3815L13.9569 9.13864L14.123 9.63711L13.6799 9.32323L13.2553 9.63711L13.4215 9.13864L12.9784 8.82476H13.5138L13.6799 8.30787ZM16.7261 8.30787L16.8923 8.82476H17.4276L16.9846 9.13864L17.1692 9.63711L16.7261 9.32323L16.2831 9.63711L16.4676 9.13864L16.0246 8.82476H16.5599L16.7261 8.30787ZM3.04597 9.60022L3.21214 10.1172H3.74755L3.30444 10.431L3.48908 10.9295L3.04597 10.6156L2.60291 10.9295L2.7875 10.431L2.34444 10.1172H2.87985L3.04597 9.60022ZM6.07372 9.60022L6.25832 10.1172H6.77525L6.35061 10.431L6.51679 10.9295L6.07372 10.6156L5.64908 10.9295L5.81525 10.431L5.37214 10.1172H5.92602L6.07372 9.60022ZM9.11989 9.60022L9.28607 10.1172H9.82143L9.39683 10.431L9.56296 10.9295L9.11989 10.6156L8.69525 10.9295L8.86143 10.431L8.41836 10.1172H8.95372L9.11989 9.60022ZM12.1661 9.60022L12.3322 10.1172H12.8676L12.4245 10.431L12.6092 10.9295L12.1661 10.6157L11.723 10.9295L11.9076 10.431L11.4645 10.1172H11.9999L12.1661 9.60022ZM15.1938 9.60022L15.3784 10.1172H15.8769L15.4522 10.431L15.6184 10.9295L15.1753 10.6156L14.7507 10.9295L14.9169 10.431L14.4738 10.1172H15.0276L15.1938 9.60022ZM1.5321 10.8926L1.6798 11.4095H2.23368L1.79057 11.7233L1.95674 12.2218L1.51368 11.9079L1.1075 12.2218L1.27368 11.7233L0.830566 11.4095H1.38449L1.5321 10.8926ZM4.55985 10.8926L4.72602 11.4095H5.26138L4.83679 11.7233L5.00291 12.2218L4.55985 11.9079L4.13521 12.2218L4.30138 11.7233L3.85832 11.4095H4.39368L4.55985 10.8926ZM7.60602 10.8926L7.77219 11.4095H8.30755L7.86449 11.7233L8.04913 12.2218L7.60602 11.9079L7.16296 12.2218L7.34755 11.7233L6.90449 11.4095H7.43989L7.60602 10.8926ZM10.6338 10.8926L10.8184 11.4095H11.3353L10.9107 11.7233L11.0768 12.2218L10.6338 11.9079L10.2091 12.2218L10.3753 11.7233L9.93219 11.4095H10.4861L10.6338 10.8926ZM13.6799 10.8926L13.8461 11.4095H14.3815L13.9569 11.7233L14.123 12.2218L13.6799 11.9079L13.2553 12.2218L13.4215 11.7233L12.9784 11.4095H13.5138L13.6799 10.8926ZM16.7261 10.8926L16.8923 11.4095H17.4276L16.9846 11.7233L17.1692 12.2218L16.7261 11.9079L16.2831 12.2218L16.4676 11.7233L16.0246 11.4095H16.5599L16.7261 10.8926Z" fill="white"/>
</g>
<defs>
<clipPath id="clip0_102_19027">
<rect y="0.00012207" width="24" height="24" rx="12" fill="white"/>
</clipPath>
</defs>
</svg>
