<svg width="25" height="24" viewBox="0 0 25 24" fill="none" xmlns="http://www.w3.org/2000/svg">
<rect x="2.93457" y="2" width="20" height="20" rx="3" fill="#56B694"/>
<rect x="2.93457" y="2" width="20" height="20" rx="3" fill="#56B694"/>
<path fill-rule="evenodd" clip-rule="evenodd" d="M9.03213 2H5.93457C4.27772 2 2.93457 3.34315 2.93457 5V19C2.93457 20.6569 4.27771 22 5.93457 22H9.03213H16.837H19.9346C21.5914 22 22.9346 20.6569 22.9346 19V5C22.9346 3.34315 21.5914 2 19.9346 2H16.837H9.03213ZM16.7425 20.9024H19.837C20.9416 20.9024 21.837 20.007 21.837 18.9024V12.2439L15.4788 12.2439C15.1222 13.3071 14.1179 14.0732 12.9346 14.0732C11.7513 14.0732 10.7469 13.3071 10.3903 12.2439H4.03213V18.9024C4.03213 20.007 4.92756 20.9024 6.03213 20.9024H9.12665C9.17555 20.6843 9.24323 20.4702 9.32919 20.2627C9.5253 19.7892 9.81275 19.359 10.1751 18.9967C10.5375 18.6343 10.9677 18.3468 11.4412 18.1507C11.9146 17.9546 12.4221 17.8537 12.9346 17.8537C13.447 17.8537 13.9545 17.9546 14.428 18.1507C14.9014 18.3468 15.3316 18.6343 15.694 18.9967C16.0564 19.359 16.3438 19.7892 16.54 20.2627C16.6259 20.4702 16.6936 20.6843 16.7425 20.9024ZM4.03213 11.1463V5.09756C4.03213 3.99299 4.92756 3.09756 6.03213 3.09756H9.12664C9.17555 3.31571 9.24323 3.52977 9.32919 3.7373C9.5253 4.21077 9.81275 4.64097 10.1751 5.00334C10.5375 5.36572 10.9677 5.65317 11.4412 5.84929C11.9146 6.0454 12.4221 6.14634 12.9346 6.14634C13.447 6.14634 13.9545 6.0454 14.428 5.84929C14.9014 5.65317 15.3316 5.36572 15.694 5.00334C16.0564 4.64097 16.3438 4.21077 16.54 3.7373C16.6259 3.52977 16.6936 3.31571 16.7425 3.09756H19.837C20.9416 3.09756 21.837 3.99299 21.837 5.09756V11.1463L15.6066 11.1463C15.4833 9.7789 14.3341 8.70732 12.9346 8.70732C11.535 8.70732 10.3858 9.7789 10.2626 11.1463H4.03213ZM11.3492 11.3902C11.3492 12.2658 12.059 12.9756 12.9346 12.9756C13.8101 12.9756 14.5199 12.2658 14.5199 11.3902C14.5199 10.5147 13.8101 9.80488 12.9346 9.80488C12.059 9.80488 11.3492 10.5147 11.3492 11.3902ZM15.6064 20.9024C15.5827 20.8282 15.5558 20.7549 15.5259 20.6827C15.385 20.3424 15.1784 20.0332 14.9179 19.7727C14.6575 19.5123 14.3483 19.3057 14.0079 19.1647C13.6676 19.0238 13.3029 18.9512 12.9346 18.9512C12.5662 18.9512 12.2015 19.0238 11.8612 19.1647C11.5209 19.3057 11.2117 19.5123 10.9512 19.7727C10.6908 20.0332 10.4842 20.3424 10.3432 20.6827C10.3133 20.7549 10.2865 20.8282 10.2628 20.9024H15.6064ZM10.2628 3.09756C10.2865 3.17177 10.3133 3.24508 10.3432 3.31728C10.4842 3.65759 10.6908 3.96679 10.9512 4.22725C11.2117 4.48771 11.5209 4.69431 11.8612 4.83527C12.2015 4.97623 12.5662 5.04878 12.9346 5.04878C13.3029 5.04878 13.6676 4.97623 14.008 4.83527C14.3483 4.69431 14.6575 4.48771 14.9179 4.22725C15.1784 3.96679 15.385 3.65759 15.5259 3.31728C15.5559 3.24508 15.5827 3.17177 15.6064 3.09756L10.2628 3.09756Z" fill="#1A1E2C"/>
</svg>
