<svg width="25" height="24" viewBox="0 0 25 24" fill="none" xmlns="http://www.w3.org/2000/svg">
<g clip-path="url(#clip0_77_12521)">
<path d="M12.9346 7L16.7386 9.764L12.9346 7ZM12.9346 7L9.13057 9.764L12.9346 7ZM12.9346 7V4V7ZM16.7386 9.764L15.2856 14.236L16.7386 9.764ZM16.7386 9.764L19.4346 8.5L16.7386 9.764ZM15.2856 14.236H10.5846H15.2856ZM15.2866 14.236L16.9346 16.5L15.2866 14.236ZM10.5836 14.236L9.13057 9.764L10.5836 14.236ZM10.5836 14.236L8.93457 16.5L10.5836 14.236ZM9.13057 9.764L6.43457 8.5L9.13057 9.764ZM6.43457 8.5L2.98457 12L6.43457 8.5ZM6.43457 8.5L5.43457 4.385L6.43457 8.5ZM19.4346 8.5L22.8846 12L19.4346 8.5ZM19.4346 8.5L20.4346 4.385L19.4346 8.5ZM12.9346 4L9.55857 1.584L12.9346 4ZM12.9346 4L16.3106 1.584L12.9346 4ZM8.93457 16.5L4.27257 16L8.93457 16.5ZM8.93457 16.5L11.4346 20.888L8.93457 16.5ZM16.9346 16.5L21.5966 16L16.9346 16.5ZM16.9346 16.5L14.4346 20.888L16.9346 16.5ZM22.9346 11C22.9346 16.523 18.4576 21 12.9346 21C7.41157 21 2.93457 16.523 2.93457 11C2.93457 5.477 7.41157 1 12.9346 1C18.4576 1 22.9346 5.477 22.9346 11Z" stroke="#F03838" stroke-width="1.5" stroke-linecap="round" stroke-linejoin="round"/>
<circle cx="18.9346" cy="17" r="6" fill="#1A1E2C"/>
<path d="M18.9346 13.5V20.5" stroke="white" stroke-width="1.5" stroke-linecap="round" stroke-linejoin="round"/>
<path d="M22.4346 17L18.9346 20.5L15.4346 17" stroke="white" stroke-width="1.5" stroke-linecap="round" stroke-linejoin="round"/>
</g>
<defs>
<clipPath id="clip0_77_12521">
<rect width="24" height="24" fill="white" transform="translate(0.93457)"/>
</clipPath>
</defs>
</svg>
