<?xml version="1.0" encoding="UTF-8"?>
<svg width="24px" height="20px" viewBox="0 0 24 20" version="1.1" xmlns="http://www.w3.org/2000/svg" xmlns:xlink="http://www.w3.org/1999/xlink">
    <title>Vector (3)</title>
    <g id="Page-1" stroke="none" stroke-width="1" fill="none" fill-rule="evenodd" stroke-linecap="round" stroke-linejoin="round">
        <g id="Vector-(3)" transform="translate(1.000000, 1.000000)" fill="#FFC107" stroke="#FFC107" stroke-width="1.5">
            <path d="M19.8401,1.61012 C19.3294,1.09912 18.7229,0.69376 18.0555,0.4172 C17.388,0.14064 16.6726,-0.001709 15.9501,-0.001709 C15.2276,-0.001709 14.5122,0.14064 13.8448,0.4172 C13.1773,0.69376 12.5709,1.09912 12.0601,1.61012 L11.0001,2.67012 L9.9401,1.61012 C8.90843,0.57842 7.50915,-0.001174 6.05012,-0.001174 C4.59109,-0.001174 3.19181,0.57842 2.16012,1.61012 C1.12843,2.64181 0.54883,4.04108 0.54883,5.50012 C0.54883,6.95915 1.12843,8.35842 2.16012,9.3901 L3.22012,10.4501 L11.0001,18.2301 L18.7801,10.4501 L19.8401,9.3901 C20.3511,8.87936 20.7565,8.27293 21.033,7.60547 C21.3096,6.93801 21.4519,6.2226 21.4519,5.50012 C21.4519,4.77763 21.3096,4.06222 21.033,3.39476 C20.7565,2.7273 20.3511,2.12087 19.8401,1.61012 L19.8401,1.61012 Z" id="Path"></path>
        </g>
    </g>
</svg>