<svg width="25" height="24" viewBox="0 0 25 24" fill="none" xmlns="http://www.w3.org/2000/svg">
<path d="M12.9346 8.00031L16.7386 10.7643L12.9346 8.00031ZM12.9346 8.00031L9.13057 10.7643L12.9346 8.00031ZM12.9346 8.00031V5.00031V8.00031ZM16.7386 10.7643L15.2856 15.2363L16.7386 10.7643ZM16.7386 10.7643L19.4346 9.50031L16.7386 10.7643ZM15.2856 15.2363H10.5846H15.2856ZM15.2866 15.2363L16.9346 17.5003L15.2866 15.2363ZM10.5836 15.2363L9.13057 10.7643L10.5836 15.2363ZM10.5836 15.2363L8.93457 17.5003L10.5836 15.2363ZM9.13057 10.7643L6.43457 9.50031L9.13057 10.7643ZM6.43457 9.50031L2.98457 13.0003L6.43457 9.50031ZM6.43457 9.50031L5.43457 5.38531L6.43457 9.50031ZM19.4346 9.50031L22.8846 13.0003L19.4346 9.50031ZM19.4346 9.50031L20.4346 5.38531L19.4346 9.50031ZM12.9346 5.00031L9.55857 2.58431L12.9346 5.00031ZM12.9346 5.00031L16.3106 2.58431L12.9346 5.00031ZM8.93457 17.5003L4.27257 17.0003L8.93457 17.5003ZM8.93457 17.5003L11.4346 21.8883L8.93457 17.5003ZM16.9346 17.5003L21.5966 17.0003L16.9346 17.5003ZM16.9346 17.5003L14.4346 21.8883L16.9346 17.5003ZM22.9346 12.0003C22.9346 17.5233 18.4576 22.0003 12.9346 22.0003C7.41157 22.0003 2.93457 17.5233 2.93457 12.0003C2.93457 6.47731 7.41157 2.00031 12.9346 2.00031C18.4576 2.00031 22.9346 6.47731 22.9346 12.0003Z" stroke="#56B694" stroke-width="1.5" stroke-linecap="round" stroke-linejoin="round"/>
</svg>
