<svg width="25" height="24" viewBox="0 0 25 24" fill="none" xmlns="http://www.w3.org/2000/svg">
<path fill-rule="evenodd" clip-rule="evenodd" d="M3.71992 11.1855L5.60711 9.27099L5.09394 7.15928L10.5073 12.5726L11.1294 14.4859H12.4206L13.9206 15.9859H10.966L9.82621 17.5499L11.9018 21.1929C12.2409 21.2306 12.5855 21.2499 12.9346 21.2499C13.2837 21.2499 13.6283 21.2306 13.9674 21.1929L15.8403 17.9056L16.94 19.0054L15.947 20.7483C16.6017 20.523 17.2231 20.2262 17.802 19.8673L18.8874 20.9527C17.1831 22.0882 15.1361 22.7499 12.9346 22.7499C6.99736 22.7499 2.18457 17.9371 2.18457 11.9999C2.18457 9.79835 2.84632 7.7514 3.98176 6.0471L5.06718 7.13252C4.32532 8.32911 3.84884 9.70751 3.71992 11.1855ZM16.618 13.562L19.5239 16.4679L21.1287 16.2958C21.6156 15.3689 21.9499 14.3493 22.098 13.2704L19.2727 10.4041L17.3514 11.3049L16.618 13.562ZM21.5228 18.4668L22.4649 19.4089C22.7578 19.7018 22.7578 20.1767 22.4649 20.4696C22.172 20.7625 21.6971 20.7625 21.4042 20.4696L4.46491 3.53024C4.17202 3.23734 4.17202 2.76247 4.46491 2.46958C4.7578 2.17668 5.23268 2.17668 5.52557 2.46958L6.46771 3.41172C7.32134 2.76793 8.27401 2.24847 9.29881 1.88025L9.31067 1.876C10.4429 1.47068 11.6629 1.24991 12.9346 1.24991C14.2062 1.24991 15.4262 1.47068 16.5585 1.87599L16.5703 1.88026C18.285 2.49635 19.7977 3.53582 20.9825 4.87262C20.9919 4.88276 21.0011 4.89315 21.01 4.90377C22.6749 6.79698 23.6846 9.2805 23.6846 11.9999C23.6846 14.4276 22.8799 16.6672 21.5228 18.4668ZM7.54052 4.48453L11.3096 8.25357L12.1846 7.61778V5.38545L9.45016 3.4286C8.76941 3.7056 8.12909 4.06135 7.54052 4.48453ZM12.3834 9.32744L15.4276 12.3716L15.8569 11.0504L12.9346 8.92699L12.3834 9.32744ZM11.2843 2.89667L12.9346 4.07764L14.5848 2.89667C14.0493 2.80025 13.4978 2.74991 12.9346 2.74991C12.3713 2.74991 11.8198 2.80025 11.2843 2.89667ZM16.419 3.4286L13.6846 5.38545V7.61778L16.8212 9.89684L18.7907 8.97345L19.611 5.59765C18.7184 4.66697 17.633 3.92258 16.419 3.4286ZM20.7874 7.1091L20.262 9.27098L22.1492 11.1855C22.0195 9.69786 21.5376 8.31112 20.7874 7.1091ZM9.92213 20.7483L8.47293 18.2047L5.8276 17.921C6.89783 19.2042 8.30907 20.193 9.92213 20.7483ZM4.74044 16.2958L8.58368 16.708L9.75292 15.1036L8.51784 11.305L6.59639 10.4041L3.77109 13.2704C3.91928 14.3493 4.25354 15.3689 4.74044 16.2958Z" fill="#56B694"/>
</svg>
