<svg width="25" height="24" viewBox="0 0 25 24" fill="none" xmlns="http://www.w3.org/2000/svg">
<path d="M12.9346 8L16.7386 10.764L12.9346 8ZM12.9346 8L9.13057 10.764L12.9346 8ZM12.9346 8V5V8ZM16.7386 10.764L15.2856 15.236L16.7386 10.764ZM16.7386 10.764L19.4346 9.5L16.7386 10.764ZM15.2856 15.236H10.5846H15.2856ZM15.2866 15.236L16.9346 17.5L15.2866 15.236ZM10.5836 15.236L9.13057 10.764L10.5836 15.236ZM10.5836 15.236L8.93457 17.5L10.5836 15.236ZM9.13057 10.764L6.43457 9.5L9.13057 10.764ZM6.43457 9.5L2.98457 13L6.43457 9.5ZM6.43457 9.5L5.43457 5.385L6.43457 9.5ZM19.4346 9.5L22.8846 13L19.4346 9.5ZM19.4346 9.5L20.4346 5.385L19.4346 9.5ZM12.9346 5L9.55857 2.584L12.9346 5ZM12.9346 5L16.3106 2.584L12.9346 5ZM8.93457 17.5L4.27257 17L8.93457 17.5ZM8.93457 17.5L11.4346 21.888L8.93457 17.5ZM16.9346 17.5L21.5966 17L16.9346 17.5ZM16.9346 17.5L14.4346 21.888L16.9346 17.5ZM22.9346 12C22.9346 17.523 18.4576 22 12.9346 22C7.41157 22 2.93457 17.523 2.93457 12C2.93457 6.477 7.41157 2 12.9346 2C18.4576 2 22.9346 6.477 22.9346 12Z" stroke="#56B694" stroke-width="1.5" stroke-linecap="round" stroke-linejoin="round"/>
</svg>
