<svg width="25" height="24" viewBox="0 0 25 24" fill="none" xmlns="http://www.w3.org/2000/svg">
<path d="M12.9346 7.99982L16.7386 10.7638L12.9346 7.99982ZM12.9346 7.99982L9.13057 10.7638L12.9346 7.99982ZM12.9346 7.99982V4.99982V7.99982ZM16.7386 10.7638L15.2856 15.2358L16.7386 10.7638ZM16.7386 10.7638L19.4346 9.49982L16.7386 10.7638ZM15.2856 15.2358H10.5846H15.2856ZM15.2866 15.2358L16.9346 17.4998L15.2866 15.2358ZM10.5836 15.2358L9.13057 10.7638L10.5836 15.2358ZM10.5836 15.2358L8.93457 17.4998L10.5836 15.2358ZM9.13057 10.7638L6.43457 9.49982L9.13057 10.7638ZM6.43457 9.49982L2.98457 12.9998L6.43457 9.49982ZM6.43457 9.49982L5.43457 5.38482L6.43457 9.49982ZM19.4346 9.49982L22.8846 12.9998L19.4346 9.49982ZM19.4346 9.49982L20.4346 5.38482L19.4346 9.49982ZM12.9346 4.99982L9.55857 2.58382L12.9346 4.99982ZM12.9346 4.99982L16.3106 2.58382L12.9346 4.99982ZM8.93457 17.4998L4.27257 16.9998L8.93457 17.4998ZM8.93457 17.4998L11.4346 21.8878L8.93457 17.4998ZM16.9346 17.4998L21.5966 16.9998L16.9346 17.4998ZM16.9346 17.4998L14.4346 21.8878L16.9346 17.4998ZM22.9346 11.9998C22.9346 17.5228 18.4576 21.9998 12.9346 21.9998C7.41157 21.9998 2.93457 17.5228 2.93457 11.9998C2.93457 6.47682 7.41157 1.99982 12.9346 1.99982C18.4576 1.99982 22.9346 6.47682 22.9346 11.9998Z" stroke="#56B694" stroke-width="1.5" stroke-linecap="round" stroke-linejoin="round"/>
</svg>
