<svg width="25" height="25" viewBox="0 0 25 25" fill="none" xmlns="http://www.w3.org/2000/svg">
<path fill-rule="evenodd" clip-rule="evenodd" d="M3.71992 11.3458L5.60711 9.43123L5.09394 7.31952L10.5073 12.7329L11.1294 14.6462H12.4206L13.9206 16.1462H10.966L9.82621 17.7101L11.9018 21.3532C12.2409 21.3908 12.5855 21.4102 12.9346 21.4102C13.2837 21.4102 13.6283 21.3908 13.9674 21.3532L15.8403 18.0658L16.94 19.1656L15.947 20.9086C16.6017 20.6832 17.2231 20.3864 17.802 20.0275L18.8874 21.113C17.1831 22.2484 15.1361 22.9102 12.9346 22.9102C6.99736 22.9102 2.18457 18.0974 2.18457 12.1602C2.18457 9.9586 2.84632 7.91164 3.98176 6.20735L5.06718 7.29277C4.32532 8.48936 3.84884 9.86776 3.71992 11.3458ZM16.618 13.7223L19.5239 16.6281L21.1287 16.456C21.6156 15.5292 21.9499 14.5096 22.098 13.4306L19.2727 10.5644L17.3514 11.4652L16.618 13.7223ZM21.5228 18.627L22.4649 19.5692C22.7578 19.8621 22.7578 20.3369 22.4649 20.6298C22.172 20.9227 21.6971 20.9227 21.4042 20.6298L4.46491 3.69049C4.17202 3.39759 4.17202 2.92272 4.46491 2.62982C4.7578 2.33693 5.23268 2.33693 5.52557 2.62982L6.46771 3.57196C7.32134 2.92818 8.27401 2.40872 9.29881 2.0405L9.31067 2.03624C10.4429 1.63093 11.6629 1.41016 12.9346 1.41016C14.2062 1.41016 15.4262 1.63093 16.5585 2.03624L16.5703 2.0405C18.285 2.65659 19.7977 3.69607 20.9825 5.03287C20.9919 5.04301 21.0011 5.05339 21.01 5.06402C22.6749 6.95723 23.6846 9.44074 23.6846 12.1602C23.6846 14.5878 22.8799 16.8275 21.5228 18.627ZM7.54052 4.64477L11.3096 8.41382L12.1846 7.77803V5.5457L9.45016 3.58884C8.76941 3.86585 8.12909 4.22159 7.54052 4.64477ZM12.3834 9.48769L15.4276 12.5319L15.8569 11.2106L12.9346 9.08723L12.3834 9.48769ZM11.2843 3.05692L12.9346 4.23789L14.5848 3.05692C14.0493 2.96049 13.4978 2.91016 12.9346 2.91016C12.3713 2.91016 11.8198 2.96049 11.2843 3.05692ZM16.419 3.58884L13.6846 5.5457V7.77803L16.8212 10.0571L18.7907 9.1337L19.611 5.7579C18.7184 4.82722 17.633 4.08283 16.419 3.58884ZM20.7874 7.26935L20.262 9.43123L22.1492 11.3458C22.0195 9.85811 21.5376 8.47137 20.7874 7.26935ZM9.92213 20.9086L8.47293 18.3649L5.8276 18.0812C6.89783 19.3644 8.30907 20.3533 9.92213 20.9086ZM4.74044 16.456L8.58368 16.8682L9.75292 15.2639L8.51784 11.4652L6.59639 10.5644L3.77109 13.4306C3.91928 14.5096 4.25354 15.5292 4.74044 16.456Z" fill="#56B694"/>
</svg>
