<svg width="25" height="24" viewBox="0 0 25 24" fill="none" xmlns="http://www.w3.org/2000/svg">
<g clip-path="url(#clip0_77_15805)">
<path fill-rule="evenodd" clip-rule="evenodd" d="M8.7612 4.00048C8.33963 3.99119 7.98271 4.34566 7.96312 4.79396C7.95089 5.06167 7.91053 5.32268 7.8424 5.56756C7.62174 6.36066 7.13606 6.99006 6.47269 7.31832C5.80933 7.64677 4.94331 7.70529 3.83878 7.18344C3.5472 7.0456 3.23969 6.86929 2.92017 6.64207C2.79141 6.55123 2.64046 6.50255 2.4862 6.50255C2.18605 6.50255 1.91139 6.6861 1.78106 6.97369C1.58539 7.40711 1.43007 7.87565 1.30724 8.37483C0.772285 10.5481 0.827342 13.2577 1.38202 15.5387C1.48772 15.9725 1.61316 16.3888 1.75817 16.7855C1.87347 17.1056 2.16331 17.3188 2.48585 17.3203C2.80172 17.3203 2.95949 17.3216 3.26558 17.3218V18.1492C3.26558 19.2593 4.83235 19.2593 4.83235 18.1492V17.3235C5.4089 17.3244 5.85754 17.324 6.39773 17.3251V18.1492C6.39773 19.2593 7.96311 19.2593 7.96311 18.1492V17.3283C10.2485 17.3331 11.5299 17.3329 13.1829 17.3203V18.1492C13.1829 19.2593 14.7497 19.2593 14.7497 18.1492V17.3056C15.3282 17.2963 15.8123 17.2778 16.3151 17.2618V18.1492V18.1676C16.3151 18.6245 16.6684 19.0003 17.098 19.0003C17.5274 19.0003 17.8807 18.6245 17.8807 18.1676V18.1492V17.1903C18.4306 17.1574 18.9851 17.1263 19.446 17.0749V18.1493C19.446 18.6065 19.7995 18.9825 20.2294 18.9825C20.6592 18.9825 21.0128 18.6065 21.0128 18.1493V16.8211C22.0492 16.5909 22.838 16.2576 23.5262 15.7661C24.2145 15.2745 24.6768 14.6683 24.8545 13.991C25.032 13.3138 24.8966 12.6307 24.6237 12.0793C24.0779 10.9767 23.0539 10.2338 22.0403 9.87356C22.0195 9.86445 21.9987 9.85628 21.9776 9.84903C21.9776 9.84903 19.449 9.20589 17.1866 8.27715C14.9316 7.3516 9.06722 4.07334 9.06722 4.07334C8.97079 4.02745 8.86654 4.00271 8.7612 4.00048ZM9.34978 6.01619C9.57673 6.12394 10.3792 6.49939 10.8662 6.72996C10.4473 7.6527 9.97907 8.37299 9.48271 8.91621C8.39307 10.1089 7.18128 10.5462 6.01704 10.6538C4.55055 10.7896 3.23464 10.359 2.59888 10.1044C2.65041 9.64333 2.72169 9.20138 2.82075 8.79936C2.84486 8.70071 2.88103 8.62826 2.90758 8.53407C3.00542 8.58627 3.10588 8.66077 3.20284 8.70666C4.64227 9.38661 6.03381 9.37344 7.13168 8.8302C8.22937 8.2866 9.00893 7.24885 9.34521 6.04075C9.34731 6.03258 9.34751 6.02418 9.34978 6.01619ZM12.2955 7.40283C13.2516 7.85112 12.8327 8.7107 12.4841 9.45587C12.4219 9.57774 12.3894 9.71392 12.3894 9.85269C12.3894 10.3092 12.7426 10.6846 13.1719 10.6846C13.4769 10.6846 13.7553 10.4951 13.8829 10.2004L14.4944 8.90165C15.0598 9.15691 15.506 9.34882 15.9636 9.54518L15.615 10.285C15.5596 10.4013 15.5306 10.53 15.5306 10.6604C15.5306 11.1174 15.8844 11.4935 16.3144 11.4935C16.6094 11.4935 16.8806 11.3162 17.0135 11.0359L17.4355 10.1369C19.5209 10.9215 21.4804 11.4313 21.5432 11.4472C22.8146 11.771 23.8496 13.5284 22.653 14.3829C21.6652 15.0881 20.3494 15.426 17.2278 15.5696C14.2181 15.708 10.3929 15.653 3.05353 15.6493C3.0006 15.4728 2.94312 15.3084 2.89752 15.121C2.65153 14.1098 2.52329 12.9544 2.51386 11.826C3.36905 12.124 4.6549 12.4523 6.15512 12.3135C7.60958 12.179 9.23539 11.5678 10.6037 10.0702C11.2363 9.37801 11.806 8.48999 12.2955 7.40283Z" fill="#3E7BCF"/>
</g>
<defs>
<clipPath id="clip0_77_15805">
<rect width="24" height="24" fill="white" transform="translate(0.93457 0.000305176)"/>
</clipPath>
</defs>
</svg>
