<svg width="25" height="24" viewBox="0 0 25 24" fill="none" xmlns="http://www.w3.org/2000/svg">
<g clip-path="url(#clip0_77_15855)">
<path fill-rule="evenodd" clip-rule="evenodd" d="M8.7612 4C8.33963 3.99071 7.98271 4.34517 7.96312 4.79347C7.95089 5.06118 7.91053 5.32219 7.8424 5.56707C7.62174 6.36017 7.13606 6.98957 6.47269 7.31783C5.80933 7.64628 4.94331 7.7048 3.83878 7.18295C3.5472 7.04511 3.23969 6.8688 2.92017 6.64159C2.79141 6.55074 2.64046 6.50207 2.4862 6.50207C2.18605 6.50207 1.91139 6.68562 1.78106 6.9732C1.58539 7.40662 1.43007 7.87516 1.30724 8.37434C0.772285 10.5476 0.827342 13.2573 1.38202 15.5382C1.48772 15.972 1.61316 16.3883 1.75817 16.785C1.87347 17.1051 2.16331 17.3183 2.48585 17.3198C2.80172 17.3198 2.95949 17.3211 3.26558 17.3213V18.1487C3.26558 19.2588 4.83235 19.2588 4.83235 18.1487V17.323C5.4089 17.3239 5.85754 17.3235 6.39773 17.3246V18.1487C6.39773 19.2588 7.96311 19.2588 7.96311 18.1487V17.3278C10.2485 17.3326 11.5299 17.3324 13.1829 17.3198V18.1488C13.1829 19.2588 14.7497 19.2588 14.7497 18.1488V17.3051C15.3282 17.2959 15.8123 17.2773 16.3151 17.2613V18.1488V18.1671C16.3151 18.624 16.6684 18.9998 17.098 18.9998C17.5274 18.9998 17.8807 18.624 17.8807 18.1671V18.1488V17.1898C18.4306 17.1569 18.9851 17.1259 19.446 17.0744V18.1488C19.446 18.606 19.7995 18.982 20.2294 18.982C20.6592 18.982 21.0128 18.606 21.0128 18.1488V16.8206C22.0492 16.5904 22.838 16.2571 23.5262 15.7656C24.2145 15.274 24.6768 14.6678 24.8545 13.9905C25.032 13.3133 24.8966 12.6302 24.6237 12.0788C24.0779 10.9762 23.0539 10.2333 22.0403 9.87307C22.0195 9.86396 21.9987 9.85579 21.9776 9.84855C21.9776 9.84855 19.449 9.2054 17.1866 8.27666C14.9316 7.35111 9.06722 4.07285 9.06722 4.07285C8.97079 4.02696 8.86654 4.00223 8.7612 4ZM9.34978 6.0157C9.57673 6.12345 10.3792 6.4989 10.8662 6.72947C10.4473 7.65222 9.97907 8.3725 9.48271 8.91572C8.39307 10.1084 7.18128 10.5457 6.01704 10.6533C4.55055 10.7891 3.23464 10.3585 2.59888 10.1039C2.65041 9.64284 2.72169 9.20089 2.82075 8.79887C2.84486 8.70022 2.88103 8.62777 2.90758 8.53358C3.00542 8.58579 3.10588 8.66028 3.20284 8.70617C4.64227 9.38612 6.03381 9.37295 7.13168 8.82971C8.22937 8.28611 9.00893 7.24837 9.34521 6.04027C9.34731 6.03209 9.34751 6.02369 9.34978 6.0157ZM12.2955 7.40234C13.2516 7.85063 12.8327 8.71022 12.4841 9.45538C12.4219 9.57725 12.3894 9.71343 12.3894 9.85221C12.3894 10.3087 12.7426 10.6841 13.1719 10.6841C13.4769 10.6841 13.7553 10.4946 13.8829 10.2L14.4944 8.90116C15.0598 9.15642 15.506 9.34833 15.9636 9.54469L15.615 10.2845C15.5596 10.4008 15.5306 10.5295 15.5306 10.6599C15.5306 11.1169 15.8844 11.493 16.3144 11.493C16.6094 11.493 16.8806 11.3157 17.0135 11.0354L17.4355 10.1364C19.5209 10.921 21.4804 11.4308 21.5432 11.4467C22.8146 11.7705 23.8496 13.5279 22.653 14.3824C21.6652 15.0876 20.3494 15.4256 17.2278 15.5691C14.2181 15.7075 10.3929 15.6526 3.05353 15.6488C3.0006 15.4723 2.94312 15.3079 2.89752 15.1205C2.65153 14.1093 2.52329 12.9539 2.51386 11.8255C3.36905 12.1235 4.6549 12.4518 6.15512 12.313C7.60958 12.1785 9.23539 11.5673 10.6037 10.0698C11.2363 9.37753 11.806 8.4895 12.2955 7.40234Z" fill="#3E7BCF"/>
</g>
<defs>
<clipPath id="clip0_77_15855">
<rect width="24" height="24" fill="white" transform="translate(0.93457 -0.000183105)"/>
</clipPath>
</defs>
</svg>
