<svg width="25" height="24" viewBox="0 0 25 24" fill="none" xmlns="http://www.w3.org/2000/svg">
<path d="M12.9346 7.99988L16.7386 10.7639L12.9346 7.99988ZM12.9346 7.99988L9.13057 10.7639L12.9346 7.99988ZM12.9346 7.99988V4.99988V7.99988ZM16.7386 10.7639L15.2856 15.2359L16.7386 10.7639ZM16.7386 10.7639L19.4346 9.49988L16.7386 10.7639ZM15.2856 15.2359H10.5846H15.2856ZM15.2866 15.2359L16.9346 17.4999L15.2866 15.2359ZM10.5836 15.2359L9.13057 10.7639L10.5836 15.2359ZM10.5836 15.2359L8.93457 17.4999L10.5836 15.2359ZM9.13057 10.7639L6.43457 9.49988L9.13057 10.7639ZM6.43457 9.49988L2.98457 12.9999L6.43457 9.49988ZM6.43457 9.49988L5.43457 5.38488L6.43457 9.49988ZM19.4346 9.49988L22.8846 12.9999L19.4346 9.49988ZM19.4346 9.49988L20.4346 5.38488L19.4346 9.49988ZM12.9346 4.99988L9.55857 2.58388L12.9346 4.99988ZM12.9346 4.99988L16.3106 2.58388L12.9346 4.99988ZM8.93457 17.4999L4.27257 16.9999L8.93457 17.4999ZM8.93457 17.4999L11.4346 21.8879L8.93457 17.4999ZM16.9346 17.4999L21.5966 16.9999L16.9346 17.4999ZM16.9346 17.4999L14.4346 21.8879L16.9346 17.4999ZM22.9346 11.9999C22.9346 17.5229 18.4576 21.9999 12.9346 21.9999C7.41157 21.9999 2.93457 17.5229 2.93457 11.9999C2.93457 6.47688 7.41157 1.99988 12.9346 1.99988C18.4576 1.99988 22.9346 6.47688 22.9346 11.9999Z" stroke="#56B694" stroke-width="1.5" stroke-linecap="round" stroke-linejoin="round"/>
</svg>
