<svg width="25" height="25" viewBox="0 0 25 25" fill="none" xmlns="http://www.w3.org/2000/svg">
<path fill-rule="evenodd" clip-rule="evenodd" d="M3.71992 11.3459L5.60711 9.43136L5.09394 7.31964L10.5073 12.733L11.1294 14.6463H12.4206L13.9206 16.1463H10.966L9.82621 17.7102L11.9018 21.3533C12.2409 21.3909 12.5855 21.4103 12.9346 21.4103C13.2837 21.4103 13.6283 21.3909 13.9674 21.3533L15.8403 18.066L16.94 19.1657L15.947 20.9087C16.6017 20.6833 17.2231 20.3866 17.802 20.0277L18.8874 21.1131C17.1831 22.2485 15.1361 22.9103 12.9346 22.9103C6.99736 22.9103 2.18457 18.0975 2.18457 12.1603C2.18457 9.95872 2.84632 7.91177 3.98176 6.20747L5.06718 7.29289C4.32532 8.48948 3.84884 9.86788 3.71992 11.3459ZM16.618 13.7224L19.5239 16.6283L21.1287 16.4562C21.6156 15.5293 21.9499 14.5097 22.098 13.4307L19.2727 10.5645L17.3514 11.4653L16.618 13.7224ZM21.5228 18.6271L22.4649 19.5693C22.7578 19.8622 22.7578 20.3371 22.4649 20.6299C22.172 20.9228 21.6971 20.9228 21.4042 20.6299L4.46491 3.69061C4.17202 3.39771 4.17202 2.92284 4.46491 2.62995C4.7578 2.33705 5.23268 2.33705 5.52557 2.62995L6.46771 3.57209C7.32134 2.9283 8.27401 2.40884 9.29881 2.04062L9.31067 2.03637C10.4429 1.63105 11.6629 1.41028 12.9346 1.41028C14.2062 1.41028 15.4262 1.63105 16.5585 2.03636L16.5703 2.04063C18.285 2.65672 19.7977 3.69619 20.9825 5.03299C20.9919 5.04313 21.0011 5.05352 21.01 5.06414C22.6749 6.95735 23.6846 9.44087 23.6846 12.1603C23.6846 14.5879 22.8799 16.8276 21.5228 18.6271ZM7.54052 4.6449L11.3096 8.41394L12.1846 7.77815V5.54582L9.45016 3.58897C8.76941 3.86597 8.12909 4.22172 7.54052 4.6449ZM12.3834 9.48781L15.4276 12.532L15.8569 11.2107L12.9346 9.08736L12.3834 9.48781ZM11.2843 3.05704L12.9346 4.23801L14.5848 3.05704C14.0493 2.96062 13.4978 2.91028 12.9346 2.91028C12.3713 2.91028 11.8198 2.96062 11.2843 3.05704ZM16.419 3.58897L13.6846 5.54582V7.77815L16.8212 10.0572L18.7907 9.13382L19.611 5.75802C18.7184 4.82734 17.633 4.08295 16.419 3.58897ZM20.7874 7.26947L20.262 9.43135L22.1492 11.3459C22.0195 9.85823 21.5376 8.47149 20.7874 7.26947ZM9.92213 20.9087L8.47293 18.3651L5.8276 18.0814C6.89783 19.3646 8.30907 20.3534 9.92213 20.9087ZM4.74044 16.4562L8.58368 16.8683L9.75292 15.264L8.51784 11.4653L6.59639 10.5645L3.77109 13.4307C3.91928 14.5097 4.25354 15.5293 4.74044 16.4562Z" fill="#56B694"/>
</svg>
