<svg width="25" height="24" viewBox="0 0 25 24" fill="none" xmlns="http://www.w3.org/2000/svg">
<g clip-path="url(#clip0_77_17803)">
<path fill-rule="evenodd" clip-rule="evenodd" d="M8.7612 4.00042C8.33963 3.99113 7.98271 4.3456 7.96312 4.7939C7.95089 5.06161 7.91053 5.32262 7.8424 5.5675C7.62174 6.3606 7.13606 6.99 6.47269 7.31825C5.80933 7.64671 4.94331 7.70523 3.83878 7.18338C3.5472 7.04553 3.23969 6.86923 2.92017 6.64201C2.79141 6.55117 2.64046 6.50249 2.4862 6.50249C2.18605 6.50249 1.91139 6.68604 1.78106 6.97362C1.58539 7.40705 1.43007 7.87559 1.30724 8.37477C0.772285 10.548 0.827342 13.2577 1.38202 15.5386C1.48772 15.9724 1.61316 16.3887 1.75817 16.7854C1.87347 17.1055 2.16331 17.3188 2.48585 17.3202C2.80172 17.3202 2.95949 17.3215 3.26558 17.3217V18.1492C3.26558 19.2592 4.83235 19.2592 4.83235 18.1492V17.3234C5.4089 17.3243 5.85754 17.324 6.39773 17.3251V18.1492C6.39773 19.2592 7.96311 19.2592 7.96311 18.1492V17.3282C10.2485 17.333 11.5299 17.3329 13.1829 17.3202V18.1492C13.1829 19.2592 14.7497 19.2592 14.7497 18.1492V17.3056C15.3282 17.2963 15.8123 17.2777 16.3151 17.2617V18.1492V18.1676C16.3151 18.6244 16.6684 19.0002 17.098 19.0002C17.5274 19.0002 17.8807 18.6244 17.8807 18.1676V18.1492V17.1902C18.4306 17.1573 18.9851 17.1263 19.446 17.0748V18.1492C19.446 18.6064 19.7995 18.9824 20.2294 18.9824C20.6592 18.9824 21.0128 18.6064 21.0128 18.1492V16.8211C22.0492 16.5909 22.838 16.2576 23.5262 15.766C24.2145 15.2744 24.6768 14.6682 24.8545 13.9909C25.032 13.3137 24.8966 12.6306 24.6237 12.0792C24.0779 10.9766 23.0539 10.2337 22.0403 9.87349C22.0195 9.86439 21.9987 9.85622 21.9776 9.84897C21.9776 9.84897 19.449 9.20583 17.1866 8.27709C14.9316 7.35154 9.06722 4.07328 9.06722 4.07328C8.97079 4.02739 8.86654 4.00265 8.7612 4.00042ZM9.34978 6.01613C9.57673 6.12388 10.3792 6.49933 10.8662 6.7299C10.4473 7.65264 9.97907 8.37293 9.48271 8.91615C8.39307 10.1088 7.18128 10.5462 6.01704 10.6537C4.55055 10.7895 3.23464 10.3589 2.59888 10.1044C2.65041 9.64327 2.72169 9.20132 2.82075 8.7993C2.84486 8.70065 2.88103 8.62819 2.90758 8.53401C3.00542 8.58621 3.10588 8.66071 3.20284 8.7066C4.64227 9.38655 6.03381 9.37338 7.13168 8.83014C8.22937 8.28654 9.00893 7.24879 9.34521 6.04069C9.34731 6.03252 9.34751 6.02412 9.34978 6.01613ZM12.2955 7.40277C13.2516 7.85106 12.8327 8.71064 12.4841 9.45581C12.4219 9.57768 12.3894 9.71385 12.3894 9.85263C12.3894 10.3091 12.7426 10.6845 13.1719 10.6845C13.4769 10.6845 13.7553 10.495 13.8829 10.2004L14.4944 8.90159C15.0598 9.15685 15.506 9.34876 15.9636 9.54511L15.615 10.2849C15.5596 10.4012 15.5306 10.5299 15.5306 10.6604C15.5306 11.1174 15.8844 11.4934 16.3144 11.4934C16.6094 11.4934 16.8806 11.3162 17.0135 11.0358L17.4355 10.1369C19.5209 10.9214 21.4804 11.4312 21.5432 11.4472C22.8146 11.7709 23.8496 13.5283 22.653 14.3828C21.6652 15.088 20.3494 15.426 17.2278 15.5696C14.2181 15.708 10.3929 15.653 3.05353 15.6493C3.0006 15.4728 2.94312 15.3084 2.89752 15.1209C2.65153 14.1097 2.52329 12.9544 2.51386 11.826C3.36905 12.124 4.6549 12.4522 6.15512 12.3135C7.60958 12.179 9.23539 11.5677 10.6037 10.0702C11.2363 9.37795 11.806 8.48992 12.2955 7.40277Z" fill="#3E7BCF"/>
</g>
<defs>
<clipPath id="clip0_77_17803">
<rect width="24" height="24" fill="white" transform="translate(0.93457 0.000244141)"/>
</clipPath>
</defs>
</svg>
