<svg width="25" height="24" viewBox="0 0 25 24" fill="none" xmlns="http://www.w3.org/2000/svg">
<path fill-rule="evenodd" clip-rule="evenodd" d="M3.71992 11.1859L5.60711 9.27132L5.09394 7.15961L10.5073 12.573L11.1294 14.4862H12.4206L13.9206 15.9862H10.966L9.82621 17.5502L11.9018 21.1932C12.2409 21.2309 12.5855 21.2502 12.9346 21.2502C13.2837 21.2502 13.6283 21.2309 13.9674 21.1932L15.8403 17.9059L16.94 19.0057L15.947 20.7487C16.6017 20.5233 17.2231 20.2265 17.802 19.8676L18.8874 20.9531C17.1831 22.0885 15.1361 22.7502 12.9346 22.7502C6.99736 22.7502 2.18457 17.9375 2.18457 12.0002C2.18457 9.79868 2.84632 7.75173 3.98176 6.04743L5.06718 7.13285C4.32532 8.32945 3.84884 9.70785 3.71992 11.1859ZM16.618 13.5624L19.5239 16.4682L21.1287 16.2961C21.6156 15.3693 21.9499 14.3496 22.098 13.2707L19.2727 10.4045L17.3514 11.3053L16.618 13.5624ZM21.5228 18.4671L22.4649 19.4093C22.7578 19.7021 22.7578 20.177 22.4649 20.4699C22.172 20.7628 21.6971 20.7628 21.4042 20.4699L4.46491 3.53057C4.17202 3.23768 4.17202 2.76281 4.46491 2.46991C4.7578 2.17702 5.23268 2.17702 5.52557 2.46991L6.46771 3.41205C7.32134 2.76827 8.27401 2.24881 9.29881 1.88059L9.31067 1.87633C10.4429 1.47102 11.6629 1.25024 12.9346 1.25024C14.2062 1.25024 15.4262 1.47102 16.5585 1.87633L16.5703 1.88059C18.285 2.49668 19.7977 3.53616 20.9825 4.87296C20.9919 4.8831 21.0011 4.89348 21.01 4.9041C22.6749 6.79731 23.6846 9.28083 23.6846 12.0002C23.6846 14.4279 22.8799 16.6676 21.5228 18.4671ZM7.54052 4.48486L11.3096 8.2539L12.1846 7.61812V5.38578L9.45016 3.42893C8.76941 3.70594 8.12909 4.06168 7.54052 4.48486ZM12.3834 9.32778L15.4276 12.372L15.8569 11.0507L12.9346 8.92732L12.3834 9.32778ZM11.2843 2.89701L12.9346 4.07798L14.5848 2.89701C14.0493 2.80058 13.4978 2.75024 12.9346 2.75024C12.3713 2.75024 11.8198 2.80058 11.2843 2.89701ZM16.419 3.42893L13.6846 5.38578V7.61812L16.8212 9.89718L18.7907 8.97379L19.611 5.59798C18.7184 4.66731 17.633 3.92291 16.419 3.42893ZM20.7874 7.10944L20.262 9.27132L22.1492 11.1859C22.0195 9.6982 21.5376 8.31145 20.7874 7.10944ZM9.92213 20.7487L8.47293 18.205L5.8276 17.9213C6.89783 19.2045 8.30907 20.1934 9.92213 20.7487ZM4.74044 16.2961L8.58368 16.7083L9.75292 15.104L8.51784 11.3053L6.59639 10.4045L3.77109 13.2707C3.91928 14.3496 4.25354 15.3693 4.74044 16.2961Z" fill="#56B694"/>
</svg>
