<svg width="25" height="24" viewBox="0 0 25 24" fill="none" xmlns="http://www.w3.org/2000/svg">
<g clip-path="url(#clip0_77_15667)">
<path fill-rule="evenodd" clip-rule="evenodd" d="M8.7612 4.00018C8.33963 3.99089 7.98271 4.34535 7.96312 4.79366C7.95089 5.06136 7.91053 5.32237 7.8424 5.56726C7.62174 6.36036 7.13606 6.98976 6.47269 7.31801C5.80933 7.64646 4.94331 7.70499 3.83878 7.18314C3.5472 7.04529 3.23969 6.86898 2.92017 6.64177C2.79141 6.55092 2.64046 6.50225 2.4862 6.50225C2.18605 6.50225 1.91139 6.6858 1.78106 6.97338C1.58539 7.4068 1.43007 7.87534 1.30724 8.37453C0.772285 10.5477 0.827342 13.2574 1.38202 15.5384C1.48772 15.9722 1.61316 16.3885 1.75817 16.7851C1.87347 17.1052 2.16331 17.3185 2.48585 17.32C2.80172 17.32 2.95949 17.3213 3.26558 17.3215V18.1489C3.26558 19.259 4.83235 19.259 4.83235 18.1489V17.3232C5.4089 17.3241 5.85754 17.3237 6.39773 17.3248V18.1489C6.39773 19.259 7.96311 19.259 7.96311 18.1489V17.328C10.2485 17.3328 11.5299 17.3326 13.1829 17.32V18.1489C13.1829 19.259 14.7497 19.259 14.7497 18.1489V17.3053C15.3282 17.296 15.8123 17.2775 16.3151 17.2615V18.1489V18.1673C16.3151 18.6242 16.6684 19 17.098 19C17.5274 19 17.8807 18.6242 17.8807 18.1673V18.1489V17.19C18.4306 17.1571 18.9851 17.126 19.446 17.0746V18.1489C19.446 18.6062 19.7995 18.9822 20.2294 18.9822C20.6592 18.9822 21.0128 18.6062 21.0128 18.1489V16.8208C22.0492 16.5906 22.838 16.2573 23.5262 15.7658C24.2145 15.2742 24.6768 14.668 24.8545 13.9906C25.032 13.3135 24.8966 12.6304 24.6237 12.079C24.0779 10.9764 23.0539 10.2335 22.0403 9.87325C22.0195 9.86415 21.9987 9.85597 21.9776 9.84873C21.9776 9.84873 19.449 9.20558 17.1866 8.27685C14.9316 7.35129 9.06722 4.07303 9.06722 4.07303C8.97079 4.02714 8.86654 4.00241 8.7612 4.00018ZM9.34978 6.01588C9.57673 6.12363 10.3792 6.49909 10.8662 6.72965C10.4473 7.6524 9.97907 8.37269 9.48271 8.91591C8.39307 10.1086 7.18128 10.5459 6.01704 10.6535C4.55055 10.7893 3.23464 10.3587 2.59888 10.1041C2.65041 9.64303 2.72169 9.20107 2.82075 8.79905C2.84486 8.70041 2.88103 8.62795 2.90758 8.53376C3.00542 8.58597 3.10588 8.66047 3.20284 8.70635C4.64227 9.38631 6.03381 9.37313 7.13168 8.8299C8.22937 8.28629 9.00893 7.24855 9.34521 6.04045C9.34731 6.03227 9.34751 6.02387 9.34978 6.01588ZM12.2955 7.40252C13.2516 7.85082 12.8327 8.7104 12.4841 9.45556C12.4219 9.57743 12.3894 9.71361 12.3894 9.85239C12.3894 10.3088 12.7426 10.6843 13.1719 10.6843C13.4769 10.6843 13.7553 10.4948 13.8829 10.2001L14.4944 8.90134C15.0598 9.1566 15.506 9.34851 15.9636 9.54487L15.615 10.2847C15.5596 10.401 15.5306 10.5297 15.5306 10.6601C15.5306 11.1171 15.8844 11.4932 16.3144 11.4932C16.6094 11.4932 16.8806 11.3159 17.0135 11.0356L17.4355 10.1366C19.5209 10.9212 21.4804 11.4309 21.5432 11.4469C22.8146 11.7707 23.8496 13.5281 22.653 14.3826C21.6652 15.0878 20.3494 15.4257 17.2278 15.5693C14.2181 15.7077 10.3929 15.6527 3.05353 15.649C3.0006 15.4725 2.94312 15.3081 2.89752 15.1207C2.65153 14.1095 2.52329 12.9541 2.51386 11.8257C3.36905 12.1237 4.6549 12.452 6.15512 12.3132C7.60958 12.1787 9.23539 11.5675 10.6037 10.0699C11.2363 9.37771 11.806 8.48968 12.2955 7.40252Z" fill="#3E7BCF"/>
</g>
<defs>
<clipPath id="clip0_77_15667">
<rect width="24" height="24" fill="white" transform="translate(0.93457)"/>
</clipPath>
</defs>
</svg>
