<svg width="25" height="24" viewBox="0 0 25 24" fill="none" xmlns="http://www.w3.org/2000/svg">
<g clip-path="url(#clip0_77_15925)">
<path fill-rule="evenodd" clip-rule="evenodd" d="M8.7612 4.00006C8.33963 3.99077 7.98271 4.34523 7.96312 4.79354C7.95089 5.06124 7.91053 5.32225 7.8424 5.56714C7.62174 6.36023 7.13606 6.98963 6.47269 7.31789C5.80933 7.64634 4.94331 7.70486 3.83878 7.18301C3.5472 7.04517 3.23969 6.86886 2.92017 6.64165C2.79141 6.5508 2.64046 6.50213 2.4862 6.50213C2.18605 6.50213 1.91139 6.68568 1.78106 6.97326C1.58539 7.40668 1.43007 7.87522 1.30724 8.3744C0.772285 10.5476 0.827342 13.2573 1.38202 15.5383C1.48772 15.9721 1.61316 16.3884 1.75817 16.785C1.87347 17.1051 2.16331 17.3184 2.48585 17.3199C2.80172 17.3199 2.95949 17.3212 3.26558 17.3214V18.1488C3.26558 19.2588 4.83235 19.2588 4.83235 18.1488V17.323C5.4089 17.324 5.85754 17.3236 6.39773 17.3247V18.1488C6.39773 19.2588 7.96311 19.2588 7.96311 18.1488V17.3278C10.2485 17.3327 11.5299 17.3325 13.1829 17.3199V18.1488C13.1829 19.2588 14.7497 19.2588 14.7497 18.1488V17.3052C15.3282 17.2959 15.8123 17.2773 16.3151 17.2614V18.1488V18.1672C16.3151 18.624 16.6684 18.9999 17.098 18.9999C17.5274 18.9999 17.8807 18.6241 17.8807 18.1672V18.1488V17.1898C18.4306 17.1569 18.9851 17.1259 19.446 17.0745V18.1488C19.446 18.606 19.7995 18.9821 20.2294 18.9821C20.6592 18.9821 21.0128 18.6061 21.0128 18.1488V16.8207C22.0492 16.5905 22.838 16.2572 23.5262 15.7656C24.2145 15.2741 24.6768 14.6679 24.8545 13.9905C25.032 13.3134 24.8966 12.6302 24.6237 12.0789C24.0779 10.9763 23.0539 10.2333 22.0403 9.87313C22.0195 9.86403 21.9987 9.85585 21.9776 9.84861C21.9776 9.84861 19.449 9.20546 17.1866 8.27672C14.9316 7.35117 9.06722 4.07291 9.06722 4.07291C8.97079 4.02702 8.86654 4.00229 8.7612 4.00006ZM9.34978 6.01576C9.57673 6.12351 10.3792 6.49896 10.8662 6.72953C10.4473 7.65228 9.97907 8.37256 9.48271 8.91579C8.39307 10.1085 7.18128 10.5458 6.01704 10.6534C4.55055 10.7892 3.23464 10.3585 2.59888 10.104C2.65041 9.64291 2.72169 9.20095 2.82075 8.79893C2.84486 8.70029 2.88103 8.62783 2.90758 8.53364C3.00542 8.58585 3.10588 8.66034 3.20284 8.70623C4.64227 9.38618 6.03381 9.37301 7.13168 8.82977C8.22937 8.28617 9.00893 7.24843 9.34521 6.04033C9.34731 6.03215 9.34751 6.02375 9.34978 6.01576ZM12.2955 7.4024C13.2516 7.8507 12.8327 8.71028 12.4841 9.45544C12.4219 9.57731 12.3894 9.71349 12.3894 9.85227C12.3894 10.3087 12.7426 10.6842 13.1719 10.6842C13.4769 10.6842 13.7553 10.4947 13.8829 10.2L14.4944 8.90122C15.0598 9.15648 15.506 9.34839 15.9636 9.54475L15.615 10.2845C15.5596 10.4008 15.5306 10.5296 15.5306 10.66C15.5306 11.117 15.8844 11.493 16.3144 11.493C16.6094 11.493 16.8806 11.3158 17.0135 11.0355L17.4355 10.1365C19.5209 10.921 21.4804 11.4308 21.5432 11.4468C22.8146 11.7706 23.8496 13.528 22.653 14.3825C21.6652 15.0877 20.3494 15.4256 17.2278 15.5692C14.2181 15.7076 10.3929 15.6526 3.05353 15.6489C3.0006 15.4724 2.94312 15.308 2.89752 15.1206C2.65153 14.1094 2.52329 12.954 2.51386 11.8256C3.36905 12.1236 4.6549 12.4519 6.15512 12.3131C7.60958 12.1786 9.23539 11.5674 10.6037 10.0698C11.2363 9.37759 11.806 8.48956 12.2955 7.4024Z" fill="#3E7BCF"/>
</g>
<defs>
<clipPath id="clip0_77_15925">
<rect width="24" height="24" fill="white" transform="translate(0.93457 -0.00012207)"/>
</clipPath>
</defs>
</svg>
