<svg width="25" height="24" viewBox="0 0 25 24" fill="none" xmlns="http://www.w3.org/2000/svg">
<path d="M12.9346 8.00024L16.7386 10.7642L12.9346 8.00024ZM12.9346 8.00024L9.13057 10.7642L12.9346 8.00024ZM12.9346 8.00024V5.00024V8.00024ZM16.7386 10.7642L15.2856 15.2362L16.7386 10.7642ZM16.7386 10.7642L19.4346 9.50024L16.7386 10.7642ZM15.2856 15.2362H10.5846H15.2856ZM15.2866 15.2362L16.9346 17.5002L15.2866 15.2362ZM10.5836 15.2362L9.13057 10.7642L10.5836 15.2362ZM10.5836 15.2362L8.93457 17.5002L10.5836 15.2362ZM9.13057 10.7642L6.43457 9.50024L9.13057 10.7642ZM6.43457 9.50024L2.98457 13.0002L6.43457 9.50024ZM6.43457 9.50024L5.43457 5.38524L6.43457 9.50024ZM19.4346 9.50024L22.8846 13.0002L19.4346 9.50024ZM19.4346 9.50024L20.4346 5.38524L19.4346 9.50024ZM12.9346 5.00024L9.55857 2.58424L12.9346 5.00024ZM12.9346 5.00024L16.3106 2.58424L12.9346 5.00024ZM8.93457 17.5002L4.27257 17.0002L8.93457 17.5002ZM8.93457 17.5002L11.4346 21.8882L8.93457 17.5002ZM16.9346 17.5002L21.5966 17.0002L16.9346 17.5002ZM16.9346 17.5002L14.4346 21.8882L16.9346 17.5002ZM22.9346 12.0002C22.9346 17.5232 18.4576 22.0002 12.9346 22.0002C7.41157 22.0002 2.93457 17.5232 2.93457 12.0002C2.93457 6.47724 7.41157 2.00024 12.9346 2.00024C18.4576 2.00024 22.9346 6.47724 22.9346 12.0002Z" stroke="#56B694" stroke-width="1.5" stroke-linecap="round" stroke-linejoin="round"/>
</svg>
