<svg width="25" height="24" viewBox="0 0 25 24" fill="none" xmlns="http://www.w3.org/2000/svg">
<path fill-rule="evenodd" clip-rule="evenodd" d="M3.71992 11.1856L5.60711 9.27108L5.09394 7.15937L10.5073 12.5727L11.1294 14.486H12.4206L13.9206 15.986H10.966L9.82621 17.5499L11.9018 21.193C12.2409 21.2307 12.5855 21.25 12.9346 21.25C13.2837 21.25 13.6283 21.2307 13.9674 21.193L15.8403 17.9057L16.94 19.0055L15.947 20.7484C16.6017 20.5231 17.2231 20.2263 17.802 19.8674L18.8874 20.9528C17.1831 22.0883 15.1361 22.75 12.9346 22.75C6.99736 22.75 2.18457 17.9372 2.18457 12C2.18457 9.79844 2.84632 7.75149 3.98176 6.04719L5.06718 7.13261C4.32532 8.32921 3.84884 9.7076 3.71992 11.1856ZM16.618 13.5621L19.5239 16.468L21.1287 16.2959C21.6156 15.369 21.9499 14.3494 22.098 13.2705L19.2727 10.4042L17.3514 11.305L16.618 13.5621ZM21.5228 18.4669L22.4649 19.409C22.7578 19.7019 22.7578 20.1768 22.4649 20.4697C22.172 20.7626 21.6971 20.7626 21.4042 20.4697L4.46491 3.53033C4.17202 3.23744 4.17202 2.76256 4.46491 2.46967C4.7578 2.17678 5.23268 2.17678 5.52557 2.46967L6.46771 3.41181C7.32134 2.76802 8.27401 2.24856 9.29881 1.88034L9.31067 1.87609C10.4429 1.47078 11.6629 1.25 12.9346 1.25C14.2062 1.25 15.4262 1.47077 16.5585 1.87608L16.5703 1.88035C18.285 2.49644 19.7977 3.53592 20.9825 4.87272C20.9919 4.88285 21.0011 4.89324 21.01 4.90386C22.6749 6.79707 23.6846 9.28059 23.6846 12C23.6846 14.4277 22.8799 16.6673 21.5228 18.4669ZM7.54052 4.48462L11.3096 8.25366L12.1846 7.61787V5.38554L9.45016 3.42869C8.76941 3.70569 8.12909 4.06144 7.54052 4.48462ZM12.3834 9.32753L15.4276 12.3717L15.8569 11.0505L12.9346 8.92708L12.3834 9.32753ZM11.2843 2.89676L12.9346 4.07773L14.5848 2.89676C14.0493 2.80034 13.4978 2.75 12.9346 2.75C12.3713 2.75 11.8198 2.80034 11.2843 2.89676ZM16.419 3.42869L13.6846 5.38554V7.61787L16.8212 9.89694L18.7907 8.97355L19.611 5.59774C18.7184 4.66706 17.633 3.92267 16.419 3.42869ZM20.7874 7.1092L20.262 9.27108L22.1492 11.1856C22.0195 9.69795 21.5376 8.31121 20.7874 7.1092ZM9.92213 20.7484L8.47293 18.2048L5.8276 17.9211C6.89783 19.2043 8.30907 20.1931 9.92213 20.7484ZM4.74044 16.2959L8.58368 16.7081L9.75292 15.1037L8.51784 11.3051L6.59639 10.4042L3.77109 13.2705C3.91928 14.3494 4.25354 15.369 4.74044 16.2959Z" fill="#56B694"/>
</svg>
