<svg width="25" height="24" viewBox="0 0 25 24" fill="none" xmlns="http://www.w3.org/2000/svg">
<path fill-rule="evenodd" clip-rule="evenodd" d="M3.71992 11.1857L5.60711 9.27114L5.09394 7.15943L10.5073 12.5728L11.1294 14.4861H12.4206L13.9206 15.9861H10.966L9.82621 17.55L11.9018 21.1931C12.2409 21.2307 12.5855 21.2501 12.9346 21.2501C13.2837 21.2501 13.6283 21.2307 13.9674 21.1931L15.8403 17.9057L16.94 19.0055L15.947 20.7485C16.6017 20.5231 17.2231 20.2263 17.802 19.8675L18.8874 20.9529C17.1831 22.0883 15.1361 22.7501 12.9346 22.7501C6.99736 22.7501 2.18457 17.9373 2.18457 12.0001C2.18457 9.7985 2.84632 7.75155 3.98176 6.04725L5.06718 7.13267C4.32532 8.32927 3.84884 9.70766 3.71992 11.1857ZM16.618 13.5622L19.5239 16.4681L21.1287 16.2959C21.6156 15.3691 21.9499 14.3495 22.098 13.2705L19.2727 10.4043L17.3514 11.3051L16.618 13.5622ZM21.5228 18.4669L22.4649 19.4091C22.7578 19.702 22.7578 20.1768 22.4649 20.4697C22.172 20.7626 21.6971 20.7626 21.4042 20.4697L4.46491 3.53039C4.17202 3.2375 4.17202 2.76262 4.46491 2.46973C4.7578 2.17684 5.23268 2.17684 5.52557 2.46973L6.46771 3.41187C7.32134 2.76808 8.27401 2.24862 9.29881 1.8804L9.31067 1.87615C10.4429 1.47084 11.6629 1.25006 12.9346 1.25006C14.2062 1.25006 15.4262 1.47083 16.5585 1.87614L16.5703 1.88041C18.285 2.4965 19.7977 3.53598 20.9825 4.87278C20.9919 4.88291 21.0011 4.8933 21.01 4.90392C22.6749 6.79713 23.6846 9.28065 23.6846 12.0001C23.6846 14.4277 22.8799 16.6674 21.5228 18.4669ZM7.54052 4.48468L11.3096 8.25372L12.1846 7.61794V5.3856L9.45016 3.42875C8.76941 3.70575 8.12909 4.0615 7.54052 4.48468ZM12.3834 9.3276L15.4276 12.3718L15.8569 11.0505L12.9346 8.92714L12.3834 9.3276ZM11.2843 2.89682L12.9346 4.07779L14.5848 2.89682C14.0493 2.8004 13.4978 2.75006 12.9346 2.75006C12.3713 2.75006 11.8198 2.8004 11.2843 2.89682ZM16.419 3.42875L13.6846 5.3856V7.61794L16.8212 9.897L18.7907 8.97361L19.611 5.5978C18.7184 4.66712 17.633 3.92273 16.419 3.42875ZM20.7874 7.10926L20.262 9.27114L22.1492 11.1857C22.0195 9.69801 21.5376 8.31127 20.7874 7.10926ZM9.92213 20.7485L8.47293 18.2049L5.8276 17.9211C6.89783 19.2043 8.30907 20.1932 9.92213 20.7485ZM4.74044 16.2959L8.58368 16.7081L9.75292 15.1038L8.51784 11.3051L6.59639 10.4043L3.77109 13.2705C3.91928 14.3495 4.25354 15.3691 4.74044 16.2959Z" fill="#56B694"/>
</svg>
