<svg width="25" height="24" viewBox="0 0 25 24" fill="none" xmlns="http://www.w3.org/2000/svg">
<path d="M10.9346 3.00025C10.6512 3.00025 10.4136 2.90425 10.2216 2.71225C10.0296 2.52025 9.93391 2.28291 9.93457 2.00025C9.93457 1.71691 10.0306 1.47925 10.2226 1.28725C10.4146 1.09525 10.6519 0.999581 10.9346 1.00025H14.9346C15.2179 1.00025 15.4556 1.09625 15.6476 1.28825C15.8396 1.48025 15.9352 1.71758 15.9346 2.00025C15.9346 2.28358 15.8386 2.52125 15.6466 2.71325C15.4546 2.90525 15.2172 3.00091 14.9346 3.00025H10.9346ZM12.9346 14.0002C13.2179 14.0002 13.4556 13.9042 13.6476 13.7122C13.8396 13.5202 13.9352 13.2829 13.9346 13.0002V9.00025C13.9346 8.71691 13.8386 8.47925 13.6466 8.28725C13.4546 8.09525 13.2172 7.99958 12.9346 8.00025C12.6512 8.00025 12.4136 8.09625 12.2216 8.28825C12.0296 8.48025 11.9339 8.71758 11.9346 9.00025V13.0002C11.9346 13.2836 12.0306 13.5212 12.2226 13.7132C12.4146 13.9052 12.6519 14.0009 12.9346 14.0002ZM12.9346 22.0002C11.7012 22.0002 10.5386 21.7626 9.44657 21.2872C8.35457 20.8119 7.40057 20.1662 6.58457 19.3502C5.76791 18.5336 5.1219 17.5792 4.64657 16.4872C4.17124 15.3952 3.93391 14.2329 3.93457 13.0002C3.93457 11.7669 4.17224 10.6042 4.64757 9.51225C5.12291 8.42025 5.76857 7.46625 6.58457 6.65025C7.40124 5.83358 8.35557 5.18758 9.44757 4.71225C10.5396 4.23691 11.7019 3.99958 12.9346 4.00025C13.9679 4.00025 14.9596 4.16691 15.9096 4.50025C16.8596 4.83358 17.7512 5.31691 18.5846 5.95025L19.3096 5.22525C19.4929 5.04191 19.7179 4.95025 19.9846 4.95025C20.2512 4.95025 20.4846 5.05025 20.6846 5.25025C20.8679 5.43358 20.9596 5.66691 20.9596 5.95025C20.9596 6.23358 20.8679 6.46691 20.6846 6.65025L19.9846 7.35025C20.6179 8.18358 21.1012 9.07525 21.4346 10.0252C21.7679 10.9752 21.9346 11.9669 21.9346 13.0002C21.9346 14.2336 21.6969 15.3962 21.2216 16.4882C20.7462 17.5802 20.1006 18.5342 19.2846 19.3502C18.4679 20.1669 17.5136 20.8129 16.4216 21.2882C15.3296 21.7636 14.1672 22.0009 12.9346 22.0002ZM12.9346 20.0002C14.8679 20.0002 16.5179 19.3169 17.8846 17.9502C19.2512 16.5836 19.9346 14.9336 19.9346 13.0002C19.9346 11.0669 19.2512 9.41691 17.8846 8.05025C16.5179 6.68358 14.8679 6.00025 12.9346 6.00025C11.0012 6.00025 9.35124 6.68358 7.98457 8.05025C6.61791 9.41691 5.93457 11.0669 5.93457 13.0002C5.93457 14.9336 6.61791 16.5836 7.98457 17.9502C9.35124 19.3169 11.0012 20.0002 12.9346 20.0002Z" fill="#00C8BC"/>
</svg>
