<svg width="25" height="24" viewBox="0 0 25 24" fill="none" xmlns="http://www.w3.org/2000/svg">
<path d="M10.9346 3.00031C10.6512 3.00031 10.4136 2.90431 10.2216 2.71231C10.0296 2.52031 9.93391 2.28298 9.93457 2.00031C9.93457 1.71698 10.0306 1.47931 10.2226 1.28731C10.4146 1.09531 10.6519 0.999642 10.9346 1.00031H14.9346C15.2179 1.00031 15.4556 1.09631 15.6476 1.28831C15.8396 1.48031 15.9352 1.71764 15.9346 2.00031C15.9346 2.28364 15.8386 2.52131 15.6466 2.71331C15.4546 2.90531 15.2172 3.00098 14.9346 3.00031H10.9346ZM12.9346 14.0003C13.2179 14.0003 13.4556 13.9043 13.6476 13.7123C13.8396 13.5203 13.9352 13.283 13.9346 13.0003V9.00031C13.9346 8.71698 13.8386 8.47931 13.6466 8.28731C13.4546 8.09531 13.2172 7.99964 12.9346 8.00031C12.6512 8.00031 12.4136 8.09631 12.2216 8.28831C12.0296 8.48031 11.9339 8.71764 11.9346 9.00031V13.0003C11.9346 13.2836 12.0306 13.5213 12.2226 13.7133C12.4146 13.9053 12.6519 14.001 12.9346 14.0003ZM12.9346 22.0003C11.7012 22.0003 10.5386 21.7626 9.44657 21.2873C8.35457 20.812 7.40057 20.1663 6.58457 19.3503C5.76791 18.5336 5.1219 17.5793 4.64657 16.4873C4.17124 15.3953 3.93391 14.233 3.93457 13.0003C3.93457 11.767 4.17224 10.6043 4.64757 9.51231C5.12291 8.42031 5.76857 7.46631 6.58457 6.65031C7.40124 5.83364 8.35557 5.18764 9.44757 4.71231C10.5396 4.23698 11.7019 3.99964 12.9346 4.00031C13.9679 4.00031 14.9596 4.16698 15.9096 4.50031C16.8596 4.83364 17.7512 5.31697 18.5846 5.95031L19.3096 5.22531C19.4929 5.04198 19.7179 4.95031 19.9846 4.95031C20.2512 4.95031 20.4846 5.05031 20.6846 5.25031C20.8679 5.43364 20.9596 5.66697 20.9596 5.95031C20.9596 6.23364 20.8679 6.46698 20.6846 6.65031L19.9846 7.35031C20.6179 8.18364 21.1012 9.07531 21.4346 10.0253C21.7679 10.9753 21.9346 11.967 21.9346 13.0003C21.9346 14.2336 21.6969 15.3963 21.2216 16.4883C20.7462 17.5803 20.1006 18.5343 19.2846 19.3503C18.4679 20.167 17.5136 20.813 16.4216 21.2883C15.3296 21.7636 14.1672 22.001 12.9346 22.0003ZM12.9346 20.0003C14.8679 20.0003 16.5179 19.317 17.8846 17.9503C19.2512 16.5836 19.9346 14.9336 19.9346 13.0003C19.9346 11.067 19.2512 9.41698 17.8846 8.05031C16.5179 6.68364 14.8679 6.00031 12.9346 6.00031C11.0012 6.00031 9.35124 6.68364 7.98457 8.05031C6.61791 9.41698 5.93457 11.067 5.93457 13.0003C5.93457 14.9336 6.61791 16.5836 7.98457 17.9503C9.35124 19.317 11.0012 20.0003 12.9346 20.0003Z" fill="#00C8BC"/>
</svg>
