<svg width="25" height="24" viewBox="0 0 25 24" fill="none" xmlns="http://www.w3.org/2000/svg">
<path d="M10.9346 3C10.6512 3 10.4136 2.904 10.2216 2.712C10.0296 2.52 9.93391 2.28267 9.93457 2C9.93457 1.71667 10.0306 1.479 10.2226 1.287C10.4146 1.095 10.6519 0.999337 10.9346 1H14.9346C15.2179 1 15.4556 1.096 15.6476 1.288C15.8396 1.48 15.9352 1.71734 15.9346 2C15.9346 2.28334 15.8386 2.521 15.6466 2.713C15.4546 2.905 15.2172 3.00067 14.9346 3H10.9346ZM12.9346 14C13.2179 14 13.4556 13.904 13.6476 13.712C13.8396 13.52 13.9352 13.2827 13.9346 13V9C13.9346 8.71667 13.8386 8.479 13.6466 8.287C13.4546 8.095 13.2172 7.99934 12.9346 8C12.6512 8 12.4136 8.096 12.2216 8.288C12.0296 8.48 11.9339 8.71734 11.9346 9V13C11.9346 13.2833 12.0306 13.521 12.2226 13.713C12.4146 13.905 12.6519 14.0007 12.9346 14ZM12.9346 22C11.7012 22 10.5386 21.7623 9.44657 21.287C8.35457 20.8117 7.40057 20.166 6.58457 19.35C5.76791 18.5333 5.1219 17.579 4.64657 16.487C4.17124 15.395 3.93391 14.2327 3.93457 13C3.93457 11.7667 4.17224 10.604 4.64757 9.512C5.12291 8.42 5.76857 7.466 6.58457 6.65C7.40124 5.83334 8.35557 5.18734 9.44757 4.712C10.5396 4.23667 11.7019 3.99934 12.9346 4C13.9679 4 14.9596 4.16667 15.9096 4.5C16.8596 4.83334 17.7512 5.31667 18.5846 5.95L19.3096 5.225C19.4929 5.04167 19.7179 4.95 19.9846 4.95C20.2512 4.95 20.4846 5.05 20.6846 5.25C20.8679 5.43334 20.9596 5.66667 20.9596 5.95C20.9596 6.23334 20.8679 6.46667 20.6846 6.65L19.9846 7.35C20.6179 8.18334 21.1012 9.075 21.4346 10.025C21.7679 10.975 21.9346 11.9667 21.9346 13C21.9346 14.2333 21.6969 15.396 21.2216 16.488C20.7462 17.58 20.1006 18.534 19.2846 19.35C18.4679 20.1667 17.5136 20.8127 16.4216 21.288C15.3296 21.7633 14.1672 22.0007 12.9346 22ZM12.9346 20C14.8679 20 16.5179 19.3167 17.8846 17.95C19.2512 16.5833 19.9346 14.9333 19.9346 13C19.9346 11.0667 19.2512 9.41667 17.8846 8.05C16.5179 6.68334 14.8679 6 12.9346 6C11.0012 6 9.35124 6.68334 7.98457 8.05C6.61791 9.41667 5.93457 11.0667 5.93457 13C5.93457 14.9333 6.61791 16.5833 7.98457 17.95C9.35124 19.3167 11.0012 20 12.9346 20Z" fill="#00C8BC"/>
</svg>
