<svg width="25" height="24" viewBox="0 0 25 24" fill="none" xmlns="http://www.w3.org/2000/svg">
<path d="M10.9346 2.99991C10.6512 2.99991 10.4136 2.90391 10.2216 2.71191C10.0296 2.51991 9.93391 2.28258 9.93457 1.99991C9.93457 1.71658 10.0306 1.47891 10.2226 1.28691C10.4146 1.09491 10.6519 0.999245 10.9346 0.999912H14.9346C15.2179 0.999912 15.4556 1.09591 15.6476 1.28791C15.8396 1.47991 15.9352 1.71725 15.9346 1.99991C15.9346 2.28325 15.8386 2.52091 15.6466 2.71291C15.4546 2.90491 15.2172 3.00058 14.9346 2.99991H10.9346ZM12.9346 13.9999C13.2179 13.9999 13.4556 13.9039 13.6476 13.7119C13.8396 13.5199 13.9352 13.2826 13.9346 12.9999V8.99991C13.9346 8.71658 13.8386 8.47891 13.6466 8.28691C13.4546 8.09491 13.2172 7.99925 12.9346 7.99991C12.6512 7.99991 12.4136 8.09591 12.2216 8.28791C12.0296 8.47991 11.9339 8.71725 11.9346 8.99991V12.9999C11.9346 13.2832 12.0306 13.5209 12.2226 13.7129C12.4146 13.9049 12.6519 14.0006 12.9346 13.9999ZM12.9346 21.9999C11.7012 21.9999 10.5386 21.7622 9.44657 21.2869C8.35457 20.8116 7.40057 20.1659 6.58457 19.3499C5.76791 18.5332 5.1219 17.5789 4.64657 16.4869C4.17124 15.3949 3.93391 14.2326 3.93457 12.9999C3.93457 11.7666 4.17224 10.6039 4.64757 9.51191C5.12291 8.41991 5.76857 7.46591 6.58457 6.64991C7.40124 5.83325 8.35557 5.18725 9.44757 4.71191C10.5396 4.23658 11.7019 3.99925 12.9346 3.99991C13.9679 3.99991 14.9596 4.16658 15.9096 4.49991C16.8596 4.83325 17.7512 5.31658 18.5846 5.94991L19.3096 5.22491C19.4929 5.04158 19.7179 4.94991 19.9846 4.94991C20.2512 4.94991 20.4846 5.04991 20.6846 5.24991C20.8679 5.43325 20.9596 5.66658 20.9596 5.94991C20.9596 6.23324 20.8679 6.46658 20.6846 6.64991L19.9846 7.34991C20.6179 8.18325 21.1012 9.07491 21.4346 10.0249C21.7679 10.9749 21.9346 11.9666 21.9346 12.9999C21.9346 14.2332 21.6969 15.3959 21.2216 16.4879C20.7462 17.5799 20.1006 18.5339 19.2846 19.3499C18.4679 20.1666 17.5136 20.8126 16.4216 21.2879C15.3296 21.7632 14.1672 22.0006 12.9346 21.9999ZM12.9346 19.9999C14.8679 19.9999 16.5179 19.3166 17.8846 17.9499C19.2512 16.5832 19.9346 14.9332 19.9346 12.9999C19.9346 11.0666 19.2512 9.41658 17.8846 8.04991C16.5179 6.68325 14.8679 5.99991 12.9346 5.99991C11.0012 5.99991 9.35124 6.68325 7.98457 8.04991C6.61791 9.41658 5.93457 11.0666 5.93457 12.9999C5.93457 14.9332 6.61791 16.5832 7.98457 17.9499C9.35124 19.3166 11.0012 19.9999 12.9346 19.9999Z" fill="#00C8BC"/>
</svg>
