<svg width="20" height="20" viewBox="0 0 20 20" fill="none" xmlns="http://www.w3.org/2000/svg">
<path d="M6.7915 18.125L5.58317 16.0833L3.2915 15.5833C3.08317 15.5417 2.9165 15.4339 2.7915 15.26C2.6665 15.0861 2.61789 14.8953 2.64567 14.6875L2.87484 12.3333L1.31234 10.5417C1.17345 10.3889 1.104 10.2083 1.104 10C1.104 9.79167 1.17345 9.61111 1.31234 9.45833L2.87484 7.66667L2.64567 5.3125C2.61789 5.10417 2.6665 4.91306 2.7915 4.73917C2.9165 4.56528 3.08317 4.45778 3.2915 4.41667L5.58317 3.91667L6.7915 1.875C6.90261 1.69445 7.05539 1.57278 7.24984 1.51C7.44428 1.44722 7.63873 1.45778 7.83317 1.54167L9.99984 2.45834L12.1665 1.54167C12.3609 1.45834 12.5554 1.44778 12.7498 1.51C12.9443 1.57222 13.0971 1.69389 13.2082 1.875L14.4165 3.91667L16.7082 4.41667C16.9165 4.45834 17.0832 4.56611 17.2082 4.74C17.3332 4.91389 17.3818 5.10472 17.354 5.3125L17.1248 7.66667L18.6873 9.45833C18.8262 9.61111 18.8957 9.79167 18.8957 10C18.8957 10.2083 18.8262 10.3889 18.6873 10.5417L17.1248 12.3333L17.354 14.6875C17.3818 14.8958 17.3332 15.0869 17.2082 15.2608C17.0832 15.4347 16.9165 15.5422 16.7082 15.5833L14.4165 16.0833L13.2082 18.125C13.0971 18.3056 12.9443 18.4272 12.7498 18.49C12.5554 18.5528 12.3609 18.5422 12.1665 18.4583L9.99984 17.5417L7.83317 18.4583C7.63873 18.5417 7.44428 18.5522 7.24984 18.49C7.05539 18.4278 6.90261 18.3061 6.7915 18.125ZM9.12484 10.5833L7.9165 9.39583C7.76373 9.24306 7.57261 9.16667 7.34317 9.16667C7.11373 9.16667 6.91595 9.25 6.74984 9.41667C6.59706 9.56945 6.52067 9.76389 6.52067 10C6.52067 10.2361 6.59706 10.4306 6.74984 10.5833L8.5415 12.375C8.70817 12.5417 8.90261 12.625 9.12484 12.625C9.34706 12.625 9.5415 12.5417 9.70817 12.375L13.2498 8.83334C13.4165 8.66667 13.4962 8.47222 13.489 8.25C13.4818 8.02778 13.4021 7.83333 13.2498 7.66667C13.0832 7.5 12.8851 7.41333 12.6557 7.40667C12.4262 7.4 12.2284 7.47972 12.0623 7.64583L9.12484 10.5833Z" fill="#267FE1"/>
</svg>
