<svg width="25" height="24" viewBox="0 0 25 24" fill="none" xmlns="http://www.w3.org/2000/svg">
<path d="M10.9346 2.99982C10.6512 2.99982 10.4136 2.90382 10.2216 2.71182C10.0296 2.51982 9.93391 2.28249 9.93457 1.99982C9.93457 1.71649 10.0306 1.47882 10.2226 1.28682C10.4146 1.09482 10.6519 0.999154 10.9346 0.99982H14.9346C15.2179 0.99982 15.4556 1.09582 15.6476 1.28782C15.8396 1.47982 15.9352 1.71715 15.9346 1.99982C15.9346 2.28315 15.8386 2.52082 15.6466 2.71282C15.4546 2.90482 15.2172 3.00049 14.9346 2.99982H10.9346ZM12.9346 13.9998C13.2179 13.9998 13.4556 13.9038 13.6476 13.7118C13.8396 13.5198 13.9352 13.2825 13.9346 12.9998V8.99982C13.9346 8.71649 13.8386 8.47882 13.6466 8.28682C13.4546 8.09482 13.2172 7.99915 12.9346 7.99982C12.6512 7.99982 12.4136 8.09582 12.2216 8.28782C12.0296 8.47982 11.9339 8.71715 11.9346 8.99982V12.9998C11.9346 13.2832 12.0306 13.5208 12.2226 13.7128C12.4146 13.9048 12.6519 14.0005 12.9346 13.9998ZM12.9346 21.9998C11.7012 21.9998 10.5386 21.7622 9.44657 21.2868C8.35457 20.8115 7.40057 20.1658 6.58457 19.3498C5.76791 18.5332 5.1219 17.5788 4.64657 16.4868C4.17124 15.3948 3.93391 14.2325 3.93457 12.9998C3.93457 11.7665 4.17224 10.6038 4.64757 9.51182C5.12291 8.41982 5.76857 7.46582 6.58457 6.64982C7.40124 5.83315 8.35557 5.18715 9.44757 4.71182C10.5396 4.23649 11.7019 3.99915 12.9346 3.99982C13.9679 3.99982 14.9596 4.16649 15.9096 4.49982C16.8596 4.83315 17.7512 5.31649 18.5846 5.94982L19.3096 5.22482C19.4929 5.04149 19.7179 4.94982 19.9846 4.94982C20.2512 4.94982 20.4846 5.04982 20.6846 5.24982C20.8679 5.43315 20.9596 5.66649 20.9596 5.94982C20.9596 6.23315 20.8679 6.46649 20.6846 6.64982L19.9846 7.34982C20.6179 8.18315 21.1012 9.07482 21.4346 10.0248C21.7679 10.9748 21.9346 11.9665 21.9346 12.9998C21.9346 14.2332 21.6969 15.3958 21.2216 16.4878C20.7462 17.5798 20.1006 18.5338 19.2846 19.3498C18.4679 20.1665 17.5136 20.8125 16.4216 21.2878C15.3296 21.7632 14.1672 22.0005 12.9346 21.9998ZM12.9346 19.9998C14.8679 19.9998 16.5179 19.3165 17.8846 17.9498C19.2512 16.5832 19.9346 14.9332 19.9346 12.9998C19.9346 11.0665 19.2512 9.41649 17.8846 8.04982C16.5179 6.68315 14.8679 5.99982 12.9346 5.99982C11.0012 5.99982 9.35124 6.68315 7.98457 8.04982C6.61791 9.41649 5.93457 11.0665 5.93457 12.9998C5.93457 14.9332 6.61791 16.5832 7.98457 17.9498C9.35124 19.3165 11.0012 19.9998 12.9346 19.9998Z" fill="#00C8BC"/>
</svg>
