<svg width="25" height="24" viewBox="0 0 25 24" fill="none" xmlns="http://www.w3.org/2000/svg">
<path d="M10.9346 2.99988C10.6512 2.99988 10.4136 2.90388 10.2216 2.71188C10.0296 2.51988 9.93391 2.28255 9.93457 1.99988C9.93457 1.71655 10.0306 1.47888 10.2226 1.28688C10.4146 1.09488 10.6519 0.999215 10.9346 0.999881H14.9346C15.2179 0.999881 15.4556 1.09588 15.6476 1.28788C15.8396 1.47988 15.9352 1.71721 15.9346 1.99988C15.9346 2.28321 15.8386 2.52088 15.6466 2.71288C15.4546 2.90488 15.2172 3.00055 14.9346 2.99988H10.9346ZM12.9346 13.9999C13.2179 13.9999 13.4556 13.9039 13.6476 13.7119C13.8396 13.5199 13.9352 13.2825 13.9346 12.9999V8.99988C13.9346 8.71655 13.8386 8.47888 13.6466 8.28688C13.4546 8.09488 13.2172 7.99921 12.9346 7.99988C12.6512 7.99988 12.4136 8.09588 12.2216 8.28788C12.0296 8.47988 11.9339 8.71722 11.9346 8.99988V12.9999C11.9346 13.2832 12.0306 13.5209 12.2226 13.7129C12.4146 13.9049 12.6519 14.0005 12.9346 13.9999ZM12.9346 21.9999C11.7012 21.9999 10.5386 21.7622 9.44657 21.2869C8.35457 20.8115 7.40057 20.1659 6.58457 19.3499C5.76791 18.5332 5.1219 17.5789 4.64657 16.4869C4.17124 15.3949 3.93391 14.2325 3.93457 12.9999C3.93457 11.7665 4.17224 10.6039 4.64757 9.51188C5.12291 8.41988 5.76857 7.46588 6.58457 6.64988C7.40124 5.83321 8.35557 5.18721 9.44757 4.71188C10.5396 4.23655 11.7019 3.99921 12.9346 3.99988C13.9679 3.99988 14.9596 4.16655 15.9096 4.49988C16.8596 4.83321 17.7512 5.31655 18.5846 5.94988L19.3096 5.22488C19.4929 5.04155 19.7179 4.94988 19.9846 4.94988C20.2512 4.94988 20.4846 5.04988 20.6846 5.24988C20.8679 5.43321 20.9596 5.66655 20.9596 5.94988C20.9596 6.23321 20.8679 6.46655 20.6846 6.64988L19.9846 7.34988C20.6179 8.18321 21.1012 9.07488 21.4346 10.0249C21.7679 10.9749 21.9346 11.9665 21.9346 12.9999C21.9346 14.2332 21.6969 15.3959 21.2216 16.4879C20.7462 17.5799 20.1006 18.5339 19.2846 19.3499C18.4679 20.1665 17.5136 20.8125 16.4216 21.2879C15.3296 21.7632 14.1672 22.0005 12.9346 21.9999ZM12.9346 19.9999C14.8679 19.9999 16.5179 19.3165 17.8846 17.9499C19.2512 16.5832 19.9346 14.9332 19.9346 12.9999C19.9346 11.0665 19.2512 9.41655 17.8846 8.04988C16.5179 6.68321 14.8679 5.99988 12.9346 5.99988C11.0012 5.99988 9.35124 6.68321 7.98457 8.04988C6.61791 9.41655 5.93457 11.0665 5.93457 12.9999C5.93457 14.9332 6.61791 16.5832 7.98457 17.9499C9.35124 19.3165 11.0012 19.9999 12.9346 19.9999Z" fill="#00C8BC"/>
</svg>
