<svg width="25" height="25" viewBox="0 0 25 25" fill="none" xmlns="http://www.w3.org/2000/svg">
<path d="M10.9346 3.16028C10.6512 3.16028 10.4136 3.06428 10.2216 2.87228C10.0296 2.68028 9.93391 2.44295 9.93457 2.16028C9.93457 1.87695 10.0306 1.63928 10.2226 1.44728C10.4146 1.25528 10.6519 1.15962 10.9346 1.16028H14.9346C15.2179 1.16028 15.4556 1.25628 15.6476 1.44828C15.8396 1.64028 15.9352 1.87762 15.9346 2.16028C15.9346 2.44362 15.8386 2.68128 15.6466 2.87328C15.4546 3.06528 15.2172 3.16095 14.9346 3.16028H10.9346ZM12.9346 14.1603C13.2179 14.1603 13.4556 14.0643 13.6476 13.8723C13.8396 13.6803 13.9352 13.4429 13.9346 13.1603V9.16028C13.9346 8.87695 13.8386 8.63928 13.6466 8.44728C13.4546 8.25528 13.2172 8.15961 12.9346 8.16028C12.6512 8.16028 12.4136 8.25628 12.2216 8.44828C12.0296 8.64028 11.9339 8.87762 11.9346 9.16028V13.1603C11.9346 13.4436 12.0306 13.6813 12.2226 13.8733C12.4146 14.0653 12.6519 14.1609 12.9346 14.1603ZM12.9346 22.1603C11.7012 22.1603 10.5386 21.9226 9.44657 21.4473C8.35457 20.9719 7.40057 20.3263 6.58457 19.5103C5.76791 18.6936 5.1219 17.7393 4.64657 16.6473C4.17124 15.5553 3.93391 14.3929 3.93457 13.1603C3.93457 11.9269 4.17224 10.7643 4.64757 9.67228C5.12291 8.58028 5.76857 7.62628 6.58457 6.81028C7.40124 5.99362 8.35557 5.34762 9.44757 4.87228C10.5396 4.39695 11.7019 4.15962 12.9346 4.16028C13.9679 4.16028 14.9596 4.32695 15.9096 4.66028C16.8596 4.99362 17.7512 5.47695 18.5846 6.11028L19.3096 5.38528C19.4929 5.20195 19.7179 5.11028 19.9846 5.11028C20.2512 5.11028 20.4846 5.21028 20.6846 5.41028C20.8679 5.59361 20.9596 5.82695 20.9596 6.11028C20.9596 6.39361 20.8679 6.62695 20.6846 6.81028L19.9846 7.51028C20.6179 8.34361 21.1012 9.23528 21.4346 10.1853C21.7679 11.1353 21.9346 12.1269 21.9346 13.1603C21.9346 14.3936 21.6969 15.5563 21.2216 16.6483C20.7462 17.7403 20.1006 18.6943 19.2846 19.5103C18.4679 20.3269 17.5136 20.9729 16.4216 21.4483C15.3296 21.9236 14.1672 22.1609 12.9346 22.1603ZM12.9346 20.1603C14.8679 20.1603 16.5179 19.4769 17.8846 18.1103C19.2512 16.7436 19.9346 15.0936 19.9346 13.1603C19.9346 11.2269 19.2512 9.57695 17.8846 8.21028C16.5179 6.84362 14.8679 6.16028 12.9346 6.16028C11.0012 6.16028 9.35124 6.84362 7.98457 8.21028C6.61791 9.57695 5.93457 11.2269 5.93457 13.1603C5.93457 15.0936 6.61791 16.7436 7.98457 18.1103C9.35124 19.4769 11.0012 20.1603 12.9346 20.1603Z" fill="#00C8BC"/>
</svg>
