<svg width="25" height="24" viewBox="0 0 25 24" fill="none" xmlns="http://www.w3.org/2000/svg">
<path d="M10.9346 3.00006C10.6512 3.00006 10.4136 2.90406 10.2216 2.71206C10.0296 2.52006 9.93391 2.28273 9.93457 2.00006C9.93457 1.71673 10.0306 1.47906 10.2226 1.28706C10.4146 1.09506 10.6519 0.999398 10.9346 1.00006H14.9346C15.2179 1.00006 15.4556 1.09606 15.6476 1.28806C15.8396 1.48006 15.9352 1.7174 15.9346 2.00006C15.9346 2.2834 15.8386 2.52106 15.6466 2.71306C15.4546 2.90506 15.2172 3.00073 14.9346 3.00006H10.9346ZM12.9346 14.0001C13.2179 14.0001 13.4556 13.9041 13.6476 13.7121C13.8396 13.5201 13.9352 13.2827 13.9346 13.0001V9.00006C13.9346 8.71673 13.8386 8.47906 13.6466 8.28706C13.4546 8.09506 13.2172 7.9994 12.9346 8.00006C12.6512 8.00006 12.4136 8.09606 12.2216 8.28806C12.0296 8.48006 11.9339 8.7174 11.9346 9.00006V13.0001C11.9346 13.2834 12.0306 13.5211 12.2226 13.7131C12.4146 13.9051 12.6519 14.0007 12.9346 14.0001ZM12.9346 22.0001C11.7012 22.0001 10.5386 21.7624 9.44657 21.2871C8.35457 20.8117 7.40057 20.1661 6.58457 19.3501C5.76791 18.5334 5.1219 17.5791 4.64657 16.4871C4.17124 15.3951 3.93391 14.2327 3.93457 13.0001C3.93457 11.7667 4.17224 10.6041 4.64757 9.51206C5.12291 8.42006 5.76857 7.46606 6.58457 6.65006C7.40124 5.8334 8.35557 5.1874 9.44757 4.71206C10.5396 4.23673 11.7019 3.9994 12.9346 4.00006C13.9679 4.00006 14.9596 4.16673 15.9096 4.50006C16.8596 4.8334 17.7512 5.31673 18.5846 5.95006L19.3096 5.22506C19.4929 5.04173 19.7179 4.95006 19.9846 4.95006C20.2512 4.95006 20.4846 5.05006 20.6846 5.25006C20.8679 5.4334 20.9596 5.66673 20.9596 5.95006C20.9596 6.2334 20.8679 6.46673 20.6846 6.65006L19.9846 7.35006C20.6179 8.1834 21.1012 9.07506 21.4346 10.0251C21.7679 10.9751 21.9346 11.9667 21.9346 13.0001C21.9346 14.2334 21.6969 15.3961 21.2216 16.4881C20.7462 17.5801 20.1006 18.5341 19.2846 19.3501C18.4679 20.1667 17.5136 20.8127 16.4216 21.2881C15.3296 21.7634 14.1672 22.0007 12.9346 22.0001ZM12.9346 20.0001C14.8679 20.0001 16.5179 19.3167 17.8846 17.9501C19.2512 16.5834 19.9346 14.9334 19.9346 13.0001C19.9346 11.0667 19.2512 9.41673 17.8846 8.05006C16.5179 6.6834 14.8679 6.00006 12.9346 6.00006C11.0012 6.00006 9.35124 6.6834 7.98457 8.05006C6.61791 9.41673 5.93457 11.0667 5.93457 13.0001C5.93457 14.9334 6.61791 16.5834 7.98457 17.9501C9.35124 19.3167 11.0012 20.0001 12.9346 20.0001Z" fill="#00C8BC"/>
</svg>
