<?xml version="1.0" encoding="UTF-8"?>
<svg width="17px" height="17px" viewBox="0 0 17 17" version="1.1" xmlns="http://www.w3.org/2000/svg" xmlns:xlink="http://www.w3.org/1999/xlink">
    <title>Asset 1</title>
    <defs>
        <filter id="filter-1">
            <feColorMatrix in="SourceGraphic" type="matrix" values="0 0 0 0 1.000000 0 0 0 0 1.000000 0 0 0 0 1.000000 0 0 0 1.000000 0"></feColorMatrix>
        </filter>
    </defs>
    <g id="Page-1" stroke="none" stroke-width="1" fill="none" fill-rule="evenodd">
        <g filter="url(#filter-1)" id="Asset-1">
            <g>
                <path d="M7.16263672,0 L7.24814572,0.0251035279 C7.61533145,0.085351995 7.98251718,0.130538345 8.33964303,0.205848929 C9.04520656,0.36980121 9.71614568,0.657061385 10.32144,1.05434817 C11.144169,1.57930757 11.8427011,2.27655698 12.3686262,3.09777535 C13.2629194,4.46479069 13.6210743,6.11285308 13.3746145,7.7268659 C13.2293154,8.66336307 12.8864222,9.55838244 12.3686262,10.3526949 C12.2529375,10.5183782 12.1322189,10.6740201 12.0265902,10.8547655 C12.0085418,10.8859688 12.0034412,10.9223666 12.0112883,10.9565059 L16.7791289,15.7142463 C17.073235,16.0078124 17.0736728,16.4842148 16.7801067,16.7783209 C16.7797811,16.7786472 16.7794551,16.7789731 16.7791289,16.7792988 C16.4843233,17.0735631 16.0069228,17.0735631 15.7121172,16.7792988 L10.8992989,11.9743891 C10.8856098,11.9774775 10.872253,11.9824961 10.8596437,11.9894449 C10.7389251,12.0647555 10.6332964,12.1651696 10.5125778,12.2455009 C10.0845374,12.5272574 9.62962859,12.7660665 9.15449356,12.9584411 C8.20520672,13.3372152 7.18016857,13.4885391 6.16167836,13.4002632 C5.28430945,13.3278166 4.42977515,13.0838685 3.6467076,12.6823023 C3.04565182,12.3585701 2.49497507,11.9492807 2.01197661,11.4672916 C1.53326301,11.0070982 1.12936916,10.4752083 0.814850525,9.89079001 C0.482886207,9.28294797 0.24704776,8.62753868 0.115688655,7.94777694 L0.0722821225,7.68391097 L0.0722821225,7.68391097 L0,7.14948476 L0,7.14948476 L0,6.25579916 C0,6.21563352 0,6.17546787 0.0251497076,6.14032293 C0.0855090058,5.78887354 0.135808421,5.43240344 0.206227602,5.08095405 C0.328048544,4.54112915 0.527991636,4.02189339 0.799760701,3.53959744 C1.15912297,2.87356955 1.63040322,2.27408776 2.1930545,1.76728837 C2.61482337,1.37049397 3.08861169,1.03269514 3.60143812,0.763147249 C4.2313304,0.429912107 4.9105701,0.199394663 5.61341473,0.0803312894 L6.26730713,0 L7.16263672,0 Z M4.68885873,1.81459751 C2.70734621,2.63495873 1.41640918,4.56640735 1.41844111,6.70766266 C1.41710719,8.11021848 1.97470355,9.45571265 2.96828513,10.4474698 C3.96186672,11.439227 5.30983601,11.9957995 6.71497192,11.994468 C8.86016622,11.9964962 10.7951679,10.7079296 11.6170382,8.73005553 C12.4389085,6.75218144 11.9856495,4.47485675 10.4687673,2.96075992 C8.95188523,1.44666309 6.67037125,0.994236289 4.68885873,1.81459751 Z" id="Combined-Shape" fill="#000000" fill-rule="nonzero"></path>
            </g>
        </g>
    </g>
</svg>