<svg width="21" height="20" viewBox="0 0 21 20" fill="none" xmlns="http://www.w3.org/2000/svg">
<path fill-rule="evenodd" clip-rule="evenodd" d="M7.03213 0.000305176H3.93457C2.27772 0.000305176 0.93457 1.34345 0.93457 3.0003V17.0003C0.93457 18.6572 2.27771 20.0003 3.93457 20.0003H7.03213H14.837H17.9346C19.5914 20.0003 20.9346 18.6572 20.9346 17.0003V3.00031C20.9346 1.34345 19.5914 0.000305176 17.9346 0.000305176H14.837H7.03213ZM14.7425 18.9027H17.837C18.9416 18.9027 19.837 18.0073 19.837 16.9027V10.2442L13.4788 10.2442C13.1222 11.3074 12.1179 12.0735 10.9346 12.0735C9.75127 12.0735 8.74689 11.3074 8.39031 10.2442H2.03213V16.9027C2.03213 18.0073 2.92756 18.9027 4.03213 18.9027H7.12665C7.17555 18.6846 7.24323 18.4705 7.32919 18.263C7.5253 17.7895 7.81275 17.3593 8.17513 16.997C8.5375 16.6346 8.96771 16.3471 9.44117 16.151C9.91464 15.9549 10.4221 15.854 10.9346 15.854C11.447 15.854 11.9545 15.9549 12.428 16.151C12.9014 16.3471 13.3316 16.6346 13.694 16.997C14.0564 17.3593 14.3438 17.7895 14.54 18.263C14.6259 18.4705 14.6936 18.6846 14.7425 18.9027ZM2.03213 9.14665V3.09787C2.03213 1.9933 2.92756 1.09787 4.03213 1.09787H7.12664C7.17555 1.31602 7.24323 1.53008 7.32919 1.73761C7.5253 2.21107 7.81275 2.64127 8.17513 3.00365C8.5375 3.36602 8.96771 3.65348 9.44117 3.84959C9.91464 4.04571 10.4221 4.14665 10.9346 4.14665C11.447 4.14665 11.9545 4.04571 12.428 3.84959C12.9014 3.65348 13.3316 3.36602 13.694 3.00365C14.0564 2.64127 14.3438 2.21107 14.54 1.73761C14.6259 1.53008 14.6936 1.31602 14.7425 1.09787H17.837C18.9416 1.09787 19.837 1.9933 19.837 3.09787V9.14665L13.6066 9.14665C13.4833 7.77921 12.3341 6.70762 10.9346 6.70762C9.53505 6.70762 8.38581 7.77921 8.26258 9.14665H2.03213ZM9.3492 9.39055C9.3492 10.2661 10.059 10.9759 10.9346 10.9759C11.8101 10.9759 12.5199 10.2661 12.5199 9.39055C12.5199 8.51498 11.8101 7.80518 10.9346 7.80518C10.059 7.80518 9.3492 8.51498 9.3492 9.39055ZM13.6064 18.9027C13.5827 18.8285 13.5558 18.7552 13.5259 18.683C13.385 18.3427 13.1784 18.0335 12.9179 17.7731C12.6575 17.5126 12.3483 17.306 12.008 17.165C11.6676 17.0241 11.3029 16.9515 10.9346 16.9515C10.5662 16.9515 10.2015 17.0241 9.86119 17.165C9.52089 17.306 9.21168 17.5126 8.95122 17.7731C8.69077 18.0335 8.48416 18.3427 8.3432 18.683C8.31329 18.7552 8.28646 18.8285 8.26275 18.9027H13.6064ZM8.26275 1.09787C8.28646 1.17207 8.31329 1.24538 8.3432 1.31759C8.48416 1.65789 8.69077 1.9671 8.95122 2.22756C9.21168 2.48801 9.52089 2.69462 9.86119 2.83558C10.2015 2.97654 10.5662 3.04909 10.9346 3.04909C11.3029 3.04909 11.6676 2.97654 12.008 2.83558C12.3483 2.69462 12.6575 2.48801 12.9179 2.22756C13.1784 1.9671 13.385 1.65789 13.5259 1.31759C13.5559 1.24538 13.5827 1.17207 13.6064 1.09787L8.26275 1.09787Z" fill="#1A1E2C"/>
</svg>
