<svg width="21" height="20" viewBox="0 0 21 20" fill="none" xmlns="http://www.w3.org/2000/svg">
<path fill-rule="evenodd" clip-rule="evenodd" d="M7.03213 -9.15527e-05H3.93457C2.27772 -9.15527e-05 0.93457 1.34305 0.93457 2.99991V16.9999C0.93457 18.6568 2.27771 19.9999 3.93457 19.9999H7.03213H14.837H17.9346C19.5914 19.9999 20.9346 18.6568 20.9346 16.9999V2.99991C20.9346 1.34305 19.5914 -9.15527e-05 17.9346 -9.15527e-05H14.837H7.03213ZM14.7425 18.9023H17.837C18.9416 18.9023 19.837 18.0069 19.837 16.9023V10.2438L13.4788 10.2438C13.1222 11.307 12.1179 12.0731 10.9346 12.0731C9.75127 12.0731 8.74689 11.307 8.39031 10.2438H2.03213V16.9023C2.03213 18.0069 2.92756 18.9023 4.03213 18.9023H7.12665C7.17555 18.6842 7.24323 18.4701 7.32919 18.2626C7.5253 17.7891 7.81275 17.3589 8.17513 16.9966C8.5375 16.6342 8.96771 16.3467 9.44117 16.1506C9.91464 15.9545 10.4221 15.8536 10.9346 15.8536C11.447 15.8536 11.9545 15.9545 12.428 16.1506C12.9014 16.3467 13.3316 16.6342 13.694 16.9966C14.0564 17.3589 14.3438 17.7891 14.54 18.2626C14.6259 18.4701 14.6936 18.6842 14.7425 18.9023ZM2.03213 9.14625V3.09747C2.03213 1.9929 2.92756 1.09747 4.03213 1.09747H7.12664C7.17555 1.31562 7.24323 1.52968 7.32919 1.73721C7.5253 2.21068 7.81275 2.64088 8.17513 3.00325C8.5375 3.36563 8.96771 3.65308 9.44117 3.84919C9.91464 4.04531 10.4221 4.14625 10.9346 4.14625C11.447 4.14625 11.9545 4.04531 12.428 3.8492C12.9014 3.65308 13.3316 3.36563 13.694 3.00325C14.0564 2.64088 14.3438 2.21068 14.54 1.73721C14.6259 1.52968 14.6936 1.31562 14.7425 1.09747H17.837C18.9416 1.09747 19.837 1.9929 19.837 3.09747V9.14625L13.6066 9.14625C13.4833 7.77881 12.3341 6.70723 10.9346 6.70723C9.53505 6.70723 8.38581 7.77881 8.26258 9.14625H2.03213ZM9.3492 9.39015C9.3492 10.2657 10.059 10.9755 10.9346 10.9755C11.8101 10.9755 12.5199 10.2657 12.5199 9.39015C12.5199 8.51458 11.8101 7.80479 10.9346 7.80479C10.059 7.80479 9.3492 8.51458 9.3492 9.39015ZM13.6064 18.9023C13.5827 18.8281 13.5558 18.7548 13.5259 18.6826C13.385 18.3423 13.1784 18.0331 12.9179 17.7727C12.6575 17.5122 12.3483 17.3056 12.008 17.1646C11.6676 17.0237 11.3029 16.9511 10.9346 16.9511C10.5662 16.9511 10.2015 17.0237 9.86119 17.1646C9.52089 17.3056 9.21168 17.5122 8.95122 17.7727C8.69077 18.0331 8.48416 18.3423 8.3432 18.6826C8.31329 18.7548 8.28646 18.8281 8.26275 18.9023H13.6064ZM8.26275 1.09747C8.28646 1.17168 8.31329 1.24498 8.3432 1.31719C8.48416 1.65749 8.69077 1.9667 8.95122 2.22716C9.21168 2.48762 9.52089 2.69422 9.86119 2.83518C10.2015 2.97614 10.5662 3.04869 10.9346 3.04869C11.3029 3.04869 11.6676 2.97614 12.008 2.83518C12.3483 2.69422 12.6575 2.48762 12.9179 2.22716C13.1784 1.9667 13.385 1.6575 13.5259 1.31719C13.5559 1.24498 13.5827 1.17168 13.6064 1.09747L8.26275 1.09747Z" fill="#1A1E2C"/>
</svg>
