<svg width="21" height="20" viewBox="0 0 21 20" fill="none" xmlns="http://www.w3.org/2000/svg">
<path fill-rule="evenodd" clip-rule="evenodd" d="M7.03213 0.000244141H3.93457C2.27772 0.000244141 0.93457 1.34339 0.93457 3.00024V17.0002C0.93457 18.6571 2.27771 20.0002 3.93457 20.0002H7.03213H14.837H17.9346C19.5914 20.0002 20.9346 18.6571 20.9346 17.0002V3.00024C20.9346 1.34339 19.5914 0.000244141 17.9346 0.000244141H14.837H7.03213ZM14.7425 18.9027H17.837C18.9416 18.9027 19.837 18.0073 19.837 16.9027V10.2441L13.4788 10.2441C13.1222 11.3074 12.1179 12.0734 10.9346 12.0734C9.75127 12.0734 8.74689 11.3074 8.39031 10.2441H2.03213V16.9027C2.03213 18.0073 2.92756 18.9027 4.03213 18.9027H7.12665C7.17555 18.6845 7.24323 18.4705 7.32919 18.2629C7.5253 17.7895 7.81275 17.3593 8.17513 16.9969C8.5375 16.6345 8.96771 16.3471 9.44117 16.151C9.91464 15.9548 10.4221 15.8539 10.9346 15.8539C11.447 15.8539 11.9545 15.9548 12.428 16.151C12.9014 16.3471 13.3316 16.6345 13.694 16.9969C14.0564 17.3593 14.3438 17.7895 14.54 18.2629C14.6259 18.4705 14.6936 18.6845 14.7425 18.9027ZM2.03213 9.14659V3.0978C2.03213 1.99324 2.92756 1.09781 4.03213 1.09781H7.12664C7.17555 1.31596 7.24323 1.53002 7.32919 1.73755C7.5253 2.21101 7.81275 2.64121 8.17513 3.00359C8.5375 3.36596 8.96771 3.65341 9.44117 3.84953C9.91464 4.04565 10.4221 4.14659 10.9346 4.14659C11.447 4.14659 11.9545 4.04565 12.428 3.84953C12.9014 3.65341 13.3316 3.36596 13.694 3.00359C14.0564 2.64121 14.3438 2.21101 14.54 1.73755C14.6259 1.53002 14.6936 1.31596 14.7425 1.09781H17.837C18.9416 1.09781 19.837 1.99324 19.837 3.09781V9.14659L13.6066 9.14659C13.4833 7.77915 12.3341 6.70756 10.9346 6.70756C9.53505 6.70756 8.38581 7.77915 8.26258 9.14659H2.03213ZM9.3492 9.39049C9.3492 10.2661 10.059 10.9759 10.9346 10.9759C11.8101 10.9759 12.5199 10.2661 12.5199 9.39049C12.5199 8.51491 11.8101 7.80512 10.9346 7.80512C10.059 7.80512 9.3492 8.51491 9.3492 9.39049ZM13.6064 18.9027C13.5827 18.8285 13.5558 18.7552 13.5259 18.683C13.385 18.3427 13.1784 18.0335 12.9179 17.773C12.6575 17.5125 12.3483 17.3059 12.008 17.165C11.6676 17.024 11.3029 16.9515 10.9346 16.9515C10.5662 16.9515 10.2015 17.024 9.86119 17.165C9.52089 17.3059 9.21168 17.5125 8.95122 17.773C8.69077 18.0334 8.48416 18.3427 8.3432 18.683C8.31329 18.7552 8.28646 18.8285 8.26275 18.9027H13.6064ZM8.26275 1.09781C8.28646 1.17201 8.31329 1.24532 8.3432 1.31753C8.48416 1.65783 8.69077 1.96704 8.95122 2.2275C9.21168 2.48795 9.52089 2.69456 9.86119 2.83552C10.2015 2.97647 10.5662 3.04902 10.9346 3.04902C11.3029 3.04902 11.6676 2.97647 12.008 2.83552C12.3483 2.69456 12.6575 2.48795 12.9179 2.2275C13.1784 1.96704 13.385 1.65783 13.5259 1.31753C13.5559 1.24532 13.5827 1.17201 13.6064 1.09781L8.26275 1.09781Z" fill="#1A1E2C"/>
</svg>
