<svg width="21" height="20" viewBox="0 0 21 20" fill="none" xmlns="http://www.w3.org/2000/svg">
<path fill-rule="evenodd" clip-rule="evenodd" d="M7.03213 0H3.93457C2.27772 0 0.93457 1.34315 0.93457 3V17C0.93457 18.6569 2.27771 20 3.93457 20H7.03213H14.837H17.9346C19.5914 20 20.9346 18.6569 20.9346 17V3C20.9346 1.34315 19.5914 0 17.9346 0H14.837H7.03213ZM14.7425 18.9024H17.837C18.9416 18.9024 19.837 18.007 19.837 16.9024V10.2439L13.4788 10.2439C13.1222 11.3071 12.1179 12.0732 10.9346 12.0732C9.75127 12.0732 8.74689 11.3071 8.39031 10.2439H2.03213V16.9024C2.03213 18.007 2.92756 18.9024 4.03213 18.9024H7.12665C7.17555 18.6843 7.24323 18.4702 7.32919 18.2627C7.5253 17.7892 7.81275 17.359 8.17513 16.9967C8.5375 16.6343 8.96771 16.3468 9.44117 16.1507C9.91464 15.9546 10.4221 15.8537 10.9346 15.8537C11.447 15.8537 11.9545 15.9546 12.428 16.1507C12.9014 16.3468 13.3316 16.6343 13.694 16.9967C14.0564 17.359 14.3438 17.7892 14.54 18.2627C14.6259 18.4702 14.6936 18.6843 14.7425 18.9024ZM2.03213 9.14634V3.09756C2.03213 1.99299 2.92756 1.09756 4.03213 1.09756H7.12664C7.17555 1.31571 7.24323 1.52977 7.32919 1.7373C7.5253 2.21077 7.81275 2.64097 8.17513 3.00334C8.5375 3.36572 8.96771 3.65317 9.44117 3.84929C9.91464 4.0454 10.4221 4.14634 10.9346 4.14634C11.447 4.14634 11.9545 4.0454 12.428 3.84929C12.9014 3.65317 13.3316 3.36572 13.694 3.00334C14.0564 2.64097 14.3438 2.21077 14.54 1.7373C14.6259 1.52977 14.6936 1.31571 14.7425 1.09756H17.837C18.9416 1.09756 19.837 1.99299 19.837 3.09756V9.14634L13.6066 9.14634C13.4833 7.7789 12.3341 6.70732 10.9346 6.70732C9.53505 6.70732 8.38581 7.7789 8.26258 9.14634H2.03213ZM9.3492 9.39024C9.3492 10.2658 10.059 10.9756 10.9346 10.9756C11.8101 10.9756 12.5199 10.2658 12.5199 9.39024C12.5199 8.51467 11.8101 7.80488 10.9346 7.80488C10.059 7.80488 9.3492 8.51467 9.3492 9.39024ZM13.6064 18.9024C13.5827 18.8282 13.5558 18.7549 13.5259 18.6827C13.385 18.3424 13.1784 18.0332 12.9179 17.7727C12.6575 17.5123 12.3483 17.3057 12.008 17.1647C11.6676 17.0238 11.3029 16.9512 10.9346 16.9512C10.5662 16.9512 10.2015 17.0238 9.86119 17.1647C9.52089 17.3057 9.21168 17.5123 8.95122 17.7727C8.69077 18.0332 8.48416 18.3424 8.3432 18.6827C8.31329 18.7549 8.28646 18.8282 8.26275 18.9024H13.6064ZM8.26275 1.09756C8.28646 1.17177 8.31329 1.24508 8.3432 1.31728C8.48416 1.65759 8.69077 1.96679 8.95122 2.22725C9.21168 2.48771 9.52089 2.69431 9.86119 2.83527C10.2015 2.97623 10.5662 3.04878 10.9346 3.04878C11.3029 3.04878 11.6676 2.97623 12.008 2.83527C12.3483 2.69431 12.6575 2.48771 12.9179 2.22725C13.1784 1.96679 13.385 1.65759 13.5259 1.31728C13.5559 1.24508 13.5827 1.17177 13.6064 1.09756L8.26275 1.09756Z" fill="#1A1E2C"/>
</svg>
