<svg width="21" height="20" viewBox="0 0 21 20" fill="none" xmlns="http://www.w3.org/2000/svg">
<path fill-rule="evenodd" clip-rule="evenodd" d="M7.03213 -0.00012207H3.93457C2.27772 -0.00012207 0.93457 1.34302 0.93457 2.99988V16.9999C0.93457 18.6567 2.27771 19.9999 3.93457 19.9999H7.03213H14.837H17.9346C19.5914 19.9999 20.9346 18.6567 20.9346 16.9999V2.99988C20.9346 1.34302 19.5914 -0.00012207 17.9346 -0.00012207H14.837H7.03213ZM14.7425 18.9023H17.837C18.9416 18.9023 19.837 18.0069 19.837 16.9023V10.2438L13.4788 10.2438C13.1222 11.307 12.1179 12.073 10.9346 12.073C9.75127 12.073 8.74689 11.307 8.39031 10.2438H2.03213V16.9023C2.03213 18.0069 2.92756 18.9023 4.03213 18.9023H7.12665C7.17555 18.6842 7.24323 18.4701 7.32919 18.2626C7.5253 17.7891 7.81275 17.3589 8.17513 16.9965C8.5375 16.6342 8.96771 16.3467 9.44117 16.1506C9.91464 15.9545 10.4221 15.8535 10.9346 15.8535C11.447 15.8535 11.9545 15.9545 12.428 16.1506C12.9014 16.3467 13.3316 16.6342 13.694 16.9965C14.0564 17.3589 14.3438 17.7891 14.54 18.2626C14.6259 18.4701 14.6936 18.6842 14.7425 18.9023ZM2.03213 9.14622V3.09744C2.03213 1.99287 2.92756 1.09744 4.03213 1.09744H7.12664C7.17555 1.31559 7.24323 1.52965 7.32919 1.73718C7.5253 2.21064 7.81275 2.64085 8.17513 3.00322C8.5375 3.3656 8.96771 3.65305 9.44117 3.84916C9.91464 4.04528 10.4221 4.14622 10.9346 4.14622C11.447 4.14622 11.9545 4.04528 12.428 3.84916C12.9014 3.65305 13.3316 3.3656 13.694 3.00322C14.0564 2.64085 14.3438 2.21065 14.54 1.73718C14.6259 1.52965 14.6936 1.31559 14.7425 1.09744H17.837C18.9416 1.09744 19.837 1.99287 19.837 3.09744V9.14622L13.6066 9.14622C13.4833 7.77878 12.3341 6.7072 10.9346 6.7072C9.53505 6.7072 8.38581 7.77878 8.26258 9.14622H2.03213ZM9.3492 9.39012C9.3492 10.2657 10.059 10.9755 10.9346 10.9755C11.8101 10.9755 12.5199 10.2657 12.5199 9.39012C12.5199 8.51455 11.8101 7.80476 10.9346 7.80476C10.059 7.80476 9.3492 8.51455 9.3492 9.39012ZM13.6064 18.9023C13.5827 18.8281 13.5558 18.7548 13.5259 18.6826C13.385 18.3423 13.1784 18.0331 12.9179 17.7726C12.6575 17.5122 12.3483 17.3056 12.008 17.1646C11.6676 17.0236 11.3029 16.9511 10.9346 16.9511C10.5662 16.9511 10.2015 17.0236 9.86119 17.1646C9.52089 17.3056 9.21168 17.5122 8.95122 17.7726C8.69077 18.0331 8.48416 18.3423 8.3432 18.6826C8.31329 18.7548 8.28646 18.8281 8.26275 18.9023H13.6064ZM8.26275 1.09744C8.28646 1.17165 8.31329 1.24495 8.3432 1.31716C8.48416 1.65746 8.69077 1.96667 8.95122 2.22713C9.21168 2.48759 9.52089 2.69419 9.86119 2.83515C10.2015 2.97611 10.5662 3.04866 10.9346 3.04866C11.3029 3.04866 11.6676 2.97611 12.008 2.83515C12.3483 2.69419 12.6575 2.48759 12.9179 2.22713C13.1784 1.96667 13.385 1.65746 13.5259 1.31716C13.5559 1.24495 13.5827 1.17165 13.6064 1.09744L8.26275 1.09744Z" fill="#1A1E2C"/>
</svg>
