<svg width="21" height="21" viewBox="0 0 21 21" fill="none" xmlns="http://www.w3.org/2000/svg">
<path fill-rule="evenodd" clip-rule="evenodd" d="M7.03213 0.160156H3.93457C2.27772 0.160156 0.93457 1.5033 0.93457 3.16016V17.1602C0.93457 18.817 2.27771 20.1602 3.93457 20.1602H7.03213H14.837H17.9346C19.5914 20.1602 20.9346 18.817 20.9346 17.1602V3.16016C20.9346 1.5033 19.5914 0.160156 17.9346 0.160156H14.837H7.03213ZM14.7425 19.0626H17.837C18.9416 19.0626 19.837 18.1672 19.837 17.0626V10.4041L13.4788 10.4041C13.1222 11.4673 12.1179 12.2333 10.9346 12.2333C9.75127 12.2333 8.74689 11.4673 8.39031 10.4041H2.03213V17.0626C2.03213 18.1672 2.92756 19.0626 4.03213 19.0626H7.12665C7.17555 18.8444 7.24323 18.6304 7.32919 18.4229C7.5253 17.9494 7.81275 17.5192 8.17513 17.1568C8.5375 16.7944 8.96771 16.507 9.44117 16.3109C9.91464 16.1148 10.4221 16.0138 10.9346 16.0138C11.447 16.0138 11.9545 16.1148 12.428 16.3109C12.9014 16.507 13.3316 16.7944 13.694 17.1568C14.0564 17.5192 14.3438 17.9494 14.54 18.4229C14.6259 18.6304 14.6936 18.8444 14.7425 19.0626ZM2.03213 9.3065V3.25772C2.03213 2.15315 2.92756 1.25772 4.03213 1.25772H7.12664C7.17555 1.47587 7.24323 1.68993 7.32919 1.89746C7.5253 2.37092 7.81275 2.80112 8.17513 3.1635C8.5375 3.52588 8.96771 3.81333 9.44117 4.00944C9.91464 4.20556 10.4221 4.3065 10.9346 4.3065C11.447 4.3065 11.9545 4.20556 12.428 4.00944C12.9014 3.81333 13.3316 3.52588 13.694 3.1635C14.0564 2.80113 14.3438 2.37092 14.54 1.89746C14.6259 1.68993 14.6936 1.47587 14.7425 1.25772H17.837C18.9416 1.25772 19.837 2.15315 19.837 3.25772V9.3065L13.6066 9.3065C13.4833 7.93906 12.3341 6.86747 10.9346 6.86747C9.53505 6.86747 8.38581 7.93906 8.26258 9.3065H2.03213ZM9.3492 9.5504C9.3492 10.426 10.059 11.1358 10.9346 11.1358C11.8101 11.1358 12.5199 10.426 12.5199 9.5504C12.5199 8.67483 11.8101 7.96503 10.9346 7.96503C10.059 7.96503 9.3492 8.67483 9.3492 9.5504ZM13.6064 19.0626C13.5827 18.9884 13.5558 18.9151 13.5259 18.8429C13.385 18.5026 13.1784 18.1934 12.9179 17.9329C12.6575 17.6724 12.3483 17.4658 12.008 17.3249C11.6676 17.1839 11.3029 17.1114 10.9346 17.1114C10.5662 17.1114 10.2015 17.1839 9.86119 17.3249C9.52089 17.4658 9.21168 17.6724 8.95122 17.9329C8.69077 18.1934 8.48416 18.5026 8.3432 18.8429C8.31329 18.9151 8.28646 18.9884 8.26275 19.0626H13.6064ZM8.26275 1.25772C8.28646 1.33193 8.31329 1.40523 8.3432 1.47744C8.48416 1.81774 8.69077 2.12695 8.95122 2.38741C9.21168 2.64786 9.52089 2.85447 9.86119 2.99543C10.2015 3.13639 10.5662 3.20894 10.9346 3.20894C11.3029 3.20894 11.6676 3.13639 12.008 2.99543C12.3483 2.85447 12.6575 2.64786 12.9179 2.38741C13.1784 2.12695 13.385 1.81774 13.5259 1.47744C13.5559 1.40523 13.5827 1.33193 13.6064 1.25772L8.26275 1.25772Z" fill="#1A1E2C"/>
</svg>
