<svg width="16" height="16" viewBox="0 0 16 16" fill="none" xmlns="http://www.w3.org/2000/svg">
<path fill-rule="evenodd" clip-rule="evenodd" d="M8.0126 16L8 16V16.0011C6.64325 16.0006 5.23496 15.9201 3.30079 14.7626L3.67874 4.77708L2.87244 6.0672C2.87244 6.0672 0.856693 6.13193 0 4.14515C0 4.14515 1.5622 1.06154 1.96535 0.829317C2.67701 0.419392 3.99236 0.144076 5.5148 0.00341797C5.65109 0.507589 6.71175 0.899972 8 0.899972V0.898866C9.29021 0.898866 10.3521 0.505282 10.4858 0C12.0185 0.139925 13.3442 0.415978 14.0598 0.828211C14.463 1.06043 16 4.14404 16 4.14404C15.2541 5.94938 13.5351 6.06243 13.1889 6.0852C13.1492 6.08781 13.1276 6.08923 13.1276 6.09189L12.3213 4.80177L12.6992 14.7873C10.7591 15.9226 9.37323 16 8.0126 16Z" fill="#4D5F7A"/>
</svg>
