<svg width="21" height="20" viewBox="0 0 21 20" fill="none" xmlns="http://www.w3.org/2000/svg">
<path fill-rule="evenodd" clip-rule="evenodd" d="M7.03213 6.10352e-05H3.93457C2.27772 6.10352e-05 0.93457 1.34321 0.93457 3.00006V17.0001C0.93457 18.6569 2.27771 20.0001 3.93457 20.0001H7.03213H14.837H17.9346C19.5914 20.0001 20.9346 18.6569 20.9346 17.0001V3.00006C20.9346 1.34321 19.5914 6.10352e-05 17.9346 6.10352e-05H14.837H7.03213ZM14.7425 18.9025H17.837C18.9416 18.9025 19.837 18.0071 19.837 16.9025V10.244L13.4788 10.244C13.1222 11.3072 12.1179 12.0732 10.9346 12.0732C9.75127 12.0732 8.74689 11.3072 8.39031 10.244H2.03213V16.9025C2.03213 18.0071 2.92756 18.9025 4.03213 18.9025H7.12665C7.17555 18.6844 7.24323 18.4703 7.32919 18.2628C7.5253 17.7893 7.81275 17.3591 8.17513 16.9967C8.5375 16.6343 8.96771 16.3469 9.44117 16.1508C9.91464 15.9547 10.4221 15.8537 10.9346 15.8537C11.447 15.8537 11.9545 15.9547 12.428 16.1508C12.9014 16.3469 13.3316 16.6343 13.694 16.9967C14.0564 17.3591 14.3438 17.7893 14.54 18.2628C14.6259 18.4703 14.6936 18.6844 14.7425 18.9025ZM2.03213 9.1464V3.09762C2.03213 1.99305 2.92756 1.09762 4.03213 1.09762H7.12664C7.17555 1.31577 7.24323 1.52983 7.32919 1.73736C7.5253 2.21083 7.81275 2.64103 8.17513 3.0034C8.5375 3.36578 8.96771 3.65323 9.44117 3.84935C9.91464 4.04546 10.4221 4.1464 10.9346 4.1464C11.447 4.1464 11.9545 4.04546 12.428 3.84935C12.9014 3.65323 13.3316 3.36578 13.694 3.00341C14.0564 2.64103 14.3438 2.21083 14.54 1.73736C14.6259 1.52983 14.6936 1.31577 14.7425 1.09762H17.837C18.9416 1.09762 19.837 1.99305 19.837 3.09762V9.1464L13.6066 9.1464C13.4833 7.77896 12.3341 6.70738 10.9346 6.70738C9.53505 6.70738 8.38581 7.77896 8.26258 9.1464H2.03213ZM9.3492 9.39031C9.3492 10.2659 10.059 10.9757 10.9346 10.9757C11.8101 10.9757 12.5199 10.2659 12.5199 9.39031C12.5199 8.51473 11.8101 7.80494 10.9346 7.80494C10.059 7.80494 9.3492 8.51473 9.3492 9.39031ZM13.6064 18.9025C13.5827 18.8283 13.5558 18.755 13.5259 18.6828C13.385 18.3425 13.1784 18.0333 12.9179 17.7728C12.6575 17.5124 12.3483 17.3057 12.008 17.1648C11.6676 17.0238 11.3029 16.9513 10.9346 16.9513C10.5662 16.9513 10.2015 17.0238 9.86119 17.1648C9.52089 17.3057 9.21168 17.5124 8.95122 17.7728C8.69077 18.0333 8.48416 18.3425 8.3432 18.6828C8.31329 18.755 8.28646 18.8283 8.26275 18.9025H13.6064ZM8.26275 1.09762C8.28646 1.17183 8.31329 1.24514 8.3432 1.31734C8.48416 1.65765 8.69077 1.96685 8.95122 2.22731C9.21168 2.48777 9.52089 2.69437 9.86119 2.83533C10.2015 2.97629 10.5662 3.04884 10.9346 3.04884C11.3029 3.04884 11.6676 2.97629 12.008 2.83533C12.3483 2.69437 12.6575 2.48777 12.9179 2.22731C13.1784 1.96686 13.385 1.65765 13.5259 1.31734C13.5559 1.24514 13.5827 1.17183 13.6064 1.09762L8.26275 1.09762Z" fill="#1A1E2C"/>
</svg>
