<svg width="21" height="20" viewBox="0 0 21 20" fill="none" xmlns="http://www.w3.org/2000/svg">
<path fill-rule="evenodd" clip-rule="evenodd" d="M7.03213 -0.000183105H3.93457C2.27772 -0.000183105 0.93457 1.34296 0.93457 2.99982V16.9998C0.93457 18.6567 2.27771 19.9998 3.93457 19.9998H7.03213H14.837H17.9346C19.5914 19.9998 20.9346 18.6567 20.9346 16.9998V2.99982C20.9346 1.34296 19.5914 -0.000183105 17.9346 -0.000183105H14.837H7.03213ZM14.7425 18.9023H17.837C18.9416 18.9023 19.837 18.0068 19.837 16.9023V10.2437L13.4788 10.2437C13.1222 11.3069 12.1179 12.073 10.9346 12.073C9.75127 12.073 8.74689 11.3069 8.39031 10.2437H2.03213V16.9023C2.03213 18.0068 2.92756 18.9023 4.03213 18.9023H7.12665C7.17555 18.6841 7.24323 18.47 7.32919 18.2625C7.5253 17.7891 7.81275 17.3588 8.17513 16.9965C8.5375 16.6341 8.96771 16.3466 9.44117 16.1505C9.91464 15.9544 10.4221 15.8535 10.9346 15.8535C11.447 15.8535 11.9545 15.9544 12.428 16.1505C12.9014 16.3466 13.3316 16.6341 13.694 16.9965C14.0564 17.3588 14.3438 17.7891 14.54 18.2625C14.6259 18.47 14.6936 18.6841 14.7425 18.9023ZM2.03213 9.14616V3.09738C2.03213 1.99281 2.92756 1.09738 4.03213 1.09738H7.12664C7.17555 1.31553 7.24323 1.52959 7.32919 1.73712C7.5253 2.21058 7.81275 2.64079 8.17513 3.00316C8.5375 3.36554 8.96771 3.65299 9.44117 3.8491C9.91464 4.04522 10.4221 4.14616 10.9346 4.14616C11.447 4.14616 11.9545 4.04522 12.428 3.8491C12.9014 3.65299 13.3316 3.36554 13.694 3.00316C14.0564 2.64079 14.3438 2.21058 14.54 1.73712C14.6259 1.52959 14.6936 1.31553 14.7425 1.09738H17.837C18.9416 1.09738 19.837 1.99281 19.837 3.09738V9.14616L13.6066 9.14616C13.4833 7.77872 12.3341 6.70713 10.9346 6.70713C9.53505 6.70713 8.38581 7.77872 8.26258 9.14616H2.03213ZM9.3492 9.39006C9.3492 10.2656 10.059 10.9754 10.9346 10.9754C11.8101 10.9754 12.5199 10.2656 12.5199 9.39006C12.5199 8.51449 11.8101 7.8047 10.9346 7.8047C10.059 7.8047 9.3492 8.51449 9.3492 9.39006ZM13.6064 18.9023C13.5827 18.828 13.5558 18.7547 13.5259 18.6825C13.385 18.3422 13.1784 18.033 12.9179 17.7726C12.6575 17.5121 12.3483 17.3055 12.008 17.1645C11.6676 17.0236 11.3029 16.951 10.9346 16.951C10.5662 16.951 10.2015 17.0236 9.86119 17.1645C9.52089 17.3055 9.21168 17.5121 8.95122 17.7726C8.69077 18.033 8.48416 18.3422 8.3432 18.6825C8.31329 18.7547 8.28646 18.828 8.26275 18.9023H13.6064ZM8.26275 1.09738C8.28646 1.17159 8.31329 1.24489 8.3432 1.3171C8.48416 1.6574 8.69077 1.96661 8.95122 2.22707C9.21168 2.48752 9.52089 2.69413 9.86119 2.83509C10.2015 2.97605 10.5662 3.0486 10.9346 3.0486C11.3029 3.0486 11.6676 2.97605 12.008 2.83509C12.3483 2.69413 12.6575 2.48753 12.9179 2.22707C13.1784 1.96661 13.385 1.6574 13.5259 1.3171C13.5559 1.24489 13.5827 1.17159 13.6064 1.09738L8.26275 1.09738Z" fill="#1A1E2C"/>
</svg>
