<svg width="22" height="22" viewBox="0 0 22 22" fill="none" xmlns="http://www.w3.org/2000/svg">
<path d="M10.9346 7.16028L14.7386 9.92428L10.9346 7.16028ZM10.9346 7.16028L7.13057 9.92428L10.9346 7.16028ZM10.9346 7.16028V4.16028V7.16028ZM14.7386 9.92428L13.2856 14.3963L14.7386 9.92428ZM14.7386 9.92428L17.4346 8.66028L14.7386 9.92428ZM13.2856 14.3963H8.58457H13.2856ZM13.2866 14.3963L14.9346 16.6603L13.2866 14.3963ZM8.58357 14.3963L7.13057 9.92428L8.58357 14.3963ZM8.58357 14.3963L6.93457 16.6603L8.58357 14.3963ZM7.13057 9.92428L4.43457 8.66028L7.13057 9.92428ZM4.43457 8.66028L0.98457 12.1603L4.43457 8.66028ZM4.43457 8.66028L3.43457 4.54528L4.43457 8.66028ZM17.4346 8.66028L20.8846 12.1603L17.4346 8.66028ZM17.4346 8.66028L18.4346 4.54528L17.4346 8.66028ZM10.9346 4.16028L7.55857 1.74428L10.9346 4.16028ZM10.9346 4.16028L14.3106 1.74428L10.9346 4.16028ZM6.93457 16.6603L2.27257 16.1603L6.93457 16.6603ZM6.93457 16.6603L9.43457 21.0483L6.93457 16.6603ZM14.9346 16.6603L19.5966 16.1603L14.9346 16.6603ZM14.9346 16.6603L12.4346 21.0483L14.9346 16.6603ZM20.9346 11.1603C20.9346 16.6833 16.4576 21.1603 10.9346 21.1603C5.41157 21.1603 0.93457 16.6833 0.93457 11.1603C0.93457 5.63728 5.41157 1.16028 10.9346 1.16028C16.4576 1.16028 20.9346 5.63728 20.9346 11.1603Z" stroke="#F03838" stroke-width="1.5" stroke-linecap="round" stroke-linejoin="round"/>
</svg>
