<svg width="22" height="22" viewBox="0 0 22 22" fill="none" xmlns="http://www.w3.org/2000/svg">
<path d="M10.9346 7L14.7386 9.764L10.9346 7ZM10.9346 7L7.13057 9.764L10.9346 7ZM10.9346 7V4V7ZM14.7386 9.764L13.2856 14.236L14.7386 9.764ZM14.7386 9.764L17.4346 8.5L14.7386 9.764ZM13.2856 14.236H8.58457H13.2856ZM13.2866 14.236L14.9346 16.5L13.2866 14.236ZM8.58357 14.236L7.13057 9.764L8.58357 14.236ZM8.58357 14.236L6.93457 16.5L8.58357 14.236ZM7.13057 9.764L4.43457 8.5L7.13057 9.764ZM4.43457 8.5L0.98457 12L4.43457 8.5ZM4.43457 8.5L3.43457 4.385L4.43457 8.5ZM17.4346 8.5L20.8846 12L17.4346 8.5ZM17.4346 8.5L18.4346 4.385L17.4346 8.5ZM10.9346 4L7.55857 1.584L10.9346 4ZM10.9346 4L14.3106 1.584L10.9346 4ZM6.93457 16.5L2.27257 16L6.93457 16.5ZM6.93457 16.5L9.43457 20.888L6.93457 16.5ZM14.9346 16.5L19.5966 16L14.9346 16.5ZM14.9346 16.5L12.4346 20.888L14.9346 16.5ZM20.9346 11C20.9346 16.523 16.4576 21 10.9346 21C5.41157 21 0.93457 16.523 0.93457 11C0.93457 5.477 5.41157 1 10.9346 1C16.4576 1 20.9346 5.477 20.9346 11Z" stroke="#F03838" stroke-width="1.5" stroke-linecap="round" stroke-linejoin="round"/>
</svg>
