<svg width="22" height="22" viewBox="0 0 22 22" fill="none" xmlns="http://www.w3.org/2000/svg">
<path d="M10.9346 7.00006L14.7386 9.76406L10.9346 7.00006ZM10.9346 7.00006L7.13057 9.76406L10.9346 7.00006ZM10.9346 7.00006V4.00006V7.00006ZM14.7386 9.76406L13.2856 14.2361L14.7386 9.76406ZM14.7386 9.76406L17.4346 8.50006L14.7386 9.76406ZM13.2856 14.2361H8.58457H13.2856ZM13.2866 14.2361L14.9346 16.5001L13.2866 14.2361ZM8.58357 14.2361L7.13057 9.76406L8.58357 14.2361ZM8.58357 14.2361L6.93457 16.5001L8.58357 14.2361ZM7.13057 9.76406L4.43457 8.50006L7.13057 9.76406ZM4.43457 8.50006L0.98457 12.0001L4.43457 8.50006ZM4.43457 8.50006L3.43457 4.38506L4.43457 8.50006ZM17.4346 8.50006L20.8846 12.0001L17.4346 8.50006ZM17.4346 8.50006L18.4346 4.38506L17.4346 8.50006ZM10.9346 4.00006L7.55857 1.58406L10.9346 4.00006ZM10.9346 4.00006L14.3106 1.58406L10.9346 4.00006ZM6.93457 16.5001L2.27257 16.0001L6.93457 16.5001ZM6.93457 16.5001L9.43457 20.8881L6.93457 16.5001ZM14.9346 16.5001L19.5966 16.0001L14.9346 16.5001ZM14.9346 16.5001L12.4346 20.8881L14.9346 16.5001ZM20.9346 11.0001C20.9346 16.5231 16.4576 21.0001 10.9346 21.0001C5.41157 21.0001 0.93457 16.5231 0.93457 11.0001C0.93457 5.47706 5.41157 1.00006 10.9346 1.00006C16.4576 1.00006 20.9346 5.47706 20.9346 11.0001Z" stroke="#F03838" stroke-width="1.5" stroke-linecap="round" stroke-linejoin="round"/>
</svg>
