<svg width="22" height="22" viewBox="0 0 22 22" fill="none" xmlns="http://www.w3.org/2000/svg">
<path d="M10.9346 7.00024L14.7386 9.76424L10.9346 7.00024ZM10.9346 7.00024L7.13057 9.76424L10.9346 7.00024ZM10.9346 7.00024V4.00024V7.00024ZM14.7386 9.76424L13.2856 14.2362L14.7386 9.76424ZM14.7386 9.76424L17.4346 8.50024L14.7386 9.76424ZM13.2856 14.2362H8.58457H13.2856ZM13.2866 14.2362L14.9346 16.5002L13.2866 14.2362ZM8.58357 14.2362L7.13057 9.76424L8.58357 14.2362ZM8.58357 14.2362L6.93457 16.5002L8.58357 14.2362ZM7.13057 9.76424L4.43457 8.50024L7.13057 9.76424ZM4.43457 8.50024L0.98457 12.0002L4.43457 8.50024ZM4.43457 8.50024L3.43457 4.38524L4.43457 8.50024ZM17.4346 8.50024L20.8846 12.0002L17.4346 8.50024ZM17.4346 8.50024L18.4346 4.38524L17.4346 8.50024ZM10.9346 4.00024L7.55857 1.58424L10.9346 4.00024ZM10.9346 4.00024L14.3106 1.58424L10.9346 4.00024ZM6.93457 16.5002L2.27257 16.0002L6.93457 16.5002ZM6.93457 16.5002L9.43457 20.8882L6.93457 16.5002ZM14.9346 16.5002L19.5966 16.0002L14.9346 16.5002ZM14.9346 16.5002L12.4346 20.8882L14.9346 16.5002ZM20.9346 11.0002C20.9346 16.5232 16.4576 21.0002 10.9346 21.0002C5.41157 21.0002 0.93457 16.5232 0.93457 11.0002C0.93457 5.47724 5.41157 1.00024 10.9346 1.00024C16.4576 1.00024 20.9346 5.47724 20.9346 11.0002Z" stroke="#F03838" stroke-width="1.5" stroke-linecap="round" stroke-linejoin="round"/>
</svg>
