<svg width="22" height="22" viewBox="0 0 22 22" fill="none" xmlns="http://www.w3.org/2000/svg">
<path d="M10.9346 6.99991L14.7386 9.76391L10.9346 6.99991ZM10.9346 6.99991L7.13057 9.76391L10.9346 6.99991ZM10.9346 6.99991V3.99991V6.99991ZM14.7386 9.76391L13.2856 14.2359L14.7386 9.76391ZM14.7386 9.76391L17.4346 8.49991L14.7386 9.76391ZM13.2856 14.2359H8.58457H13.2856ZM13.2866 14.2359L14.9346 16.4999L13.2866 14.2359ZM8.58357 14.2359L7.13057 9.76391L8.58357 14.2359ZM8.58357 14.2359L6.93457 16.4999L8.58357 14.2359ZM7.13057 9.76391L4.43457 8.49991L7.13057 9.76391ZM4.43457 8.49991L0.98457 11.9999L4.43457 8.49991ZM4.43457 8.49991L3.43457 4.38491L4.43457 8.49991ZM17.4346 8.49991L20.8846 11.9999L17.4346 8.49991ZM17.4346 8.49991L18.4346 4.38491L17.4346 8.49991ZM10.9346 3.99991L7.55857 1.58391L10.9346 3.99991ZM10.9346 3.99991L14.3106 1.58391L10.9346 3.99991ZM6.93457 16.4999L2.27257 15.9999L6.93457 16.4999ZM6.93457 16.4999L9.43457 20.8879L6.93457 16.4999ZM14.9346 16.4999L19.5966 15.9999L14.9346 16.4999ZM14.9346 16.4999L12.4346 20.8879L14.9346 16.4999ZM20.9346 10.9999C20.9346 16.5229 16.4576 20.9999 10.9346 20.9999C5.41157 20.9999 0.93457 16.5229 0.93457 10.9999C0.93457 5.47691 5.41157 0.999908 10.9346 0.999908C16.4576 0.999908 20.9346 5.47691 20.9346 10.9999Z" stroke="#F03838" stroke-width="1.5" stroke-linecap="round" stroke-linejoin="round"/>
</svg>
