<svg width="22" height="22" viewBox="0 0 22 22" fill="none" xmlns="http://www.w3.org/2000/svg">
<path d="M10.9346 7.16016L14.7386 9.92416L10.9346 7.16016ZM10.9346 7.16016L7.13057 9.92416L10.9346 7.16016ZM10.9346 7.16016V4.16016V7.16016ZM14.7386 9.92416L13.2856 14.3962L14.7386 9.92416ZM14.7386 9.92416L17.4346 8.66016L14.7386 9.92416ZM13.2856 14.3962H8.58457H13.2856ZM13.2866 14.3962L14.9346 16.6602L13.2866 14.3962ZM8.58357 14.3962L7.13057 9.92416L8.58357 14.3962ZM8.58357 14.3962L6.93457 16.6602L8.58357 14.3962ZM7.13057 9.92416L4.43457 8.66016L7.13057 9.92416ZM4.43457 8.66016L0.98457 12.1602L4.43457 8.66016ZM4.43457 8.66016L3.43457 4.54516L4.43457 8.66016ZM17.4346 8.66016L20.8846 12.1602L17.4346 8.66016ZM17.4346 8.66016L18.4346 4.54516L17.4346 8.66016ZM10.9346 4.16016L7.55857 1.74416L10.9346 4.16016ZM10.9346 4.16016L14.3106 1.74416L10.9346 4.16016ZM6.93457 16.6602L2.27257 16.1602L6.93457 16.6602ZM6.93457 16.6602L9.43457 21.0482L6.93457 16.6602ZM14.9346 16.6602L19.5966 16.1602L14.9346 16.6602ZM14.9346 16.6602L12.4346 21.0482L14.9346 16.6602ZM20.9346 11.1602C20.9346 16.6832 16.4576 21.1602 10.9346 21.1602C5.41157 21.1602 0.93457 16.6832 0.93457 11.1602C0.93457 5.63716 5.41157 1.16016 10.9346 1.16016C16.4576 1.16016 20.9346 5.63716 20.9346 11.1602Z" stroke="#F03838" stroke-width="1.5" stroke-linecap="round" stroke-linejoin="round"/>
</svg>
